<svg xmlns="http://www.w3.org/2000/svg" xmlns:xlink="http://www.w3.org/1999/xlink" viewBox="0 0 1600 550"><defs><clipPath id="a"><rect x="107" y="74.55" width="1388.18" height="401.45" style="fill:none"/></clipPath></defs><title>dia2</title><rect width="1600" height="550" style="fill:#caffe1"/><g style="clip-path:url(#a)"><path d="M127.83,188.73s-18.23,0-18.23,18.23V232s0,18.23,18.23,18.23H417.61s18.23,0,18.23-18.23V207s0-18.23-18.23-18.23Z" style="fill:#c9ffe0"/><path d="M127.83,188.73s-18.23,0-18.23,18.23V232s0,18.23,18.23,18.23H417.61s18.23,0,18.23-18.23V207s0-18.23-18.23-18.23Z" style="fill:none;stroke:#1d1d1b;stroke-width:5.199999809265137px"/><path d="M605.08,188.73s-18.23,0-18.23,18.23V232s0,18.23,18.23,18.23H836.49s18.22,0,18.22-18.23V207s0-18.23-18.22-18.23Z" style="fill:#c9ffe0"/><path d="M605.08,188.73s-18.23,0-18.23,18.23V232s0,18.23,18.23,18.23H836.49s18.22,0,18.22-18.23V207s0-18.23-18.22-18.23Z" style="fill:none;stroke:#1d1d1b;stroke-width:5.199999809265137px"/><path d="M1067.86,188.73s-18.23,0-18.23,18.23V232s0,18.23,18.23,18.23h190s18.23,0,18.23-18.23V207s0-18.23-18.23-18.23Z" style="fill:#c9ffe0"/><path d="M1067.86,188.73s-18.23,0-18.23,18.23V232s0,18.23,18.23,18.23h190s18.23,0,18.23-18.23V207s0-18.23-18.23-18.23Z" style="fill:none;stroke:#1d1d1b;stroke-width:5.199999809265137px"/><path d="M1067.86,77.15s-18.23,0-18.23,18.23v25.06s0,18.23,18.23,18.23h103.45s18.22,0,18.22-18.23V95.38s0-18.23-18.22-18.23Z" style="fill:#c9ffe0"/><path d="M1067.86,77.15s-18.23,0-18.23,18.23v25.06s0,18.23,18.23,18.23h103.45s18.22,0,18.22-18.23V95.38s0-18.23-18.22-18.23Z" style="fill:none;stroke:#1d1d1b;stroke-width:5.199999809265137px"/><path d="M1067.86,299.43s-18.23,0-18.23,18.23v25.06s0,18.23,18.23,18.23h358.65s18.22,0,18.22-18.23V317.66s0-18.23-18.22-18.23Z" style="fill:#c9ffe0"/><path d="M1067.86,299.43s-18.23,0-18.23,18.23v25.06s0,18.23,18.23,18.23h358.65s18.22,0,18.22-18.23V317.66s0-18.23-18.22-18.23Z" style="fill:none;stroke:#1d1d1b;stroke-width:5.199999809265137px"/><path d="M1067.86,411.88s-18.23,0-18.23,18.23v25.06s0,18.23,18.23,18.23h130.85s18.23,0,18.23-18.23V430.11s0-18.23-18.23-18.23Z" style="fill:#c9ffe0"/><path d="M1067.86,411.88s-18.23,0-18.23,18.23v25.06s0,18.23,18.23,18.23h130.85s18.23,0,18.23-18.23V430.11s0-18.23-18.23-18.23Z" style="fill:none;stroke:#1d1d1b;stroke-width:5.199999809265137px"/><path d="M605.08,300.06s-18.23,0-18.23,18.22v25.07s0,18.23,18.23,18.23H825.83s18.23,0,18.23-18.23V318.28s0-18.22-18.23-18.22Z" style="fill:#c9ffe0"/><path d="M605.08,300.06s-18.23,0-18.23,18.22v25.07s0,18.23,18.23,18.23H825.83s18.23,0,18.23-18.23V318.28s0-18.22-18.23-18.22Z" style="fill:none;stroke:#1d1d1b;stroke-width:5.199999809265137px"/><path d="M126.37,187.27s-18.23,0-18.23,18.23v25.06s0,18.23,18.23,18.23h292.7s18.23,0,18.23-18.23V205.5s0-18.23-18.23-18.23Z" style="fill:#c9ffe0"/><path d="M126.37,187.27s-18.23,0-18.23,18.23v25.06s0,18.23,18.23,18.23h292.7s18.23,0,18.23-18.23V205.5s0-18.23-18.23-18.23Z" style="fill:none;stroke:#1d1d1b;stroke-width:2.2790000438690186px"/><path d="M603.62,298.92s-18.23,0-18.23,18.23v25.06s0,18.23,18.23,18.23h224s18.23,0,18.23-18.23V317.15s0-18.23-18.23-18.23Z" style="fill:#c9ffe0"/><path d="M603.62,298.92s-18.23,0-18.23,18.23v25.06s0,18.23,18.23,18.23h224s18.23,0,18.23-18.23V317.15s0-18.23-18.23-18.23Z" style="fill:none;stroke:#1d1d1b;stroke-width:2.2790000438690186px"/><path d="M603.62,187.27s-18.23,0-18.23,18.23v25.06s0,18.23,18.23,18.23H838.31s18.23,0,18.23-18.23V205.5s0-18.23-18.23-18.23Z" style="fill:#c9ffe0"/><path d="M603.62,187.27s-18.23,0-18.23,18.23v25.06s0,18.23,18.23,18.23H838.31s18.23,0,18.23-18.23V205.5s0-18.23-18.23-18.23Z" style="fill:none;stroke:#1d1d1b;stroke-width:2.2790000438690186px"/><path d="M1066.4,75.69s-18.23,0-18.23,18.23V119s0,18.23,18.23,18.23h106.37s18.23,0,18.23-18.23V93.92s0-18.23-18.23-18.23Z" style="fill:#c9ffe0"/><path d="M1066.4,75.69s-18.23,0-18.23,18.23V119s0,18.23,18.23,18.23h106.37s18.23,0,18.23-18.23V93.92s0-18.23-18.23-18.23Z" style="fill:none;stroke:#1d1d1b;stroke-width:2.2790000438690186px"/><path d="M1066.4,410.42s-18.23,0-18.23,18.23v25.06s0,18.23,18.23,18.23h133.77s18.23,0,18.23-18.23V428.65s0-18.23-18.23-18.23Z" style="fill:#c9ffe0"/><path d="M1066.4,410.42s-18.23,0-18.23,18.23v25.06s0,18.23,18.23,18.23h133.77s18.23,0,18.23-18.23V428.65s0-18.23-18.23-18.23Z" style="fill:none;stroke:#1d1d1b;stroke-width:2.2790000438690186px"/><path d="M1066.4,298s-18.23,0-18.23,18.22v25.07s0,18.23,18.23,18.23H1428s18.23,0,18.23-18.23V316.19S1446.2,298,1428,298Z" style="fill:#c9ffe0"/><path d="M1066.4,298s-18.23,0-18.23,18.22v25.07s0,18.23,18.23,18.23H1428s18.23,0,18.23-18.23V316.19S1446.2,298,1428,298Z" style="fill:none;stroke:#1d1d1b;stroke-width:2.2790000438690186px"/><path d="M1066.4,187.27s-18.23,0-18.23,18.23v25.06s0,18.23,18.23,18.23h192.95s18.23,0,18.23-18.23V205.5s0-18.23-18.23-18.23Z" style="fill:#c9ffe0"/><path d="M1066.4,187.27s-18.23,0-18.23,18.23v25.06s0,18.23,18.23,18.23h192.95s18.23,0,18.23-18.23V205.5s0-18.23-18.23-18.23Z" style="fill:none;stroke:#1d1d1b;stroke-width:2.2790000438690186px"/></g><path d="M144.83,225.08c3.41,0,4.21-2.93,4.21-5.88V207.58h3.47v11.75c0,5.55-2.74,8.51-7.68,8.51-5.58,0-7.66-3-7.66-8.72V207.58h3.47V219.2C140.64,221.93,141.35,225.08,144.83,225.08Z" style="fill:#1d1d1b"/><path d="M163.66,213a4.16,4.16,0,0,1,4,2,8.5,8.5,0,0,1,.85,4.34v8.1H165.2v-7.88c0-2.1-.31-4-2.58-4-2.07,0-3.19,1.37-3.19,4.73v7.14h-3.29V213.32h3v1.83A5.47,5.47,0,0,1,163.66,213Z" style="fill:#1d1d1b"/><path d="M175.37,227.43h-3.28V207.58h3.28Z" style="fill:#1d1d1b"/><path d="M192.32,220.37c0,4.46-2.74,7.44-7.08,7.44s-7-3-7-7.44,2.73-7.43,7-7.43S192.32,215.92,192.32,220.37Zm-10.66,0c0,3,1.28,4.92,3.58,4.92s3.66-1.88,3.66-4.92-1.34-4.92-3.64-4.92S181.66,217.34,181.66,220.37Z" style="fill:#1d1d1b"/><path d="M201.07,227.84c-4.21,0-6.76-3-6.76-7.47s2.57-7.46,6.76-7.46c3.74,0,6,2.1,6.21,5.3h-3.4c-.21-1.77-1.2-2.76-2.84-2.76-2.1,0-3.33,1.92-3.33,4.87s1.28,5,3.33,5c1.64,0,2.68-1,2.93-2.84h3.33C207.06,225.84,204.76,227.84,201.07,227.84Z" style="fill:#1d1d1b"/><path d="M213.24,219.17l4.78-5.85h3.91l-5.41,6.31,6,7.8H218.4l-5.16-7v7H210V207.58h3.28Z" style="fill:#1d1d1b"/><path d="M232.76,209.82v3.5h2.79v2.51h-2.79v6.65c0,1.75.38,2.54,1.69,2.54a4.7,4.7,0,0,0,1.12-.11v2.52a7.88,7.88,0,0,1-2.1.24c-2.82,0-4-1.34-4-4.54v-7.3h-2.27v-2.51h2.27v-3.5Z" style="fill:#1d1d1b"/><path d="M241.34,215.07a4.84,4.84,0,0,1,4.24-2,4.59,4.59,0,0,1,4,1.92c.69,1,.79,2.3.79,4.37v8.1h-3.28v-7.88c0-2.1-.3-4-2.57-4-2.08,0-3.2,1.37-3.2,4.73v7.14h-3.28V207.58h3.28Z" style="fill:#1d1d1b"/><path d="M260,212.94a5.8,5.8,0,0,1,5.39,2.89,11.09,11.09,0,0,1,1.12,5.5h-10c.08,2.41,1.26,4.07,3.56,4.07a2.87,2.87,0,0,0,3-2.18h3.47c-.77,3.09-3.06,4.59-6.48,4.59-4.57,0-6.92-2.87-6.92-7.49C253.1,216.08,255.75,212.94,260,212.94Zm-.17,2.37c-1.83,0-3.22,1.21-3.41,3.61h6.75C263,216.52,261.63,215.31,259.85,215.31Z" style="fill:#1d1d1b"/><path d="M282.3,227.7a5.24,5.24,0,0,1-4.34-2.13v1.86h-3.07V207.58h3.28V215a5,5,0,0,1,4.19-1.92c3.61,0,5.88,2.79,5.88,7.31S285.78,227.7,282.3,227.7Zm-.84-12.14c-2.08,0-3.37,1.94-3.37,4.79s1.34,4.81,3.42,4.81,3.36-1.86,3.36-4.81S283.62,215.56,281.46,215.56Z" style="fill:#1d1d1b"/><path d="M304.31,220.37c0,4.46-2.73,7.44-7.08,7.44s-7-3-7-7.44,2.74-7.43,7-7.43S304.31,215.92,304.31,220.37Zm-10.66,0c0,3,1.29,4.92,3.58,4.92s3.67-1.88,3.67-4.92-1.34-4.92-3.64-4.92S293.65,217.34,293.65,220.37Z" style="fill:#1d1d1b"/><path d="M320.36,220.37c0,4.46-2.73,7.44-7.08,7.44s-7-3-7-7.44,2.74-7.43,7-7.43S320.36,215.92,320.36,220.37Zm-10.66,0c0,3,1.29,4.92,3.58,4.92s3.67-1.88,3.67-4.92-1.34-4.92-3.64-4.92S309.7,217.34,309.7,220.37Z" style="fill:#1d1d1b"/><path d="M327,209.82v3.5h2.79v2.51H327v6.65c0,1.75.38,2.54,1.69,2.54a4.7,4.7,0,0,0,1.12-.11v2.52a7.88,7.88,0,0,1-2.1.24c-2.82,0-4-1.34-4-4.54v-7.3h-2.27v-2.51h2.27v-3.5Z" style="fill:#1d1d1b"/><path d="M335.59,227.43h-3.28V207.58h3.28Z" style="fill:#1d1d1b"/><path d="M352.55,220.37c0,4.46-2.74,7.44-7.09,7.44s-7-3-7-7.44,2.74-7.43,7-7.43S352.55,215.92,352.55,220.37Zm-10.67,0c0,3,1.29,4.92,3.58,4.92s3.67-1.88,3.67-4.92-1.34-4.92-3.64-4.92S341.88,217.34,341.88,220.37Z" style="fill:#1d1d1b"/><path d="M364.08,225.6a5.49,5.49,0,0,1-4.73,2.1c-3.14,0-4.89-1.56-4.89-4.18,0-4.51,5.66-4.54,9.24-5v-.6c0-1.75-.82-2.68-2.57-2.68s-2.76.85-2.79,2.38H355c.11-2.95,2.46-4.7,6.15-4.7,4.49,0,5.77,2.32,5.77,6.12V223a27.26,27.26,0,0,0,.3,4.43h-3A17.58,17.58,0,0,1,364.08,225.6Zm-6.23-2.14c0,1.21.82,2,2.35,2,2.05,0,3.5-1,3.5-4.05v-.6C361.24,221.14,357.85,221.06,357.85,223.46Z" style="fill:#1d1d1b"/><path d="M375.54,213a4.77,4.77,0,0,1,4.13,1.89v-7.35H383v19.85h-3.09v-1.89a5.17,5.17,0,0,1-4.32,2.16c-3.61,0-6-2.68-6-7.35C369.58,215.89,371.93,213,375.54,213Zm.77,12.12c2.07,0,3.41-1.78,3.41-4.81s-1.28-4.79-3.36-4.79-3.39,1.83-3.39,4.79S374.23,225.16,376.31,225.16Z" style="fill:#1d1d1b"/><path d="M392.74,212.94a5.77,5.77,0,0,1,5.38,2.89,11,11,0,0,1,1.13,5.5h-10c.08,2.41,1.26,4.07,3.56,4.07a2.87,2.87,0,0,0,3-2.18h3.47c-.77,3.09-3.06,4.59-6.48,4.59-4.57,0-6.92-2.87-6.92-7.49C385.82,216.08,388.47,212.94,392.74,212.94Zm-.17,2.37c-1.83,0-3.22,1.21-3.41,3.61h6.75C395.72,216.52,394.35,215.31,392.57,215.31Z" style="fill:#1d1d1b"/><path d="M405.23,215.42a4.17,4.17,0,0,1,3.75-2.24,7.48,7.48,0,0,1,1.56.14v2.84a6.69,6.69,0,0,0-1.42-.13c-2.71,0-3.69,1.8-3.69,5.22v6.18h-3.29V213.32h3.09Z" style="fill:#1d1d1b"/><path d="M624.12,227.62c-5.39,0-8.94-3.72-8.94-10.17,0-6,3.63-10.5,9-10.5,4.57,0,7.77,2.81,8.07,7.08h-3.55c-.31-2.63-2-4.32-4.54-4.32-3.28,0-5.42,3.09-5.42,7.6s2.14,7.55,5.39,7.55c2.62,0,4.26-1.73,4.62-4.46h3.64A7.85,7.85,0,0,1,624.12,227.62Z" style="fill:#1d1d1b"/><path d="M639.62,227.48a4.59,4.59,0,0,1-4-1.91c-.68-1-.82-2.41-.82-4.46v-8h3.25V221c0,2.08.3,4,2.6,4A2.71,2.71,0,0,0,643,223.9a6.11,6.11,0,0,0,.87-3.64V213.1h3.28v14.11h-3.06v-1.83A5.39,5.39,0,0,1,639.62,227.48Z" style="fill:#1d1d1b"/><path d="M656.25,225.24c1.55,0,2.57-.66,2.57-1.75,0-1.42-1.56-1.78-3.39-2.21-2.41-.58-5.25-1.21-5.25-4.3,0-2.57,2.27-4.26,5.87-4.26,3.75,0,5.86,1.61,5.86,4.7h-3.26c-.08-1.67-.93-2.35-2.7-2.35-1.45,0-2.38.63-2.38,1.64,0,1.5,2.07,1.89,4.18,2.41s4.46,1.39,4.46,4.1-2.3,4.37-6,4.37c-4,0-6.26-1.69-6.34-4.89h3.36C653.24,224.39,654.25,225.24,656.25,225.24Z" style="fill:#1d1d1b"/><path d="M668.82,209.6v3.5h2.79v2.52h-2.79v6.64c0,1.75.39,2.54,1.7,2.54a4.7,4.7,0,0,0,1.12-.11v2.52a8,8,0,0,1-2.1.25c-2.82,0-4-1.34-4-4.54v-7.3h-2.27V213.1h2.27v-3.5Z" style="fill:#1d1d1b"/><path d="M687.23,220.15c0,4.46-2.74,7.44-7.09,7.44s-7-3-7-7.44,2.74-7.43,7-7.43S687.23,215.7,687.23,220.15Zm-10.67,0c0,3,1.29,4.93,3.58,4.93s3.67-1.89,3.67-4.93-1.34-4.92-3.64-4.92S676.56,217.12,676.56,220.15Z" style="fill:#1d1d1b"/><path d="M693,215a5.07,5.07,0,0,1,4.35-2.16,3.89,3.89,0,0,1,4,2.38,5.15,5.15,0,0,1,4.81-2.38,4.25,4.25,0,0,1,3.37,1.25,6.5,6.5,0,0,1,1.2,4.3v8.83h-3.28v-8.29c0-1.86-.44-3.58-2.38-3.58-2.35,0-3,2.24-3,4.92v7h-3.28v-8.29c0-1.86-.49-3.58-2.43-3.58-2.33,0-3,2.24-3,4.92v7H690.1V213.1h2.95Z" style="fill:#1d1d1b"/><path d="M722.91,215.21a4.13,4.13,0,0,1,3.74-2.25,7.42,7.42,0,0,1,1.56.14v2.84a6.63,6.63,0,0,0-1.42-.13c-2.71,0-3.69,1.8-3.69,5.22v6.18h-3.28V213.1h3.09Z" style="fill:#1d1d1b"/><path d="M736.22,212.72a5.8,5.8,0,0,1,5.39,2.9,10.91,10.91,0,0,1,1.12,5.49h-10c.08,2.41,1.25,4.08,3.55,4.08a2.87,2.87,0,0,0,3-2.19h3.47c-.76,3.09-3.06,4.59-6.48,4.59-4.56,0-6.92-2.87-6.92-7.49C729.3,215.86,732,212.72,736.22,212.72Zm-.16,2.38c-1.83,0-3.23,1.2-3.42,3.61h6.75C739.2,216.3,737.84,215.1,736.06,215.1Z" style="fill:#1d1d1b"/><path d="M751.51,227.62c-4.21,0-6.76-3-6.76-7.47s2.57-7.46,6.76-7.46c3.74,0,6,2.1,6.2,5.3h-3.39c-.21-1.77-1.2-2.76-2.84-2.76-2.1,0-3.34,1.92-3.34,4.87s1.29,5,3.34,5c1.64,0,2.68-1,2.93-2.85h3.33C757.5,225.62,755.2,227.62,751.51,227.62Z" style="fill:#1d1d1b"/><path d="M773.57,220.15c0,4.46-2.73,7.44-7.08,7.44s-7-3-7-7.44,2.74-7.43,7-7.43S773.57,215.7,773.57,220.15Zm-10.66,0c0,3,1.28,4.93,3.58,4.93s3.67-1.89,3.67-4.93-1.34-4.92-3.64-4.92S762.91,217.12,762.91,220.15Z" style="fill:#1d1d1b"/><path d="M780.3,220.15c.41,1.4.74,2.77,1.09,4.16h.19c.33-1.39.69-2.76,1.1-4.16l2.19-7.05h3.5l-4.93,14.11h-4l-4.92-14.11h3.64Z" style="fill:#1d1d1b"/><path d="M796.27,212.72a5.78,5.78,0,0,1,5.38,2.9,10.91,10.91,0,0,1,1.13,5.49h-10c.08,2.41,1.26,4.08,3.55,4.08a2.88,2.88,0,0,0,3-2.19h3.47c-.77,3.09-3.06,4.59-6.48,4.59-4.57,0-6.92-2.87-6.92-7.49C789.35,215.86,792,212.72,796.27,212.72Zm-.17,2.38c-1.83,0-3.22,1.2-3.41,3.61h6.75C799.25,216.3,797.88,215.1,796.1,215.1Z" style="fill:#1d1d1b"/><path d="M808.76,215.21a4.16,4.16,0,0,1,3.75-2.25,7.54,7.54,0,0,1,1.56.14v2.84a6.69,6.69,0,0,0-1.42-.13c-2.71,0-3.7,1.8-3.7,5.22v6.18h-3.28V213.1h3.09Z" style="fill:#1d1d1b"/><path d="M817,230.22c1.56,0,2.52-.91,2.74-2.87l-5.09-14.25h3.66l2.08,7.05c.41,1.4.69,2.74,1.1,4.13h.16c.36-1.34.68-2.79,1.09-4.13L825,213.1h3.42l-4.92,13.73c-1.54,4.34-3,6-5.77,6a8.35,8.35,0,0,1-2.11-.16V230A3.88,3.88,0,0,0,817,230.22Z" style="fill:#1d1d1b"/><path d="M1089.08,109c.63,1.83,1,3.44,1.48,5h.19c.33-1.55.82-3.33,1.34-5l3.56-11.13h5.44V117.7h-3.23V107.45c0-2,.06-4.3.14-6.37h-.19c-.33,1.12-3.45,9.78-5.44,16.62h-4c-2.08-6.81-5.14-15.53-5.47-16.62h-.19c.08,1.75.19,4.56.19,6.37V117.7h-3.2V97.85h5.44Z" style="fill:#1d1d1b"/><path d="M1122.77,107.77c0,6.18-3.69,10.34-9.24,10.34s-9.19-4.16-9.19-10.34,3.64-10.33,9.22-10.33S1122.77,101.62,1122.77,107.77Zm-14.87,0c0,4.52,2.21,7.58,5.63,7.58s5.69-3.23,5.69-7.58c0-4.51-2.16-7.57-5.66-7.57S1107.9,103.29,1107.9,107.77Z" style="fill:#1d1d1b"/><path d="M1137.45,98.94c3.07,1.53,4.68,4.46,4.68,8.75a10.57,10.57,0,0,1-2.16,6.78c-1.64,2-4.21,3.23-7.74,3.23H1126V97.85h5.8A12.69,12.69,0,0,1,1137.45,98.94Zm-.87,14.33c1.28-1.18,1.94-3,1.94-5.5,0-2.92-.74-4.89-2.49-6a7.93,7.93,0,0,0-4.37-1h-2.16v14.11h2.13A7.12,7.12,0,0,0,1136.58,113.27Z" style="fill:#1d1d1b"/><path d="M1150.47,115.73c1.56,0,2.57-.65,2.57-1.75,0-1.42-1.56-1.78-3.39-2.21-2.41-.58-5.25-1.21-5.25-4.3,0-2.57,2.27-4.26,5.88-4.26s5.85,1.61,5.85,4.7h-3.25c-.09-1.67-.93-2.35-2.71-2.35-1.45,0-2.38.63-2.38,1.64,0,1.5,2.08,1.89,4.18,2.41s4.46,1.39,4.46,4.1-2.3,4.37-6,4.37c-4,0-6.26-1.69-6.34-4.89h3.36C1147.46,114.88,1148.47,115.73,1150.47,115.73Z" style="fill:#1d1d1b"/><path d="M1076.67,229c-5.39,0-8.94-3.72-8.94-10.18,0-6,3.64-10.5,9-10.5,4.56,0,7.76,2.82,8.06,7.09h-3.55a4.46,4.46,0,0,0-4.54-4.32c-3.28,0-5.42,3.09-5.42,7.6s2.14,7.54,5.39,7.54c2.63,0,4.27-1.72,4.62-4.45h3.64A7.85,7.85,0,0,1,1076.67,229Z" style="fill:#1d1d1b"/><path d="M1092.17,228.85a4.6,4.6,0,0,1-4-1.91c-.68-1-.82-2.41-.82-4.46v-8h3.26v7.9c0,2.08.3,4,2.59,4a2.71,2.71,0,0,0,2.33-1.09,6.11,6.11,0,0,0,.87-3.64v-7.16h3.28v14.11h-3.06v-1.84A5.37,5.37,0,0,1,1092.17,228.85Z" style="fill:#1d1d1b"/><path d="M1108.8,226.61c1.56,0,2.57-.66,2.57-1.75,0-1.42-1.56-1.78-3.39-2.22-2.41-.57-5.25-1.2-5.25-4.29,0-2.57,2.27-4.27,5.88-4.27s5.85,1.62,5.85,4.71h-3.25c-.09-1.67-.93-2.35-2.71-2.35-1.45,0-2.38.62-2.38,1.64,0,1.5,2.08,1.88,4.18,2.4s4.46,1.4,4.46,4.1-2.3,4.38-6,4.38c-4,0-6.26-1.7-6.34-4.9h3.36C1105.79,225.76,1106.8,226.61,1108.8,226.61Z" style="fill:#1d1d1b"/><path d="M1121.38,211v3.5h2.79V217h-2.79v6.65c0,1.75.38,2.54,1.69,2.54a4.7,4.7,0,0,0,1.12-.11v2.52a7.92,7.92,0,0,1-2.1.24c-2.82,0-4-1.34-4-4.54V217h-2.26v-2.51h2.26V211Z" style="fill:#1d1d1b"/><path d="M1139.78,221.52c0,4.46-2.74,7.44-7.08,7.44s-7-3-7-7.44,2.73-7.44,7-7.44S1139.78,217.06,1139.78,221.52Zm-10.67,0c0,3,1.29,4.92,3.59,4.92s3.66-1.88,3.66-4.92-1.34-4.92-3.64-4.92S1129.11,218.49,1129.11,221.52Z" style="fill:#1d1d1b"/><path d="M1145.57,216.35a5.07,5.07,0,0,1,4.35-2.16,3.91,3.91,0,0,1,4,2.38,5.19,5.19,0,0,1,4.82-2.38,4.21,4.21,0,0,1,3.36,1.26,6.42,6.42,0,0,1,1.2,4.29v8.84H1160v-8.29c0-1.86-.44-3.58-2.38-3.58-2.35,0-3,2.24-3,4.92v7h-3.28v-8.29c0-1.86-.49-3.58-2.43-3.58-2.32,0-3,2.24-3,4.92v7h-3.28V214.47h2.95Z" style="fill:#1d1d1b"/><path d="M1183.42,209.49a4.9,4.9,0,0,1,2.92,4.76,5,5,0,0,1-4.29,4.95v.13c2.24.22,3,1.92,3.64,3.89l1.85,5.36h-3.69l-1.72-5.06c-.87-2.46-1.86-2.87-4.48-2.87h-1.56v7.93h-3.47V208.72h6A12,12,0,0,1,1183.42,209.49Zm-.63,5.14c0-2.32-1.62-3.09-4.1-3.09h-2.6v6.32h2.05C1180.41,217.86,1182.79,217.39,1182.79,214.63Z" style="fill:#1d1d1b"/><path d="M1207.29,218.65c0,6.18-3.69,10.34-9.25,10.34s-9.18-4.16-9.18-10.34,3.63-10.34,9.21-10.34S1207.29,212.5,1207.29,218.65Zm-14.88,0c0,4.51,2.22,7.57,5.63,7.57s5.69-3.22,5.69-7.57c0-4.51-2.16-7.57-5.66-7.57S1192.41,214.17,1192.41,218.65Z" style="fill:#1d1d1b"/><path d="M1219.89,219.85c.63,1.84,1,3.45,1.48,5h.19c.33-1.56.82-3.34,1.34-5l3.55-11.13h5.45v19.86h-3.23V218.32c0-2,0-4.29.14-6.37h-.2c-.32,1.12-3.44,9.79-5.44,16.63h-4c-2.08-6.81-5.14-15.54-5.47-16.63h-.19c.08,1.75.19,4.57.19,6.37v10.26h-3.2V208.72H1216Z" style="fill:#1d1d1b"/><path d="M1241.25,226.61c1.55,0,2.57-.66,2.57-1.75,0-1.42-1.56-1.78-3.39-2.22-2.41-.57-5.25-1.2-5.25-4.29,0-2.57,2.27-4.27,5.87-4.27,3.75,0,5.86,1.62,5.86,4.71h-3.26c-.08-1.67-.93-2.35-2.7-2.35-1.45,0-2.38.62-2.38,1.64,0,1.5,2.07,1.88,4.18,2.4s4.46,1.4,4.46,4.1-2.3,4.38-6,4.38c-4,0-6.26-1.7-6.34-4.9h3.36C1238.24,225.76,1239.25,226.61,1241.25,226.61Z" style="fill:#1d1d1b"/><path d="M1094.31,339.51h-3.67l-1.88-5.36h-7.91l-1.83,5.36h-3.58l7.3-19.86H1087Zm-9.38-17h-.17c-.57,1.86-1.12,3.8-1.8,5.66l-1.15,3.12h6l-1.1-3.12C1086.1,326.3,1085.45,324.36,1084.93,322.5Z" style="fill:#1d1d1b"/><path d="M1103.63,339.78a4.72,4.72,0,0,1-4.13-1.89V345h-3.28V325.4h3.06v1.88a5.26,5.26,0,0,1,4.41-2.16c3.6,0,5.87,2.87,5.87,7.33C1109.56,337.1,1107.13,339.78,1103.63,339.78Zm-.79-12.11c-2.08,0-3.42,1.83-3.42,4.78s1.29,4.81,3.36,4.81,3.42-1.83,3.42-4.81S1104.92,327.67,1102.84,327.67Z" style="fill:#1d1d1b"/><path d="M1119.87,339.78a4.72,4.72,0,0,1-4.13-1.89V345h-3.28V325.4h3.07v1.88a5.24,5.24,0,0,1,4.4-2.16c3.61,0,5.88,2.87,5.88,7.33C1125.81,337.1,1123.37,339.78,1119.87,339.78Zm-.79-12.11c-2.08,0-3.42,1.83-3.42,4.78s1.29,4.81,3.37,4.81,3.41-1.83,3.41-4.81S1121.16,327.67,1119.08,327.67Z" style="fill:#1d1d1b"/><path d="M1134,337.54c1.55,0,2.57-.66,2.57-1.75,0-1.42-1.56-1.78-3.39-2.22-2.41-.57-5.25-1.2-5.25-4.29,0-2.57,2.27-4.27,5.87-4.27,3.75,0,5.86,1.62,5.86,4.71h-3.26c-.08-1.67-.93-2.35-2.7-2.35-1.45,0-2.38.62-2.38,1.64,0,1.5,2.07,1.88,4.18,2.4s4.46,1.4,4.46,4.1-2.3,4.38-6,4.38c-4,0-6.26-1.7-6.34-4.9H1131C1131,336.69,1132,337.54,1134,337.54Z" style="fill:#1d1d1b"/><path d="M1151.56,332.45c.3,1.34.52,2.84.77,4.24h.19c.25-1.4.55-2.87.85-4.27l1.61-7h4.59l1.64,7.05c.31,1.34.52,2.84.83,4.24h.19c.22-1.4.43-2.9.73-4.24l1.51-7.05h3.09l-3.47,14.11h-4.43l-1.56-7.09c-.3-1.42-.58-2.95-.88-4.37H1157c-.3,1.42-.6,2.95-.93,4.4l-1.58,7.06h-4.32l-3.48-14.11h3.37Z" style="fill:#1d1d1b"/><path d="M1173.11,327.15a4.82,4.82,0,0,1,4.24-2,4.59,4.59,0,0,1,4,1.92c.68,1,.79,2.29.79,4.37v8.1h-3.28v-7.88c0-2.1-.3-4-2.57-4-2.08,0-3.2,1.37-3.2,4.73v7.14h-3.28V319.65h3.28Z" style="fill:#1d1d1b"/><path d="M1199,332.45c0,4.46-2.74,7.44-7.08,7.44s-7-3-7-7.44,2.73-7.44,7-7.44S1199,328,1199,332.45Zm-10.67,0c0,3,1.29,4.92,3.59,4.92s3.66-1.88,3.66-4.92-1.34-4.92-3.64-4.92S1188.28,329.42,1188.28,332.45Z" style="fill:#1d1d1b"/><path d="M1214.81,325.12a4.17,4.17,0,0,1,4,1.94,8.56,8.56,0,0,1,.85,4.35v8.1h-3.28v-7.88c0-2.1-.3-4-2.57-4-2.08,0-3.2,1.37-3.2,4.73v7.14h-3.28V325.4h3v1.83A5.46,5.46,0,0,1,1214.81,325.12Z" style="fill:#1d1d1b"/><path d="M1229.24,325a5.8,5.8,0,0,1,5.39,2.9,11,11,0,0,1,1.12,5.5h-10c.09,2.4,1.26,4.07,3.56,4.07a2.87,2.87,0,0,0,3-2.19h3.47c-.76,3.09-3.06,4.6-6.48,4.6-4.56,0-6.92-2.87-6.92-7.49C1222.32,328.16,1225,325,1229.24,325Zm-.16,2.38c-1.83,0-3.23,1.21-3.42,3.61h6.75C1232.22,328.6,1230.86,327.39,1229.08,327.39Z" style="fill:#1d1d1b"/><path d="M1244.66,325a5.78,5.78,0,0,1,5.39,2.9,11,11,0,0,1,1.12,5.5h-10c.08,2.4,1.25,4.07,3.55,4.07a2.87,2.87,0,0,0,3-2.19h3.47c-.76,3.09-3.06,4.6-6.48,4.6-4.56,0-6.91-2.87-6.91-7.49C1237.75,328.16,1240.4,325,1244.66,325Zm-.16,2.38c-1.83,0-3.23,1.21-3.42,3.61h6.76C1247.64,328.6,1246.28,327.39,1244.5,327.39Z" style="fill:#1d1d1b"/><path d="M1259.16,325.12a4.74,4.74,0,0,1,4.12,1.89v-7.36h3.29v19.86h-3.09v-1.89a5.21,5.21,0,0,1-4.32,2.16c-3.61,0-6-2.68-6-7.36C1253.19,328,1255.55,325.12,1259.16,325.12Zm.76,12.12c2.08,0,3.42-1.78,3.42-4.82s-1.29-4.78-3.36-4.78-3.4,1.83-3.4,4.78S1257.84,337.24,1259.92,337.24Z" style="fill:#1d1d1b"/><path d="M1278.9,327.5a4.14,4.14,0,0,1,3.74-2.24,7.42,7.42,0,0,1,1.56.14v2.84a6.68,6.68,0,0,0-1.42-.14c-2.71,0-3.69,1.81-3.69,5.23v6.18h-3.28V325.4h3.09Z" style="fill:#1d1d1b"/><path d="M1299.38,332.45c0,4.46-2.74,7.44-7.09,7.44s-7-3-7-7.44,2.74-7.44,7-7.44S1299.38,328,1299.38,332.45Zm-10.67,0c0,3,1.29,4.92,3.58,4.92s3.67-1.88,3.67-4.92-1.34-4.92-3.64-4.92S1288.71,329.42,1288.71,332.45Z" style="fill:#1d1d1b"/><path d="M1315.43,332.45c0,4.46-2.74,7.44-7.09,7.44s-7-3-7-7.44,2.74-7.44,7-7.44S1315.43,328,1315.43,332.45Zm-10.67,0c0,3,1.29,4.92,3.58,4.92s3.67-1.88,3.67-4.92-1.34-4.92-3.64-4.92S1304.76,329.42,1304.76,332.45Z" style="fill:#1d1d1b"/><path d="M1322.07,321.9v3.5h2.79v2.51h-2.79v6.65c0,1.75.38,2.54,1.7,2.54a4.7,4.7,0,0,0,1.12-.11v2.52a8,8,0,0,1-2.11.24c-2.82,0-4-1.34-4-4.54v-7.3h-2.27V325.4h2.27v-3.5Z" style="fill:#1d1d1b"/><path d="M1341.51,337.67a5.48,5.48,0,0,1-4.73,2.11c-3.14,0-4.89-1.56-4.89-4.18,0-4.52,5.66-4.54,9.24-5V330c0-1.75-.82-2.68-2.57-2.68s-2.76.85-2.79,2.38h-3.36c.1-3,2.46-4.71,6.15-4.71,4.48,0,5.77,2.33,5.77,6.13v3.94a26.32,26.32,0,0,0,.3,4.43h-3A17.57,17.57,0,0,1,1341.51,337.67Zm-6.23-2.13c0,1.2.82,2,2.35,2,2,0,3.5-1,3.5-4.05v-.6C1338.67,333.22,1335.28,333.13,1335.28,335.54Z" style="fill:#1d1d1b"/><path d="M1353.76,339.92c-4.21,0-6.75-3-6.75-7.47s2.57-7.46,6.75-7.46c3.75,0,6,2.1,6.21,5.3h-3.39c-.22-1.78-1.21-2.76-2.85-2.76-2.1,0-3.33,1.91-3.33,4.87s1.28,5,3.33,5c1.64,0,2.68-1,2.93-2.84H1360C1359.75,337.92,1357.45,339.92,1353.76,339.92Z" style="fill:#1d1d1b"/><path d="M1368.53,339.92c-4.22,0-6.76-3-6.76-7.47s2.57-7.46,6.76-7.46c3.74,0,6,2.1,6.2,5.3h-3.39c-.22-1.78-1.2-2.76-2.84-2.76-2.11,0-3.34,1.91-3.34,4.87s1.29,5,3.34,5c1.64,0,2.68-1,2.92-2.84h3.34C1374.51,337.92,1372.22,339.92,1368.53,339.92Z" style="fill:#1d1d1b"/><path d="M1383.43,325a5.78,5.78,0,0,1,5.38,2.9,11,11,0,0,1,1.12,5.5h-10c.08,2.4,1.26,4.07,3.55,4.07a2.86,2.86,0,0,0,3-2.19h3.48c-.77,3.09-3.07,4.6-6.48,4.6-4.57,0-6.92-2.87-6.92-7.49C1376.51,328.16,1379.16,325,1383.43,325Zm-.17,2.38c-1.83,0-3.22,1.21-3.42,3.61h6.76C1386.41,328.6,1385,327.39,1383.26,327.39Z" style="fill:#1d1d1b"/><path d="M1398.16,337.54c1.56,0,2.57-.66,2.57-1.75,0-1.42-1.55-1.78-3.39-2.22-2.4-.57-5.25-1.2-5.25-4.29,0-2.57,2.27-4.27,5.88-4.27s5.85,1.62,5.85,4.71h-3.25c-.08-1.67-.93-2.35-2.71-2.35-1.45,0-2.38.62-2.38,1.64,0,1.5,2.08,1.88,4.19,2.4s4.45,1.4,4.45,4.1-2.29,4.38-6,4.38c-4,0-6.26-1.7-6.35-4.9h3.37C1395.16,336.69,1396.17,337.54,1398.16,337.54Z" style="fill:#1d1d1b"/><path d="M1412.22,337.54c1.56,0,2.57-.66,2.57-1.75,0-1.42-1.56-1.78-3.39-2.22-2.41-.57-5.25-1.2-5.25-4.29,0-2.57,2.27-4.27,5.88-4.27s5.85,1.62,5.85,4.71h-3.26c-.08-1.67-.92-2.35-2.7-2.35-1.45,0-2.38.62-2.38,1.64,0,1.5,2.08,1.88,4.18,2.4s4.46,1.4,4.46,4.1-2.3,4.38-6,4.38c-4,0-6.26-1.7-6.34-4.9h3.36C1409.21,336.69,1410.22,337.54,1412.22,337.54Z" style="fill:#1d1d1b"/><path d="M1082.91,432.85h15.69v2.87h-6.1v17H1089v-17h-6.09Z" style="fill:#1d1d1b"/><path d="M1104,440.35a4.84,4.84,0,0,1,4.24-2,4.59,4.59,0,0,1,4,1.92c.68,1,.79,2.29.79,4.37v8.1h-3.28v-7.88c0-2.11-.3-4-2.57-4-2.08,0-3.2,1.37-3.2,4.73v7.14h-3.28V432.85H1104Z" style="fill:#1d1d1b"/><path d="M1122.72,438.21a5.78,5.78,0,0,1,5.38,2.9,11,11,0,0,1,1.12,5.5h-10c.08,2.4,1.26,4.07,3.55,4.07a2.86,2.86,0,0,0,3-2.19h3.48c-.77,3.09-3.07,4.6-6.48,4.6-4.57,0-6.92-2.87-6.92-7.49C1115.8,441.36,1118.45,438.21,1122.72,438.21Zm-.17,2.38c-1.83,0-3.22,1.2-3.42,3.61h6.76C1125.7,441.79,1124.33,440.59,1122.55,440.59Z" style="fill:#1d1d1b"/><path d="M1135.05,440.48a5.07,5.07,0,0,1,4.35-2.16,3.92,3.92,0,0,1,4,2.38,5.17,5.17,0,0,1,4.81-2.38,4.2,4.2,0,0,1,3.36,1.26,6.4,6.4,0,0,1,1.21,4.29v8.84h-3.28v-8.29c0-1.86-.44-3.58-2.38-3.58-2.36,0-3,2.24-3,4.92v6.95h-3.28v-8.29c0-1.86-.49-3.58-2.44-3.58-2.32,0-3,2.24-3,4.92v6.95h-3.28V438.6h3Z" style="fill:#1d1d1b"/><path d="M1162.39,438.21a5.8,5.8,0,0,1,5.39,2.9,11.09,11.09,0,0,1,1.12,5.5h-10c.09,2.4,1.26,4.07,3.56,4.07a2.87,2.87,0,0,0,3-2.19h3.47c-.76,3.09-3.06,4.6-6.48,4.6-4.57,0-6.92-2.87-6.92-7.49C1155.47,441.36,1158.12,438.21,1162.39,438.21Zm-.16,2.38c-1.84,0-3.23,1.2-3.42,3.61h6.75C1165.37,441.79,1164,440.59,1162.23,440.59Z" style="fill:#1d1d1b"/><path d="M1177.13,450.74c1.56,0,2.57-.66,2.57-1.75,0-1.43-1.56-1.78-3.39-2.22-2.41-.57-5.25-1.2-5.25-4.29,0-2.57,2.27-4.27,5.88-4.27s5.85,1.62,5.85,4.71h-3.26c-.08-1.67-.93-2.36-2.7-2.36-1.45,0-2.38.63-2.38,1.65,0,1.5,2.08,1.88,4.18,2.4s4.46,1.4,4.46,4.1-2.3,4.38-6,4.38c-4,0-6.26-1.7-6.34-4.9h3.36C1174.12,449.89,1175.13,450.74,1177.13,450.74Z" style="fill:#1d1d1b"/><path d="M627,322.06a4.89,4.89,0,0,1,2.93,4.76,5,5,0,0,1-4.3,4.95v.13c2.25.22,3,1.92,3.64,3.89l1.86,5.36h-3.69l-1.72-5.06c-.88-2.46-1.86-2.87-4.49-2.87h-1.56v7.93h-3.47V321.29h6A11.93,11.93,0,0,1,627,322.06Zm-.63,5.14c0-2.32-1.61-3.09-4.1-3.09h-2.6v6.32h2.05C624,330.43,626.36,330,626.36,327.2Z" style="fill:#1d1d1b"/><path d="M646.38,334.09c0,4.46-2.74,7.44-7.09,7.44s-7-3-7-7.44,2.74-7.44,7-7.44S646.38,329.63,646.38,334.09Zm-10.67,0c0,3,1.29,4.92,3.58,4.92s3.67-1.88,3.67-4.92-1.34-4.92-3.64-4.92S635.71,331.06,635.71,334.09Z" style="fill:#1d1d1b"/><path d="M662.43,334.09c0,4.46-2.74,7.44-7.09,7.44s-7-3-7-7.44,2.74-7.44,7-7.44S662.43,329.63,662.43,334.09Zm-10.67,0c0,3,1.29,4.92,3.58,4.92s3.67-1.88,3.67-4.92-1.34-4.92-3.64-4.92S651.76,331.06,651.76,334.09Z" style="fill:#1d1d1b"/><path d="M669.07,323.54V327h2.79v2.51h-2.79v6.65c0,1.75.38,2.54,1.69,2.54a4.74,4.74,0,0,0,1.13-.11v2.52a8,8,0,0,1-2.11.24c-2.82,0-4-1.34-4-4.54v-7.3h-2.27V327h2.27v-3.5Z" style="fill:#1d1d1b"/><path d="M687.25,341.42a4.72,4.72,0,0,1-4.13-1.89v7.11h-3.28V327h3.06v1.88a5.27,5.27,0,0,1,4.41-2.16c3.61,0,5.88,2.87,5.88,7.33C693.19,338.74,690.75,341.42,687.25,341.42Zm-.79-12.11c-2.08,0-3.42,1.83-3.42,4.78s1.29,4.81,3.36,4.81,3.42-1.83,3.42-4.81S688.54,329.31,686.46,329.31Z" style="fill:#1d1d1b"/><path d="M702.1,326.65a5.81,5.81,0,0,1,5.39,2.9,11.09,11.09,0,0,1,1.12,5.5h-10c.08,2.41,1.26,4.07,3.56,4.07a2.88,2.88,0,0,0,3-2.18h3.47c-.77,3.09-3.06,4.59-6.48,4.59-4.57,0-6.92-2.87-6.92-7.49C695.18,329.8,697.83,326.65,702.1,326.65Zm-.16,2.38c-1.84,0-3.23,1.21-3.42,3.61h6.75C705.08,330.24,703.71,329,701.94,329Z" style="fill:#1d1d1b"/><path d="M714.59,329.14a4.17,4.17,0,0,1,3.75-2.24,7.48,7.48,0,0,1,1.56.14v2.84a6.68,6.68,0,0,0-1.42-.14c-2.71,0-3.69,1.81-3.69,5.23v6.18H711.5V327h3.09Z" style="fill:#1d1d1b"/><path d="M725.07,328.92a5,5,0,0,1,4.34-2.16,3.93,3.93,0,0,1,4,2.38,5.17,5.17,0,0,1,4.81-2.38,4.21,4.21,0,0,1,3.36,1.26,6.44,6.44,0,0,1,1.21,4.29v8.84H739.5v-8.29c0-1.86-.43-3.58-2.38-3.58-2.35,0-3,2.24-3,4.92v6.95h-3.28v-8.29c0-1.86-.5-3.58-2.44-3.58-2.32,0-3,2.24-3,4.92v6.95h-3.28V327h3Z" style="fill:#1d1d1b"/><path d="M749.68,324.6h-3.29v-3.31h3.29Zm0,16.55h-3.29V327h3.29Z" style="fill:#1d1d1b"/><path d="M758.78,339.18c1.56,0,2.57-.66,2.57-1.75,0-1.42-1.56-1.78-3.39-2.22-2.41-.57-5.25-1.2-5.25-4.29,0-2.57,2.27-4.27,5.88-4.27s5.85,1.62,5.85,4.71h-3.25c-.09-1.67-.93-2.35-2.71-2.35-1.45,0-2.38.62-2.38,1.64,0,1.5,2.08,1.88,4.18,2.4s4.46,1.4,4.46,4.1-2.3,4.38-6,4.38c-4,0-6.26-1.7-6.34-4.9h3.36C755.77,338.33,756.78,339.18,758.78,339.18Z" style="fill:#1d1d1b"/><path d="M772.83,339.18c1.56,0,2.57-.66,2.57-1.75,0-1.42-1.55-1.78-3.39-2.22-2.4-.57-5.25-1.2-5.25-4.29,0-2.57,2.27-4.27,5.88-4.27s5.85,1.62,5.85,4.71h-3.25c-.08-1.67-.93-2.35-2.71-2.35-1.45,0-2.38.62-2.38,1.64,0,1.5,2.08,1.88,4.19,2.4s4.45,1.4,4.45,4.1-2.29,4.38-6,4.38c-4,0-6.27-1.7-6.35-4.9h3.37C769.83,338.33,770.84,339.18,772.83,339.18Z" style="fill:#1d1d1b"/><path d="M784.84,324.6h-3.28v-3.31h3.28Zm0,16.55h-3.28V327h3.28Z" style="fill:#1d1d1b"/><path d="M801.79,334.09c0,4.46-2.73,7.44-7.08,7.44s-7-3-7-7.44,2.73-7.44,7-7.44S801.79,329.63,801.79,334.09Zm-10.66,0c0,3,1.28,4.92,3.58,4.92s3.66-1.88,3.66-4.92-1.34-4.92-3.63-4.92S791.13,331.06,791.13,334.09Z" style="fill:#1d1d1b"/><path d="M812.18,326.76a4.13,4.13,0,0,1,4,1.95,8.5,8.5,0,0,1,.85,4.34v8.1h-3.28v-7.88c0-2.1-.3-4-2.57-4-2.08,0-3.2,1.37-3.2,4.73v7.14h-3.28V327h3v1.83A5.47,5.47,0,0,1,812.18,326.76Z" style="fill:#1d1d1b"/><line x1="845.93" y1="329.94" x2="1048.57" y2="329.94" style="fill:none;stroke:#1d1d1b;stroke-width:2.2790000438690186px"/><line x1="856.27" y1="218.36" x2="1047.87" y2="218.36" style="fill:none;stroke:#1d1d1b;stroke-width:2.2790000438690186px"/><line x1="856.27" y1="218.36" x2="1048.35" y2="104.77" style="fill:none;stroke:#1d1d1b;stroke-width:2.2790000438690186px"/><line x1="845.93" y1="329.94" x2="1048.51" y2="442.32" style="fill:none;stroke:#1d1d1b;stroke-width:2.2790000438690186px"/><line x1="438.44" y1="218.36" x2="584.25" y2="218.36" style="fill:none;stroke:#1d1d1b;stroke-width:2.2790000438690186px"/><g style="clip-path:url(#a)"><path d="M1203.73,105.11c33.93-3.69,123.37-8.87,140,36.4" style="fill:none;stroke:#1d1d1b;stroke-width:2.2790000438690186px;stroke-dasharray:8.781000137329102,8.781000137329102"/><path d="M1346.86,162.94c-.55,39.63-34.71,52-51,55.61" style="fill:none;stroke:#1d1d1b;stroke-width:2.2790000438690186px;stroke-dasharray:8.652000427246094,8.652000427246094"/><path d="M1291.57,219.39c-2.68.45-4.29.59-4.29.59m57.79-74.28c.35,1.39.64,2.83.86,4.31s.4,2.89.54,4.29m-155.81-47.51s1.56-.25,4.35-.63" style="fill:none;stroke:#1d1d1b;stroke-width:2.2790000438690186px"/><polyline points="1293.06 224.51 1287.28 219.98 1292.23 214.54" style="fill:none;stroke:#1d1d1b;stroke-width:2.2790000438690186px"/><path d="M1232.3,442.94c53.64-.58,249.6-9.19,261.2-104" style="fill:none;stroke:#1d1d1b;stroke-width:2.2790000438690186px;stroke-dasharray:8.982999801635742,8.982999801635742"/><path d="M1493.05,316c-13.4-90.64-158.09-96.28-196.47-96.17" style="fill:none;stroke:#1d1d1b;stroke-width:2.2790000438690186px;stroke-dasharray:9.29800033569336,9.29800033569336"/><path d="M1291.93,219.92c-3,.05-4.64.12-4.64.12m206.62,114.39c.09-1.48.13-3,.13-4.49s0-3.12-.1-4.65M1218.83,442.92s1.58,0,4.49.05" style="fill:none;stroke:#1d1d1b;stroke-width:2.2790000438690186px"/><polyline points="1292.89 224.8 1287.29 220.04 1292.44 214.8" style="fill:none;stroke:#1d1d1b;stroke-width:2.2790000438690186px"/></g></svg>