<svg xmlns="http://www.w3.org/2000/svg" xmlns:xlink="http://www.w3.org/1999/xlink" viewBox="0 0 800 1080"><defs><clipPath id="a"><rect x="62" y="26.24" width="675.19" height="1024.76" style="fill:none"/></clipPath></defs><title>dia3_mobile</title><rect width="800" height="1080" style="fill:#caffe1"/><g style="clip-path:url(#a)"><path d="M254.53,30.59s-17.72,0-17.72,17.72V72.68s0,17.72,17.72,17.72H570s17.72,0,17.72-17.72V48.31s0-17.72-17.72-17.72Z" style="fill:#c9ffe0"/><path d="M254.53,30.59s-17.72,0-17.72,17.72V72.68s0,17.72,17.72,17.72H570s17.72,0,17.72-17.72V48.31s0-17.72-17.72-17.72Z" style="fill:none;stroke:#1d1d1b;stroke-width:6.077000141143799px"/><path d="M253,27.72s-17.72,0-17.72,17.72V69.8s0,17.73,17.72,17.73H572.69s17.73,0,17.73-17.73V45.44s0-17.72-17.73-17.72Z" style="fill:#c9ffe0"/><path d="M253,27.72s-17.72,0-17.72,17.72V69.8s0,17.73,17.72,17.73H572.69s17.73,0,17.73-17.73V45.44s0-17.72-17.73-17.72Z" style="fill:none;stroke:#1d1d1b;stroke-width:2.9539999961853027px"/></g><path d="M270.93,51.66h-9.14V57h8.61v2.8h-8.61v5.6h9.52v2.82H258.42V48.87h12.51Z" style="fill:#1d1d1b"/><path d="M281.38,54.19a4.06,4.06,0,0,1,3.86,1.89,8.39,8.39,0,0,1,.82,4.22v7.87h-3.19V60.52c0-2.05-.29-3.88-2.5-3.88-2,0-3.11,1.32-3.11,4.59v6.94h-3.19V54.46H277v1.78A5.3,5.3,0,0,1,281.38,54.19Z" style="fill:#1d1d1b"/><path d="M298,66.39a5.37,5.37,0,0,1-4.6,2c-3.06,0-4.76-1.52-4.76-4.07,0-4.39,5.5-4.41,9-4.84V59c0-1.7-.79-2.61-2.5-2.61s-2.68.83-2.71,2.32h-3.27c.11-2.88,2.4-4.58,6-4.58,4.36,0,5.61,2.26,5.61,6v3.83a25.76,25.76,0,0,0,.3,4.3h-2.9A14.34,14.34,0,0,1,298,66.39Zm-6.06-2.07c0,1.17.79,1.91,2.28,1.91,2,0,3.4-1,3.4-3.93v-.59C295.23,62.06,291.94,62,291.94,64.32Z" style="fill:#1d1d1b"/><path d="M311.39,68.44a5.08,5.08,0,0,1-4.22-2.08v1.81h-3V48.87h3.19v7.18a4.82,4.82,0,0,1,4.07-1.86c3.5,0,5.71,2.71,5.71,7.1S314.77,68.44,311.39,68.44Zm-.82-11.8c-2,0-3.27,1.88-3.27,4.65S308.6,66,310.62,66s3.27-1.81,3.27-4.68S312.67,56.64,310.57,56.64Z" style="fill:#1d1d1b"/><path d="M323.17,68.17H320V48.87h3.19Z" style="fill:#1d1d1b"/><path d="M332.68,54.08a5.63,5.63,0,0,1,5.24,2.82A10.61,10.61,0,0,1,339,62.24h-9.75c.08,2.34,1.22,4,3.45,4a2.78,2.78,0,0,0,2.9-2.12H339c-.74,3-3,4.46-6.3,4.46-4.43,0-6.72-2.79-6.72-7.28C326,57.14,328.54,54.08,332.68,54.08Zm-.15,2.32c-1.79,0-3.14,1.17-3.33,3.5h6.57C335.58,57.57,334.25,56.4,332.53,56.4Z" style="fill:#1d1d1b"/><path d="M352.09,54.19a4.62,4.62,0,0,1,4,1.83V48.87h3.19v19.3h-3V66.34a5.07,5.07,0,0,1-4.2,2.1c-3.51,0-5.8-2.61-5.8-7.15C346.29,57,348.58,54.19,352.09,54.19ZM352.83,66c2,0,3.33-1.73,3.33-4.68s-1.25-4.65-3.27-4.65-3.3,1.78-3.3,4.65S350.81,66,352.83,66Z" style="fill:#1d1d1b"/><path d="M368.81,54.08a5.64,5.64,0,0,1,5.24,2.82,10.71,10.71,0,0,1,1.09,5.34h-9.76c.08,2.34,1.22,4,3.46,4a2.78,2.78,0,0,0,2.89-2.12h3.38c-.74,3-3,4.46-6.3,4.46-4.44,0-6.73-2.79-6.73-7.28C362.08,57.14,364.66,54.08,368.81,54.08Zm-.16,2.32c-1.78,0-3.14,1.17-3.32,3.5h6.56C371.71,57.57,370.38,56.4,368.65,56.4Z" style="fill:#1d1d1b"/><path d="M381.7,61.31c.4,1.36.72,2.69,1.07,4H383c.32-1.35.67-2.68,1.06-4l2.13-6.85h3.4l-4.78,13.71h-3.88l-4.79-13.71h3.54Z" style="fill:#1d1d1b"/><path d="M397.23,54.08a5.61,5.61,0,0,1,5.23,2.82,10.61,10.61,0,0,1,1.09,5.34H393.8c.08,2.34,1.22,4,3.45,4a2.78,2.78,0,0,0,2.9-2.12h3.38c-.75,3-3,4.46-6.3,4.46-4.44,0-6.73-2.79-6.73-7.28C390.5,57.14,393.08,54.08,397.23,54.08Zm-.16,2.32c-1.78,0-3.14,1.17-3.33,3.5h6.57C400.12,57.57,398.79,56.4,397.07,56.4Z" style="fill:#1d1d1b"/><path d="M409.56,68.17h-3.19V48.87h3.19Z" style="fill:#1d1d1b"/><path d="M426,61.31c0,4.34-2.66,7.23-6.88,7.23s-6.81-2.89-6.81-7.23,2.66-7.23,6.83-7.23S426,57,426,61.31Zm-10.37,0c0,2.9,1.25,4.79,3.49,4.79s3.56-1.84,3.56-4.79-1.3-4.78-3.54-4.78S415.67,58.36,415.67,61.31Z" style="fill:#1d1d1b"/><path d="M436,68.44a4.59,4.59,0,0,1-4-1.84v6.91h-3.19V54.46h3v1.83a5.07,5.07,0,0,1,4.28-2.1c3.51,0,5.71,2.79,5.71,7.12C441.8,65.83,439.44,68.44,436,68.44Zm-.78-11.78c-2,0-3.32,1.78-3.32,4.65S433.19,66,435.21,66s3.32-1.78,3.32-4.68S437.28,56.66,435.26,56.66Z" style="fill:#1d1d1b"/><path d="M450.47,54.08a5.64,5.64,0,0,1,5.24,2.82,10.71,10.71,0,0,1,1.09,5.34H447c.08,2.34,1.22,4,3.46,4a2.78,2.78,0,0,0,2.89-2.12h3.38c-.74,3-3,4.46-6.3,4.46-4.44,0-6.73-2.79-6.73-7.28C443.74,57.14,446.32,54.08,450.47,54.08Zm-.16,2.32c-1.78,0-3.14,1.17-3.32,3.5h6.56C453.37,57.57,452,56.4,450.31,56.4Z" style="fill:#1d1d1b"/><path d="M462.62,56.5a4,4,0,0,1,3.64-2.18,7,7,0,0,1,1.51.14v2.76a6.23,6.23,0,0,0-1.38-.13c-2.63,0-3.59,1.75-3.59,5.07v6h-3.19V54.46h3Z" style="fill:#1d1d1b"/><path d="M487.52,61.31c0,4.34-2.65,7.23-6.88,7.23s-6.8-2.89-6.8-7.23,2.65-7.23,6.83-7.23S487.52,57,487.52,61.31Zm-10.36,0c0,2.9,1.25,4.79,3.48,4.79s3.56-1.84,3.56-4.79-1.3-4.78-3.53-4.78S477.16,58.36,477.16,61.31Z" style="fill:#1d1d1b"/><path d="M497.52,68.44a4.58,4.58,0,0,1-4-1.84v6.91h-3.19V54.46h3v1.83a5.1,5.1,0,0,1,4.28-2.1c3.51,0,5.72,2.79,5.72,7.12C503.29,65.83,500.92,68.44,497.52,68.44Zm-.77-11.78c-2,0-3.32,1.78-3.32,4.65S494.68,66,496.7,66,500,64.21,500,61.31,498.77,56.66,496.75,56.66Z" style="fill:#1d1d1b"/><path d="M509.83,51.05v3.41h2.71V56.9h-2.71v6.46c0,1.7.37,2.47,1.64,2.47a4.83,4.83,0,0,0,1.09-.1v2.44a7.44,7.44,0,0,1-2,.24c-2.74,0-3.88-1.3-3.88-4.41V56.9h-2.21V54.46h2.21V51.05Z" style="fill:#1d1d1b"/><path d="M518.17,52.09H515V48.87h3.19Zm0,16.08H515V54.46h3.19Z" style="fill:#1d1d1b"/><path d="M534.65,61.31c0,4.34-2.65,7.23-6.88,7.23S521,65.65,521,61.31s2.66-7.23,6.84-7.23S534.65,57,534.65,61.31Zm-10.36,0c0,2.9,1.25,4.79,3.48,4.79s3.56-1.84,3.56-4.79-1.3-4.78-3.53-4.78S524.29,58.36,524.29,61.31Z" style="fill:#1d1d1b"/><path d="M544.75,54.19a4,4,0,0,1,3.86,1.89,8.29,8.29,0,0,1,.82,4.22v7.87h-3.19V60.52c0-2.05-.29-3.88-2.49-3.88-2,0-3.12,1.32-3.12,4.59v6.94h-3.18V54.46h2.95v1.78A5.28,5.28,0,0,1,544.75,54.19Z" style="fill:#1d1d1b"/><path d="M558.13,66.26c1.51,0,2.49-.64,2.49-1.7,0-1.39-1.51-1.73-3.29-2.16-2.34-.55-5.11-1.17-5.11-4.17,0-2.5,2.21-4.15,5.72-4.15s5.69,1.57,5.69,4.58h-3.17c-.08-1.63-.9-2.29-2.63-2.29-1.41,0-2.31.61-2.31,1.59,0,1.47,2,1.84,4.07,2.34s4.33,1.36,4.33,4-2.23,4.25-5.82,4.25c-3.91,0-6.09-1.64-6.17-4.75h3.27C555.2,65.43,556.19,66.26,558.13,66.26Z" style="fill:#1d1d1b"/><g style="clip-path:url(#a)"><path d="M265.79,145.28s-17.72,0-17.72,17.72v24.37s0,17.72,17.72,17.72H559.87s17.73,0,17.73-17.72V163s0-17.72-17.73-17.72Z" style="fill:#c9ffe0"/><path d="M265.79,145.28s-17.72,0-17.72,17.72v24.37s0,17.72,17.72,17.72H559.87s17.73,0,17.73-17.72V163s0-17.72-17.73-17.72Z" style="fill:none;stroke:#1d1d1b;stroke-width:6.077000141143799px"/><path d="M264.23,143.72s-17.73,0-17.73,17.72V185.8s0,17.73,17.73,17.73H561.44s17.72,0,17.72-17.73V161.44s0-17.72-17.72-17.72Z" style="fill:#c9ffe0"/><path d="M264.23,143.72s-17.73,0-17.73,17.72V185.8s0,17.73,17.73,17.73H561.44s17.72,0,17.72-17.73V161.44s0-17.72-17.72-17.72Z" style="fill:none;stroke:#1d1d1b;stroke-width:2.9539999961853027px"/></g><path d="M286,167.15h-9.15v5.29h8.61v2.79h-8.61v5.61h9.52v2.82H273.5v-19.3H286Z" style="fill:#1d1d1b"/><path d="M296.46,169.67a4.06,4.06,0,0,1,3.86,1.89,8.33,8.33,0,0,1,.82,4.23v7.87H298V176c0-2.05-.29-3.88-2.5-3.88-2,0-3.11,1.33-3.11,4.6v6.94h-3.19V169.94h3v1.78A5.33,5.33,0,0,1,296.46,169.67Z" style="fill:#1d1d1b"/><path d="M313.08,181.87a5.34,5.34,0,0,1-4.6,2c-3.06,0-4.76-1.51-4.76-4.07,0-4.38,5.5-4.41,9-4.83v-.59c0-1.7-.8-2.6-2.5-2.6s-2.69.82-2.71,2.31h-3.27c.1-2.87,2.39-4.57,6-4.57,4.36,0,5.61,2.26,5.61,6v3.83a25.88,25.88,0,0,0,.29,4.31h-2.9A14.67,14.67,0,0,1,313.08,181.87ZM307,179.8c0,1.17.79,1.91,2.28,1.91,2,0,3.41-1,3.41-3.93v-.58C310.31,177.54,307,177.46,307,179.8Z" style="fill:#1d1d1b"/><path d="M326.47,183.92a5.1,5.1,0,0,1-4.22-2.07v1.81h-3v-19.3h3.19v7.17a4.84,4.84,0,0,1,4.07-1.86c3.51,0,5.71,2.71,5.71,7.1S329.85,183.92,326.47,183.92Zm-.82-11.8c-2,0-3.27,1.89-3.27,4.65s1.3,4.68,3.32,4.68,3.27-1.81,3.27-4.68S327.75,172.12,325.65,172.12Z" style="fill:#1d1d1b"/><path d="M338.25,183.66h-3.19v-19.3h3.19Z" style="fill:#1d1d1b"/><path d="M347.77,169.57a5.61,5.61,0,0,1,5.23,2.81,10.65,10.65,0,0,1,1.09,5.35h-9.75c.08,2.34,1.22,4,3.45,4a2.79,2.79,0,0,0,2.9-2.13h3.38c-.75,3-3,4.47-6.3,4.47-4.44,0-6.73-2.79-6.73-7.29C341,172.62,343.62,169.57,347.77,169.57Zm-.16,2.31c-1.78,0-3.14,1.17-3.32,3.51h6.56C350.66,173.05,349.33,171.88,347.61,171.88Z" style="fill:#1d1d1b"/><path d="M369.72,181.37c3.33,0,4.1-2.84,4.1-5.72V164.36h3.37v11.43c0,5.39-2.65,8.26-7.47,8.26-5.42,0-7.44-3-7.44-8.48V164.36h3.38v11.29C365.66,178.31,366.35,181.37,369.72,181.37Z" style="fill:#1d1d1b"/><path d="M387.64,181.37c2.31,0,3.72-1.06,3.72-2.77,0-2-2.07-2.63-4.41-3.34-3-.93-6.59-1.86-6.59-5.77,0-3.3,2.81-5.53,7.09-5.53s6.92,2.39,7,6.3H391a3.54,3.54,0,0,0-3.73-3.64c-1.8,0-3.4.95-3.4,2.58,0,1.8,1.78,2.57,5.08,3.48,3.08.85,5.95,2.12,5.95,5.5s-2.95,5.87-7.28,5.87c-4.71,0-7.63-2.52-7.63-6.85h3.48A3.79,3.79,0,0,0,387.64,181.37Z" style="fill:#1d1d1b"/><path d="M409.14,165.31a4.47,4.47,0,0,1,2.18,4.07,4.32,4.32,0,0,1-3.58,4.39v.08c2.57.42,4,2,4,4.52a4.67,4.67,0,0,1-2.71,4.49,12.27,12.27,0,0,1-5.31.8h-5.8v-19.3h5.9A11.08,11.08,0,0,1,409.14,165.31Zm-1.11,4.5c0-2.37-1.89-2.71-4.25-2.71h-2.5v5.44h2.39C405.5,172.54,408,172.28,408,169.81Zm.26,8.29c0-2.31-1.62-2.84-4.57-2.84h-2.44v5.68h2.57C406.17,180.94,408.29,180.55,408.29,178.1Z" style="fill:#1d1d1b"/><path d="M424.91,169.67a4.63,4.63,0,0,1,4,1.84v-7.15h3.19v19.3h-3v-1.84a5,5,0,0,1-4.2,2.1c-3.51,0-5.8-2.6-5.8-7.15C419.11,172.44,421.4,169.67,424.91,169.67Zm.74,11.78c2,0,3.32-1.73,3.32-4.68s-1.25-4.65-3.26-4.65-3.3,1.78-3.3,4.65S423.63,181.45,425.65,181.45Z" style="fill:#1d1d1b"/><path d="M441.63,169.57a5.61,5.61,0,0,1,5.23,2.81,10.65,10.65,0,0,1,1.09,5.35H438.2c.08,2.34,1.22,4,3.45,4a2.79,2.79,0,0,0,2.9-2.13h3.38c-.75,3-3,4.47-6.3,4.47-4.44,0-6.73-2.79-6.73-7.29C434.9,172.62,437.48,169.57,441.63,169.57Zm-.16,2.31c-1.78,0-3.14,1.17-3.32,3.51h6.56C444.53,173.05,443.2,171.88,441.47,171.88Z" style="fill:#1d1d1b"/><path d="M458,183.92a5.11,5.11,0,0,1-4.23-2.07v1.81h-3v-19.3H454v7.17a4.84,4.84,0,0,1,4.07-1.86c3.51,0,5.71,2.71,5.71,7.1S461.35,183.92,458,183.92Zm-.83-11.8c-2,0-3.27,1.89-3.27,4.65s1.3,4.68,3.33,4.68,3.26-1.81,3.26-4.68S459.25,172.12,457.15,172.12Z" style="fill:#1d1d1b"/><path d="M471.08,183.92a4.46,4.46,0,0,1-3.88-1.86c-.66-.93-.8-2.34-.8-4.33v-7.79h3.17v7.68c0,2,.29,3.88,2.52,3.88a2.62,2.62,0,0,0,2.26-1.06,5.91,5.91,0,0,0,.85-3.54v-7h3.19v13.72h-3v-1.79A5.2,5.2,0,0,1,471.08,183.92Z" style="fill:#1d1d1b"/><path d="M487,169.67a4.61,4.61,0,0,1,4.2,2.05v-1.78h2.92v11.75c0,4.54-1.3,7.41-6.35,7.41-3.54,0-5.58-1.51-5.88-4.38h3.3c.08,1.35,1,2.1,2.63,2.1,2.13,0,3.22-1.2,3.22-4.2v-1.41a4.94,4.94,0,0,1-4.2,2c-3.27,0-5.58-2.58-5.58-6.65C481.24,172.78,483.52,169.67,487,169.67Zm.74,11.09c1.91,0,3.24-1.65,3.24-4.23s-1.22-4.41-3.24-4.41-3.19,1.86-3.19,4.33C484.53,179.14,485.78,180.76,487.72,180.76Z" style="fill:#1d1d1b"/><path d="M502.66,169.67a4.61,4.61,0,0,1,4.2,2.05v-1.78h2.92v11.75c0,4.54-1.3,7.41-6.35,7.41-3.53,0-5.58-1.51-5.87-4.38h3.29c.08,1.35,1,2.1,2.63,2.1,2.13,0,3.22-1.2,3.22-4.2v-1.41a4.94,4.94,0,0,1-4.2,2c-3.27,0-5.58-2.58-5.58-6.65C496.92,172.78,499.2,169.67,502.66,169.67Zm.74,11.09c1.92,0,3.25-1.65,3.25-4.23s-1.23-4.41-3.25-4.41-3.19,1.86-3.19,4.33C500.21,179.14,501.46,180.76,503.4,180.76Z" style="fill:#1d1d1b"/><path d="M516.62,167.57h-3.19v-3.21h3.19Zm0,16.09h-3.19V169.94h3.19Z" style="fill:#1d1d1b"/><path d="M527.59,169.67a4.06,4.06,0,0,1,3.86,1.89,8.33,8.33,0,0,1,.82,4.23v7.87h-3.19V176c0-2.05-.29-3.88-2.5-3.88-2,0-3.11,1.33-3.11,4.6v6.94h-3.19V169.94h3v1.78A5.33,5.33,0,0,1,527.59,169.67Z" style="fill:#1d1d1b"/><path d="M540.7,169.67a4.61,4.61,0,0,1,4.2,2.05v-1.78h2.92v11.75c0,4.54-1.3,7.41-6.35,7.41-3.54,0-5.58-1.51-5.87-4.38h3.29c.08,1.35,1,2.1,2.63,2.1,2.13,0,3.22-1.2,3.22-4.2v-1.41a4.94,4.94,0,0,1-4.2,2c-3.27,0-5.58-2.58-5.58-6.65C535,172.78,537.24,169.67,540.7,169.67Zm.74,11.09c1.92,0,3.25-1.65,3.25-4.23s-1.23-4.41-3.25-4.41-3.19,1.86-3.19,4.33C538.25,179.14,539.5,180.76,541.44,180.76Z" style="fill:#1d1d1b"/><g style="clip-path:url(#a)"><path d="M197.6,481.29s-17.72,0-17.72,17.72v24.37s0,17.72,17.72,17.72H628.06s17.72,0,17.72-17.72V499s0-17.72-17.72-17.72Z" style="fill:#c9ffe0"/><path d="M197.6,481.29s-17.72,0-17.72,17.72v24.37s0,17.72,17.72,17.72H628.06s17.72,0,17.72-17.72V499s0-17.72-17.72-17.72Z" style="fill:none;stroke:#1d1d1b;stroke-width:6.077000141143799px"/><path d="M196,479.73s-17.72,0-17.72,17.72v24.36s0,17.73,17.72,17.73H629.62s17.72,0,17.72-17.73V497.45s0-17.72-17.72-17.72Z" style="fill:#c9ffe0"/><path d="M196,479.73s-17.72,0-17.72,17.72v24.36s0,17.73,17.72,17.73H629.62s17.72,0,17.72-17.73V497.45s0-17.72-17.72-17.72Z" style="fill:none;stroke:#1d1d1b;stroke-width:2.9539999961853027px"/></g><path d="M219,520.06c-5.24,0-8.7-3.61-8.7-9.88,0-5.88,3.54-10.21,8.75-10.21,4.44,0,7.55,2.74,7.84,6.88h-3.46a4.33,4.33,0,0,0-4.41-4.2c-3.19,0-5.26,3-5.26,7.39s2.07,7.34,5.24,7.34c2.55,0,4.14-1.67,4.49-4.33h3.53A7.62,7.62,0,0,1,219,520.06Z" style="fill:#1d1d1b"/><path d="M242.4,512.81c0,4.33-2.66,7.23-6.88,7.23s-6.81-2.9-6.81-7.23,2.66-7.23,6.83-7.23S242.4,508.48,242.4,512.81Zm-10.37,0c0,2.9,1.25,4.78,3.49,4.78s3.56-1.83,3.56-4.78-1.3-4.79-3.54-4.79S232,509.86,232,512.81Z" style="fill:#1d1d1b"/><path d="M252.5,505.68a4.06,4.06,0,0,1,3.86,1.89,8.44,8.44,0,0,1,.82,4.23v7.87H254V512c0-2.05-.29-3.88-2.5-3.88-2,0-3.11,1.33-3.11,4.6v6.94h-3.19V506h2.95v1.78A5.33,5.33,0,0,1,252.5,505.68Z" style="fill:#1d1d1b"/><path d="M268,505.68a4,4,0,0,1,3.85,1.89,8.32,8.32,0,0,1,.83,4.23v7.87h-3.19V512c0-2.05-.29-3.88-2.5-3.88-2,0-3.11,1.33-3.11,4.6v6.94h-3.19V506h2.95v1.78A5.32,5.32,0,0,1,268,505.68Z" style="fill:#1d1d1b"/><path d="M282,505.58a5.61,5.61,0,0,1,5.24,2.82,10.69,10.69,0,0,1,1.09,5.34h-9.75c.08,2.34,1.22,4,3.45,4a2.79,2.79,0,0,0,2.9-2.13h3.37c-.74,3-3,4.47-6.3,4.47-4.43,0-6.72-2.79-6.72-7.29C275.31,508.63,277.89,505.58,282,505.58Zm-.15,2.31c-1.79,0-3.14,1.17-3.33,3.51h6.57C284.93,509.06,283.6,507.89,281.88,507.89Z" style="fill:#1d1d1b"/><path d="M296.89,520.06c-4.09,0-6.56-2.89-6.56-7.25s2.5-7.26,6.56-7.26c3.65,0,5.85,2.05,6,5.16h-3.3c-.21-1.73-1.17-2.69-2.76-2.69-2.05,0-3.25,1.86-3.25,4.73s1.25,4.84,3.25,4.84c1.59,0,2.6-1,2.84-2.76H303C302.71,518.12,300.48,520.06,296.89,520.06Z" style="fill:#1d1d1b"/><path d="M309.44,502.55V506h2.71v2.45h-2.71v6.45c0,1.71.37,2.48,1.65,2.48a4.48,4.48,0,0,0,1.09-.11v2.45a8,8,0,0,1-2.05.24c-2.74,0-3.88-1.31-3.88-4.42V508.4H304V506h2.21v-3.4Z" style="fill:#1d1d1b"/><path d="M323.42,502.55V506h2.71v2.45h-2.71v6.45c0,1.71.37,2.48,1.65,2.48a4.44,4.44,0,0,0,1.09-.11v2.45a8,8,0,0,1-2.05.24c-2.73,0-3.88-1.31-3.88-4.42V508.4H318V506h2.2v-3.4Z" style="fill:#1d1d1b"/><path d="M331.77,507.65a4.69,4.69,0,0,1,4.12-2,4.48,4.48,0,0,1,3.91,1.86c.66,1,.77,2.24.77,4.26v7.87h-3.19V512c0-2.05-.29-3.88-2.5-3.88-2,0-3.11,1.33-3.11,4.6v6.94h-3.19v-19.3h3.19Z" style="fill:#1d1d1b"/><path d="M349.92,505.58a5.61,5.61,0,0,1,5.24,2.82,10.69,10.69,0,0,1,1.09,5.34H346.5c.08,2.34,1.22,4,3.45,4a2.79,2.79,0,0,0,2.9-2.13h3.37c-.74,3-3,4.47-6.3,4.47-4.43,0-6.72-2.79-6.72-7.29C343.2,508.63,345.78,505.58,349.92,505.58Zm-.15,2.31c-1.79,0-3.14,1.17-3.33,3.51H353C352.82,509.06,351.49,507.89,349.77,507.89Z" style="fill:#1d1d1b"/><path d="M369.33,505.68a4.63,4.63,0,0,1,4,1.84v-7.15h3.19v19.3h-3v-1.84a5,5,0,0,1-4.2,2.1c-3.51,0-5.79-2.6-5.79-7.15C363.54,508.45,365.82,505.68,369.33,505.68Zm.74,11.78c2,0,3.33-1.73,3.33-4.68s-1.25-4.65-3.27-4.65-3.3,1.78-3.3,4.65S368.05,517.46,370.07,517.46Z" style="fill:#1d1d1b"/><path d="M386.05,505.58a5.62,5.62,0,0,1,5.24,2.82,10.69,10.69,0,0,1,1.09,5.34h-9.76c.08,2.34,1.22,4,3.46,4a2.79,2.79,0,0,0,2.89-2.13h3.38c-.74,3-3,4.47-6.3,4.47-4.44,0-6.73-2.79-6.73-7.29C379.32,508.63,381.9,505.58,386.05,505.58Zm-.16,2.31c-1.78,0-3.14,1.17-3.32,3.51h6.56C389,509.06,387.62,507.89,385.89,507.89Z" style="fill:#1d1d1b"/><path d="M398.94,512.81c.4,1.35.72,2.68,1.06,4h.19c.32-1.36.67-2.69,1.06-4l2.13-6.86h3.4L402,519.67h-3.88L393.33,506h3.54Z" style="fill:#1d1d1b"/><path d="M412,503.58h-3.19v-3.21H412Zm0,16.09h-3.19V506H412Z" style="fill:#1d1d1b"/><path d="M421.4,520.06c-4.09,0-6.56-2.89-6.56-7.25s2.5-7.26,6.56-7.26c3.64,0,5.85,2.05,6,5.16h-3.3C423.93,509,423,508,421.38,508c-2.05,0-3.25,1.86-3.25,4.73s1.25,4.84,3.25,4.84c1.59,0,2.6-1,2.84-2.76h3.24C427.22,518.12,425,520.06,421.4,520.06Z" style="fill:#1d1d1b"/><path d="M435.89,505.58a5.62,5.62,0,0,1,5.24,2.82,10.69,10.69,0,0,1,1.09,5.34h-9.76c.08,2.34,1.22,4,3.46,4a2.78,2.78,0,0,0,2.89-2.13h3.38c-.74,3-3,4.47-6.3,4.47-4.44,0-6.72-2.79-6.72-7.29C429.17,508.63,431.74,505.58,435.89,505.58Zm-.16,2.31c-1.78,0-3.14,1.17-3.32,3.51H439C438.79,509.06,437.46,507.89,435.73,507.89Z" style="fill:#1d1d1b"/><path d="M453.86,502.55V506h2.71v2.45h-2.71v6.45c0,1.71.37,2.48,1.65,2.48a4.48,4.48,0,0,0,1.09-.11v2.45a8,8,0,0,1-2.05.24c-2.74,0-3.88-1.31-3.88-4.42V508.4h-2.21V506h2.21v-3.4Z" style="fill:#1d1d1b"/><path d="M471.75,512.81c0,4.33-2.66,7.23-6.88,7.23s-6.81-2.9-6.81-7.23,2.66-7.23,6.83-7.23S471.75,508.48,471.75,512.81Zm-10.37,0c0,2.9,1.25,4.78,3.49,4.78s3.56-1.83,3.56-4.78-1.31-4.79-3.54-4.79S461.38,509.86,461.38,512.81Z" style="fill:#1d1d1b"/><path d="M488.28,517.88a5.32,5.32,0,0,1-4.6,2c-3.05,0-4.75-1.51-4.75-4.06,0-4.39,5.5-4.42,9-4.84v-.59c0-1.7-.8-2.6-2.5-2.6s-2.68.82-2.71,2.31h-3.27c.11-2.87,2.39-4.57,6-4.57,4.36,0,5.61,2.26,5.61,5.95v3.83a25.8,25.8,0,0,0,.29,4.31h-2.89A16.74,16.74,0,0,1,488.28,517.88Zm-6.06-2.07c0,1.17.8,1.92,2.29,1.92,2,0,3.4-1,3.4-3.94v-.58C485.52,513.55,482.22,513.47,482.22,515.81Z" style="fill:#1d1d1b"/><path d="M505.51,520.06c-4.1,0-6.57-2.89-6.57-7.25s2.5-7.26,6.57-7.26c3.64,0,5.85,2.05,6,5.16h-3.29C508,509,507.08,508,505.48,508c-2.05,0-3.24,1.86-3.24,4.73s1.25,4.84,3.24,4.84c1.6,0,2.61-1,2.85-2.76h3.24C511.33,518.12,509.1,520.06,505.51,520.06Z" style="fill:#1d1d1b"/><path d="M527,512.81c0,4.33-2.66,7.23-6.88,7.23s-6.81-2.9-6.81-7.23,2.66-7.23,6.83-7.23S527,508.48,527,512.81Zm-10.37,0c0,2.9,1.25,4.78,3.49,4.78s3.56-1.83,3.56-4.78S522.33,508,520.1,508,516.59,509.86,516.59,512.81Z" style="fill:#1d1d1b"/><path d="M532.6,507.78a4.91,4.91,0,0,1,4.22-2.1A3.79,3.79,0,0,1,540.7,508a5,5,0,0,1,4.68-2.32,4.09,4.09,0,0,1,3.27,1.23,6.25,6.25,0,0,1,1.17,4.17v8.59h-3.19v-8.06c0-1.81-.42-3.48-2.31-3.48-2.29,0-2.93,2.18-2.93,4.78v6.76H538.2v-8.06c0-1.81-.48-3.48-2.36-3.48-2.26,0-2.9,2.18-2.9,4.78v6.76h-3.19V506h2.87Z" style="fill:#1d1d1b"/><path d="M560.53,519.93a4.6,4.6,0,0,1-4-1.83V525h-3.19V506h3v1.83a5.1,5.1,0,0,1,4.28-2.1c3.5,0,5.71,2.8,5.71,7.13C566.3,517.33,563.94,519.93,560.53,519.93Zm-.77-11.77c-2,0-3.32,1.78-3.32,4.65s1.25,4.68,3.27,4.68,3.32-1.78,3.32-4.68S561.78,508.16,559.76,508.16Z" style="fill:#1d1d1b"/><path d="M573.64,519.93a4.46,4.46,0,0,1-3.88-1.86c-.67-.93-.8-2.34-.8-4.33V506h3.16v7.68c0,2,.3,3.88,2.53,3.88a2.62,2.62,0,0,0,2.26-1.06,5.89,5.89,0,0,0,.85-3.54v-7H581v13.72h-3v-1.79A5.21,5.21,0,0,1,573.64,519.93Z" style="fill:#1d1d1b"/><path d="M588.52,502.55V506h2.71v2.45h-2.71v6.45c0,1.71.38,2.48,1.65,2.48a4.44,4.44,0,0,0,1.09-.11v2.45a8,8,0,0,1-2,.24c-2.73,0-3.88-1.31-3.88-4.42V508.4h-2.2V506h2.2v-3.4Z" style="fill:#1d1d1b"/><path d="M599.45,505.58a5.62,5.62,0,0,1,5.24,2.82,10.69,10.69,0,0,1,1.09,5.34H596c.08,2.34,1.22,4,3.46,4a2.79,2.79,0,0,0,2.89-2.13h3.38c-.75,3-3,4.47-6.3,4.47-4.44,0-6.73-2.79-6.73-7.29C592.72,508.63,595.3,505.58,599.45,505.58Zm-.16,2.31c-1.78,0-3.14,1.17-3.32,3.51h6.56C602.35,509.06,601,507.89,599.29,507.89Z" style="fill:#1d1d1b"/><path d="M611.6,508a4,4,0,0,1,3.64-2.18,7,7,0,0,1,1.51.13v2.76a6.89,6.89,0,0,0-1.38-.13c-2.63,0-3.59,1.76-3.59,5.08v6h-3.19V506h3Z" style="fill:#1d1d1b"/><g style="clip-path:url(#a)"><path d="M223.93,592.85s-17.73,0-17.73,17.73v24.36s0,17.72,17.73,17.72H602.44s17.72,0,17.72-17.72V610.58s0-17.73-17.72-17.73Z" style="fill:#c9ffe0"/><path d="M223.93,592.85s-17.73,0-17.73,17.73v24.36s0,17.72,17.73,17.72H602.44s17.72,0,17.72-17.72V610.58s0-17.73-17.72-17.73Z" style="fill:none;stroke:#1d1d1b;stroke-width:6.077000141143799px"/><path d="M222.36,591.29s-17.72,0-17.72,17.72v24.37s0,17.72,17.72,17.72H604s17.72,0,17.72-17.72V609s0-17.72-17.72-17.72Z" style="fill:#c9ffe0"/><path d="M222.36,591.29s-17.72,0-17.72,17.72v24.37s0,17.72,17.72,17.72H604s17.72,0,17.72-17.72V609s0-17.72-17.72-17.72Z" style="fill:none;stroke:#1d1d1b;stroke-width:2.9539999961853027px"/></g><path d="M246.47,622c0,6-3.59,10-9,10s-8.93-4-8.93-10,3.53-10.05,8.95-10.05S246.47,616,246.47,622ZM232,622c0,4.38,2.15,7.36,5.48,7.36S243,626.18,243,622c0-4.39-2.1-7.37-5.51-7.37S232,617.6,232,622Z" style="fill:#1d1d1b"/><path d="M256.49,631.87a4.6,4.6,0,0,1-4-1.83V637h-3.19V617.89h3v1.83a5.1,5.1,0,0,1,4.28-2.1c3.5,0,5.71,2.79,5.71,7.13C262.26,629.26,259.9,631.87,256.49,631.87Zm-.77-11.78c-2,0-3.32,1.79-3.32,4.66s1.25,4.67,3.27,4.67,3.32-1.78,3.32-4.67S257.74,620.09,255.72,620.09Z" style="fill:#1d1d1b"/><path d="M270.93,617.52a5.61,5.61,0,0,1,5.23,2.81,10.62,10.62,0,0,1,1.09,5.35H267.5c.08,2.33,1.22,4,3.45,4a2.79,2.79,0,0,0,2.9-2.13h3.38c-.75,3-3,4.47-6.3,4.47-4.44,0-6.73-2.8-6.73-7.29C264.2,620.57,266.78,617.52,270.93,617.52Zm-.16,2.31c-1.78,0-3.14,1.17-3.32,3.51H274C273.82,621,272.5,619.83,270.77,619.83Z" style="fill:#1d1d1b"/><path d="M287.38,617.62a4.06,4.06,0,0,1,3.86,1.89,8.41,8.41,0,0,1,.82,4.23v7.86h-3.19V624c0-2.05-.29-3.88-2.5-3.88-2,0-3.11,1.33-3.11,4.6v6.93h-3.19V617.89H283v1.78A5.33,5.33,0,0,1,287.38,617.62Z" style="fill:#1d1d1b"/><path d="M316.67,631.6h-3.56l-1.83-5.21H303.6l-1.78,5.21h-3.49l7.1-19.29h4.09Zm-9.11-16.53h-.16c-.56,1.81-1.09,3.69-1.76,5.5l-1.11,3h5.85l-1.07-3C308.7,618.76,308.06,616.88,307.56,615.07Z" style="fill:#1d1d1b"/><path d="M329.89,613.37c3,1.49,4.54,4.33,4.54,8.51a10.3,10.3,0,0,1-2.1,6.59c-1.59,1.94-4.09,3.13-7.52,3.13h-6V612.31h5.63A12.22,12.22,0,0,1,329.89,613.37ZM329,627.3c1.25-1.15,1.88-2.87,1.88-5.34,0-2.85-.71-4.76-2.42-5.85a7.63,7.63,0,0,0-4.25-1h-2.1v13.71h2.07A7,7,0,0,0,329,627.3Z" style="fill:#1d1d1b"/><path d="M348.84,613.26a4.47,4.47,0,0,1,2.18,4.07,4.32,4.32,0,0,1-3.59,4.39v.07c2.58.43,4,2,4,4.52a4.69,4.69,0,0,1-2.71,4.5,12.36,12.36,0,0,1-5.32.79H337.6V612.31h5.9A11,11,0,0,1,348.84,613.26Zm-1.12,4.49c0-2.36-1.88-2.71-4.25-2.71H341v5.45h2.39C345.2,620.49,347.72,620.23,347.72,617.75Zm.27,8.3c0-2.31-1.62-2.85-4.57-2.85H341v5.69h2.58C345.86,628.89,348,628.49,348,626.05Z" style="fill:#1d1d1b"/><path d="M358.3,617.89h2.21V617c0-3,.74-4.86,4.28-4.86a5.42,5.42,0,0,1,1.62.18v2.45a4.32,4.32,0,0,0-1-.08c-1.38,0-1.75.8-1.75,2.5v.69h2.71v2.44H363.7V631.6h-3.19V620.33H358.3Z" style="fill:#1d1d1b"/><path d="M371.57,619.93a4,4,0,0,1,3.64-2.18,7,7,0,0,1,1.51.14v2.76a6.89,6.89,0,0,0-1.38-.13c-2.63,0-3.59,1.75-3.59,5.08v6h-3.19V617.89h3Z" style="fill:#1d1d1b"/><path d="M391.45,624.75c0,4.33-2.66,7.23-6.88,7.23s-6.81-2.9-6.81-7.23,2.66-7.23,6.83-7.23S391.45,620.41,391.45,624.75Zm-10.37,0c0,2.89,1.25,4.78,3.49,4.78s3.56-1.83,3.56-4.78-1.31-4.79-3.54-4.79S381.08,621.79,381.08,624.75Z" style="fill:#1d1d1b"/><path d="M397.09,619.72a4.91,4.91,0,0,1,4.22-2.1,3.8,3.8,0,0,1,3.88,2.31,5,5,0,0,1,4.68-2.31,4.12,4.12,0,0,1,3.27,1.22,6.29,6.29,0,0,1,1.17,4.18v8.58h-3.19v-8.05c0-1.81-.42-3.48-2.31-3.48-2.29,0-2.93,2.18-2.93,4.78v6.75h-3.19v-8.05c0-1.81-.48-3.48-2.36-3.48-2.26,0-2.9,2.18-2.9,4.78v6.75h-3.19V617.89h2.87Z" style="fill:#1d1d1b"/><path d="M423.27,634.53c1.51,0,2.44-.88,2.66-2.79L421,617.89h3.56l2,6.86c.4,1.35.67,2.65,1.07,4h.16c.34-1.3.66-2.71,1.06-4l2.15-6.86h3.33l-4.79,13.34c-1.49,4.23-2.9,5.82-5.61,5.82a7.83,7.83,0,0,1-2-.16v-2.58A3.65,3.65,0,0,0,423.27,634.53Z" style="fill:#1d1d1b"/><path d="M448.92,624.75c0,4.33-2.66,7.23-6.88,7.23s-6.81-2.9-6.81-7.23,2.66-7.23,6.83-7.23S448.92,620.41,448.92,624.75Zm-10.37,0c0,2.89,1.25,4.78,3.49,4.78s3.56-1.83,3.56-4.78-1.31-4.79-3.54-4.79S438.55,621.79,438.55,624.75Z" style="fill:#1d1d1b"/><path d="M456.23,631.87a4.46,4.46,0,0,1-3.88-1.86c-.66-.93-.8-2.34-.8-4.33v-7.79h3.16v7.68c0,2,.3,3.88,2.53,3.88a2.64,2.64,0,0,0,2.26-1.06,5.91,5.91,0,0,0,.85-3.54v-7h3.19V631.6h-3v-1.78A5.22,5.22,0,0,1,456.23,631.87Z" style="fill:#1d1d1b"/><path d="M470.21,619.93a4,4,0,0,1,3.64-2.18,7.05,7.05,0,0,1,1.52.14v2.76a7,7,0,0,0-1.38-.13c-2.63,0-3.59,1.75-3.59,5.08v6h-3.19V617.89h3Z" style="fill:#1d1d1b"/><path d="M488,632c-4.09,0-6.56-2.9-6.56-7.25s2.5-7.26,6.56-7.26c3.64,0,5.85,2,6,5.16h-3.3c-.21-1.73-1.17-2.69-2.76-2.69-2.05,0-3.25,1.86-3.25,4.73s1.25,4.84,3.25,4.84c1.59,0,2.6-1,2.84-2.76h3.24C493.84,630.06,491.61,632,488,632Z" style="fill:#1d1d1b"/><path d="M509.47,624.75c0,4.33-2.65,7.23-6.88,7.23s-6.8-2.9-6.8-7.23,2.65-7.23,6.83-7.23S509.47,620.41,509.47,624.75Zm-10.36,0c0,2.89,1.25,4.78,3.48,4.78s3.56-1.83,3.56-4.78-1.3-4.79-3.53-4.79S499.11,621.79,499.11,624.75Z" style="fill:#1d1d1b"/><path d="M515.11,619.72a4.92,4.92,0,0,1,4.23-2.1,3.82,3.82,0,0,1,3.88,2.31,5,5,0,0,1,4.67-2.31,4.09,4.09,0,0,1,3.27,1.22,6.24,6.24,0,0,1,1.17,4.18v8.58h-3.19v-8.05c0-1.81-.42-3.48-2.31-3.48-2.29,0-2.92,2.18-2.92,4.78v6.75h-3.19v-8.05c0-1.81-.48-3.48-2.37-3.48-2.26,0-2.89,2.18-2.89,4.78v6.75h-3.19V617.89h2.87Z" style="fill:#1d1d1b"/><path d="M543.05,631.87a4.61,4.61,0,0,1-4-1.83V637h-3.19V617.89h3v1.83a5.1,5.1,0,0,1,4.28-2.1c3.51,0,5.71,2.79,5.71,7.13C548.81,629.26,546.45,631.87,543.05,631.87Zm-.77-11.78c-2,0-3.33,1.79-3.33,4.66s1.25,4.67,3.27,4.67,3.32-1.78,3.32-4.67S544.3,620.09,542.28,620.09Z" style="fill:#1d1d1b"/><path d="M556.15,631.87a4.46,4.46,0,0,1-3.88-1.86c-.66-.93-.8-2.34-.8-4.33v-7.79h3.17v7.68c0,2,.29,3.88,2.52,3.88a2.63,2.63,0,0,0,2.26-1.06,5.91,5.91,0,0,0,.85-3.54v-7h3.19V631.6h-3v-1.78A5.22,5.22,0,0,1,556.15,631.87Z" style="fill:#1d1d1b"/><path d="M571,614.49v3.4h2.71v2.44H571v6.46c0,1.7.37,2.47,1.65,2.47a4.92,4.92,0,0,0,1.09-.1v2.44a7.56,7.56,0,0,1-2,.24c-2.74,0-3.88-1.3-3.88-4.41v-7.1h-2.21v-2.44h2.21v-3.4Z" style="fill:#1d1d1b"/><path d="M582,617.52a5.63,5.63,0,0,1,5.24,2.81,10.73,10.73,0,0,1,1.09,5.35h-9.76c.08,2.33,1.23,4,3.46,4a2.8,2.8,0,0,0,2.9-2.13h3.37c-.74,3-3,4.47-6.3,4.47-4.44,0-6.72-2.8-6.72-7.29C575.24,620.57,577.82,617.52,582,617.52Zm-.16,2.31c-1.78,0-3.13,1.17-3.32,3.51h6.57C584.86,621,583.53,619.83,581.8,619.83Z" style="fill:#1d1d1b"/><path d="M594.11,619.93a4,4,0,0,1,3.64-2.18,7.05,7.05,0,0,1,1.52.14v2.76a7,7,0,0,0-1.38-.13c-2.64,0-3.59,1.75-3.59,5.08v6h-3.19V617.89h3Z" style="fill:#1d1d1b"/><g style="clip-path:url(#a)"><path d="M213.2,705s-17.72,0-17.72,17.72V747.1s0,17.72,17.72,17.72H609.51s17.72,0,17.72-17.72V722.73s0-17.72-17.72-17.72Z" style="fill:#c9ffe0"/><path d="M213.2,705s-17.72,0-17.72,17.72V747.1s0,17.72,17.72,17.72H609.51s17.72,0,17.72-17.72V722.73s0-17.72-17.72-17.72Z" style="fill:none;stroke:#1d1d1b;stroke-width:6.077000141143799px"/><path d="M211.64,702.86s-17.72,0-17.72,17.72V745s0,17.72,17.72,17.72H611.07s17.72,0,17.72-17.72V720.58s0-17.72-17.72-17.72Z" style="fill:#c9ffe0"/><path d="M211.64,702.86s-17.72,0-17.72,17.72V745s0,17.72,17.72,17.72H611.07s17.72,0,17.72-17.72V720.58s0-17.72-17.72-17.72Z" style="fill:none;stroke:#1d1d1b;stroke-width:2.9539999961853027px"/></g><path d="M220.71,743.2c-4.09,0-6.56-2.9-6.56-7.26s2.49-7.26,6.56-7.26c3.64,0,5.85,2.05,6,5.16h-3.3c-.21-1.73-1.17-2.68-2.76-2.68-2.05,0-3.25,1.86-3.25,4.73s1.25,4.84,3.25,4.84c1.59,0,2.6-1,2.84-2.77h3.24C226.53,741.26,224.3,743.2,220.71,743.2Z" style="fill:#1d1d1b"/><path d="M242.16,735.94c0,4.33-2.66,7.23-6.88,7.23s-6.81-2.9-6.81-7.23,2.66-7.23,6.83-7.23S242.16,731.61,242.16,735.94Zm-10.36,0c0,2.9,1.25,4.79,3.48,4.79s3.56-1.84,3.56-4.79-1.3-4.78-3.54-4.78S231.8,733,231.8,735.94Z" style="fill:#1d1d1b"/><path d="M247.8,730.92a4.92,4.92,0,0,1,4.23-2.1,3.82,3.82,0,0,1,3.88,2.31,5,5,0,0,1,4.67-2.31,4.09,4.09,0,0,1,3.27,1.22,6.23,6.23,0,0,1,1.17,4.17v8.59h-3.19v-8c0-1.81-.42-3.49-2.31-3.49-2.29,0-2.92,2.18-2.92,4.79v6.75h-3.19v-8c0-1.81-.48-3.49-2.37-3.49-2.26,0-2.9,2.18-2.9,4.79v6.75H245V729.08h2.87Z" style="fill:#1d1d1b"/><path d="M271.38,730.92a4.92,4.92,0,0,1,4.22-2.1,3.8,3.8,0,0,1,3.88,2.31,5,5,0,0,1,4.68-2.31,4.12,4.12,0,0,1,3.27,1.22,6.23,6.23,0,0,1,1.17,4.17v8.59h-3.19v-8c0-1.81-.42-3.49-2.31-3.49-2.29,0-2.92,2.18-2.92,4.79v6.75H277v-8c0-1.81-.48-3.49-2.37-3.49-2.26,0-2.9,2.18-2.9,4.79v6.75h-3.19V729.08h2.87Z" style="fill:#1d1d1b"/><path d="M300.54,741a5.36,5.36,0,0,1-4.6,2c-3.06,0-4.76-1.51-4.76-4.06,0-4.39,5.5-4.42,9-4.84v-.58c0-1.71-.8-2.61-2.5-2.61s-2.69.82-2.71,2.31h-3.27c.1-2.87,2.39-4.57,6-4.57,4.36,0,5.61,2.26,5.61,6v3.82a25.8,25.8,0,0,0,.29,4.31h-2.9A14.34,14.34,0,0,1,300.54,741Zm-6.06-2.08c0,1.17.79,1.92,2.28,1.92,2,0,3.41-1,3.41-3.94v-.58C297.77,736.69,294.48,736.61,294.48,738.94Z" style="fill:#1d1d1b"/><path d="M314,728.82a4,4,0,0,1,3.85,1.88,8.35,8.35,0,0,1,.83,4.23v7.87h-3.19v-7.66c0-2-.29-3.88-2.5-3.88-2,0-3.11,1.33-3.11,4.6v6.94h-3.19V729.08h2.95v1.78A5.32,5.32,0,0,1,314,728.82Z" style="fill:#1d1d1b"/><path d="M327.17,728.82a4.63,4.63,0,0,1,4,1.83V723.5h3.19v19.3h-3V741a5,5,0,0,1-4.2,2.1c-3.51,0-5.79-2.6-5.79-7.15C321.38,731.58,323.66,728.82,327.17,728.82Zm.75,11.77c2,0,3.32-1.72,3.32-4.68s-1.25-4.65-3.27-4.65-3.3,1.78-3.3,4.65S325.9,740.59,327.92,740.59Z" style="fill:#1d1d1b"/><path d="M343.71,723.5h1.94l-1.36,4.17h1.36v3.41h-3.57v-3.72Zm4.81,0h1.94l-1.36,4.17h1.36v3.41H346.9v-3.72Z" style="fill:#1d1d1b"/><path d="M368.88,742.8h-3.56l-1.84-5.21H355.8L354,742.8h-3.48l7.09-19.3h4.1Zm-9.12-16.53h-.16c-.56,1.8-1.09,3.69-1.75,5.5l-1.12,3h5.85l-1.06-3C360.9,730,360.27,728.07,359.76,726.27Z" style="fill:#1d1d1b"/><path d="M382.09,724.56c3,1.49,4.55,4.34,4.55,8.51a10.36,10.36,0,0,1-2.1,6.59c-1.6,1.94-4.1,3.14-7.53,3.14h-6V723.5h5.64A12.34,12.34,0,0,1,382.09,724.56Zm-.85,13.93c1.25-1.14,1.89-2.87,1.89-5.34,0-2.84-.72-4.76-2.42-5.85a7.71,7.71,0,0,0-4.25-1h-2.1V740h2.07A6.92,6.92,0,0,0,381.24,738.49Z" style="fill:#1d1d1b"/><path d="M401,724.46a4.45,4.45,0,0,1,2.18,4.07,4.31,4.31,0,0,1-3.59,4.38V733c2.58.43,4,2,4,4.52a4.66,4.66,0,0,1-2.71,4.49,12.17,12.17,0,0,1-5.32.8H389.8V723.5h5.9A11,11,0,0,1,401,724.46ZM399.93,729c0-2.37-1.89-2.71-4.26-2.71h-2.49v5.45h2.39C397.4,731.69,399.93,731.42,399.93,729Zm.26,8.29c0-2.31-1.62-2.84-4.57-2.84h-2.44v5.69h2.57C398.07,740.09,400.19,739.69,400.19,737.24Z" style="fill:#1d1d1b"/><path d="M414.87,731.13a4,4,0,0,1,3.64-2.18,7.7,7.7,0,0,1,1.51.13v2.77a6.27,6.27,0,0,0-1.38-.14c-2.63,0-3.59,1.76-3.59,5.08v6h-3.19V729.08h3Z" style="fill:#1d1d1b"/><path d="M427.81,728.71a5.64,5.64,0,0,1,5.24,2.82,10.71,10.71,0,0,1,1.09,5.34h-9.76c.08,2.34,1.23,4,3.46,4a2.8,2.8,0,0,0,2.9-2.12h3.37c-.74,3-3,4.46-6.3,4.46-4.44,0-6.72-2.79-6.72-7.28C421.09,731.77,423.66,728.71,427.81,728.71Zm-.16,2.31c-1.78,0-3.13,1.17-3.32,3.51h6.56C430.71,732.19,429.38,731,427.65,731Z" style="fill:#1d1d1b"/><path d="M444.16,743.06a5.11,5.11,0,0,1-4.23-2.07v1.81h-3V723.5h3.19v7.18a4.8,4.8,0,0,1,4.06-1.86c3.51,0,5.72,2.71,5.72,7.09S447.54,743.06,444.16,743.06Zm-.83-11.8c-2,0-3.26,1.89-3.26,4.65s1.3,4.68,3.32,4.68,3.27-1.8,3.27-4.68S445.44,731.26,443.33,731.26Z" style="fill:#1d1d1b"/><path d="M465.56,735.94c0,4.33-2.66,7.23-6.89,7.23s-6.8-2.9-6.8-7.23,2.66-7.23,6.83-7.23S465.56,731.61,465.56,735.94Zm-10.37,0c0,2.9,1.25,4.79,3.48,4.79s3.56-1.84,3.56-4.79-1.3-4.78-3.53-4.78S455.19,733,455.19,735.94Z" style="fill:#1d1d1b"/><path d="M481.16,735.94c0,4.33-2.66,7.23-6.88,7.23s-6.81-2.9-6.81-7.23,2.66-7.23,6.83-7.23S481.16,731.61,481.16,735.94Zm-10.37,0c0,2.9,1.25,4.79,3.49,4.79s3.56-1.84,3.56-4.79-1.3-4.78-3.54-4.78S470.79,733,470.79,735.94Z" style="fill:#1d1d1b"/><path d="M487.62,725.68v3.4h2.71v2.45h-2.71V738c0,1.7.37,2.47,1.65,2.47a4.48,4.48,0,0,0,1.09-.11v2.45a7.56,7.56,0,0,1-2.05.24c-2.74,0-3.88-1.3-3.88-4.41v-7.1h-2.21v-2.45h2.21v-3.4Z" style="fill:#1d1d1b"/><path d="M496.74,729.08h2.2v-.87c0-3,.75-4.87,4.28-4.87a5.18,5.18,0,0,1,1.63.19V726a4.36,4.36,0,0,0-1-.08c-1.38,0-1.76.8-1.76,2.5v.69h2.72v2.45h-2.72V742.8h-3.19V731.53h-2.2Z" style="fill:#1d1d1b"/><path d="M515.21,741a5.34,5.34,0,0,1-4.6,2c-3.05,0-4.75-1.51-4.75-4.06,0-4.39,5.5-4.42,9-4.84v-.58c0-1.71-.8-2.61-2.5-2.61s-2.68.82-2.71,2.31h-3.27c.11-2.87,2.39-4.57,6-4.57,4.36,0,5.61,2.26,5.61,6v3.82a25.8,25.8,0,0,0,.29,4.31h-2.89A16.33,16.33,0,0,1,515.21,741Zm-6.06-2.08c0,1.17.8,1.92,2.29,1.92,2,0,3.4-1,3.4-3.94v-.58C512.45,736.69,509.15,736.61,509.15,738.94Z" style="fill:#1d1d1b"/><path d="M526.59,740.88c1.51,0,2.5-.63,2.5-1.7,0-1.38-1.52-1.72-3.3-2.15-2.34-.56-5.1-1.17-5.1-4.17,0-2.5,2.2-4.15,5.71-4.15s5.69,1.57,5.69,4.57h-3.16c-.08-1.62-.9-2.28-2.63-2.28-1.41,0-2.32.61-2.32,1.59,0,1.46,2,1.84,4.07,2.34s4.33,1.36,4.33,4-2.23,4.25-5.82,4.25c-3.9,0-6.08-1.65-6.16-4.76h3.27C523.67,740.06,524.65,740.88,526.59,740.88Z" style="fill:#1d1d1b"/><path d="M538.82,725.68v3.4h2.71v2.45h-2.71V738c0,1.7.37,2.47,1.64,2.47a4.4,4.4,0,0,0,1.09-.11v2.45a7.44,7.44,0,0,1-2,.24c-2.74,0-3.88-1.3-3.88-4.41v-7.1h-2.21v-2.45h2.21v-3.4Z" style="fill:#1d1d1b"/><path d="M551.18,743.06A5.09,5.09,0,0,1,547,741v1.81h-3V723.5h3.19v7.18a4.82,4.82,0,0,1,4.07-1.86c3.51,0,5.72,2.71,5.72,7.09S554.55,743.06,551.18,743.06Zm-.83-11.8c-2,0-3.27,1.89-3.27,4.65s1.31,4.68,3.33,4.68,3.27-1.8,3.27-4.68S552.45,731.26,550.35,731.26Z" style="fill:#1d1d1b"/><path d="M572.58,735.94c0,4.33-2.66,7.23-6.89,7.23s-6.8-2.9-6.8-7.23,2.65-7.23,6.83-7.23S572.58,731.61,572.58,735.94Zm-10.37,0c0,2.9,1.25,4.79,3.48,4.79s3.56-1.84,3.56-4.79-1.3-4.78-3.53-4.78S562.21,733,562.21,735.94Z" style="fill:#1d1d1b"/><path d="M588.18,735.94c0,4.33-2.66,7.23-6.89,7.23s-6.8-2.9-6.8-7.23,2.66-7.23,6.83-7.23S588.18,731.61,588.18,735.94Zm-10.37,0c0,2.9,1.25,4.79,3.48,4.79s3.57-1.84,3.57-4.79-1.31-4.78-3.54-4.78S577.81,733,577.81,735.94Z" style="fill:#1d1d1b"/><path d="M594.64,725.68v3.4h2.71v2.45h-2.71V738c0,1.7.37,2.47,1.65,2.47a4.48,4.48,0,0,0,1.09-.11v2.45a7.56,7.56,0,0,1-2,.24c-2.74,0-3.88-1.3-3.88-4.41v-7.1h-2.21v-2.45h2.21v-3.4Z" style="fill:#1d1d1b"/><path d="M601.18,731.08h-1.94l1.35-4.18h-1.35v-3.4h3.56v3.72Zm4.81,0h-1.94l1.35-4.18h-1.35v-3.4h3.56v3.72Z" style="fill:#1d1d1b"/><g style="clip-path:url(#a)"><path d="M204.93,816.87s-17.72,0-17.72,17.73V859s0,17.72,17.72,17.72H620.42s17.72,0,17.72-17.72V834.6s0-17.73-17.72-17.73Z" style="fill:#c9ffe0"/><path d="M204.93,816.87s-17.72,0-17.72,17.73V859s0,17.72,17.72,17.72H620.42s17.72,0,17.72-17.72V834.6s0-17.73-17.72-17.73Z" style="fill:none;stroke:#1d1d1b;stroke-width:6.077000141143799px"/><path d="M203.37,815.31s-17.72,0-17.72,17.72V857.4s0,17.72,17.72,17.72H622s17.72,0,17.72-17.72V833s0-17.72-17.72-17.72Z" style="fill:#c9ffe0"/><path d="M203.37,815.31s-17.72,0-17.72,17.72V857.4s0,17.72,17.72,17.72H622s17.72,0,17.72-17.72V833s0-17.72-17.72-17.72Z" style="fill:none;stroke:#1d1d1b;stroke-width:2.9539999961853027px"/></g><path d="M216.93,855.65c-4.1,0-6.57-2.9-6.57-7.26s2.5-7.25,6.57-7.25c3.64,0,5.84,2,6,5.15h-3.3a2.66,2.66,0,0,0-2.76-2.68c-2.05,0-3.24,1.86-3.24,4.73s1.25,4.84,3.24,4.84c1.59,0,2.6-1,2.84-2.77H223C222.75,853.71,220.51,855.65,216.93,855.65Z" style="fill:#1d1d1b"/><path d="M238.38,848.39c0,4.34-2.66,7.23-6.89,7.23s-6.8-2.89-6.8-7.23,2.66-7.23,6.83-7.23S238.38,844.06,238.38,848.39Zm-10.37,0c0,2.9,1.25,4.79,3.48,4.79s3.56-1.84,3.56-4.79-1.3-4.78-3.53-4.78S228,845.44,228,848.39Z" style="fill:#1d1d1b"/><path d="M244,843.37a4.94,4.94,0,0,1,4.23-2.1,3.8,3.8,0,0,1,3.88,2.31,5,5,0,0,1,4.68-2.31,4.12,4.12,0,0,1,3.27,1.22,6.29,6.29,0,0,1,1.17,4.18v8.58h-3.19v-8c0-1.81-.43-3.48-2.31-3.48-2.29,0-2.93,2.18-2.93,4.78v6.75h-3.19v-8c0-1.81-.48-3.48-2.36-3.48-2.26,0-2.9,2.18-2.9,4.78v6.75h-3.19V841.54H244Z" style="fill:#1d1d1b"/><path d="M267.59,843.37a4.94,4.94,0,0,1,4.23-2.1,3.82,3.82,0,0,1,3.88,2.31,5,5,0,0,1,4.68-2.31,4.12,4.12,0,0,1,3.27,1.22,6.29,6.29,0,0,1,1.17,4.18v8.58h-3.19v-8c0-1.81-.43-3.48-2.32-3.48-2.28,0-2.92,2.18-2.92,4.78v6.75H273.2v-8c0-1.81-.48-3.48-2.37-3.48-2.26,0-2.89,2.18-2.89,4.78v6.75h-3.19V841.54h2.87Z" style="fill:#1d1d1b"/><path d="M296.75,853.47a5.35,5.35,0,0,1-4.6,2c-3,0-4.76-1.52-4.76-4.07,0-4.38,5.51-4.41,9-4.84V846c0-1.7-.8-2.61-2.5-2.61s-2.68.83-2.71,2.32H287.9c.11-2.87,2.39-4.58,6-4.58,4.36,0,5.61,2.26,5.61,6V851a25.76,25.76,0,0,0,.29,4.3h-2.9A16.58,16.58,0,0,1,296.75,853.47Zm-6.06-2.07c0,1.17.8,1.91,2.29,1.91,2,0,3.4-1,3.4-3.93v-.59C294,849.14,290.69,849.06,290.69,851.4Z" style="fill:#1d1d1b"/><path d="M310.25,841.27a4,4,0,0,1,3.86,1.89,8.29,8.29,0,0,1,.82,4.22v7.87h-3.19V847.6c0-2.05-.29-3.88-2.49-3.88-2,0-3.12,1.32-3.12,4.59v6.94H303V841.54h2.95v1.78A5.31,5.31,0,0,1,310.25,841.27Z" style="fill:#1d1d1b"/><path d="M323.39,841.27a4.62,4.62,0,0,1,4,1.83V836h3.19v19.3h-3v-1.83a5.07,5.07,0,0,1-4.2,2.1c-3.51,0-5.8-2.61-5.8-7.15C317.59,844,319.88,841.27,323.39,841.27Zm.74,11.78c2,0,3.32-1.73,3.32-4.68s-1.25-4.65-3.27-4.65-3.29,1.78-3.29,4.65S322.11,853.05,324.13,853.05Z" style="fill:#1d1d1b"/><path d="M339.92,836h1.94l-1.35,4.18h1.35v3.4H338.3v-3.72Zm4.81,0h1.94l-1.35,4.18h1.35v3.4h-3.56v-3.72Z" style="fill:#1d1d1b"/><path d="M362.41,838.75h-9v5.9h8.37v2.79H353.4v7.81H350V836h12.39Z" style="fill:#1d1d1b"/><path d="M372.94,853.47a5.37,5.37,0,0,1-4.6,2c-3.06,0-4.76-1.52-4.76-4.07,0-4.38,5.5-4.41,9-4.84V846c0-1.7-.79-2.61-2.5-2.61s-2.68.83-2.71,2.32h-3.27c.11-2.87,2.4-4.58,6-4.58,4.36,0,5.61,2.26,5.61,6V851a26.87,26.87,0,0,0,.29,4.3h-2.89A14.34,14.34,0,0,1,372.94,853.47Zm-6.06-2.07c0,1.17.79,1.91,2.28,1.91,2,0,3.4-1,3.4-3.93v-.59C370.17,849.14,366.88,849.06,366.88,851.4Z" style="fill:#1d1d1b"/><path d="M384.31,853.34c1.52,0,2.5-.64,2.5-1.7,0-1.39-1.51-1.73-3.3-2.16-2.33-.55-5.1-1.17-5.1-4.17,0-2.5,2.21-4.15,5.72-4.15s5.68,1.57,5.68,4.58h-3.16c-.08-1.63-.9-2.29-2.63-2.29-1.41,0-2.31.61-2.31,1.59,0,1.47,2,1.84,4.06,2.34s4.34,1.36,4.34,4-2.24,4.25-5.82,4.25c-3.91,0-6.09-1.64-6.17-4.75h3.27C381.39,852.51,382.37,853.34,384.31,853.34Z" style="fill:#1d1d1b"/><path d="M396.54,838.13v3.41h2.71V844h-2.71v6.46c0,1.7.37,2.47,1.65,2.47a4.92,4.92,0,0,0,1.09-.1v2.44a7.56,7.56,0,0,1-2,.24c-2.74,0-3.88-1.3-3.88-4.41V844h-2.21v-2.44h2.21v-3.41Z" style="fill:#1d1d1b"/><path d="M408.9,855.52a5.12,5.12,0,0,1-4.23-2.08v1.81h-3V836h3.19v7.18a4.82,4.82,0,0,1,4.06-1.86c3.51,0,5.72,2.71,5.72,7.1S412.28,855.52,408.9,855.52Zm-.82-11.8c-2,0-3.27,1.88-3.27,4.65s1.3,4.68,3.32,4.68,3.27-1.81,3.27-4.68S410.18,843.72,408.08,843.72Z" style="fill:#1d1d1b"/><path d="M430.3,848.39c0,4.34-2.66,7.23-6.89,7.23s-6.8-2.89-6.8-7.23,2.66-7.23,6.83-7.23S430.3,844.06,430.3,848.39Zm-10.37,0c0,2.9,1.25,4.79,3.48,4.79s3.57-1.84,3.57-4.79-1.31-4.78-3.54-4.78S419.93,845.44,419.93,848.39Z" style="fill:#1d1d1b"/><path d="M445.9,848.39c0,4.34-2.66,7.23-6.88,7.23s-6.81-2.89-6.81-7.23,2.66-7.23,6.83-7.23S445.9,844.06,445.9,848.39Zm-10.36,0c0,2.9,1.25,4.79,3.48,4.79s3.56-1.84,3.56-4.79-1.3-4.78-3.54-4.78S435.54,845.44,435.54,848.39Z" style="fill:#1d1d1b"/><path d="M452.36,838.13v3.41h2.71V844h-2.71v6.46c0,1.7.37,2.47,1.65,2.47a4.92,4.92,0,0,0,1.09-.1v2.44a7.56,7.56,0,0,1-2.05.24c-2.74,0-3.88-1.3-3.88-4.41V844H447v-2.44h2.2v-3.41Z" style="fill:#1d1d1b"/><path d="M480,845.6c0,6-3.59,10-9,10s-8.93-4-8.93-10,3.54-10,9-10S480,839.62,480,845.6Zm-14.46,0c0,4.39,2.15,7.37,5.47,7.37s5.53-3.14,5.53-7.37-2.1-7.36-5.5-7.36S465.55,841.24,465.55,845.6Z" style="fill:#1d1d1b"/><path d="M495.69,838.75h-9.14V844h8.61v2.79h-8.61v5.6h9.51v2.82H483.17V836h12.52Z" style="fill:#1d1d1b"/><path d="M508.29,846.77c.61,1.78,1,3.35,1.43,4.84h.19c.32-1.51.8-3.24,1.3-4.84L514.67,836H520v19.3h-3.14v-10c0-1.91.06-4.17.14-6.19h-.19c-.32,1.09-3.35,9.52-5.29,16.16h-3.86c-2-6.62-5-15.1-5.31-16.16h-.19c.08,1.7.19,4.44.19,6.19v10H499.2V836h5.29Z" style="fill:#1d1d1b"/><path d="M533.7,855.52a4.47,4.47,0,0,1-3.88-1.86c-.66-.93-.79-2.34-.79-4.34v-7.78h3.16v7.68c0,2,.29,3.88,2.52,3.88A2.63,2.63,0,0,0,537,852a5.91,5.91,0,0,0,.85-3.54v-7H541v13.71h-3v-1.78A5.25,5.25,0,0,1,533.7,855.52Z" style="fill:#1d1d1b"/><path d="M552,841.27a4.06,4.06,0,0,1,3.86,1.89,8.39,8.39,0,0,1,.82,4.22v7.87h-3.19V847.6c0-2.05-.29-3.88-2.5-3.88-2,0-3.11,1.32-3.11,4.59v6.94h-3.19V841.54h3v1.78A5.33,5.33,0,0,1,552,841.27Z" style="fill:#1d1d1b"/><path d="M563.37,855.25h-3.19V836h3.19Z" style="fill:#1d1d1b"/><path d="M579.85,848.39c0,4.34-2.66,7.23-6.89,7.23s-6.8-2.89-6.8-7.23,2.66-7.23,6.83-7.23S579.85,844.06,579.85,848.39Zm-10.37,0c0,2.9,1.25,4.79,3.48,4.79s3.57-1.84,3.57-4.79-1.31-4.78-3.54-4.78S569.48,845.44,569.48,848.39Z" style="fill:#1d1d1b"/><path d="M588.36,855.65c-4.1,0-6.57-2.9-6.57-7.26s2.5-7.25,6.57-7.25c3.64,0,5.84,2,6,5.15h-3.3a2.66,2.66,0,0,0-2.76-2.68c-2.05,0-3.24,1.86-3.24,4.73s1.24,4.84,3.24,4.84c1.59,0,2.6-1,2.84-2.77h3.25C594.18,853.71,591.94,855.65,588.36,855.65Z" style="fill:#1d1d1b"/><path d="M600.18,847.22l4.66-5.68h3.8l-5.27,6.14,5.83,7.57h-4l-5-6.8v6.8H597V836h3.19Z" style="fill:#1d1d1b"/><path d="M612.15,843.53h-1.94l1.35-4.17h-1.35V836h3.56v3.73Zm4.81,0H615l1.35-4.17H615V836h3.56v3.73Z" style="fill:#1d1d1b"/><line x1="412.83" y1="90.38" x2="412.83" y2="143.4" style="fill:none;stroke:#1d1d1b;stroke-width:2.9539999961853027px"/><line x1="412.83" y1="208.13" x2="412.83" y2="478.25" style="fill:none;stroke:#1d1d1b;stroke-width:2.9539999961853027px"/><line x1="465.35" y1="205" x2="654.11" y2="361.8" style="fill:none;stroke:#1d1d1b;stroke-width:2.9539999961853027px"/><line x1="412.83" y1="542.44" x2="412.83" y2="591.24" style="fill:none;stroke:#1d1d1b;stroke-width:2.9539999961853027px"/><line x1="412.83" y1="652.58" x2="412.83" y2="701.38" style="fill:none;stroke:#1d1d1b;stroke-width:2.9539999961853027px"/><line x1="412.83" y1="764.74" x2="412.83" y2="813.54" style="fill:none;stroke:#1d1d1b;stroke-width:2.9539999961853027px"/><line x1="412.83" y1="898.41" x2="412.83" y2="988.24" style="fill:none;stroke:#1d1d1b;stroke-width:2.9539999961853027px;stroke-dasharray:12.833000183105469,12.833000183105469"/><polyline points="407.15 904.51 412.83 898.41 418.51 904.51" style="fill:none;stroke:#1d1d1b;stroke-width:2.9539999961853027px"/><g style="clip-path:url(#a)"><path d="M81.2,263s-17.72,0-17.72,17.73v24.36s0,17.72,17.72,17.72H510.27s17.73,0,17.73-17.72V280.71S528,263,510.27,263Z" style="fill:#c9ffe0"/><line x1="99.08" y1="322.79" x2="498.35" y2="322.79" style="fill:none;stroke:#1d1d1b;stroke-width:2.9539999961853027px;stroke-dasharray:11.918999671936035,11.918999671936035"/><line x1="492.4" y1="262.98" x2="93.12" y2="262.98" style="fill:none;stroke:#1d1d1b;stroke-width:2.9539999961853027px;stroke-dasharray:11.918999671936035,11.918999671936035"/><path d="M87.16,263h-6a22,22,0,0,0-6.87,1.36m442.85-.26a20.47,20.47,0,0,0-6.91-1.1h-6M528,286.8v-6.1a22.08,22.08,0,0,0-1.35-6.86m.25,38.14a20.23,20.23,0,0,0,1.1-6.91V299m-23.68,23.81h6a22.11,22.11,0,0,0,6.87-1.35m-442.85.25a20.23,20.23,0,0,0,6.91,1.1h6M63.48,299v6.09a22.16,22.16,0,0,0,1.35,6.87m-.25-38.14a20.17,20.17,0,0,0-1.1,6.9v6.1" style="fill:none;stroke:#1d1d1b;stroke-width:2.9539999961853027px"/></g><path d="M89.23,283.62c.66,1.63,3.59,7.05,4.23,8.67h.13c.64-1.62,3.7-7.07,4.44-8.67h3.59l-6.49,11.46v7.84H91.76v-7.84l-6.44-11.46Z" style="fill:#1d1d1b"/><path d="M113.87,296.06c0,4.34-2.66,7.23-6.88,7.23s-6.81-2.89-6.81-7.23,2.66-7.23,6.83-7.23S113.87,291.73,113.87,296.06Zm-10.37,0c0,2.9,1.25,4.79,3.49,4.79s3.56-1.83,3.56-4.79-1.3-4.78-3.54-4.78S103.5,293.11,103.5,296.06Z" style="fill:#1d1d1b"/><path d="M121.18,303.19a4.47,4.47,0,0,1-3.88-1.86c-.66-.93-.8-2.34-.8-4.33v-7.79h3.17v7.68c0,2,.29,3.88,2.52,3.88a2.63,2.63,0,0,0,2.26-1.06,5.91,5.91,0,0,0,.85-3.54v-7h3.19v13.71h-3v-1.78A5.22,5.22,0,0,1,121.18,303.19Z" style="fill:#1d1d1b"/><path d="M135.16,291.25a4,4,0,0,1,3.65-2.18,7,7,0,0,1,1.51.14V292a7,7,0,0,0-1.38-.13c-2.63,0-3.59,1.75-3.59,5.08v6h-3.19V289.21h3Z" style="fill:#1d1d1b"/><path d="M150.5,296.06c.29,1.31.51,2.77.75,4.13h.18c.24-1.36.53-2.8.83-4.15l1.56-6.83h4.47l1.59,6.85c.3,1.31.51,2.77.8,4.13h.19c.21-1.36.42-2.82.72-4.13l1.46-6.85h3l-3.37,13.71h-4.31L156.85,296c-.29-1.38-.55-2.87-.85-4.25h-.18c-.29,1.38-.59,2.87-.91,4.27l-1.54,6.86h-4.2l-3.37-13.71h3.27Z" style="fill:#1d1d1b"/><path d="M176.58,301.14a5.36,5.36,0,0,1-4.6,2.05c-3.06,0-4.76-1.52-4.76-4.07,0-4.38,5.5-4.41,9-4.84v-.58c0-1.7-.8-2.61-2.5-2.61s-2.69.83-2.71,2.32h-3.27c.1-2.87,2.39-4.58,6-4.58,4.36,0,5.61,2.26,5.61,6v3.83a25.76,25.76,0,0,0,.29,4.3h-2.9A16.58,16.58,0,0,1,176.58,301.14Zm-6.06-2.07c0,1.17.8,1.91,2.28,1.91,2,0,3.41-1,3.41-3.93v-.59C173.81,296.81,170.52,296.73,170.52,299.07Z" style="fill:#1d1d1b"/><path d="M185.78,291.25a4,4,0,0,1,3.64-2.18,7,7,0,0,1,1.51.14V292a6.89,6.89,0,0,0-1.38-.13c-2.63,0-3.59,1.75-3.59,5.08v6h-3.19V289.21h3Z" style="fill:#1d1d1b"/><path d="M196.12,291.25a4,4,0,0,1,3.64-2.18,7,7,0,0,1,1.51.14V292a6.89,6.89,0,0,0-1.38-.13c-2.63,0-3.59,1.75-3.59,5.08v6h-3.19V289.21h3Z" style="fill:#1d1d1b"/><path d="M211.61,301.14a5.35,5.35,0,0,1-4.6,2.05c-3,0-4.75-1.52-4.75-4.07,0-4.38,5.5-4.41,9-4.84v-.58c0-1.7-.8-2.61-2.5-2.61s-2.68.83-2.71,2.32h-3.27c.11-2.87,2.39-4.58,6-4.58,4.36,0,5.61,2.26,5.61,6v3.83a25.76,25.76,0,0,0,.29,4.3h-2.89A16.33,16.33,0,0,1,211.61,301.14Zm-6.06-2.07c0,1.17.8,1.91,2.29,1.91,2,0,3.4-1,3.4-3.93v-.59C208.85,296.81,205.55,296.73,205.55,299.07Z" style="fill:#1d1d1b"/><path d="M225.12,288.94a4,4,0,0,1,3.85,1.89,8.29,8.29,0,0,1,.82,4.22v7.87h-3.18v-7.65c0-2-.3-3.88-2.5-3.88-2,0-3.11,1.33-3.11,4.6v6.93h-3.19V289.21h2.95V291A5.32,5.32,0,0,1,225.12,288.94Z" style="fill:#1d1d1b"/><path d="M237,285.8v3.41h2.71v2.44H237v6.46c0,1.7.37,2.47,1.64,2.47a4.83,4.83,0,0,0,1.09-.1v2.44a7.49,7.49,0,0,1-2,.24c-2.74,0-3.88-1.3-3.88-4.41v-7.1h-2.21v-2.44h2.21V285.8Z" style="fill:#1d1d1b"/><path d="M242.85,305.85c1.51,0,2.44-.88,2.65-2.79l-4.94-13.85h3.56l2,6.85c.4,1.36.67,2.66,1.07,4h.16c.34-1.3.66-2.71,1.06-4l2.15-6.85h3.32l-4.78,13.34c-1.49,4.23-2.9,5.82-5.61,5.82a7.87,7.87,0,0,1-2-.16v-2.58A3.7,3.7,0,0,0,242.85,305.85Z" style="fill:#1d1d1b"/><path d="M263.93,286.84h-3.19v-3.22h3.19Zm0,16.08h-3.19V289.21h3.19Z" style="fill:#1d1d1b"/><path d="M272.78,301c1.51,0,2.5-.64,2.5-1.7,0-1.38-1.52-1.73-3.3-2.16-2.34-.55-5.1-1.16-5.1-4.17,0-2.5,2.2-4.15,5.71-4.15s5.69,1.57,5.69,4.58h-3.16c-.08-1.62-.91-2.29-2.63-2.29-1.41,0-2.32.61-2.32,1.6,0,1.46,2,1.83,4.07,2.33s4.33,1.36,4.33,4-2.23,4.25-5.82,4.25c-3.91,0-6.09-1.64-6.17-4.75h3.27C269.85,300.19,270.84,301,272.78,301Z" style="fill:#1d1d1b"/><path d="M293.88,288.94a4.06,4.06,0,0,1,3.86,1.89,8.29,8.29,0,0,1,.82,4.22v7.87h-3.19v-7.65c0-2-.29-3.88-2.5-3.88-2,0-3.11,1.33-3.11,4.6v6.93h-3.19V289.21h3V291A5.31,5.31,0,0,1,293.88,288.94Z" style="fill:#1d1d1b"/><path d="M314.88,296.06c0,4.34-2.66,7.23-6.88,7.23s-6.81-2.89-6.81-7.23,2.66-7.23,6.84-7.23S314.88,291.73,314.88,296.06Zm-10.36,0c0,2.9,1.25,4.79,3.48,4.79s3.56-1.83,3.56-4.79-1.3-4.78-3.53-4.78S304.52,293.11,304.52,296.06Z" style="fill:#1d1d1b"/><path d="M321.34,285.8v3.41h2.71v2.44h-2.71v6.46c0,1.7.37,2.47,1.65,2.47a4.87,4.87,0,0,0,1.09-.1v2.44a7.56,7.56,0,0,1-2.05.24c-2.73,0-3.88-1.3-3.88-4.41v-7.1H316v-2.44h2.2V285.8Z" style="fill:#1d1d1b"/><path d="M335.27,296.06c.4,1.36.72,2.69,1.06,4.05h.19c.32-1.36.67-2.69,1.06-4.05l2.13-6.85h3.4l-4.78,13.71h-3.88l-4.79-13.71h3.54Z" style="fill:#1d1d1b"/><path d="M353.35,301.14a5.37,5.37,0,0,1-4.6,2.05c-3.06,0-4.76-1.52-4.76-4.07,0-4.38,5.5-4.41,9-4.84v-.58c0-1.7-.79-2.61-2.49-2.61s-2.69.83-2.71,2.32H344.5c.1-2.87,2.39-4.58,6-4.58,4.36,0,5.6,2.26,5.6,6v3.83a25.76,25.76,0,0,0,.3,4.3h-2.9A14.34,14.34,0,0,1,353.35,301.14Zm-6.06-2.07c0,1.17.79,1.91,2.28,1.91,2,0,3.4-1,3.4-3.93v-.59C350.58,296.81,347.29,296.73,347.29,299.07Z" style="fill:#1d1d1b"/><path d="M362.73,302.92h-3.19v-19.3h3.19Z" style="fill:#1d1d1b"/><path d="M369.59,286.84H366.4v-3.22h3.19Zm0,16.08H366.4V289.21h3.19Z" style="fill:#1d1d1b"/><path d="M378.2,288.94a4.58,4.58,0,0,1,4,1.84v-7.16h3.19v19.3h-3v-1.83a5.07,5.07,0,0,1-4.2,2.1c-3.51,0-5.79-2.61-5.79-7.15C372.41,291.71,374.69,288.94,378.2,288.94Zm.75,11.78c2,0,3.32-1.73,3.32-4.68s-1.25-4.65-3.27-4.65-3.3,1.78-3.3,4.65S376.93,300.72,379,300.72Z" style="fill:#1d1d1b"/><path d="M402.82,301.14a5.37,5.37,0,0,1-4.6,2.05c-3.06,0-4.76-1.52-4.76-4.07,0-4.38,5.5-4.41,9-4.84v-.58c0-1.7-.79-2.61-2.49-2.61s-2.69.83-2.72,2.32H394c.11-2.87,2.4-4.58,6-4.58,4.35,0,5.6,2.26,5.6,6v3.83a25.76,25.76,0,0,0,.3,4.3H403A14.34,14.34,0,0,1,402.82,301.14Zm-6.06-2.07c0,1.17.79,1.91,2.28,1.91,2,0,3.4-1,3.4-3.93v-.59C400.05,296.81,396.76,296.73,396.76,299.07Z" style="fill:#1d1d1b"/><path d="M416.32,288.94a4,4,0,0,1,3.85,1.89,8.28,8.28,0,0,1,.83,4.22v7.87h-3.19v-7.65c0-2-.29-3.88-2.5-3.88-2,0-3.11,1.33-3.11,4.6v6.93H409V289.21H412V291A5.32,5.32,0,0,1,416.32,288.94Z" style="fill:#1d1d1b"/><path d="M424.93,305.85c1.52,0,2.45-.88,2.66-2.79l-4.94-13.85h3.56l2,6.85c.4,1.36.66,2.66,1.06,4h.16c.35-1.3.67-2.71,1.06-4l2.16-6.85H436l-4.78,13.34c-1.49,4.23-2.9,5.82-5.61,5.82a7.87,7.87,0,0,1-2.05-.16v-2.58A3.65,3.65,0,0,0,424.93,305.85Z" style="fill:#1d1d1b"/><path d="M440.88,291a4.94,4.94,0,0,1,4.23-2.1,3.81,3.81,0,0,1,3.88,2.31,5,5,0,0,1,4.68-2.31,4.12,4.12,0,0,1,3.27,1.22,6.29,6.29,0,0,1,1.17,4.18v8.58h-3.19v-8.05c0-1.81-.43-3.48-2.32-3.48-2.28,0-2.92,2.18-2.92,4.78v6.75h-3.19v-8.05c0-1.81-.48-3.48-2.37-3.48-2.25,0-2.89,2.18-2.89,4.78v6.75H438V289.21h2.87Z" style="fill:#1d1d1b"/><path d="M474.43,296.06c0,4.34-2.66,7.23-6.89,7.23s-6.8-2.89-6.8-7.23,2.66-7.23,6.83-7.23S474.43,291.73,474.43,296.06Zm-10.37,0c0,2.9,1.25,4.79,3.48,4.79s3.56-1.83,3.56-4.79-1.3-4.78-3.53-4.78S464.06,293.11,464.06,296.06Z" style="fill:#1d1d1b"/><path d="M480.22,291.25a4,4,0,0,1,3.64-2.18,7.05,7.05,0,0,1,1.52.14V292a7,7,0,0,0-1.38-.13c-2.63,0-3.59,1.75-3.59,5.08v6h-3.19V289.21h3Z" style="fill:#1d1d1b"/><path d="M493.17,288.83a5.61,5.61,0,0,1,5.23,2.82,10.62,10.62,0,0,1,1.09,5.35h-9.75c.08,2.33,1.22,4,3.45,4a2.79,2.79,0,0,0,2.9-2.13h3.38c-.75,3-3,4.46-6.3,4.46-4.44,0-6.73-2.79-6.73-7.28C486.44,291.89,489,288.83,493.17,288.83Zm-.16,2.32c-1.78,0-3.14,1.17-3.32,3.51h6.56C496.06,292.32,494.74,291.15,493,291.15Z" style="fill:#1d1d1b"/><g style="clip-path:url(#a)"><path d="M205.31,324.27s-4.43,105.21,81.41,75.05" style="fill:none;stroke:#1d1d1b;stroke-width:2.953000068664551px;stroke-dasharray:12.475000381469727,12.475000381469727"/><polyline points="282.84 406.7 286.72 399.32 279.08 395.99" style="fill:none;stroke:#1d1d1b;stroke-width:2.953000068664551px"/><path d="M104.72,989.71S87,989.71,87,1007.43v24.37s0,17.72,17.72,17.72H718s17.72,0,17.72-17.72v-24.37s0-17.72-17.72-17.72Z" style="fill:#c9ffe0"/><line x1="122.41" y1="1049.52" x2="706.2" y2="1049.52" style="fill:none;stroke:#1d1d1b;stroke-width:2.9539999961853027px;stroke-dasharray:11.793999671936035,11.793999671936035"/><line x1="700.3" y1="989.71" x2="116.51" y2="989.71" style="fill:none;stroke:#1d1d1b;stroke-width:2.9539999961853027px;stroke-dasharray:11.793999671936035,11.793999671936035"/><path d="M110.62,989.71h-5.9a22,22,0,0,0-6.87,1.36m627.05-.26a20.47,20.47,0,0,0-6.91-1.1h-5.9m23.62,23.82v-6.1a22.08,22.08,0,0,0-1.35-6.86m.25,38.14a20.47,20.47,0,0,0,1.1-6.91v-6.09m-23.62,23.81H718a22.16,22.16,0,0,0,6.87-1.35m-627,.25a20.23,20.23,0,0,0,6.91,1.1h5.9M87,1025.71v6.09a22.16,22.16,0,0,0,1.35,6.87m-.25-38.14a20.41,20.41,0,0,0-1.1,6.9v6.1" style="fill:none;stroke:#1d1d1b;stroke-width:2.9539999961853027px"/></g><path d="M116,1010.36c.66,1.62,3.59,7,4.22,8.66h.14c.64-1.62,3.69-7.07,4.44-8.66h3.59l-6.49,11.45v7.84h-3.38v-7.84l-6.43-11.45Zm24.61,12.43c0,4.34-2.65,7.23-6.88,7.23s-6.81-2.89-6.81-7.23,2.66-7.23,6.84-7.23S140.64,1018.46,140.64,1022.79Zm-10.36,0c0,2.9,1.25,4.79,3.48,4.79s3.56-1.83,3.56-4.79-1.3-4.78-3.53-4.78S130.28,1019.84,130.28,1022.79Zm17.67,7.13a4.47,4.47,0,0,1-3.88-1.86c-.66-.93-.79-2.34-.79-4.33v-7.79h3.16v7.68c0,2,.29,3.88,2.52,3.88a2.63,2.63,0,0,0,2.26-1.06,5.91,5.91,0,0,0,.85-3.54v-7h3.19v13.71h-3v-1.78A5.25,5.25,0,0,1,148,1029.92Zm19.54-7.13c.29,1.31.51,2.77.75,4.12h.18c.24-1.35.53-2.79.83-4.14l1.56-6.83h4.47l1.59,6.85c.3,1.31.51,2.77.8,4.12h.19c.21-1.35.42-2.81.72-4.12l1.46-6.85h3l-3.37,13.71h-4.31l-1.52-6.88c-.29-1.38-.55-2.87-.85-4.25h-.18c-.29,1.38-.59,2.87-.91,4.27l-1.54,6.86h-4.2l-3.37-13.71h3.27Zm20.95-9.22h-3.19v-3.21h3.19Zm0,16.08h-3.19v-13.71h3.19Zm6.86,0h-3.19v-19.29h3.19Zm6.85,0H199v-19.29h3.19Zm16.3-14a4,4,0,0,1,3.85,1.89,8.28,8.28,0,0,1,.83,4.22v7.87h-3.19V1022c0-2-.29-3.88-2.5-3.88-2,0-3.11,1.33-3.11,4.6v6.93h-3.19v-13.71h3v1.78A5.32,5.32,0,0,1,218.45,1015.67Zm21,7.12c0,4.34-2.66,7.23-6.89,7.23s-6.8-2.89-6.8-7.23,2.66-7.23,6.83-7.23S239.45,1018.46,239.45,1022.79Zm-10.37,0c0,2.9,1.25,4.79,3.48,4.79s3.57-1.83,3.57-4.79-1.31-4.78-3.54-4.78S229.08,1019.84,229.08,1022.79Zm21.67,6.86h-3.19v-19.29h3.19Zm16.48-6.86c0,4.34-2.66,7.23-6.89,7.23s-6.8-2.89-6.8-7.23,2.66-7.23,6.83-7.23S267.23,1018.46,267.23,1022.79Zm-10.37,0c0,2.9,1.25,4.79,3.48,4.79s3.56-1.83,3.56-4.79-1.3-4.78-3.53-4.78S256.86,1019.84,256.86,1022.79Zm20.47-7.12a4,4,0,0,1,3.85,1.89,8.28,8.28,0,0,1,.83,4.22v7.87h-3.19V1022c0-2-.3-3.88-2.5-3.88-2,0-3.11,1.33-3.11,4.6v6.93H270v-13.71h3v1.78A5.32,5.32,0,0,1,277.33,1015.67Zm13.1,0a4.59,4.59,0,0,1,4.2,2.05v-1.78h2.93v11.75c0,4.54-1.3,7.41-6.36,7.41-3.53,0-5.58-1.51-5.87-4.38h3.3c.08,1.35,1,2.1,2.63,2.1,2.12,0,3.21-1.2,3.21-4.2v-1.41a5,5,0,0,1-4.2,2c-3.27,0-5.58-2.57-5.58-6.64C284.69,1018.78,287,1015.67,290.43,1015.67Zm.75,11.09c1.91,0,3.24-1.65,3.24-4.23s-1.22-4.41-3.24-4.41S288,1020,288,1022.45C288,1025.13,289.24,1026.76,291.18,1026.76Zm15.87-11.2a5.61,5.61,0,0,1,5.23,2.82,10.62,10.62,0,0,1,1.09,5.35h-9.75c.08,2.33,1.22,4,3.45,4a2.79,2.79,0,0,0,2.9-2.13h3.38c-.75,3-3,4.46-6.3,4.46-4.44,0-6.73-2.79-6.73-7.28C300.32,1018.62,302.9,1015.56,307.05,1015.56Zm-.16,2.32c-1.78,0-3.14,1.17-3.32,3.51h6.56C309.94,1019.05,308.62,1017.88,306.89,1017.88Zm12.31.1a4,4,0,0,1,3.64-2.18,7,7,0,0,1,1.51.14v2.76a6.89,6.89,0,0,0-1.38-.13c-2.63,0-3.59,1.75-3.59,5.08v6h-3.19v-13.71h3Zm15.07,0a4,4,0,0,1,3.64-2.18,7,7,0,0,1,1.51.14v2.76a6.89,6.89,0,0,0-1.38-.13c-2.63,0-3.59,1.75-3.59,5.08v6h-3.19v-13.71h3Zm12.92-2.42a5.61,5.61,0,0,1,5.23,2.82,10.62,10.62,0,0,1,1.09,5.35h-9.75c.08,2.33,1.22,4,3.45,4a2.79,2.79,0,0,0,2.9-2.13h3.38c-.75,3-3,4.46-6.3,4.46-4.44,0-6.73-2.79-6.73-7.28C340.46,1018.62,343,1015.56,347.19,1015.56Zm-.16,2.32c-1.78,0-3.14,1.17-3.32,3.51h6.56C350.08,1019.05,348.76,1017.88,347,1017.88Zm15,12.17c-4.1,0-6.57-2.9-6.57-7.26s2.5-7.25,6.57-7.25c3.64,0,5.84,2.05,6,5.16h-3.3c-.21-1.73-1.17-2.69-2.76-2.69-2,0-3.24,1.86-3.24,4.73s1.25,4.84,3.24,4.84c1.59,0,2.6-1,2.84-2.76h3.25C367.87,1028.11,365.63,1030.05,362.05,1030.05Zm14.48-14.49a5.63,5.63,0,0,1,5.24,2.82,10.73,10.73,0,0,1,1.09,5.35H373.1c.08,2.33,1.23,4,3.46,4a2.79,2.79,0,0,0,2.9-2.13h3.37c-.74,3-3,4.46-6.3,4.46-4.44,0-6.72-2.79-6.72-7.28C369.81,1018.62,372.39,1015.56,376.53,1015.56Zm-.16,2.32c-1.78,0-3.13,1.17-3.32,3.51h6.57C379.43,1019.05,378.1,1017.88,376.37,1017.88Zm12.5-4.31h-3.19v-3.21h3.19Zm0,16.08h-3.19v-13.71h3.19Zm7.65-6.86c.4,1.36.72,2.69,1.07,4h.18c.32-1.36.67-2.69,1.07-4l2.12-6.85h3.4l-4.78,13.71H395.7l-4.79-13.71h3.54Zm15.5-7.23a5.64,5.64,0,0,1,5.24,2.82,10.73,10.73,0,0,1,1.09,5.35h-9.76c.08,2.33,1.22,4,3.46,4a2.78,2.78,0,0,0,2.89-2.13h3.38c-.74,3-3,4.46-6.3,4.46-4.44,0-6.72-2.79-6.72-7.28C405.3,1018.62,407.87,1015.56,412,1015.56Zm-.16,2.32c-1.78,0-3.14,1.17-3.32,3.51h6.56C414.92,1019.05,413.59,1017.88,411.86,1017.88Zm18.1-5.35v3.41h2.72v2.44H430v6.46c0,1.7.38,2.47,1.65,2.47a4.87,4.87,0,0,0,1.09-.1v2.44a7.56,7.56,0,0,1-2.05.24c-2.73,0-3.88-1.3-3.88-4.41v-7.1h-2.2v-2.44h2.2v-3.41Zm8.35,5.11a4.7,4.7,0,0,1,4.12-2,4.48,4.48,0,0,1,3.91,1.86c.66,1,.77,2.23.77,4.25v7.87h-3.19V1022c0-2-.29-3.88-2.5-3.88-2,0-3.11,1.33-3.11,4.6v6.93h-3.19v-19.29h3.19Zm18.16-2.08a5.61,5.61,0,0,1,5.23,2.82,10.62,10.62,0,0,1,1.09,5.35H453c.08,2.33,1.22,4,3.45,4a2.79,2.79,0,0,0,2.9-2.13h3.38c-.75,3-3,4.46-6.3,4.46-4.44,0-6.73-2.79-6.73-7.28C449.74,1018.62,452.32,1015.56,456.47,1015.56Zm-.16,2.32c-1.78,0-3.14,1.17-3.33,3.51h6.57C459.36,1019.05,458,1017.88,456.31,1017.88Zm27.43,4.91c0,4.34-2.66,7.23-6.89,7.23s-6.8-2.89-6.8-7.23,2.66-7.23,6.83-7.23S483.74,1018.46,483.74,1022.79Zm-10.37,0c0,2.9,1.25,4.79,3.48,4.79s3.57-1.83,3.57-4.79-1.31-4.78-3.54-4.78S473.37,1019.84,473.37,1022.79Zm16.86,6.86H487v-11.27h-2.21v-2.44H487v-.88c0-3,.74-4.86,4.28-4.86a5.42,5.42,0,0,1,1.62.18v2.45a4.36,4.36,0,0,0-1-.08c-1.38,0-1.75.79-1.75,2.5v.69h4.91v-.88c0-3,.75-4.86,4.28-4.86a5.36,5.36,0,0,1,1.62.18v2.45a4.23,4.23,0,0,0-1-.08c-1.38,0-1.76.79-1.76,2.5v.69H501v2.44h-2.71v11.27h-3.19v-11.27h-4.91Zm15.52-16.08h-3.19v-3.21h3.19Zm0,16.08h-3.19v-13.71h3.19Zm9.38.4c-4.09,0-6.56-2.9-6.56-7.26s2.5-7.25,6.56-7.25c3.64,0,5.85,2.05,6,5.16h-3.3c-.21-1.73-1.17-2.69-2.76-2.69-2.05,0-3.25,1.86-3.25,4.73s1.25,4.84,3.25,4.84c1.59,0,2.6-1,2.84-2.76h3.24C521,1028.11,518.72,1030.05,515.13,1030.05ZM527,1013.57h-3.19v-3.21H527Zm0,16.08h-3.19v-13.71H527Zm12.1-1.78a5.37,5.37,0,0,1-4.6,2.05c-3.06,0-4.76-1.52-4.76-4.07,0-4.38,5.5-4.41,9-4.84v-.58c0-1.7-.79-2.61-2.49-2.61s-2.69.83-2.72,2.32h-3.26c.1-2.87,2.39-4.58,6-4.58,4.36,0,5.6,2.26,5.6,6v3.83a25.76,25.76,0,0,0,.3,4.3h-2.9A14.34,14.34,0,0,1,539.06,1027.87ZM533,1025.8c0,1.17.79,1.91,2.28,1.91,2,0,3.4-1,3.4-3.93v-.59C536.29,1023.54,533,1023.46,533,1025.8Zm15.44,3.85h-3.19v-19.29h3.19ZM574.6,1020c0,6-3.59,10-9,10s-8.93-4-8.93-10,3.54-10,9-10S574.6,1014,574.6,1020Zm-14.46,0c0,4.39,2.15,7.37,5.47,7.37s5.53-3.14,5.53-7.37-2.1-7.36-5.5-7.36S560.14,1015.64,560.14,1020Zm15-9.64h15.26v2.79h-5.93v16.5H581v-16.5H575.1ZM607,1029.65h-3.56l-1.83-5.21H593.9l-1.78,5.21h-3.49l7.1-19.29h4.09Zm-9.11-16.53h-.16c-.56,1.81-1.09,3.69-1.76,5.5l-1.11,3h5.84l-1.06-3C599,1016.81,598.36,1014.93,597.86,1013.12Zm20,16.8a4.47,4.47,0,0,1-3.88-1.86c-.66-.93-.8-2.34-.8-4.33v-7.79h3.17v7.68c0,2,.29,3.88,2.52,3.88a2.63,2.63,0,0,0,2.26-1.06,5.91,5.91,0,0,0,.85-3.54v-7h3.19v13.71h-3v-1.78A5.25,5.25,0,0,1,617.87,1029.92Zm18.18,0a4.59,4.59,0,0,1-4-1.84V1035h-3.19v-19.06h3v1.83a5.1,5.1,0,0,1,4.28-2.1c3.51,0,5.71,2.79,5.71,7.12C641.82,1027.31,639.46,1029.92,636.05,1029.92Zm-.77-11.78c-2,0-3.32,1.78-3.32,4.65s1.25,4.68,3.27,4.68,3.32-1.78,3.32-4.68S637.3,1018.14,635.28,1018.14Zm14.31-2.47a4.61,4.61,0,0,1,4,1.84v-7.15h3.19v19.29h-3v-1.83a5,5,0,0,1-4.19,2.1c-3.51,0-5.8-2.61-5.8-7.15C643.79,1018.44,646.08,1015.67,649.59,1015.67Zm.74,11.78c2,0,3.32-1.73,3.32-4.68s-1.25-4.65-3.27-4.65-3.29,1.78-3.29,4.65S648.31,1027.45,650.33,1027.45Zm18.55.42a5.34,5.34,0,0,1-4.59,2.05c-3.06,0-4.76-1.52-4.76-4.07,0-4.38,5.5-4.41,9-4.84v-.58c0-1.7-.8-2.61-2.5-2.61s-2.68.83-2.71,2.32H660c.11-2.87,2.39-4.58,6-4.58,4.36,0,5.61,2.26,5.61,6v3.83a25.76,25.76,0,0,0,.29,4.3H669A16.33,16.33,0,0,1,668.88,1027.87Zm-6.06-2.07c0,1.17.8,1.91,2.29,1.91,2,0,3.4-1,3.4-3.93v-.59C666.12,1023.54,662.82,1023.46,662.82,1025.8Zm15.95-13.27v3.41h2.71v2.44h-2.71v6.46c0,1.7.37,2.47,1.65,2.47a4.87,4.87,0,0,0,1.09-.1v2.44a7.56,7.56,0,0,1-2,.24c-2.73,0-3.88-1.3-3.88-4.41v-7.1h-2.2v-2.44h2.2v-3.41Zm10.9,3a5.64,5.64,0,0,1,5.24,2.82,10.73,10.73,0,0,1,1.09,5.35h-9.76c.08,2.33,1.23,4,3.46,4a2.8,2.8,0,0,0,2.9-2.13H696c-.74,3-3,4.46-6.3,4.46-4.44,0-6.72-2.79-6.72-7.28C683,1018.62,685.52,1015.56,689.67,1015.56Zm-.16,2.32c-1.78,0-3.13,1.17-3.32,3.51h6.56C692.57,1019.05,691.24,1017.88,689.51,1017.88Zm14.49,9.86c1.51,0,2.5-.64,2.5-1.7,0-1.38-1.52-1.73-3.3-2.16-2.34-.55-5.1-1.16-5.1-4.17,0-2.5,2.2-4.15,5.71-4.15s5.69,1.57,5.69,4.58h-3.16c-.08-1.62-.91-2.29-2.63-2.29-1.41,0-2.32.61-2.32,1.6,0,1.46,2,1.83,4.07,2.33s4.33,1.36,4.33,4S707.56,1030,704,1030c-3.9,0-6.08-1.64-6.16-4.75h3.27C701.08,1026.91,702.06,1027.74,704,1027.74Z" style="fill:#1d1d1b"/><g style="clip-path:url(#a)"><path d="M320,364.5s-17.72,0-17.72,17.72v24.37s0,17.72,17.72,17.72H697.79s17.72,0,17.72-17.72V382.22s0-17.72-17.72-17.72Z" style="fill:#c9ffe0"/><path d="M320,364.5s-17.72,0-17.72,17.72v24.37s0,17.72,17.72,17.72H697.79s17.72,0,17.72-17.72V382.22s0-17.72-17.72-17.72Z" style="fill:none;stroke:#1d1d1b;stroke-width:6.077000141143799px"/><path d="M318.42,361.63s-17.72,0-17.72,17.72v24.37s0,17.72,17.72,17.72H699.35s17.73,0,17.73-17.72V379.35s0-17.72-17.73-17.72Z" style="fill:#c9ffe0"/><path d="M318.42,361.63s-17.72,0-17.72,17.72v24.37s0,17.72,17.72,17.72H699.35s17.73,0,17.73-17.72V379.35s0-17.72-17.73-17.72Z" style="fill:none;stroke:#1d1d1b;stroke-width:2.9539999961853027px"/></g><path d="M340.21,385.1h-9.14v5.29h8.61v2.79h-8.61v5.61h9.51v2.82H327.69v-19.3h12.52Z" style="fill:#1d1d1b"/><path d="M350.63,387.63a4,4,0,0,1,3.85,1.89,8.28,8.28,0,0,1,.83,4.22v7.87h-3.19V394c0-2-.29-3.88-2.5-3.88-2,0-3.11,1.33-3.11,4.6v6.94h-3.19V387.89h2.95v1.79A5.3,5.3,0,0,1,350.63,387.63Z" style="fill:#1d1d1b"/><path d="M367.24,399.83a5.34,5.34,0,0,1-4.59,2.05c-3.06,0-4.76-1.52-4.76-4.07,0-4.39,5.5-4.41,9-4.84v-.58c0-1.7-.8-2.61-2.5-2.61s-2.68.83-2.71,2.31h-3.27c.11-2.87,2.4-4.57,6-4.57,4.36,0,5.61,2.26,5.61,6v3.82a26.91,26.91,0,0,0,.29,4.31h-2.89A16.33,16.33,0,0,1,367.24,399.83Zm-6.06-2.07c0,1.17.8,1.91,2.29,1.91,2,0,3.4-1,3.4-3.93v-.59C364.48,395.5,361.18,395.42,361.18,397.76Z" style="fill:#1d1d1b"/><path d="M380.64,401.88a5.08,5.08,0,0,1-4.22-2.08v1.81h-3v-19.3h3.19v7.18a4.8,4.8,0,0,1,4.07-1.86c3.5,0,5.71,2.71,5.71,7.1S384,401.88,380.64,401.88Zm-.82-11.81c-2,0-3.27,1.89-3.27,4.66s1.3,4.67,3.32,4.67,3.27-1.8,3.27-4.67S381.92,390.07,379.82,390.07Z" style="fill:#1d1d1b"/><path d="M392.42,401.61h-3.19v-19.3h3.19Z" style="fill:#1d1d1b"/><path d="M401.93,387.52a5.63,5.63,0,0,1,5.24,2.82,10.71,10.71,0,0,1,1.09,5.34H398.5c.08,2.34,1.23,4,3.46,4a2.78,2.78,0,0,0,2.9-2.12h3.37c-.74,3-3,4.46-6.3,4.46-4.44,0-6.72-2.79-6.72-7.28C395.21,390.58,397.79,387.52,401.93,387.52Zm-.16,2.31c-1.78,0-3.13,1.17-3.32,3.51H405C404.83,391,403.5,389.83,401.77,389.83Z" style="fill:#1d1d1b"/><path d="M419.88,384.49v3.4h2.71v2.45h-2.71v6.46c0,1.7.37,2.47,1.65,2.47a4.48,4.48,0,0,0,1.09-.11v2.45a7.56,7.56,0,0,1-2.05.24c-2.74,0-3.88-1.3-3.88-4.41v-7.1h-2.21v-2.45h2.21v-3.4Z" style="fill:#1d1d1b"/><path d="M428.22,389.6a4.7,4.7,0,0,1,4.12-2,4.44,4.44,0,0,1,3.91,1.86c.67,1,.77,2.23.77,4.25v7.87h-3.19V394c0-2-.29-3.88-2.5-3.88-2,0-3.11,1.33-3.11,4.6v6.94H425v-19.3h3.19Z" style="fill:#1d1d1b"/><path d="M446.38,387.52a5.64,5.64,0,0,1,5.24,2.82,10.71,10.71,0,0,1,1.09,5.34H443c.08,2.34,1.22,4,3.46,4a2.78,2.78,0,0,0,2.89-2.12h3.38c-.75,3-3,4.46-6.3,4.46-4.44,0-6.73-2.79-6.73-7.28C439.65,390.58,442.23,387.52,446.38,387.52Zm-.16,2.31c-1.78,0-3.14,1.17-3.32,3.51h6.56C449.28,391,448,389.83,446.22,389.83Z" style="fill:#1d1d1b"/><path d="M478,392c0,6-3.59,10.05-9,10.05s-8.93-4-8.93-10.05,3.53-10,8.95-10S478,386,478,392Zm-14.46,0c0,4.39,2.15,7.36,5.48,7.36s5.52-3.13,5.52-7.36-2.09-7.36-5.5-7.36S463.55,387.6,463.55,392Z" style="fill:#1d1d1b"/><path d="M493.69,385.1h-9.14v5.29h8.61v2.79h-8.61v5.61h9.52v2.82h-12.9v-19.3h12.52Z" style="fill:#1d1d1b"/><path d="M506.29,393.13c.62,1.78,1,3.35,1.44,4.84h.19a48.57,48.57,0,0,1,1.3-4.84l3.45-10.82H518v19.3h-3.13v-10c0-1.91,0-4.17.13-6.19h-.19c-.31,1.09-3.35,9.51-5.29,16.16h-3.85c-2-6.62-5-15.1-5.32-16.16h-.18c.08,1.7.18,4.44.18,6.19v10H497.2v-19.3h5.29Z" style="fill:#1d1d1b"/><path d="M534.68,399.32c3.33,0,4.1-2.84,4.1-5.71v-11.3h3.37v11.43c0,5.4-2.65,8.27-7.47,8.27-5.42,0-7.44-2.95-7.44-8.48V382.31h3.38v11.3C530.62,396.27,531.31,399.32,534.68,399.32Z" style="fill:#1d1d1b"/><path d="M553,387.63a4,4,0,0,1,3.85,1.89,8.28,8.28,0,0,1,.83,4.22v7.87h-3.19V394c0-2-.29-3.88-2.5-3.88-2,0-3.11,1.33-3.11,4.6v6.94h-3.19V387.89h2.95v1.79A5.29,5.29,0,0,1,553,387.63Z" style="fill:#1d1d1b"/><path d="M564.38,401.61h-3.19v-19.3h3.19Z" style="fill:#1d1d1b"/><path d="M580.86,394.75c0,4.33-2.66,7.23-6.89,7.23s-6.8-2.9-6.8-7.23,2.66-7.23,6.83-7.23S580.86,390.42,580.86,394.75Zm-10.37,0c0,2.9,1.25,4.79,3.48,4.79s3.56-1.84,3.56-4.79S576.23,390,574,390,570.49,391.8,570.49,394.75Z" style="fill:#1d1d1b"/><path d="M589.36,402c-4.09,0-6.56-2.9-6.56-7.26s2.5-7.25,6.56-7.25c3.64,0,5.85,2,6,5.15h-3.3c-.21-1.73-1.17-2.68-2.76-2.68-2.05,0-3.25,1.86-3.25,4.73s1.25,4.84,3.25,4.84c1.59,0,2.6-1,2.84-2.77h3.24C595.18,400.07,593,402,589.36,402Z" style="fill:#1d1d1b"/><path d="M601.19,393.58l4.65-5.69h3.8L604.38,394l5.82,7.58h-4l-5-6.8v6.8H598v-19.3h3.19Z" style="fill:#1d1d1b"/><path d="M620.17,384.49v3.4h2.71v2.45h-2.71v6.46c0,1.7.37,2.47,1.65,2.47a4.48,4.48,0,0,0,1.09-.11v2.45a7.56,7.56,0,0,1-2,.24c-2.74,0-3.88-1.3-3.88-4.41v-7.1h-2.2v-2.45H617v-3.4Z" style="fill:#1d1d1b"/><path d="M638.06,394.75c0,4.33-2.66,7.23-6.88,7.23s-6.81-2.9-6.81-7.23,2.66-7.23,6.83-7.23S638.06,390.42,638.06,394.75Zm-10.37,0c0,2.9,1.25,4.79,3.49,4.79s3.56-1.84,3.56-4.79-1.3-4.78-3.54-4.78S627.69,391.8,627.69,394.75Z" style="fill:#1d1d1b"/><path d="M645.77,387.63a4.59,4.59,0,0,1,4.2,2.05v-1.79h2.92v11.75c0,4.55-1.3,7.42-6.35,7.42-3.53,0-5.58-1.52-5.87-4.39H644c.08,1.36,1,2.1,2.63,2.1,2.13,0,3.22-1.19,3.22-4.2v-1.41a4.94,4.94,0,0,1-4.2,2c-3.27,0-5.58-2.58-5.58-6.64C640,390.74,642.31,387.63,645.77,387.63Zm.74,11.08c1.92,0,3.25-1.65,3.25-4.22s-1.23-4.42-3.25-4.42-3.19,1.86-3.19,4.34C643.32,397.09,644.57,398.71,646.51,398.71Z" style="fill:#1d1d1b"/><path d="M661.45,387.63a4.57,4.57,0,0,1,4.2,2.05v-1.79h2.93v11.75c0,4.55-1.31,7.42-6.36,7.42-3.53,0-5.58-1.52-5.87-4.39h3.3c.08,1.36,1,2.1,2.63,2.1,2.12,0,3.21-1.19,3.21-4.2v-1.41a4.93,4.93,0,0,1-4.2,2c-3.27,0-5.58-2.58-5.58-6.64C655.71,390.74,658,387.63,661.45,387.63Zm.75,11.08c1.91,0,3.24-1.65,3.24-4.22s-1.22-4.42-3.24-4.42-3.19,1.86-3.19,4.34C659,397.09,660.26,398.71,662.2,398.71Z" style="fill:#1d1d1b"/><path d="M675.41,401.61h-3.19v-19.3h3.19Z" style="fill:#1d1d1b"/><path d="M684.92,387.52a5.62,5.62,0,0,1,5.24,2.82,10.61,10.61,0,0,1,1.09,5.34H681.5c.08,2.34,1.22,4,3.45,4a2.78,2.78,0,0,0,2.9-2.12h3.37c-.74,3-3,4.46-6.3,4.46-4.43,0-6.72-2.79-6.72-7.28C678.2,390.58,680.78,387.52,684.92,387.52Zm-.15,2.31c-1.79,0-3.14,1.17-3.33,3.51H688C687.82,391,686.49,389.83,684.77,389.83Z" style="fill:#1d1d1b"/></svg>