<svg xmlns="http://www.w3.org/2000/svg" xmlns:xlink="http://www.w3.org/1999/xlink" viewBox="0 0 1920 320"><defs><clipPath id="a"><rect x="18" y="45.78" width="1882.04" height="232.22" style="fill:none"/></clipPath></defs><title>dia3</title><rect width="1920" height="320" style="fill:#caffe1"/><g style="clip-path:url(#a)"><path d="M33.54,49S20.27,49,20.27,62.3V80.53s0,13.27,13.27,13.27H269.61s13.26,0,13.26-13.27V62.3S282.87,49,269.61,49Z" style="fill:#c9ffe0"/><path d="M33.54,49S20.27,49,20.27,62.3V80.53s0,13.27,13.27,13.27H269.61s13.26,0,13.26-13.27V62.3S282.87,49,269.61,49Z" style="fill:none;stroke:#1d1d1b;stroke-width:4.547999858856201px"/><path d="M373.94,49s-13.26,0-13.26,13.27V80.53s0,13.27,13.26,13.27H656.69S670,93.8,670,80.53V62.3S670,49,656.69,49Z" style="fill:#c9ffe0"/><path d="M373.94,49s-13.26,0-13.26,13.27V80.53s0,13.27,13.26,13.27H656.69S670,93.8,670,80.53V62.3S670,49,656.69,49Z" style="fill:none;stroke:#1d1d1b;stroke-width:4.547999858856201px"/><path d="M373.94,141.17s-13.26,0-13.26,13.26v18.24s0,13.26,13.26,13.26H594s13.26,0,13.26-13.26V154.43s0-13.26-13.26-13.26Z" style="fill:#c9ffe0"/><path d="M373.94,141.17s-13.26,0-13.26,13.26v18.24s0,13.26,13.26,13.26H594s13.26,0,13.26-13.26V154.43s0-13.26-13.26-13.26Z" style="fill:none;stroke:#1d1d1b;stroke-width:4.547999858856201px"/><path d="M693.92,141.17s-13.27,0-13.27,13.26v18.24s0,13.26,13.27,13.26h322.14s13.26,0,13.26-13.26V154.43s0-13.26-13.26-13.26Z" style="fill:#c9ffe0"/><path d="M693.92,141.17s-13.27,0-13.27,13.26v18.24s0,13.26,13.27,13.26h322.14s13.26,0,13.26-13.26V154.43s0-13.26-13.26-13.26Z" style="fill:none;stroke:#1d1d1b;stroke-width:4.547999858856201px"/><path d="M1116,141.17s-13.27,0-13.27,13.26v18.24s0,13.26,13.27,13.26h283.27s13.26,0,13.26-13.26V154.43s0-13.26-13.26-13.26Z" style="fill:#c9ffe0"/><path d="M1116,141.17s-13.27,0-13.27,13.26v18.24s0,13.26,13.27,13.26h283.27s13.26,0,13.26-13.26V154.43s0-13.26-13.26-13.26Z" style="fill:none;stroke:#1d1d1b;stroke-width:4.547999858856201px"/><path d="M1505.57,48.5s-13.26,0-13.26,13.26V80s0,13.27,13.26,13.27h301.24s13.26,0,13.26-13.27V61.76s0-13.26-13.26-13.26Z" style="fill:#c9ffe0"/><path d="M1505.57,48.5s-13.26,0-13.26,13.26V80s0,13.27,13.26,13.27h301.24s13.26,0,13.26-13.27V61.76s0-13.26-13.26-13.26Z" style="fill:none;stroke:#1d1d1b;stroke-width:4.547999858856201px"/><path d="M1500.72,139.58s-13.27,0-13.27,13.27v18.23s0,13.26,13.27,13.26h310.94s13.26,0,13.26-13.26V152.85s0-13.27-13.26-13.27Z" style="fill:#c9ffe0"/><path d="M1500.72,139.58s-13.27,0-13.27,13.27v18.23s0,13.26,13.27,13.26h310.94s13.26,0,13.26-13.26V152.85s0-13.27-13.26-13.27Z" style="fill:none;stroke:#1d1d1b;stroke-width:4.547999858856201px"/></g><line x1="616.75" y1="96.07" x2="616.75" y2="232.01" style="fill:none;stroke:#1d1d1b;stroke-width:2.2100000381469727px;stroke-dasharray:9.062000274658203,9.062000274658203"/><line x1="1656.19" y1="92.89" x2="1656.19" y2="139.86" style="fill:none;stroke:#1d1d1b;stroke-width:2.2100000381469727px"/><line x1="1656.19" y1="185.87" x2="1656.19" y2="232.84" style="fill:none;stroke:#1d1d1b;stroke-width:2.2100000381469727px;stroke-dasharray:9.394000053405762,9.394000053405762"/><g style="clip-path:url(#a)"><path d="M32.37,46.89s-13.27,0-13.27,13.26V78.38s0,13.27,13.27,13.27H271.65s13.26,0,13.26-13.27V60.15s0-13.26-13.26-13.26Z" style="fill:#c9ffe0"/><path d="M32.37,46.89s-13.27,0-13.27,13.26V78.38s0,13.27,13.27,13.27H271.65s13.26,0,13.26-13.27V60.15s0-13.26-13.26-13.26Z" style="fill:none;stroke:#1d1d1b;stroke-width:2.2100000381469727px"/><path d="M372.77,46.89s-13.26,0-13.26,13.26V78.38s0,13.27,13.26,13.27H657.86s13.26,0,13.26-13.27V60.15s0-13.26-13.26-13.26Z" style="fill:#c9ffe0"/><path d="M372.77,46.89s-13.26,0-13.26,13.26V78.38s0,13.27,13.26,13.27H657.86s13.26,0,13.26-13.27V60.15s0-13.26-13.26-13.26Z" style="fill:none;stroke:#1d1d1b;stroke-width:2.2100000381469727px"/><path d="M372.77,140s-13.26,0-13.26,13.26V171.5s0,13.26,13.26,13.26H595.2s13.26,0,13.26-13.26V153.26s0-13.26-13.26-13.26Z" style="fill:#c9ffe0"/><path d="M372.77,140s-13.26,0-13.26,13.26V171.5s0,13.26,13.26,13.26H595.2s13.26,0,13.26-13.26V153.26s0-13.26-13.26-13.26Z" style="fill:none;stroke:#1d1d1b;stroke-width:2.2100000381469727px"/><path d="M692.75,140s-13.27,0-13.27,13.26V171.5s0,13.26,13.27,13.26h324.48s13.26,0,13.26-13.26V153.26s0-13.26-13.26-13.26Z" style="fill:#c9ffe0"/><path d="M692.75,140s-13.27,0-13.27,13.26V171.5s0,13.26,13.27,13.26h324.48s13.26,0,13.26-13.26V153.26s0-13.26-13.26-13.26Z" style="fill:none;stroke:#1d1d1b;stroke-width:2.2100000381469727px"/><path d="M1114.78,140s-13.26,0-13.26,13.26V171.5s0,13.26,13.26,13.26h285.61s13.26,0,13.26-13.26V153.26s0-13.26-13.26-13.26Z" style="fill:#c9ffe0"/><path d="M1114.78,140s-13.26,0-13.26,13.26V171.5s0,13.26,13.26,13.26h285.61s13.26,0,13.26-13.26V153.26s0-13.26-13.26-13.26Z" style="fill:none;stroke:#1d1d1b;stroke-width:2.2100000381469727px"/><path d="M1504.4,46.89s-13.26,0-13.26,13.26V78.38s0,13.27,13.26,13.27H1808s13.26,0,13.26-13.27V60.15s0-13.26-13.26-13.26Z" style="fill:#c9ffe0"/><path d="M1504.4,46.89s-13.26,0-13.26,13.26V78.38s0,13.27,13.26,13.27H1808s13.26,0,13.26-13.27V60.15s0-13.26-13.26-13.26Z" style="fill:none;stroke:#1d1d1b;stroke-width:2.2100000381469727px"/><path d="M1499.55,138.41s-13.27,0-13.27,13.27v18.23s0,13.26,13.27,13.26h313.28s13.26,0,13.26-13.26V151.68s0-13.27-13.26-13.27Z" style="fill:#c9ffe0"/><path d="M1499.55,138.41s-13.27,0-13.27,13.27v18.23s0,13.26,13.27,13.26h313.28s13.26,0,13.26-13.26V151.68s0-13.27-13.26-13.27Z" style="fill:none;stroke:#1d1d1b;stroke-width:2.2100000381469727px"/></g><line x1="286.01" y1="69.27" x2="360.12" y2="69.27" style="fill:none;stroke:#1d1d1b;stroke-width:2.2100000381469727px"/><line x1="609.57" y1="161.96" x2="678.38" y2="161.96" style="fill:none;stroke:#1d1d1b;stroke-width:2.2100000381469727px"/><line x1="1031.6" y1="161.96" x2="1100.41" y2="161.96" style="fill:none;stroke:#1d1d1b;stroke-width:2.2100000381469727px"/><line x1="286.01" y1="69.27" x2="360.12" y2="162.38" style="fill:none;stroke:#1d1d1b;stroke-width:2.2100000381469727px"/><line x1="1414.13" y1="162.38" x2="1490.9" y2="69.27" style="fill:none;stroke:#1d1d1b;stroke-width:2.2100000381469727px"/><path d="M45.82,64.81H39v4h6.45v2.08H39v4.2h7.12v2.11H36.44V62.72h9.38Z" style="fill:#1d1d1b"/><path d="M53.63,66.7a3,3,0,0,1,2.89,1.41,6.2,6.2,0,0,1,.61,3.16v5.89H54.75V71.43c0-1.53-.22-2.9-1.87-2.9s-2.33,1-2.33,3.44v5.19H48.16V66.89h2.21v1.34A4,4,0,0,1,53.63,66.7Z" style="fill:#1d1d1b"/><path d="M66.07,75.83a4,4,0,0,1-3.45,1.53c-2.28,0-3.56-1.13-3.56-3,0-3.29,4.12-3.31,6.73-3.62v-.44c0-1.28-.6-2-1.87-2s-2,.61-2,1.73H59.44c.08-2.15,1.79-3.42,4.48-3.42,3.26,0,4.2,1.69,4.2,4.45v2.87a20.34,20.34,0,0,0,.21,3.22H66.17A11.71,11.71,0,0,1,66.07,75.83Zm-4.54-1.55c0,.87.6,1.43,1.71,1.43,1.49,0,2.55-.72,2.55-2.95v-.43C64,72.59,61.53,72.53,61.53,74.28Z" style="fill:#1d1d1b"/><path d="M76.09,77.36a3.84,3.84,0,0,1-3.16-1.55v1.35H70.7V62.72h2.39v5.37a3.59,3.59,0,0,1,3-1.39c2.63,0,4.28,2,4.28,5.31S78.62,77.36,76.09,77.36Zm-.61-8.83C74,68.53,73,69.94,73,72s1,3.5,2.49,3.5S78,74.16,78,72,77.05,68.53,75.48,68.53Z" style="fill:#1d1d1b"/><path d="M84.91,77.16H82.52V62.72h2.39Z" style="fill:#1d1d1b"/><path d="M92,66.62A4.21,4.21,0,0,1,96,68.73a8,8,0,0,1,.81,4h-7.3c.06,1.76.92,3,2.59,3a2.1,2.1,0,0,0,2.17-1.59h2.52c-.55,2.25-2.23,3.34-4.71,3.34-3.33,0-5-2.09-5-5.45C87,68.9,88.92,66.62,92,66.62Zm-.12,1.73c-1.34,0-2.35.87-2.49,2.62h4.92C94.2,69.22,93.2,68.35,91.91,68.35Z" style="fill:#1d1d1b"/><path d="M106.55,66.7a3.43,3.43,0,0,1,3,1.37V62.72h2.39V77.16h-2.25V75.79a3.78,3.78,0,0,1-3.14,1.57c-2.63,0-4.34-2-4.34-5.35C102.21,68.77,103.92,66.7,106.55,66.7Zm.56,8.81c1.51,0,2.48-1.29,2.48-3.5s-.93-3.48-2.44-3.48-2.47,1.33-2.47,3.48S105.59,75.51,107.11,75.51Z" style="fill:#1d1d1b"/><path d="M119.06,66.62A4.19,4.19,0,0,1,123,68.73a7.91,7.91,0,0,1,.82,4h-7.3c.06,1.76.91,3,2.58,3a2.09,2.09,0,0,0,2.17-1.59h2.53c-.56,2.25-2.23,3.34-4.72,3.34-3.32,0-5-2.09-5-5.45C114,68.9,116,66.62,119.06,66.62Zm-.12,1.73c-1.33,0-2.34.87-2.48,2.62h4.91C121.23,69.22,120.24,68.35,118.94,68.35Z" style="fill:#1d1d1b"/><path d="M128.73,72c.3,1,.54,2,.8,3h.14c.23-1,.49-2,.79-3l1.59-5.14h2.55L131,77.16h-2.91l-3.58-10.27h2.65Z" style="fill:#1d1d1b"/><path d="M140.35,66.62a4.21,4.21,0,0,1,3.92,2.11,8,8,0,0,1,.81,4h-7.3c.06,1.76.92,3,2.59,3a2.1,2.1,0,0,0,2.17-1.59h2.52c-.55,2.25-2.22,3.34-4.71,3.34-3.32,0-5-2.09-5-5.45C135.31,68.9,137.24,66.62,140.35,66.62Zm-.12,1.73c-1.33,0-2.35.87-2.49,2.62h4.92C142.52,69.22,141.52,68.35,140.23,68.35Z" style="fill:#1d1d1b"/><path d="M149.58,77.16h-2.39V62.72h2.39Z" style="fill:#1d1d1b"/><path d="M161.91,72c0,3.24-2,5.41-5.15,5.41s-5.09-2.17-5.09-5.41,2-5.41,5.11-5.41S161.91,68.79,161.91,72Zm-7.76,0c0,2.17.94,3.58,2.61,3.58s2.67-1.37,2.67-3.58-1-3.58-2.65-3.58S154.15,69.82,154.15,72Z" style="fill:#1d1d1b"/><path d="M169.39,77.36a3.45,3.45,0,0,1-3-1.37v5.17H164V66.89h2.23v1.38a3.8,3.8,0,0,1,3.2-1.57c2.63,0,4.28,2.09,4.28,5.33S171.94,77.36,169.39,77.36Zm-.57-8.81c-1.52,0-2.49,1.33-2.49,3.48s.93,3.5,2.45,3.5,2.48-1.33,2.48-3.5S170.33,68.55,168.82,68.55Z" style="fill:#1d1d1b"/><path d="M180.2,66.62a4.21,4.21,0,0,1,3.92,2.11,8,8,0,0,1,.81,4h-7.3c.06,1.76.91,3,2.59,3a2.08,2.08,0,0,0,2.16-1.59h2.53c-.56,2.25-2.23,3.34-4.71,3.34-3.33,0-5-2.09-5-5.45C175.16,68.9,177.09,66.62,180.2,66.62Zm-.12,1.73c-1.34,0-2.35.87-2.49,2.62h4.91C182.36,69.22,181.37,68.35,180.08,68.35Z" style="fill:#1d1d1b"/><path d="M189.29,68.43A3,3,0,0,1,192,66.8a6.26,6.26,0,0,1,1.14.09V69a4.88,4.88,0,0,0-1-.09c-2,0-2.68,1.31-2.68,3.8v4.49H187V66.89h2.25Z" style="fill:#1d1d1b"/><path d="M207.93,72c0,3.24-2,5.41-5.16,5.41s-5.09-2.17-5.09-5.41,2-5.41,5.11-5.41S207.93,68.79,207.93,72Zm-7.76,0c0,2.17.93,3.58,2.6,3.58s2.67-1.37,2.67-3.58-1-3.58-2.65-3.58S200.17,69.82,200.17,72Z" style="fill:#1d1d1b"/><path d="M215.41,77.36a3.46,3.46,0,0,1-3-1.37v5.17H210V66.89h2.22v1.38a3.8,3.8,0,0,1,3.21-1.57c2.62,0,4.27,2.09,4.27,5.33S218,77.36,215.41,77.36Zm-.58-8.81c-1.51,0-2.49,1.33-2.49,3.48s.94,3.5,2.45,3.5,2.49-1.33,2.49-3.5S216.34,68.55,214.83,68.55Z" style="fill:#1d1d1b"/><path d="M224.6,64.35v2.54h2v1.84h-2v4.83c0,1.27.28,1.85,1.23,1.85a3.46,3.46,0,0,0,.82-.08v1.83a5.76,5.76,0,0,1-1.53.18c-2.05,0-2.91-1-2.91-3.3V68.73h-1.65V66.89h1.65V64.35Z" style="fill:#1d1d1b"/><path d="M230.84,65.12h-2.38v-2.4h2.38Zm0,12h-2.38V66.89h2.38Z" style="fill:#1d1d1b"/><path d="M243.18,72c0,3.24-2,5.41-5.15,5.41s-5.1-2.17-5.1-5.41,2-5.41,5.12-5.41S243.18,68.79,243.18,72Zm-7.76,0c0,2.17.93,3.58,2.61,3.58s2.66-1.37,2.66-3.58-1-3.58-2.64-3.58S235.42,69.82,235.42,72Z" style="fill:#1d1d1b"/><path d="M250.74,66.7a3,3,0,0,1,2.88,1.41,6.19,6.19,0,0,1,.62,3.16v5.89h-2.39V71.43c0-1.53-.22-2.9-1.87-2.9s-2.33,1-2.33,3.44v5.19h-2.38V66.89h2.2v1.34A4,4,0,0,1,250.74,66.7Z" style="fill:#1d1d1b"/><path d="M260.74,75.73c1.14,0,1.87-.48,1.87-1.27,0-1-1.13-1.3-2.46-1.62-1.75-.41-3.82-.87-3.82-3.12,0-1.87,1.65-3.1,4.28-3.1s4.25,1.17,4.25,3.42H262.5c-.06-1.21-.68-1.71-2-1.71-1.06,0-1.74.46-1.74,1.19,0,1.1,1.52,1.37,3,1.75s3.24,1,3.24,3-1.67,3.18-4.36,3.18c-2.92,0-4.55-1.23-4.61-3.56h2.45C258.56,75.11,259.29,75.73,260.74,75.73Z" style="fill:#1d1d1b"/><path d="M389.08,64.45h-6.84v4h6.45V70.5h-6.45v4.2h7.12v2.1h-9.65V62.36h9.37Z" style="fill:#1d1d1b"/><path d="M396.88,66.34a3,3,0,0,1,2.89,1.41,6.35,6.35,0,0,1,.61,3.17V76.8H398V71.07c0-1.53-.22-2.9-1.88-2.9s-2.32,1-2.32,3.44V76.8h-2.39V66.54h2.21v1.33A4,4,0,0,1,396.88,66.34Z" style="fill:#1d1d1b"/><path d="M409.31,75.47A4,4,0,0,1,405.87,77c-2.29,0-3.56-1.13-3.56-3,0-3.28,4.12-3.3,6.73-3.62V69.9c0-1.27-.6-2-1.87-2s-2,.62-2,1.73h-2.45c.08-2.15,1.79-3.42,4.48-3.42,3.26,0,4.19,1.69,4.19,4.46v2.86a19.15,19.15,0,0,0,.22,3.22h-2.17A11.53,11.53,0,0,1,409.31,75.47Zm-4.53-1.55c0,.87.6,1.43,1.71,1.43,1.49,0,2.55-.71,2.55-2.94V72C407.25,72.23,404.78,72.17,404.78,73.92Z" style="fill:#1d1d1b"/><path d="M419.34,77a3.8,3.8,0,0,1-3.16-1.55V76.8H414V62.36h2.39v5.37a3.61,3.61,0,0,1,3-1.39c2.63,0,4.28,2,4.28,5.31S421.87,77,419.34,77Zm-.62-8.83c-1.51,0-2.44,1.41-2.44,3.48s1,3.5,2.48,3.5,2.45-1.35,2.45-3.5S420.3,68.17,418.72,68.17Z" style="fill:#1d1d1b"/><path d="M428.15,76.8h-2.38V62.36h2.38Z" style="fill:#1d1d1b"/><path d="M435.28,66.26a4.21,4.21,0,0,1,3.92,2.11,8.06,8.06,0,0,1,.81,4h-7.3c.06,1.75.91,3,2.58,3a2.08,2.08,0,0,0,2.17-1.59H440c-.56,2.25-2.23,3.34-4.71,3.34-3.33,0-5-2.09-5-5.45C430.24,68.55,432.17,66.26,435.28,66.26ZM435.16,68c-1.34,0-2.35.88-2.49,2.63h4.91C437.44,68.87,436.45,68,435.16,68Z" style="fill:#1d1d1b"/><path d="M448.72,64v2.55h2v1.83h-2V73.2c0,1.28.28,1.85,1.24,1.85a3.39,3.39,0,0,0,.81-.08V76.8a5.67,5.67,0,0,1-1.53.18c-2.05,0-2.9-1-2.9-3.3V68.37h-1.66V66.54h1.66V64Z" style="fill:#1d1d1b"/><path d="M455,67.81a3.52,3.52,0,0,1,3.08-1.47A3.35,3.35,0,0,1,461,67.73a5.51,5.51,0,0,1,.57,3.19V76.8h-2.38V71.07c0-1.53-.22-2.9-1.87-2.9s-2.33,1-2.33,3.44V76.8h-2.39V62.36H455Z" style="fill:#1d1d1b"/><path d="M468.56,66.26a4.21,4.21,0,0,1,3.92,2.11,8.06,8.06,0,0,1,.81,4H466c.06,1.75.92,3,2.59,3a2.1,2.1,0,0,0,2.17-1.59h2.52c-.55,2.25-2.23,3.34-4.71,3.34-3.33,0-5-2.09-5-5.45C463.52,68.55,465.45,66.26,468.56,66.26ZM468.44,68c-1.34,0-2.35.88-2.49,2.63h4.92C470.73,68.87,469.73,68,468.44,68Z" style="fill:#1d1d1b"/><path d="M492.23,69.58c0,4.5-2.68,7.52-6.72,7.52s-6.69-3-6.69-7.52,2.65-7.52,6.71-7.52S492.23,65.11,492.23,69.58Zm-10.82,0c0,3.29,1.61,5.51,4.1,5.51s4.14-2.34,4.14-5.51-1.58-5.51-4.12-5.51S481.41,66.32,481.41,69.58Z" style="fill:#1d1d1b"/><path d="M504,64.45h-6.85v4h6.45V70.5h-6.45v4.2h7.13v2.1H494.6V62.36H504Z" style="fill:#1d1d1b"/><path d="M513.4,70.46c.46,1.33.73,2.5,1.07,3.62h.14c.24-1.14.6-2.43,1-3.62l2.58-8.1h4V76.8h-2.34V69.34c0-1.43,0-3.12.09-4.63h-.13c-.24.81-2.51,7.12-4,12.09H512.9c-1.51-5-3.74-11.3-4-12.09h-.14c.06,1.27.14,3.32.14,4.63V76.8h-2.33V62.36h4Z" style="fill:#1d1d1b"/><path d="M534.64,75.09c2.49,0,3.07-2.13,3.07-4.27V62.36h2.52v8.56c0,4-2,6.18-5.59,6.18-4.06,0-5.57-2.21-5.57-6.34v-8.4h2.53v8.46C531.6,72.81,532.12,75.09,534.64,75.09Z" style="fill:#1d1d1b"/><path d="M548.35,66.34a3,3,0,0,1,2.89,1.41,6.35,6.35,0,0,1,.61,3.17V76.8h-2.39V71.07c0-1.53-.21-2.9-1.87-2.9s-2.32,1-2.32,3.44V76.8h-2.39V66.54h2.21v1.33A4,4,0,0,1,548.35,66.34Z" style="fill:#1d1d1b"/><path d="M556.86,76.8h-2.38V62.36h2.38Z" style="fill:#1d1d1b"/><path d="M569.2,71.67c0,3.24-2,5.41-5.15,5.41s-5.1-2.17-5.1-5.41,2-5.41,5.12-5.41S569.2,68.43,569.2,71.67Zm-7.76,0c0,2.17.94,3.58,2.61,3.58s2.66-1.37,2.66-3.58-1-3.58-2.64-3.58S561.44,69.46,561.44,71.67Z" style="fill:#1d1d1b"/><path d="M575.56,77.1c-3.06,0-4.91-2.17-4.91-5.43s1.87-5.43,4.91-5.43c2.73,0,4.38,1.53,4.52,3.86h-2.47a2,2,0,0,0-2.07-2c-1.53,0-2.42,1.39-2.42,3.54s.93,3.62,2.42,3.62a2.07,2.07,0,0,0,2.13-2.07h2.43C579.92,75.65,578.25,77.1,575.56,77.1Z" style="fill:#1d1d1b"/><path d="M584.42,70.8l3.48-4.26h2.84l-3.94,4.59,4.36,5.67h-3l-3.76-5.09V76.8H582V62.36h2.39Z" style="fill:#1d1d1b"/><path d="M598.64,64v2.55h2v1.83h-2V73.2c0,1.28.28,1.85,1.23,1.85a3.46,3.46,0,0,0,.82-.08V76.8a5.72,5.72,0,0,1-1.53.18c-2,0-2.91-1-2.91-3.3V68.37H594.6V66.54h1.65V64Z" style="fill:#1d1d1b"/><path d="M612,71.67c0,3.24-2,5.41-5.15,5.41s-5.1-2.17-5.1-5.41,2-5.41,5.12-5.41S612,68.43,612,71.67Zm-7.76,0c0,2.17.94,3.58,2.61,3.58s2.66-1.37,2.66-3.58-1-3.58-2.64-3.58S604.27,69.46,604.27,71.67Z" style="fill:#1d1d1b"/><path d="M617.8,66.34a3.44,3.44,0,0,1,3.14,1.53V66.54h2.19v8.79c0,3.4-1,5.55-4.75,5.55-2.65,0-4.18-1.13-4.4-3.28h2.47c0,1,.75,1.57,2,1.57,1.59,0,2.4-.89,2.4-3.14V75a3.69,3.69,0,0,1-3.14,1.54c-2.45,0-4.18-1.93-4.18-5C613.5,68.67,615.21,66.34,617.8,66.34Zm.56,8.3c1.43,0,2.42-1.24,2.42-3.17s-.91-3.3-2.42-3.3S616,69.56,616,71.41C616,73.42,616.9,74.64,618.36,74.64Z" style="fill:#1d1d1b"/><path d="M629.54,66.34a3.45,3.45,0,0,1,3.14,1.53V66.54h2.19v8.79c0,3.4-1,5.55-4.76,5.55-2.64,0-4.18-1.13-4.4-3.28h2.47c.06,1,.76,1.57,2,1.57,1.59,0,2.41-.89,2.41-3.14V75a3.7,3.7,0,0,1-3.14,1.54c-2.45,0-4.18-1.93-4.18-5C625.24,68.67,627,66.34,629.54,66.34Zm.55,8.3c1.44,0,2.43-1.24,2.43-3.17s-.92-3.3-2.43-3.3-2.38,1.39-2.38,3.24C627.71,73.42,628.64,74.64,630.09,74.64Z" style="fill:#1d1d1b"/><path d="M640,76.8h-2.39V62.36H640Z" style="fill:#1d1d1b"/><path d="M647.1,66.26A4.21,4.21,0,0,1,651,68.37a8,8,0,0,1,.82,4h-7.3c.05,1.75.91,3,2.58,3a2.09,2.09,0,0,0,2.17-1.59h2.53c-.56,2.25-2.23,3.34-4.72,3.34-3.32,0-5-2.09-5-5.45C642.07,68.55,644,66.26,647.1,66.26ZM647,68c-1.33,0-2.35.88-2.48,2.63h4.91C649.27,68.87,648.28,68,647,68Z" style="fill:#1d1d1b"/><path d="M389.08,157.53h-6.84v4h6.45v2.09h-6.45v4.2h7.12v2.11h-9.65V155.44h9.37Z" style="fill:#1d1d1b"/><path d="M396.88,159.42a3,3,0,0,1,2.89,1.41,6.35,6.35,0,0,1,.61,3.17v5.89H398v-5.73c0-1.54-.22-2.91-1.88-2.91s-2.32,1-2.32,3.44v5.2h-2.39V159.62h2.21V161A4,4,0,0,1,396.88,159.42Z" style="fill:#1d1d1b"/><path d="M409.31,168.55a4,4,0,0,1-3.44,1.54c-2.29,0-3.56-1.14-3.56-3.05,0-3.28,4.12-3.3,6.73-3.62V163c0-1.27-.6-1.95-1.87-1.95s-2,.62-2,1.73h-2.45c.08-2.14,1.79-3.42,4.48-3.42,3.26,0,4.19,1.69,4.19,4.46v2.86a19.34,19.34,0,0,0,.22,3.23h-2.17A11.9,11.9,0,0,1,409.31,168.55ZM404.78,167c0,.88.6,1.44,1.71,1.44,1.49,0,2.55-.72,2.55-2.95v-.44C407.25,165.31,404.78,165.25,404.78,167Z" style="fill:#1d1d1b"/><path d="M419.34,170.09a3.82,3.82,0,0,1-3.16-1.55v1.35H414V155.44h2.39v5.37a3.61,3.61,0,0,1,3-1.39c2.63,0,4.28,2,4.28,5.31S421.87,170.09,419.34,170.09Zm-.62-8.84c-1.51,0-2.44,1.42-2.44,3.48s1,3.51,2.48,3.51,2.45-1.36,2.45-3.51S420.3,161.25,418.72,161.25Z" style="fill:#1d1d1b"/><path d="M428.15,169.89h-2.38V155.44h2.38Z" style="fill:#1d1d1b"/><path d="M435.28,159.34a4.22,4.22,0,0,1,3.92,2.11,8.08,8.08,0,0,1,.81,4h-7.3c.06,1.75.91,3,2.58,3a2.08,2.08,0,0,0,2.17-1.6H440c-.56,2.25-2.23,3.35-4.71,3.35-3.33,0-5-2.09-5-5.46C430.24,161.63,432.17,159.34,435.28,159.34Zm-.12,1.73c-1.34,0-2.35.88-2.49,2.63h4.91C437.44,162,436.45,161.07,435.16,161.07Z" style="fill:#1d1d1b"/><path d="M451.71,168.18c2.49,0,3.06-2.13,3.06-4.28v-8.46h2.53V164c0,4-2,6.19-5.59,6.19-4.06,0-5.57-2.21-5.57-6.35v-8.4h2.52v8.46C448.66,165.89,449.18,168.18,451.71,168.18Z" style="fill:#1d1d1b"/><path d="M465.12,168.18c1.73,0,2.78-.8,2.78-2.07,0-1.49-1.55-2-3.3-2.51-2.27-.7-4.94-1.39-4.94-4.32,0-2.46,2.11-4.14,5.32-4.14s5.17,1.79,5.23,4.72h-2.57a2.65,2.65,0,0,0-2.78-2.73c-1.36,0-2.55.72-2.55,1.93s1.33,1.93,3.8,2.61c2.31.64,4.46,1.59,4.46,4.12s-2.21,4.4-5.45,4.4c-3.53,0-5.72-1.89-5.72-5.14H462A2.84,2.84,0,0,0,465.12,168.18Z" style="fill:#1d1d1b"/><path d="M481.21,156.16a3.35,3.35,0,0,1,1.63,3,3.24,3.24,0,0,1-2.68,3.29v.06a3.18,3.18,0,0,1,3,3.38,3.5,3.5,0,0,1-2,3.36,9.12,9.12,0,0,1-4,.6h-4.34V155.44h4.42A8.2,8.2,0,0,1,481.21,156.16Zm-.84,3.36c0-1.77-1.41-2-3.18-2h-1.87v4.08h1.79C478.48,161.57,480.37,161.37,480.37,159.52Zm.2,6.21c0-1.73-1.21-2.13-3.42-2.13h-1.83v4.26h1.93C479,167.86,480.57,167.56,480.57,165.73Z" style="fill:#1d1d1b"/><path d="M493,159.42a3.47,3.47,0,0,1,3,1.37v-5.35h2.39v14.45h-2.25v-1.38a3.77,3.77,0,0,1-3.14,1.58c-2.63,0-4.34-2-4.34-5.36C488.67,161.49,490.38,159.42,493,159.42Zm.55,8.82c1.52,0,2.49-1.3,2.49-3.51s-.93-3.48-2.45-3.48-2.46,1.33-2.46,3.48S492.05,168.24,493.56,168.24Z" style="fill:#1d1d1b"/><path d="M505.52,159.34a4.22,4.22,0,0,1,3.92,2.11,8,8,0,0,1,.81,4H503c.06,1.75.92,3,2.59,3a2.1,2.1,0,0,0,2.17-1.6h2.52c-.55,2.25-2.22,3.35-4.71,3.35-3.32,0-5-2.09-5-5.46C500.48,161.63,502.42,159.34,505.52,159.34Zm-.12,1.73c-1.33,0-2.35.88-2.49,2.63h4.92C507.69,162,506.69,161.07,505.4,161.07Z" style="fill:#1d1d1b"/><path d="M517.75,170.09a3.84,3.84,0,0,1-3.16-1.55v1.35h-2.23V155.44h2.39v5.37a3.62,3.62,0,0,1,3-1.39c2.63,0,4.28,2,4.28,5.31S520.28,170.09,517.75,170.09Zm-.61-8.84c-1.52,0-2.45,1.42-2.45,3.48s1,3.51,2.49,3.51,2.44-1.36,2.44-3.51S518.71,161.25,517.14,161.25Z" style="fill:#1d1d1b"/><path d="M527.56,170.09a3.32,3.32,0,0,1-2.9-1.4,5.66,5.66,0,0,1-.6-3.24v-5.83h2.37v5.75c0,1.51.22,2.91,1.89,2.91a2,2,0,0,0,1.69-.8,4.39,4.39,0,0,0,.64-2.65v-5.21H533v10.27H530.8v-1.34A3.9,3.9,0,0,1,527.56,170.09Z" style="fill:#1d1d1b"/><path d="M539.46,159.42A3.45,3.45,0,0,1,542.6,161v-1.33h2.19v8.8c0,3.4-1,5.55-4.76,5.55-2.64,0-4.17-1.14-4.39-3.29h2.46c.06,1,.76,1.58,2,1.58,1.6,0,2.41-.9,2.41-3.15v-1.05a3.7,3.7,0,0,1-3.14,1.53c-2.45,0-4.18-1.93-4.18-5C535.16,161.75,536.87,159.42,539.46,159.42Zm.55,8.3c1.44,0,2.43-1.23,2.43-3.17s-.91-3.3-2.43-3.3-2.38,1.39-2.38,3.25S538.56,167.72,540,167.72Z" style="fill:#1d1d1b"/><path d="M551.19,159.42a3.46,3.46,0,0,1,3.15,1.53v-1.33h2.19v8.8c0,3.4-1,5.55-4.76,5.55-2.65,0-4.18-1.14-4.4-3.29h2.47c.06,1,.76,1.58,2,1.58,1.59,0,2.41-.9,2.41-3.15v-1.05a3.72,3.72,0,0,1-3.14,1.53c-2.45,0-4.18-1.93-4.18-5C546.9,161.75,548.61,159.42,551.19,159.42Zm.56,8.3c1.43,0,2.43-1.23,2.43-3.17s-.92-3.3-2.43-3.3-2.39,1.39-2.39,3.25S550.3,167.72,551.75,167.72Z" style="fill:#1d1d1b"/><path d="M561.64,157.85h-2.39v-2.41h2.39Zm0,12h-2.39V159.62h2.39Z" style="fill:#1d1d1b"/><path d="M569.86,159.42a3,3,0,0,1,2.88,1.41,6.23,6.23,0,0,1,.62,3.17v5.89H571v-5.73c0-1.54-.22-2.91-1.87-2.91s-2.33,1-2.33,3.44v5.2h-2.39V159.62h2.21V161A4,4,0,0,1,569.86,159.42Z" style="fill:#1d1d1b"/><path d="M579.66,159.42a3.46,3.46,0,0,1,3.15,1.53v-1.33H585v8.8c0,3.4-1,5.55-4.76,5.55-2.65,0-4.18-1.14-4.4-3.29h2.47c.06,1,.76,1.58,2,1.58,1.59,0,2.41-.9,2.41-3.15v-1.05a3.72,3.72,0,0,1-3.15,1.53c-2.44,0-4.18-1.93-4.18-5C575.36,161.75,577.08,159.42,579.66,159.42Zm.56,8.3c1.43,0,2.43-1.23,2.43-3.17s-.92-3.3-2.43-3.3-2.39,1.39-2.39,3.25S578.77,167.72,580.22,167.72Z" style="fill:#1d1d1b"/><g style="clip-path:url(#a)"><path d="M456.2,232.13s-13.27,0-13.27,13.27v18.23s0,13.26,13.27,13.26H777.31s13.26,0,13.26-13.26V245.4s0-13.27-13.26-13.27Z" style="fill:#c9ffe0"/><line x1="469.58" y1="276.89" x2="768.39" y2="276.89" style="fill:none;stroke:#1d1d1b;stroke-width:2.2100000381469727px;stroke-dasharray:8.920000076293945,8.920000076293945"/><line x1="763.93" y1="232.13" x2="465.12" y2="232.13" style="fill:none;stroke:#1d1d1b;stroke-width:2.2100000381469727px;stroke-dasharray:8.920000076293945,8.920000076293945"/><path d="M460.66,232.13H456.2a16.42,16.42,0,0,0-5.14,1M782.48,233a15.22,15.22,0,0,0-5.17-.83h-4.46M790.57,250V245.4a16.56,16.56,0,0,0-1-5.14m.19,28.54a15.19,15.19,0,0,0,.82-5.17v-4.56m-17.72,17.82h4.46a16.56,16.56,0,0,0,5.14-1M451,276.07a15.23,15.23,0,0,0,5.17.82h4.46m-17.72-17.82v4.56a16.56,16.56,0,0,0,1,5.14m-.19-28.54a15.19,15.19,0,0,0-.82,5.17V250" style="fill:none;stroke:#1d1d1b;stroke-width:2.2100000381469727px"/></g><path d="M462.21,247.58c.5,1.21,2.69,5.27,3.16,6.49h.1c.48-1.22,2.77-5.3,3.33-6.49h2.68l-4.85,8.57V262H464.1v-5.87l-4.81-8.57Z" style="fill:#1d1d1b"/><path d="M480.65,256.89c0,3.24-2,5.41-5.15,5.41s-5.09-2.17-5.09-5.41,2-5.41,5.11-5.41S480.65,253.65,480.65,256.89Zm-7.76,0c0,2.17.94,3.58,2.61,3.58s2.67-1.37,2.67-3.58-1-3.58-2.65-3.58S472.89,254.68,472.89,256.89Z" style="fill:#1d1d1b"/><path d="M486.12,262.22a3.32,3.32,0,0,1-2.9-1.39,5.68,5.68,0,0,1-.6-3.24v-5.83H485v5.75c0,1.51.22,2.9,1.89,2.9a2,2,0,0,0,1.69-.79,4.41,4.41,0,0,0,.64-2.65v-5.21h2.38V262h-2.22v-1.33A3.91,3.91,0,0,1,486.12,262.22Z" style="fill:#1d1d1b"/><path d="M496.59,253.29a3,3,0,0,1,2.72-1.63,5.49,5.49,0,0,1,1.14.1v2.07a4.93,4.93,0,0,0-1-.1c-2,0-2.69,1.31-2.69,3.8V262h-2.38V251.76h2.25Z" style="fill:#1d1d1b"/><path d="M508.06,256.89c.22,1,.38,2.07.56,3.08h.14c.18-1,.4-2.08.62-3.1l1.17-5.11h3.34l1.2,5.13c.22,1,.38,2.07.6,3.08h.13c.16-1,.32-2.1.54-3.08l1.1-5.13h2.25L517.18,262H514l-1.13-5.15c-.22-1-.42-2.15-.64-3.18H512c-.21,1-.43,2.15-.67,3.2L510.21,262h-3.14l-2.53-10.26H507Z" style="fill:#1d1d1b"/><path d="M527.6,260.69a4,4,0,0,1-3.44,1.53c-2.29,0-3.56-1.13-3.56-3,0-3.28,4.12-3.3,6.72-3.62v-.44c0-1.27-.59-2-1.87-2s-2,.62-2,1.73H521c.08-2.15,1.8-3.42,4.48-3.42,3.26,0,4.2,1.69,4.2,4.46v2.86a19.15,19.15,0,0,0,.22,3.22H527.7A11.53,11.53,0,0,1,527.6,260.69Zm-4.54-1.55c0,.87.6,1.43,1.72,1.43,1.49,0,2.54-.71,2.54-2.94v-.44C525.53,257.45,523.06,257.39,523.06,259.14Z" style="fill:#1d1d1b"/><path d="M534.48,253.29a3,3,0,0,1,2.73-1.63,5.4,5.4,0,0,1,1.13.1v2.07a4.84,4.84,0,0,0-1-.1c-2,0-2.69,1.31-2.69,3.8V262h-2.39V251.76h2.25Z" style="fill:#1d1d1b"/><path d="M542.22,253.29a3,3,0,0,1,2.73-1.63,5.4,5.4,0,0,1,1.13.1v2.07a4.84,4.84,0,0,0-1-.1c-2,0-2.69,1.31-2.69,3.8V262H540V251.76h2.25Z" style="fill:#1d1d1b"/><path d="M553.82,260.69a4,4,0,0,1-3.44,1.53c-2.29,0-3.56-1.13-3.56-3,0-3.28,4.12-3.3,6.72-3.62v-.44c0-1.27-.6-2-1.87-2s-2,.62-2,1.73h-2.45c.08-2.15,1.79-3.42,4.48-3.42,3.26,0,4.2,1.69,4.2,4.46v2.86a19.15,19.15,0,0,0,.22,3.22h-2.17A11.53,11.53,0,0,1,553.82,260.69Zm-4.54-1.55c0,.87.6,1.43,1.71,1.43,1.5,0,2.55-.71,2.55-2.94v-.44C551.75,257.45,549.28,257.39,549.28,259.14Z" style="fill:#1d1d1b"/><path d="M563.93,251.56a3,3,0,0,1,2.88,1.41,6.22,6.22,0,0,1,.62,3.16V262H565v-5.73c0-1.53-.22-2.9-1.87-2.9s-2.33,1-2.33,3.44V262h-2.39V251.76h2.21v1.33A4,4,0,0,1,563.93,251.56Z" style="fill:#1d1d1b"/><path d="M572.84,249.21v2.55h2v1.83h-2v4.83c0,1.28.28,1.85,1.23,1.85a3.46,3.46,0,0,0,.82-.08V262a5.79,5.79,0,0,1-1.54.18c-2.05,0-2.9-1-2.9-3.3v-5.31H568.8v-1.83h1.65v-2.55Z" style="fill:#1d1d1b"/><path d="M577.19,264.21c1.14,0,1.83-.65,2-2.09l-3.7-10.36h2.67l1.51,5.13c.3,1,.5,2,.8,3h.12c.25-1,.49-2,.79-3l1.61-5.13h2.49l-3.58,10c-1.11,3.16-2.17,4.35-4.2,4.35a6,6,0,0,1-1.53-.12v-1.93A2.79,2.79,0,0,0,577.19,264.21Z" style="fill:#1d1d1b"/><path d="M593,250h-2.39v-2.41H593Zm0,12h-2.39V251.76H593Z" style="fill:#1d1d1b"/><path d="M599.59,260.59c1.14,0,1.87-.48,1.87-1.27,0-1-1.13-1.29-2.46-1.61-1.75-.42-3.82-.88-3.82-3.13,0-1.87,1.65-3.1,4.28-3.1s4.25,1.17,4.25,3.42h-2.36c-.06-1.21-.68-1.71-2-1.71-1.06,0-1.74.46-1.74,1.19,0,1.1,1.52,1.38,3.05,1.75s3.24,1,3.24,3-1.67,3.18-4.36,3.18c-2.92,0-4.55-1.23-4.61-3.56h2.45C597.41,260,598.14,260.59,599.59,260.59Z" style="fill:#1d1d1b"/><path d="M615.39,251.56a3,3,0,0,1,2.89,1.41,6.33,6.33,0,0,1,.61,3.16V262H616.5v-5.73c0-1.53-.21-2.9-1.87-2.9s-2.32,1-2.32,3.44V262h-2.39V251.76h2.21v1.33A4,4,0,0,1,615.39,251.56Z" style="fill:#1d1d1b"/><path d="M631.11,256.89c0,3.24-2,5.41-5.16,5.41s-5.09-2.17-5.09-5.41,2-5.41,5.11-5.41S631.11,253.65,631.11,256.89Zm-7.76,0c0,2.17.93,3.58,2.6,3.58s2.67-1.37,2.67-3.58-1-3.58-2.65-3.58S623.35,254.68,623.35,256.89Z" style="fill:#1d1d1b"/><path d="M635.94,249.21v2.55h2v1.83h-2v4.83c0,1.28.28,1.85,1.23,1.85a3.46,3.46,0,0,0,.82-.08V262a5.76,5.76,0,0,1-1.53.18c-2.05,0-2.91-1-2.91-3.3v-5.31H631.9v-1.83h1.65v-2.55Z" style="fill:#1d1d1b"/><path d="M646.36,256.89c.3,1,.54,2,.8,3h.14c.24-1,.5-2,.79-3l1.6-5.13h2.54L648.65,262h-2.9l-3.58-10.26h2.64Z" style="fill:#1d1d1b"/><path d="M659.89,260.69a4,4,0,0,1-3.44,1.53c-2.29,0-3.56-1.13-3.56-3,0-3.28,4.12-3.3,6.72-3.62v-.44c0-1.27-.59-2-1.87-2s-2,.62-2,1.73h-2.44c.08-2.15,1.79-3.42,4.47-3.42,3.27,0,4.2,1.69,4.2,4.46v2.86a19.15,19.15,0,0,0,.22,3.22H660A11.53,11.53,0,0,1,659.89,260.69Zm-4.53-1.55c0,.87.59,1.43,1.71,1.43,1.49,0,2.54-.71,2.54-2.94v-.44C657.82,257.45,655.36,257.39,655.36,259.14Z" style="fill:#1d1d1b"/><path d="M666.91,262h-2.38V247.58h2.38Z" style="fill:#1d1d1b"/><path d="M672.05,250h-2.39v-2.41h2.39Zm0,12h-2.39V251.76h2.39Z" style="fill:#1d1d1b"/><path d="M678.49,251.56a3.48,3.48,0,0,1,3,1.37v-5.35h2.38V262h-2.25v-1.37a3.75,3.75,0,0,1-3.14,1.57c-2.62,0-4.34-2-4.34-5.35C674.15,253.63,675.87,251.56,678.49,251.56Zm.56,8.81c1.51,0,2.49-1.29,2.49-3.5s-.94-3.48-2.45-3.48-2.47,1.33-2.47,3.48S677.54,260.37,679.05,260.37Z" style="fill:#1d1d1b"/><path d="M696.91,260.69a4,4,0,0,1-3.44,1.53c-2.29,0-3.56-1.13-3.56-3,0-3.28,4.12-3.3,6.72-3.62v-.44c0-1.27-.59-2-1.87-2s-2,.62-2,1.73h-2.44c.08-2.15,1.79-3.42,4.47-3.42,3.27,0,4.2,1.69,4.2,4.46v2.86a19.15,19.15,0,0,0,.22,3.22H697A11.53,11.53,0,0,1,696.91,260.69Zm-4.53-1.55c0,.87.59,1.43,1.71,1.43,1.49,0,2.54-.71,2.54-2.94v-.44C694.84,257.45,692.38,257.39,692.38,259.14Z" style="fill:#1d1d1b"/><path d="M707,251.56A3,3,0,0,1,709.9,253a6.22,6.22,0,0,1,.62,3.16V262h-2.39v-5.73c0-1.53-.22-2.9-1.87-2.9s-2.32,1-2.32,3.44V262h-2.39V251.76h2.21v1.33A4,4,0,0,1,707,251.56Z" style="fill:#1d1d1b"/><path d="M713.46,264.21c1.14,0,1.83-.65,2-2.09l-3.7-10.36h2.67l1.51,5.13c.3,1,.5,2,.8,3h.12c.26-1,.49-2,.79-3l1.61-5.13h2.49l-3.58,10c-1.12,3.16-2.17,4.35-4.2,4.35a6,6,0,0,1-1.53-.12v-1.93A2.76,2.76,0,0,0,713.46,264.21Z" style="fill:#1d1d1b"/><path d="M725.4,253.13a3.69,3.69,0,0,1,3.16-1.57,2.85,2.85,0,0,1,2.91,1.73,3.77,3.77,0,0,1,3.5-1.73,3.11,3.11,0,0,1,2.45.91,4.67,4.67,0,0,1,.87,3.13V262h-2.38v-6c0-1.36-.32-2.61-1.74-2.61-1.71,0-2.18,1.63-2.18,3.58v5H729.6v-6c0-1.36-.36-2.61-1.77-2.61-1.69,0-2.17,1.63-2.17,3.58v5h-2.39V251.76h2.15Z" style="fill:#1d1d1b"/><path d="M750.51,256.89c0,3.24-2,5.41-5.16,5.41s-5.09-2.17-5.09-5.41,2-5.41,5.11-5.41S750.51,253.65,750.51,256.89Zm-7.76,0c0,2.17.93,3.58,2.6,3.58s2.67-1.37,2.67-3.58-1-3.58-2.65-3.58S742.75,254.68,742.75,256.89Z" style="fill:#1d1d1b"/><path d="M754.84,253.29a3,3,0,0,1,2.73-1.63,5.4,5.4,0,0,1,1.13.1v2.07a4.84,4.84,0,0,0-1-.1c-2,0-2.69,1.31-2.69,3.8V262h-2.39V251.76h2.25Z" style="fill:#1d1d1b"/><path d="M764.53,251.48a4.21,4.21,0,0,1,3.92,2.11,8,8,0,0,1,.82,4H762c.06,1.75.92,3,2.59,3a2.09,2.09,0,0,0,2.17-1.59h2.53c-.56,2.25-2.23,3.34-4.72,3.34-3.32,0-5-2.09-5-5.45C759.5,253.77,761.43,251.48,764.53,251.48Zm-.12,1.73c-1.33,0-2.35.87-2.49,2.63h4.92C766.7,254.08,765.71,253.21,764.41,253.21Z" style="fill:#1d1d1b"/><path d="M710,170.2c-3.92,0-6.51-2.71-6.51-7.41,0-4.39,2.65-7.64,6.55-7.64,3.32,0,5.65,2,5.87,5.16h-2.59a3.25,3.25,0,0,0-3.3-3.15c-2.39,0-3.94,2.25-3.94,5.53s1.55,5.5,3.92,5.5c1.91,0,3.1-1.26,3.36-3.25H716A5.72,5.72,0,0,1,710,170.2Z" style="fill:#1d1d1b"/><path d="M727.44,164.76c0,3.25-2,5.41-5.16,5.41s-5.09-2.16-5.09-5.41,2-5.41,5.11-5.41S727.44,161.52,727.44,164.76Zm-7.76,0c0,2.17.93,3.58,2.6,3.58S725,167,725,164.76s-1-3.58-2.65-3.58S719.68,162.55,719.68,164.76Z" style="fill:#1d1d1b"/><path d="M735,159.43a3,3,0,0,1,2.89,1.41,6.23,6.23,0,0,1,.62,3.17v5.89h-2.39v-5.73c0-1.54-.22-2.91-1.87-2.91s-2.33,1-2.33,3.44v5.2h-2.39V159.63h2.21V161A4,4,0,0,1,735,159.43Z" style="fill:#1d1d1b"/><path d="M746.59,159.43a3,3,0,0,1,2.89,1.41,6.24,6.24,0,0,1,.61,3.17v5.89h-2.38v-5.73c0-1.54-.22-2.91-1.87-2.91s-2.33,1-2.33,3.44v5.2h-2.39V159.63h2.21V161A4,4,0,0,1,746.59,159.43Z" style="fill:#1d1d1b"/><path d="M757.1,159.35a4.22,4.22,0,0,1,3.92,2.11,8.06,8.06,0,0,1,.81,4h-7.3c.06,1.75.91,3,2.59,3a2.07,2.07,0,0,0,2.16-1.59h2.53c-.56,2.25-2.23,3.34-4.71,3.34-3.33,0-5-2.08-5-5.45C752.06,161.64,754,159.35,757.1,159.35Zm-.12,1.73c-1.34,0-2.35.88-2.49,2.63h4.91C759.26,162,758.27,161.08,757,161.08Z" style="fill:#1d1d1b"/><path d="M768.22,170.2c-3.07,0-4.92-2.17-4.92-5.44s1.87-5.43,4.92-5.43c2.72,0,4.37,1.53,4.51,3.86h-2.46a2,2,0,0,0-2.07-2c-1.54,0-2.43,1.39-2.43,3.54s.93,3.62,2.43,3.62a2.07,2.07,0,0,0,2.13-2.06h2.42C772.57,168.74,770.9,170.2,768.22,170.2Z" style="fill:#1d1d1b"/><path d="M777.61,157.08v2.55h2v1.83h-2v4.83c0,1.28.27,1.86,1.23,1.86a3.35,3.35,0,0,0,.81-.08v1.83a5.67,5.67,0,0,1-1.53.18c-2,0-2.9-1-2.9-3.31v-5.31h-1.65v-1.83h1.65v-2.55Z" style="fill:#1d1d1b"/><path d="M788.07,157.08v2.55h2v1.83h-2v4.83c0,1.28.28,1.86,1.23,1.86a3.46,3.46,0,0,0,.82-.08v1.83a5.76,5.76,0,0,1-1.53.18c-2.05,0-2.91-1-2.91-3.31v-5.31H784v-1.83h1.65v-2.55Z" style="fill:#1d1d1b"/><path d="M794.32,160.9a3.51,3.51,0,0,1,3.08-1.47,3.33,3.33,0,0,1,2.92,1.39,5.5,5.5,0,0,1,.58,3.19v5.89h-2.39v-5.73c0-1.54-.22-2.91-1.87-2.91s-2.32,1-2.32,3.44v5.2h-2.39V155.45h2.39Z" style="fill:#1d1d1b"/><path d="M807.9,159.35a4.21,4.21,0,0,1,3.92,2.11,8,8,0,0,1,.82,4h-7.3c.06,1.75.91,3,2.58,3a2.08,2.08,0,0,0,2.17-1.59h2.53c-.56,2.25-2.23,3.34-4.72,3.34-3.32,0-5-2.08-5-5.45C802.87,161.64,804.8,159.35,807.9,159.35Zm-.12,1.73c-1.33,0-2.34.88-2.48,2.63h4.91C810.07,162,809.08,161.08,807.78,161.08Z" style="fill:#1d1d1b"/><path d="M822.43,159.43a3.47,3.47,0,0,1,3,1.37v-5.35h2.39V169.9h-2.25v-1.38a3.77,3.77,0,0,1-3.14,1.58c-2.63,0-4.34-1.95-4.34-5.36C818.09,161.5,819.8,159.43,822.43,159.43Zm.55,8.82c1.52,0,2.49-1.3,2.49-3.51s-.93-3.48-2.45-3.48-2.46,1.33-2.46,3.48S821.47,168.25,823,168.25Z" style="fill:#1d1d1b"/><path d="M834.94,159.35a4.22,4.22,0,0,1,3.92,2.11,8,8,0,0,1,.81,4h-7.3c.06,1.75.92,3,2.59,3a2.09,2.09,0,0,0,2.17-1.59h2.52c-.55,2.25-2.22,3.34-4.71,3.34-3.32,0-5-2.08-5-5.45C829.9,161.64,831.83,159.35,834.94,159.35Zm-.12,1.73c-1.33,0-2.35.88-2.49,2.63h4.92C837.11,162,836.11,161.08,834.82,161.08Z" style="fill:#1d1d1b"/><path d="M844.59,164.76c.3,1,.53,2,.79,3h.14c.24-1,.5-2,.8-3l1.59-5.13h2.55l-3.58,10.27H844l-3.58-10.27H843Z" style="fill:#1d1d1b"/><path d="M854.38,157.86H852v-2.41h2.39Zm0,12H852V159.63h2.39Z" style="fill:#1d1d1b"/><path d="M861.4,170.2c-3.07,0-4.92-2.17-4.92-5.44s1.87-5.43,4.92-5.43c2.72,0,4.37,1.53,4.51,3.86h-2.46a2,2,0,0,0-2.07-2c-1.54,0-2.43,1.39-2.43,3.54s.93,3.62,2.43,3.62a2.07,2.07,0,0,0,2.13-2.06h2.42C865.75,168.74,864.08,170.2,861.4,170.2Z" style="fill:#1d1d1b"/><path d="M872.24,159.35a4.22,4.22,0,0,1,3.92,2.11,8,8,0,0,1,.81,4h-7.3c.06,1.75.92,3,2.59,3a2.09,2.09,0,0,0,2.17-1.59H877c-.56,2.25-2.23,3.34-4.72,3.34-3.32,0-5-2.08-5-5.45C867.21,161.64,869.13,159.35,872.24,159.35Zm-.12,1.73c-1.33,0-2.35.88-2.49,2.63h4.92C874.41,162,873.41,161.08,872.12,161.08Z" style="fill:#1d1d1b"/><path d="M885.69,157.08v2.55h2v1.83h-2v4.83c0,1.28.28,1.86,1.23,1.86a3.46,3.46,0,0,0,.82-.08v1.83a5.79,5.79,0,0,1-1.54.18c-2.05,0-2.9-1-2.9-3.31v-5.31h-1.65v-1.83h1.65v-2.55Z" style="fill:#1d1d1b"/><path d="M899.08,164.76c0,3.25-2,5.41-5.16,5.41s-5.09-2.16-5.09-5.41,2-5.41,5.11-5.41S899.08,161.52,899.08,164.76Zm-7.76,0c0,2.17.93,3.58,2.6,3.58s2.67-1.37,2.67-3.58-1-3.58-2.65-3.58S891.32,162.55,891.32,164.76Z" style="fill:#1d1d1b"/><path d="M911.45,168.56A4,4,0,0,1,908,170.1c-2.29,0-3.56-1.14-3.56-3,0-3.28,4.11-3.3,6.72-3.62V163c0-1.27-.6-2-1.87-2s-2,.62-2,1.73h-2.45c.08-2.15,1.79-3.42,4.48-3.42,3.26,0,4.2,1.69,4.2,4.46v2.86a19.34,19.34,0,0,0,.22,3.23h-2.17A11.9,11.9,0,0,1,911.45,168.56ZM906.91,167c0,.88.6,1.43,1.71,1.43,1.5,0,2.55-.71,2.55-2.94v-.44C909.38,165.32,906.91,165.26,906.91,167Z" style="fill:#1d1d1b"/><path d="M924.34,170.2c-3.06,0-4.91-2.17-4.91-5.44s1.86-5.43,4.91-5.43c2.73,0,4.38,1.53,4.52,3.86h-2.47a2,2,0,0,0-2.07-2c-1.53,0-2.43,1.39-2.43,3.54s.94,3.62,2.43,3.62a2.07,2.07,0,0,0,2.13-2.06h2.43C928.7,168.74,927,170.2,924.34,170.2Z" style="fill:#1d1d1b"/><path d="M940.39,164.76c0,3.25-2,5.41-5.15,5.41s-5.09-2.16-5.09-5.41,2-5.41,5.11-5.41S940.39,161.52,940.39,164.76Zm-7.76,0c0,2.17.94,3.58,2.61,3.58s2.67-1.37,2.67-3.58-1-3.58-2.65-3.58S932.63,162.55,932.63,164.76Z" style="fill:#1d1d1b"/><path d="M944.61,161a3.69,3.69,0,0,1,3.16-1.57,2.85,2.85,0,0,1,2.91,1.73,3.77,3.77,0,0,1,3.5-1.73,3.06,3.06,0,0,1,2.45.92,4.64,4.64,0,0,1,.87,3.12v6.43h-2.38v-6c0-1.36-.32-2.61-1.73-2.61-1.72,0-2.19,1.63-2.19,3.58v5.06h-2.39v-6c0-1.36-.36-2.61-1.77-2.61-1.69,0-2.17,1.63-2.17,3.58v5.06h-2.39V159.63h2.15Z" style="fill:#1d1d1b"/><path d="M965.52,170.1a3.42,3.42,0,0,1-3-1.38v5.18h-2.39V159.63h2.23V161a3.81,3.81,0,0,1,3.2-1.57c2.63,0,4.28,2.09,4.28,5.33C969.84,168.15,968.07,170.1,965.52,170.1Zm-.58-8.82c-1.51,0-2.48,1.33-2.48,3.48s.93,3.5,2.44,3.5,2.49-1.33,2.49-3.5S966.46,161.28,964.94,161.28Z" style="fill:#1d1d1b"/><path d="M975.33,170.1a3.34,3.34,0,0,1-2.91-1.4,5.66,5.66,0,0,1-.6-3.24v-5.83h2.37v5.75c0,1.51.22,2.91,1.89,2.91a1.94,1.94,0,0,0,1.69-.8,4.39,4.39,0,0,0,.64-2.65v-5.21h2.39V169.9h-2.23v-1.34A3.91,3.91,0,0,1,975.33,170.1Z" style="fill:#1d1d1b"/><path d="M986.47,157.08v2.55h2v1.83h-2v4.83c0,1.28.28,1.86,1.23,1.86a3.46,3.46,0,0,0,.82-.08v1.83a5.79,5.79,0,0,1-1.54.18c-2.05,0-2.9-1-2.9-3.31v-5.31h-1.65v-1.83h1.65v-2.55Z" style="fill:#1d1d1b"/><path d="M994.64,159.35a4.21,4.21,0,0,1,3.92,2.11,8,8,0,0,1,.82,4h-7.3c.06,1.75.91,3,2.58,3a2.08,2.08,0,0,0,2.17-1.59h2.53c-.56,2.25-2.23,3.34-4.72,3.34-3.32,0-5-2.08-5-5.45C989.61,161.64,991.54,159.35,994.64,159.35Zm-.12,1.73c-1.33,0-2.34.88-2.48,2.63H997C996.81,162,995.82,161.08,994.52,161.08Z" style="fill:#1d1d1b"/><path d="M1003.73,161.16a3,3,0,0,1,2.73-1.63,5.34,5.34,0,0,1,1.13.1v2.07a4.78,4.78,0,0,0-1-.1c-2,0-2.69,1.31-2.69,3.8v4.5h-2.38V159.63h2.24Z" style="fill:#1d1d1b"/><path d="M1132.81,163c0,4.5-2.69,7.52-6.72,7.52s-6.69-3-6.69-7.52,2.65-7.52,6.71-7.52S1132.81,158.47,1132.81,163ZM1122,163c0,3.29,1.61,5.51,4.1,5.51s4.13-2.34,4.13-5.51-1.57-5.51-4.11-5.51S1122,159.69,1122,163Z" style="fill:#1d1d1b"/><path d="M1140.31,170.37a3.41,3.41,0,0,1-3-1.37v5.17h-2.39V159.91h2.23v1.37a3.81,3.81,0,0,1,3.2-1.57c2.63,0,4.28,2.09,4.28,5.33S1142.86,170.37,1140.31,170.37Zm-.58-8.81c-1.51,0-2.48,1.33-2.48,3.48s.93,3.5,2.44,3.5,2.49-1.33,2.49-3.5S1141.25,161.56,1139.73,161.56Z" style="fill:#1d1d1b"/><path d="M1151.11,159.63a4.19,4.19,0,0,1,3.92,2.11,8,8,0,0,1,.82,4h-7.31c.06,1.75.92,3,2.59,3a2.08,2.08,0,0,0,2.17-1.59h2.53c-.56,2.25-2.23,3.34-4.72,3.34-3.32,0-5-2.09-5-5.45C1146.08,161.92,1148,159.63,1151.11,159.63Zm-.12,1.73c-1.33,0-2.35.88-2.49,2.63h4.92C1153.28,162.24,1152.29,161.36,1151,161.36Z" style="fill:#1d1d1b"/><path d="M1163.43,159.71a3,3,0,0,1,2.88,1.41,6.23,6.23,0,0,1,.62,3.17v5.88h-2.39v-5.73c0-1.53-.22-2.9-1.87-2.9s-2.33,1-2.33,3.44v5.19H1158V159.91h2.2v1.33A4,4,0,0,1,1163.43,159.71Z" style="fill:#1d1d1b"/><path d="M1185.33,170.17h-2.67l-1.37-3.89h-5.75l-1.33,3.89h-2.61l5.31-14.44H1180Zm-6.82-12.37h-.12c-.42,1.35-.82,2.76-1.32,4.12l-.83,2.27h4.38l-.8-2.27C1179.36,160.56,1178.88,159.15,1178.51,157.8Z" style="fill:#1d1d1b"/><path d="M1195.22,156.53c2.23,1.11,3.4,3.24,3.4,6.36a7.77,7.77,0,0,1-1.57,4.94,7,7,0,0,1-5.63,2.34h-4.52V155.73h4.22A9.18,9.18,0,0,1,1195.22,156.53Zm-.64,10.42a5.09,5.09,0,0,0,1.41-4c0-2.13-.53-3.56-1.81-4.38a5.79,5.79,0,0,0-3.18-.75h-1.57v10.27H1191A5.17,5.17,0,0,0,1194.58,167Z" style="fill:#1d1d1b"/><path d="M1209.4,156.45a3.32,3.32,0,0,1,1.63,3,3.22,3.22,0,0,1-2.68,3.28v.06a3.19,3.19,0,0,1,3,3.38,3.49,3.49,0,0,1-2,3.37,9.13,9.13,0,0,1-4,.59H1201V155.73h4.42A8.18,8.18,0,0,1,1209.4,156.45Zm-.83,3.36c0-1.77-1.42-2-3.19-2h-1.87v4.08h1.79C1206.68,161.86,1208.57,161.66,1208.57,159.81Zm.19,6.21c0-1.73-1.21-2.13-3.42-2.13h-1.83v4.26h1.93C1207.17,168.15,1208.76,167.85,1208.76,166Z" style="fill:#1d1d1b"/><path d="M1216.48,159.91h1.65v-.66c0-2.23.56-3.64,3.21-3.64a3.91,3.91,0,0,1,1.21.14v1.83a3.26,3.26,0,0,0-.72-.06c-1,0-1.31.6-1.31,1.87v.52h2v1.83h-2v8.43h-2.39v-8.43h-1.65Z" style="fill:#1d1d1b"/><path d="M1226.41,161.44a3,3,0,0,1,2.72-1.63,5.49,5.49,0,0,1,1.14.1V162a4.93,4.93,0,0,0-1-.1c-2,0-2.68,1.31-2.68,3.8v4.49h-2.39V159.91h2.25Z" style="fill:#1d1d1b"/><path d="M1241.31,165c0,3.24-2,5.41-5.15,5.41s-5.1-2.17-5.1-5.41,2-5.41,5.12-5.41S1241.31,161.8,1241.31,165Zm-7.76,0c0,2.17.94,3.58,2.61,3.58s2.66-1.37,2.66-3.58-1-3.58-2.64-3.58S1233.55,162.83,1233.55,165Z" style="fill:#1d1d1b"/><path d="M1245.53,161.28a3.68,3.68,0,0,1,3.16-1.57,2.84,2.84,0,0,1,2.9,1.73,3.77,3.77,0,0,1,3.51-1.73,3.07,3.07,0,0,1,2.44.91,4.67,4.67,0,0,1,.88,3.13v6.42H1256v-6c0-1.36-.32-2.61-1.73-2.61-1.71,0-2.19,1.63-2.19,3.58v5h-2.39v-6c0-1.36-.35-2.61-1.77-2.61-1.69,0-2.16,1.63-2.16,3.58v5h-2.39V159.91h2.15Z" style="fill:#1d1d1b"/><path d="M1265.12,172.36c1.14,0,1.83-.65,2-2.09l-3.7-10.36h2.67l1.51,5.13c.3,1,.5,2,.79,3h.12c.26-1,.5-2,.8-3l1.61-5.13h2.49l-3.58,10c-1.12,3.16-2.17,4.35-4.2,4.35a5.93,5.93,0,0,1-1.53-.12V172.2A2.73,2.73,0,0,0,1265.12,172.36Z" style="fill:#1d1d1b"/><path d="M1284.32,165c0,3.24-2,5.41-5.15,5.41s-5.1-2.17-5.1-5.41,2-5.41,5.12-5.41S1284.32,161.8,1284.32,165Zm-7.76,0c0,2.17.94,3.58,2.61,3.58s2.66-1.37,2.66-3.58-1-3.58-2.64-3.58S1276.56,162.83,1276.56,165Z" style="fill:#1d1d1b"/><path d="M1289.79,170.37a3.35,3.35,0,0,1-2.91-1.39,5.78,5.78,0,0,1-.59-3.24v-5.83h2.37v5.75c0,1.51.21,2.9,1.89,2.9a2,2,0,0,0,1.69-.79,4.49,4.49,0,0,0,.63-2.65v-5.21h2.39v10.26H1293v-1.33A3.89,3.89,0,0,1,1289.79,170.37Z" style="fill:#1d1d1b"/><path d="M1300.25,161.44a3,3,0,0,1,2.73-1.63,5.34,5.34,0,0,1,1.13.1V162a4.78,4.78,0,0,0-1-.1c-2,0-2.69,1.31-2.69,3.8v4.49H1298V159.91h2.25Z" style="fill:#1d1d1b"/><path d="M1313.58,170.47c-3.06,0-4.91-2.17-4.91-5.43s1.87-5.43,4.91-5.43c2.73,0,4.38,1.53,4.52,3.86h-2.47a2,2,0,0,0-2.07-2c-1.53,0-2.43,1.39-2.43,3.54s.94,3.62,2.43,3.62a2.07,2.07,0,0,0,2.13-2.07h2.43C1317.94,169,1316.27,170.47,1313.58,170.47Z" style="fill:#1d1d1b"/><path d="M1329.64,165c0,3.24-2,5.41-5.16,5.41s-5.09-2.17-5.09-5.41,2-5.41,5.11-5.41S1329.64,161.8,1329.64,165Zm-7.76,0c0,2.17.93,3.58,2.6,3.58s2.67-1.37,2.67-3.58-1-3.58-2.65-3.58S1321.88,162.83,1321.88,165Z" style="fill:#1d1d1b"/><path d="M1333.85,161.28a3.7,3.7,0,0,1,3.17-1.57,2.84,2.84,0,0,1,2.9,1.73,3.77,3.77,0,0,1,3.5-1.73,3.09,3.09,0,0,1,2.45.91,4.67,4.67,0,0,1,.88,3.13v6.42h-2.39v-6c0-1.36-.32-2.61-1.73-2.61-1.71,0-2.19,1.63-2.19,3.58v5h-2.39v-6c0-1.36-.36-2.61-1.77-2.61-1.69,0-2.17,1.63-2.17,3.58v5h-2.39V159.91h2.15Z" style="fill:#1d1d1b"/><path d="M1354.76,170.37a3.41,3.41,0,0,1-3-1.37v5.17h-2.39V159.91h2.23v1.37a3.81,3.81,0,0,1,3.2-1.57c2.63,0,4.28,2.09,4.28,5.33S1357.31,170.37,1354.76,170.37Zm-.57-8.81c-1.52,0-2.49,1.33-2.49,3.48s.93,3.5,2.45,3.5,2.48-1.33,2.48-3.5S1355.7,161.56,1354.19,161.56Z" style="fill:#1d1d1b"/><path d="M1364.57,170.37a3.32,3.32,0,0,1-2.9-1.39,5.68,5.68,0,0,1-.6-3.24v-5.83h2.37v5.75c0,1.51.21,2.9,1.89,2.9a2,2,0,0,0,1.69-.79,4.41,4.41,0,0,0,.63-2.65v-5.21H1370v10.26h-2.23v-1.33A3.89,3.89,0,0,1,1364.57,170.37Z" style="fill:#1d1d1b"/><path d="M1375.71,157.36v2.55h2v1.83h-2v4.83c0,1.28.28,1.85,1.23,1.85a3.46,3.46,0,0,0,.82-.08v1.83a5.76,5.76,0,0,1-1.53.18c-2,0-2.91-1-2.91-3.3v-5.31h-1.65v-1.83h1.65v-2.55Z" style="fill:#1d1d1b"/><path d="M1383.89,159.63a4.21,4.21,0,0,1,3.92,2.11,8.06,8.06,0,0,1,.81,4h-7.3c.06,1.75.91,3,2.59,3a2.09,2.09,0,0,0,2.17-1.59h2.52c-.56,2.25-2.23,3.34-4.71,3.34-3.33,0-5-2.09-5-5.45C1378.85,161.92,1380.78,159.63,1383.89,159.63Zm-.12,1.73c-1.34,0-2.35.88-2.49,2.63h4.91C1386.05,162.24,1385.06,161.36,1383.77,161.36Z" style="fill:#1d1d1b"/><path d="M1393,161.44a3,3,0,0,1,2.72-1.63,5.49,5.49,0,0,1,1.14.1V162a4.93,4.93,0,0,0-1-.1c-2,0-2.68,1.31-2.68,3.8v4.49h-2.39V159.91H1393Z" style="fill:#1d1d1b"/><g style="clip-path:url(#a)"><path d="M1426.71,229.5s-13.27,0-13.27,13.26V261s0,13.26,13.27,13.26h459s13.26,0,13.26-13.26V242.76s0-13.26-13.26-13.26Z" style="fill:#c9ffe0"/><line x1="1439.95" y1="274.26" x2="1876.84" y2="274.26" style="fill:none;stroke:#1d1d1b;stroke-width:2.2100000381469727px;stroke-dasharray:8.826000213623047,8.826000213623047"/><line x1="1872.43" y1="229.5" x2="1435.53" y2="229.5" style="fill:none;stroke:#1d1d1b;stroke-width:2.2100000381469727px;stroke-dasharray:8.826000213623047,8.826000213623047"/><path d="M1431.12,229.5h-4.41a16.56,16.56,0,0,0-5.14,1m469.27-.19a15.48,15.48,0,0,0-5.17-.82h-4.42m17.68,17.82v-4.56a16.56,16.56,0,0,0-1-5.14m.19,28.55a15.48,15.48,0,0,0,.82-5.17v-4.56m-17.68,17.82h4.42a16.56,16.56,0,0,0,5.14-1m-469.27.19a15.19,15.19,0,0,0,5.17.82h4.41m-17.68-17.82V261a16.42,16.42,0,0,0,1,5.14m-.19-28.55a15.22,15.22,0,0,0-.83,5.17v4.56" style="fill:none;stroke:#1d1d1b;stroke-width:2.2100000381469727px"/></g><path d="M1435.17,245c.5,1.21,2.69,5.27,3.16,6.48h.1c.48-1.21,2.77-5.29,3.33-6.48h2.68l-4.85,8.57v5.87h-2.53v-5.87l-4.81-8.57Zm18.42,9.31c0,3.24-2,5.41-5.15,5.41s-5.09-2.17-5.09-5.41,2-5.42,5.11-5.42S1453.59,251,1453.59,254.26Zm-7.76,0c0,2.17.94,3.58,2.61,3.58s2.67-1.37,2.67-3.58-1-3.58-2.65-3.58S1445.83,252.05,1445.83,254.26Zm13.23,5.33a3.35,3.35,0,0,1-2.9-1.39,5.7,5.7,0,0,1-.6-3.25v-5.83h2.37v5.75c0,1.52.22,2.91,1.89,2.91a2,2,0,0,0,1.69-.8,4.35,4.35,0,0,0,.64-2.64v-5.22h2.39v10.27h-2.23v-1.33A3.93,3.93,0,0,1,1459.06,259.59Zm14.63-5.33c.21,1,.37,2.07.55,3.08h.14c.18-1,.4-2.09.62-3.1l1.17-5.12h3.35l1.19,5.14c.22,1,.38,2.07.6,3.08h.14c.15-1,.31-2.11.53-3.08l1.1-5.14h2.25l-2.53,10.27h-3.23l-1.13-5.15c-.22-1-.42-2.15-.64-3.19h-.14c-.21,1-.43,2.15-.67,3.21l-1.16,5.13h-3.14l-2.53-10.27h2.45Zm15.67-6.91H1487V245h2.39Zm0,12H1487V249.12h2.39Zm5.13,0h-2.38V245h2.38Zm5.14,0h-2.39V245h2.39Zm12.19-10.47a3,3,0,0,1,2.89,1.42,6.31,6.31,0,0,1,.61,3.16v5.89h-2.38v-5.73c0-1.53-.22-2.9-1.87-2.9s-2.33,1-2.33,3.44v5.19h-2.39V249.12h2.21v1.34A4,4,0,0,1,1511.82,248.92Zm15.72,5.34c0,3.24-2,5.41-5.15,5.41s-5.1-2.17-5.1-5.41,2-5.42,5.12-5.42S1527.54,251,1527.54,254.26Zm-7.76,0c0,2.17.93,3.58,2.61,3.58s2.66-1.37,2.66-3.58-1-3.58-2.64-3.58S1519.78,252.05,1519.78,254.26Zm16.21,5.13h-2.39V245H1536Zm12.34-5.13c0,3.24-2,5.41-5.16,5.41s-5.09-2.17-5.09-5.41,2-5.42,5.11-5.42S1548.33,251,1548.33,254.26Zm-7.76,0c0,2.17.93,3.58,2.6,3.58s2.67-1.37,2.67-3.58-1-3.58-2.65-3.58S1540.57,252.05,1540.57,254.26Zm15.32-5.34a3,3,0,0,1,2.88,1.42,6.19,6.19,0,0,1,.62,3.16v5.89H1557v-5.73c0-1.53-.22-2.9-1.87-2.9s-2.33,1-2.33,3.44v5.19h-2.39V249.12h2.21v1.34A4,4,0,0,1,1555.89,248.92Zm9.8,0a3.44,3.44,0,0,1,3.15,1.54v-1.34H1571v8.8c0,3.4-1,5.55-4.76,5.55-2.65,0-4.18-1.13-4.4-3.28h2.47c.06,1,.76,1.57,2,1.57,1.59,0,2.41-.9,2.41-3.15v-1.05a3.72,3.72,0,0,1-3.15,1.53c-2.44,0-4.17-1.93-4.17-5C1561.4,251.25,1563.11,248.92,1565.69,248.92Zm.56,8.3c1.43,0,2.43-1.23,2.43-3.16s-.92-3.3-2.43-3.3-2.39,1.39-2.39,3.24C1563.86,256,1564.8,257.22,1566.25,257.22Zm11.88-8.38a4.22,4.22,0,0,1,3.92,2.11,8.08,8.08,0,0,1,.81,4h-7.3c.06,1.75.92,3,2.59,3a2.1,2.1,0,0,0,2.17-1.59h2.52c-.55,2.24-2.23,3.34-4.71,3.34-3.33,0-5-2.09-5-5.45C1573.09,251.13,1575,248.84,1578.13,248.84Zm-.12,1.74c-1.34,0-2.35.87-2.49,2.62h4.92C1580.3,251.45,1579.3,250.58,1578,250.58Zm9.21.08a3,3,0,0,1,2.72-1.64,5.49,5.49,0,0,1,1.14.1v2.07a4.93,4.93,0,0,0-1-.1c-2,0-2.68,1.32-2.68,3.8v4.5H1585V249.12h2.25Zm11.28,0a3,3,0,0,1,2.72-1.64,5.49,5.49,0,0,1,1.14.1v2.07a4.93,4.93,0,0,0-1-.1c-2,0-2.68,1.32-2.68,3.8v4.5h-2.39V249.12h2.25Zm9.67-1.82a4.22,4.22,0,0,1,3.92,2.11,8.08,8.08,0,0,1,.81,4h-7.3c.06,1.75.92,3,2.59,3a2.1,2.1,0,0,0,2.17-1.59h2.52c-.55,2.24-2.23,3.34-4.71,3.34-3.33,0-5-2.09-5-5.45C1603.13,251.13,1605.06,248.84,1608.17,248.84Zm-.12,1.74c-1.34,0-2.35.87-2.49,2.62h4.92C1610.34,251.45,1609.34,250.58,1608.05,250.58Zm11.24,9.11c-3.07,0-4.92-2.17-4.92-5.43s1.87-5.43,4.92-5.43c2.72,0,4.38,1.53,4.51,3.86h-2.46a2,2,0,0,0-2.07-2c-1.53,0-2.43,1.39-2.43,3.54s.94,3.62,2.43,3.62a2.08,2.08,0,0,0,2.13-2.07h2.42C1623.65,258.24,1622,259.69,1619.29,259.69Zm10.84-10.85a4.22,4.22,0,0,1,3.92,2.11,8,8,0,0,1,.82,4h-7.31c.06,1.75.92,3,2.59,3a2.1,2.1,0,0,0,2.17-1.59h2.53c-.56,2.24-2.23,3.34-4.72,3.34-3.32,0-5-2.09-5-5.45C1625.1,251.13,1627,248.84,1630.13,248.84Zm-.12,1.74c-1.33,0-2.35.87-2.49,2.62h4.92C1632.3,251.45,1631.3,250.58,1630,250.58Zm9.35-3.23H1637V245h2.39Zm0,12H1637V249.12h2.39Zm5.73-5.13c.3,1,.54,2,.8,3h.13c.24-1,.5-2,.8-3l1.59-5.14H1651l-3.58,10.27h-2.91l-3.58-10.27h2.65Zm11.6-5.42a4.22,4.22,0,0,1,3.92,2.11,8.08,8.08,0,0,1,.81,4h-7.3c.06,1.75.92,3,2.59,3a2.1,2.1,0,0,0,2.17-1.59h2.52c-.55,2.24-2.22,3.34-4.71,3.34-3.33,0-5-2.09-5-5.45C1651.65,251.13,1653.58,248.84,1656.69,248.84Zm-.12,1.74c-1.33,0-2.35.87-2.49,2.62H1659C1658.86,251.45,1657.86,250.58,1656.57,250.58Zm13.55-4v2.54h2V251h-2v4.84c0,1.27.27,1.85,1.23,1.85a3.46,3.46,0,0,0,.82-.08v1.83a5.79,5.79,0,0,1-1.54.18c-2.05,0-2.9-1-2.9-3.3V251h-1.65v-1.83h1.65v-2.54Zm6.24,3.82a3.51,3.51,0,0,1,3.09-1.48,3.33,3.33,0,0,1,2.92,1.4,5.46,5.46,0,0,1,.58,3.18v5.89h-2.39v-5.73c0-1.53-.22-2.9-1.87-2.9s-2.33,1-2.33,3.44v5.19H1674V245h2.39Zm13.59-1.56a4.22,4.22,0,0,1,3.92,2.11,8,8,0,0,1,.82,4h-7.31c.06,1.75.92,3,2.59,3a2.1,2.1,0,0,0,2.17-1.59h2.53c-.56,2.24-2.23,3.34-4.72,3.34-3.32,0-5-2.09-5-5.45C1684.92,251.13,1686.85,248.84,1690,248.84Zm-.12,1.74c-1.33,0-2.35.87-2.49,2.62h4.92C1692.12,251.45,1691.12,250.58,1689.83,250.58Zm20.53,3.68c0,3.24-2,5.41-5.15,5.41s-5.1-2.17-5.1-5.41,2-5.42,5.12-5.42S1710.36,251,1710.36,254.26Zm-7.76,0c0,2.17.94,3.58,2.61,3.58s2.66-1.37,2.66-3.58-1-3.58-2.64-3.58S1702.6,252.05,1702.6,254.26Zm12.61,5.13h-2.38V251h-1.65v-1.83h1.65v-.65c0-2.23.55-3.64,3.2-3.64a4.13,4.13,0,0,1,1.21.13v1.84a3.13,3.13,0,0,0-.71-.06c-1,0-1.32.59-1.32,1.87v.51h3.69v-.65c0-2.23.55-3.64,3.2-3.64a4.13,4.13,0,0,1,1.21.13v1.84a3.17,3.17,0,0,0-.71-.06c-1,0-1.32.59-1.32,1.87v.51h2V251h-2v8.44h-2.38V251h-3.69Zm11.62-12h-2.38V245h2.38Zm0,12h-2.38V249.12h2.38Zm7,.3c-3.07,0-4.92-2.17-4.92-5.43s1.87-5.43,4.92-5.43c2.72,0,4.37,1.53,4.51,3.86h-2.47a2,2,0,0,0-2.06-2c-1.54,0-2.43,1.39-2.43,3.54s.93,3.62,2.43,3.62a2.07,2.07,0,0,0,2.12-2.07h2.43C1738.21,258.24,1736.54,259.69,1733.86,259.69Zm8.85-12.34h-2.39V245h2.39Zm0,12h-2.39V249.12h2.39Zm9-1.33a4,4,0,0,1-3.44,1.53c-2.29,0-3.56-1.13-3.56-3,0-3.29,4.11-3.31,6.72-3.63v-.43c0-1.28-.6-2-1.87-2s-2,.61-2,1.73h-2.45c.08-2.15,1.79-3.43,4.48-3.43,3.26,0,4.2,1.7,4.2,4.46v2.87a19.22,19.22,0,0,0,.22,3.22h-2.17A11.9,11.9,0,0,1,1751.76,258.06Zm-4.54-1.55c0,.87.6,1.43,1.71,1.43,1.5,0,2.55-.72,2.55-2.95v-.43C1749.69,254.81,1747.22,254.75,1747.22,256.51Zm11.56,2.88h-2.39V245h2.39Zm19.58-7.22c0,4.49-2.69,7.52-6.73,7.52s-6.68-3-6.68-7.52,2.64-7.52,6.7-7.52S1778.36,247.69,1778.36,252.17Zm-10.83,0c0,3.28,1.62,5.51,4.1,5.51s4.14-2.35,4.14-5.51-1.57-5.51-4.12-5.51S1767.53,248.9,1767.53,252.17Zm11.2-7.22h11.43V247h-4.44v12.36h-2.55V247h-4.44Zm23.86,14.44h-2.67l-1.37-3.9h-5.75l-1.33,3.9h-2.61l5.31-14.44h3.07ZM1795.76,247h-.11c-.42,1.36-.82,2.77-1.32,4.12l-.83,2.27h4.37l-.79-2.27C1796.62,249.78,1796.14,248.37,1795.76,247Zm15,12.58a3.35,3.35,0,0,1-2.9-1.39,5.7,5.7,0,0,1-.6-3.25v-5.83h2.37v5.75c0,1.52.22,2.91,1.89,2.91a2,2,0,0,0,1.69-.8,4.35,4.35,0,0,0,.64-2.64v-5.22h2.39v10.27H1814v-1.33A3.93,3.93,0,0,1,1810.74,259.59Zm13.61,0a3.44,3.44,0,0,1-3-1.37v5.17H1819V249.12h2.23v1.38a3.79,3.79,0,0,1,3.2-1.58c2.63,0,4.28,2.09,4.28,5.34S1826.9,259.59,1824.35,259.59Zm-.58-8.82c-1.51,0-2.48,1.34-2.48,3.49s.93,3.5,2.44,3.5,2.49-1.33,2.49-3.5S1825.29,250.77,1823.77,250.77Zm10.71-1.85a3.44,3.44,0,0,1,3,1.38V245h2.39v14.44h-2.25V258a3.79,3.79,0,0,1-3.14,1.57c-2.63,0-4.34-1.95-4.34-5.35S1831.85,248.92,1834.48,248.92Zm.55,8.82c1.52,0,2.49-1.29,2.49-3.5s-.93-3.48-2.45-3.48-2.46,1.33-2.46,3.48S1833.52,257.74,1835,257.74Zm13.89.32a4,4,0,0,1-3.44,1.53c-2.29,0-3.56-1.13-3.56-3,0-3.29,4.12-3.31,6.72-3.63v-.43c0-1.28-.59-2-1.87-2s-2,.61-2,1.73h-2.45c.08-2.15,1.8-3.43,4.48-3.43,3.26,0,4.2,1.7,4.2,4.46v2.87a19.22,19.22,0,0,0,.22,3.22H1849A11.9,11.9,0,0,1,1848.92,258.06Zm-4.54-1.55c0,.87.6,1.43,1.72,1.43,1.49,0,2.54-.72,2.54-2.95v-.43C1846.85,254.81,1844.38,254.75,1844.38,256.51Zm11.94-9.93v2.54h2V251h-2v4.84c0,1.27.28,1.85,1.23,1.85a3.46,3.46,0,0,0,.82-.08v1.83a5.72,5.72,0,0,1-1.53.18c-2,0-2.91-1-2.91-3.3V251h-1.65v-1.83h1.65v-2.54Zm8.16,2.26a4.22,4.22,0,0,1,3.92,2.11,8.08,8.08,0,0,1,.81,4h-7.3c.06,1.75.92,3,2.59,3a2.1,2.1,0,0,0,2.17-1.59h2.52c-.55,2.24-2.23,3.34-4.71,3.34-3.33,0-5-2.09-5-5.45C1859.44,251.13,1861.37,248.84,1864.48,248.84Zm-.12,1.74c-1.34,0-2.35.87-2.49,2.62h4.92C1866.65,251.45,1865.65,250.58,1864.36,250.58ZM1875.2,258c1.13,0,1.87-.48,1.87-1.28,0-1-1.13-1.29-2.47-1.61-1.75-.41-3.82-.87-3.82-3.12,0-1.87,1.65-3.11,4.28-3.11s4.26,1.18,4.26,3.43H1877c-.06-1.22-.68-1.71-2-1.71-1,0-1.73.45-1.73,1.19,0,1.09,1.51,1.37,3,1.75s3.25,1,3.25,3-1.67,3.18-4.36,3.18c-2.92,0-4.56-1.23-4.62-3.56H1873C1873,257.34,1873.75,258,1875.2,258Z" style="fill:#1d1d1b"/><path d="M1512.4,77.08c-3.07,0-4.92-2.16-4.92-5.43s1.87-5.43,4.92-5.43c2.72,0,4.38,1.53,4.52,3.86h-2.47a2,2,0,0,0-2.07-2c-1.53,0-2.43,1.39-2.43,3.54s.94,3.62,2.43,3.62a2.07,2.07,0,0,0,2.13-2.07h2.43C1516.76,75.63,1515.08,77.08,1512.4,77.08Z" style="fill:#1d1d1b"/><path d="M1528.45,71.65c0,3.24-2,5.41-5.15,5.41s-5.09-2.17-5.09-5.41,2-5.41,5.11-5.41S1528.45,68.41,1528.45,71.65Zm-7.76,0c0,2.17.94,3.58,2.61,3.58s2.67-1.37,2.67-3.58-1-3.58-2.65-3.58S1520.69,69.44,1520.69,71.65Z" style="fill:#1d1d1b"/><path d="M1532.67,67.89a3.69,3.69,0,0,1,3.16-1.57,2.85,2.85,0,0,1,2.91,1.73,3.76,3.76,0,0,1,3.5-1.73,3.11,3.11,0,0,1,2.45.91,4.73,4.73,0,0,1,.87,3.13v6.43h-2.38v-6c0-1.36-.32-2.61-1.74-2.61-1.71,0-2.18,1.63-2.18,3.58v5.06h-2.39v-6c0-1.36-.36-2.61-1.77-2.61-1.69,0-2.17,1.63-2.17,3.58v5.06h-2.39V66.52h2.15Z" style="fill:#1d1d1b"/><path d="M1550.32,67.89a3.68,3.68,0,0,1,3.16-1.57,2.84,2.84,0,0,1,2.9,1.73,3.77,3.77,0,0,1,3.51-1.73,3.07,3.07,0,0,1,2.44.91,4.67,4.67,0,0,1,.88,3.13v6.43h-2.39v-6c0-1.36-.32-2.61-1.73-2.61-1.71,0-2.19,1.63-2.19,3.58v5.06h-2.39v-6c0-1.36-.35-2.61-1.77-2.61-1.69,0-2.17,1.63-2.17,3.58v5.06h-2.38V66.52h2.14Z" style="fill:#1d1d1b"/><path d="M1572.14,75.45A4,4,0,0,1,1568.7,77c-2.29,0-3.56-1.13-3.56-3,0-3.28,4.11-3.3,6.72-3.62v-.44c0-1.27-.6-1.95-1.87-1.95s-2,.62-2,1.73h-2.45c.08-2.15,1.79-3.42,4.48-3.42,3.26,0,4.2,1.69,4.2,4.46v2.86a19.34,19.34,0,0,0,.22,3.23h-2.17A11.9,11.9,0,0,1,1572.14,75.45Zm-4.54-1.55c0,.88.6,1.43,1.71,1.43,1.5,0,2.55-.71,2.55-2.94V72C1570.07,72.21,1567.6,72.15,1567.6,73.9Z" style="fill:#1d1d1b"/><path d="M1582.25,66.32a3,3,0,0,1,2.88,1.41,6.23,6.23,0,0,1,.62,3.17v5.89h-2.39V71.05c0-1.53-.22-2.9-1.87-2.9s-2.33,1-2.33,3.44v5.2h-2.39V66.52H1579v1.33A4,4,0,0,1,1582.25,66.32Z" style="fill:#1d1d1b"/><path d="M1592.07,66.32a3.48,3.48,0,0,1,3,1.37V62.34h2.38V76.79h-2.24V75.41a3.77,3.77,0,0,1-3.15,1.57c-2.62,0-4.33-2-4.33-5.35C1587.74,68.39,1589.45,66.32,1592.07,66.32Zm.56,8.81c1.51,0,2.49-1.29,2.49-3.5s-.94-3.48-2.45-3.48-2.47,1.33-2.47,3.48S1591.12,75.13,1592.63,75.13Z" style="fill:#1d1d1b"/><path d="M1604.45,62.34h1.45l-1,3.12h1V68h-2.67V65.22Zm3.6,0h1.45l-1,3.12h1V68h-2.67V65.22Z" style="fill:#1d1d1b"/><path d="M1623.29,76.79h-2.67l-1.37-3.91h-5.75l-1.34,3.91h-2.6l5.31-14.45h3.06Zm-6.83-12.38h-.12c-.42,1.35-.81,2.76-1.31,4.12l-.84,2.27h4.38l-.79-2.27C1617.32,67.17,1616.84,65.76,1616.46,64.41Z" style="fill:#1d1d1b"/><path d="M1633.17,63.14c2.23,1.11,3.41,3.24,3.41,6.36a7.71,7.71,0,0,1-1.58,4.94,6.94,6.94,0,0,1-5.63,2.35h-4.51V62.34h4.21A9.12,9.12,0,0,1,1633.17,63.14Zm-.63,10.42a5.13,5.13,0,0,0,1.41-4c0-2.13-.54-3.56-1.81-4.38a5.82,5.82,0,0,0-3.18-.75h-1.58V74.7h1.55A5.18,5.18,0,0,0,1632.54,73.56Z" style="fill:#1d1d1b"/><path d="M1647.36,63.06a3.34,3.34,0,0,1,1.63,3,3.23,3.23,0,0,1-2.69,3.28v.06a3.21,3.21,0,0,1,3,3.39,3.5,3.5,0,0,1-2,3.36,9.14,9.14,0,0,1-4,.6h-4.34V62.34h4.42A8.2,8.2,0,0,1,1647.36,63.06Zm-.84,3.36c0-1.77-1.41-2-3.18-2h-1.87v4.08h1.79C1644.63,68.47,1646.52,68.27,1646.52,66.42Zm.2,6.21c0-1.73-1.21-2.13-3.42-2.13h-1.83v4.26h1.93C1645.13,74.76,1646.72,74.46,1646.72,72.63Z" style="fill:#1d1d1b"/><path d="M1657.7,68.05a3,3,0,0,1,2.73-1.63,5.46,5.46,0,0,1,1.13.1v2.07a4.9,4.9,0,0,0-1-.1c-2,0-2.69,1.31-2.69,3.8v4.5h-2.39V66.52h2.25Z" style="fill:#1d1d1b"/><path d="M1667.39,66.24a4.22,4.22,0,0,1,3.92,2.11,8,8,0,0,1,.81,4h-7.3c.06,1.75.92,3,2.59,3a2.09,2.09,0,0,0,2.17-1.59h2.52c-.55,2.25-2.22,3.34-4.71,3.34-3.32,0-5-2.09-5-5.45C1662.36,68.53,1664.29,66.24,1667.39,66.24Zm-.12,1.73c-1.33,0-2.35.88-2.49,2.63h4.92C1669.56,68.85,1668.56,68,1667.27,68Z" style="fill:#1d1d1b"/><path d="M1679.62,77a3.81,3.81,0,0,1-3.16-1.55v1.36h-2.23V62.34h2.39v5.37a3.62,3.62,0,0,1,3-1.39c2.63,0,4.28,2,4.28,5.31S1682.15,77,1679.62,77Zm-.61-8.83c-1.51,0-2.45,1.41-2.45,3.48s1,3.5,2.49,3.5,2.45-1.35,2.45-3.5S1680.58,68.15,1679,68.15Z" style="fill:#1d1d1b"/><path d="M1695.64,71.65c0,3.24-2,5.41-5.15,5.41s-5.1-2.17-5.1-5.41,2-5.41,5.12-5.41S1695.64,68.41,1695.64,71.65Zm-7.76,0c0,2.17.93,3.58,2.61,3.58s2.66-1.37,2.66-3.58-1-3.58-2.64-3.58S1687.88,69.44,1687.88,71.65Z" style="fill:#1d1d1b"/><path d="M1707.32,71.65c0,3.24-2,5.41-5.16,5.41s-5.09-2.17-5.09-5.41,2-5.41,5.11-5.41S1707.32,68.41,1707.32,71.65Zm-7.76,0c0,2.17.93,3.58,2.6,3.58s2.67-1.37,2.67-3.58-1-3.58-2.65-3.58S1699.56,69.44,1699.56,71.65Z" style="fill:#1d1d1b"/><path d="M1712.15,64v2.55h2v1.83h-2v4.83c0,1.28.28,1.85,1.23,1.85a3.94,3.94,0,0,0,.82-.07v1.83a6.19,6.19,0,0,1-1.53.17c-2.05,0-2.91-1-2.91-3.3V68.35h-1.65V66.52h1.65V64Z" style="fill:#1d1d1b"/><path d="M1719,66.52h1.65v-.66c0-2.23.56-3.64,3.21-3.64a3.88,3.88,0,0,1,1.21.14v1.83a3.22,3.22,0,0,0-.71-.06c-1,0-1.32.6-1.32,1.87v.52h2v1.83h-2v8.44h-2.39V68.35H1719Z" style="fill:#1d1d1b"/><path d="M1732.8,75.45a4,4,0,0,1-3.44,1.53c-2.29,0-3.56-1.13-3.56-3,0-3.28,4.11-3.3,6.72-3.62v-.44c0-1.27-.6-1.95-1.87-1.95s-2,.62-2,1.73h-2.45c.08-2.15,1.79-3.42,4.48-3.42,3.26,0,4.2,1.69,4.2,4.46v2.86a19.34,19.34,0,0,0,.22,3.23h-2.17A11.9,11.9,0,0,1,1732.8,75.45Zm-4.54-1.55c0,.88.6,1.43,1.71,1.43,1.5,0,2.55-.71,2.55-2.94V72C1730.73,72.21,1728.26,72.15,1728.26,73.9Z" style="fill:#1d1d1b"/><path d="M1741.31,75.35c1.14,0,1.87-.47,1.87-1.27,0-1-1.13-1.29-2.46-1.61-1.75-.42-3.82-.88-3.82-3.13,0-1.87,1.65-3.1,4.27-3.1s4.26,1.17,4.26,3.42h-2.37c-.06-1.21-.67-1.71-2-1.71-1,0-1.73.46-1.73,1.19,0,1.1,1.52,1.38,3.05,1.76s3.24,1,3.24,3-1.67,3.18-4.36,3.18c-2.92,0-4.55-1.23-4.61-3.56h2.44C1739.12,74.74,1739.86,75.35,1741.31,75.35Z" style="fill:#1d1d1b"/><path d="M1750.46,64v2.55h2v1.83h-2v4.83c0,1.28.28,1.85,1.24,1.85a3.86,3.86,0,0,0,.81-.07v1.83A6.09,6.09,0,0,1,1751,77c-2,0-2.9-1-2.9-3.3V68.35h-1.66V66.52h1.66V64Z" style="fill:#1d1d1b"/><path d="M1759.71,77a3.81,3.81,0,0,1-3.16-1.55v1.36h-2.23V62.34h2.39v5.37a3.62,3.62,0,0,1,3-1.39c2.63,0,4.28,2,4.28,5.31S1762.24,77,1759.71,77Zm-.61-8.83c-1.52,0-2.45,1.41-2.45,3.48s1,3.5,2.49,3.5,2.44-1.35,2.44-3.5S1760.67,68.15,1759.1,68.15Z" style="fill:#1d1d1b"/><path d="M1775.73,71.65c0,3.24-2,5.41-5.15,5.41s-5.1-2.17-5.1-5.41,2-5.41,5.12-5.41S1775.73,68.41,1775.73,71.65Zm-7.76,0c0,2.17.94,3.58,2.61,3.58s2.66-1.37,2.66-3.58-1-3.58-2.64-3.58S1768,69.44,1768,71.65Z" style="fill:#1d1d1b"/><path d="M1787.41,71.65c0,3.24-2,5.41-5.16,5.41s-5.09-2.17-5.09-5.41,2-5.41,5.11-5.41S1787.41,68.41,1787.41,71.65Zm-7.76,0c0,2.17.93,3.58,2.6,3.58s2.67-1.37,2.67-3.58-1-3.58-2.65-3.58S1779.65,69.44,1779.65,71.65Z" style="fill:#1d1d1b"/><path d="M1792.24,64v2.55h2v1.83h-2v4.83c0,1.28.28,1.85,1.23,1.85a3.94,3.94,0,0,0,.82-.07v1.83a6.19,6.19,0,0,1-1.53.17c-2,0-2.91-1-2.91-3.3V68.35h-1.65V66.52h1.65V64Z" style="fill:#1d1d1b"/><path d="M1797.13,68h-1.45l1-3.12h-1V62.34h2.67v2.78Zm3.6,0h-1.45l1-3.12h-1V62.34H1802v2.78Z" style="fill:#1d1d1b"/><path d="M1509.71,168.62c-3.06,0-4.91-2.17-4.91-5.44s1.87-5.43,4.91-5.43c2.73,0,4.38,1.53,4.52,3.86h-2.47a2,2,0,0,0-2.07-2c-1.53,0-2.42,1.39-2.42,3.54s.93,3.62,2.42,3.62a2.07,2.07,0,0,0,2.13-2.06h2.43C1514.07,167.16,1512.4,168.62,1509.71,168.62Z" style="fill:#1d1d1b"/><path d="M1525.77,163.18c0,3.25-2,5.41-5.15,5.41s-5.1-2.16-5.1-5.41,2-5.41,5.11-5.41S1525.77,159.94,1525.77,163.18Zm-7.76,0c0,2.17.93,3.58,2.61,3.58s2.66-1.37,2.66-3.58-1-3.58-2.65-3.58S1518,161,1518,163.18Z" style="fill:#1d1d1b"/><path d="M1530,159.42a3.7,3.7,0,0,1,3.17-1.57,2.84,2.84,0,0,1,2.9,1.73,3.77,3.77,0,0,1,3.5-1.73,3.06,3.06,0,0,1,2.45.92,4.65,4.65,0,0,1,.88,3.12v6.43h-2.39v-6c0-1.36-.32-2.61-1.73-2.61-1.71,0-2.19,1.63-2.19,3.58v5.06h-2.39v-6c0-1.36-.36-2.61-1.77-2.61-1.69,0-2.17,1.63-2.17,3.58v5.06h-2.38V158.05H1530Z" style="fill:#1d1d1b"/><path d="M1547.63,159.42a3.69,3.69,0,0,1,3.16-1.57,2.85,2.85,0,0,1,2.91,1.73,3.76,3.76,0,0,1,3.5-1.73,3.08,3.08,0,0,1,2.45.92,4.7,4.7,0,0,1,.87,3.12v6.43h-2.38v-6c0-1.36-.32-2.61-1.74-2.61-1.71,0-2.18,1.63-2.18,3.58v5.06h-2.39v-6c0-1.36-.36-2.61-1.77-2.61-1.69,0-2.17,1.63-2.17,3.58v5.06h-2.39V158.05h2.15Z" style="fill:#1d1d1b"/><path d="M1569.45,167a4,4,0,0,1-3.44,1.54c-2.29,0-3.56-1.14-3.56-3.05,0-3.28,4.12-3.3,6.73-3.62v-.44c0-1.27-.6-1.95-1.88-1.95s-2,.62-2,1.73h-2.45c.08-2.15,1.79-3.42,4.47-3.42,3.27,0,4.2,1.69,4.2,4.46v2.86a19.34,19.34,0,0,0,.22,3.23h-2.17A11.9,11.9,0,0,1,1569.45,167Zm-4.53-1.55c0,.88.59,1.43,1.71,1.43,1.49,0,2.55-.71,2.55-2.94v-.44C1567.38,163.74,1564.92,163.68,1564.92,165.43Z" style="fill:#1d1d1b"/><path d="M1579.56,157.85a3,3,0,0,1,2.88,1.41,6.23,6.23,0,0,1,.62,3.17v5.89h-2.39v-5.73c0-1.54-.21-2.91-1.87-2.91-1.51,0-2.32,1-2.32,3.44v5.2h-2.39V158.05h2.21v1.33A4,4,0,0,1,1579.56,157.85Z" style="fill:#1d1d1b"/><path d="M1589.39,157.85a3.46,3.46,0,0,1,3,1.37v-5.35h2.39v14.45h-2.25v-1.38a3.77,3.77,0,0,1-3.14,1.58c-2.63,0-4.34-2-4.34-5.36C1585.05,159.92,1586.76,157.85,1589.39,157.85Zm.55,8.82c1.52,0,2.49-1.3,2.49-3.51s-.93-3.48-2.45-3.48-2.46,1.33-2.46,3.48S1588.43,166.67,1589.94,166.67Z" style="fill:#1d1d1b"/><path d="M1601.76,153.87h1.45l-1,3.13h1v2.54h-2.66v-2.78Zm3.6,0h1.45l-1,3.13h1v2.54h-2.66v-2.78Z" style="fill:#1d1d1b"/><path d="M1618.59,156h-6.74v4.42h6.26v2.09h-6.26v5.85h-2.53V153.87h9.27Z" style="fill:#1d1d1b"/><path d="M1626.47,167a4,4,0,0,1-3.44,1.54c-2.29,0-3.57-1.14-3.57-3.05,0-3.28,4.12-3.3,6.73-3.62v-.44c0-1.27-.6-1.95-1.87-1.95s-2,.62-2,1.73h-2.45c.08-2.15,1.79-3.42,4.48-3.42,3.26,0,4.2,1.69,4.2,4.46v2.86a19.34,19.34,0,0,0,.22,3.23h-2.17A11.9,11.9,0,0,1,1626.47,167Zm-4.54-1.55c0,.88.6,1.43,1.71,1.43,1.5,0,2.55-.71,2.55-2.94v-.44C1624.4,163.74,1621.93,163.68,1621.93,165.43Z" style="fill:#1d1d1b"/><path d="M1635,166.88c1.14,0,1.87-.47,1.87-1.27,0-1-1.13-1.29-2.46-1.61-1.76-.42-3.82-.88-3.82-3.12,0-1.88,1.65-3.11,4.27-3.11s4.26,1.17,4.26,3.42h-2.37c-.06-1.21-.67-1.71-2-1.71-1,0-1.73.46-1.73,1.2,0,1.09,1.51,1.37,3,1.75s3.24,1,3.24,3-1.67,3.18-4.36,3.18c-2.92,0-4.55-1.23-4.61-3.56h2.44C1632.79,166.27,1633.53,166.88,1635,166.88Z" style="fill:#1d1d1b"/><path d="M1644.13,155.5v2.55h2v1.83h-2v4.83c0,1.28.28,1.86,1.24,1.86a3.39,3.39,0,0,0,.81-.08v1.83a5.67,5.67,0,0,1-1.53.18c-2.05,0-2.9-1-2.9-3.31v-5.31h-1.66v-1.83h1.66V155.5Z" style="fill:#1d1d1b"/><path d="M1653.38,168.52a3.82,3.82,0,0,1-3.16-1.56v1.36H1648V153.87h2.39v5.37a3.62,3.62,0,0,1,3-1.39c2.63,0,4.28,2,4.28,5.31S1655.91,168.52,1653.38,168.52Zm-.61-8.84c-1.52,0-2.45,1.41-2.45,3.48s1,3.51,2.49,3.51,2.44-1.36,2.44-3.51S1654.34,159.68,1652.77,159.68Z" style="fill:#1d1d1b"/><path d="M1669.4,163.18c0,3.25-2,5.41-5.15,5.41s-5.1-2.16-5.1-5.41,2-5.41,5.12-5.41S1669.4,159.94,1669.4,163.18Zm-7.76,0c0,2.17.93,3.58,2.61,3.58s2.66-1.37,2.66-3.58-1-3.58-2.64-3.58S1661.64,161,1661.64,163.18Z" style="fill:#1d1d1b"/><path d="M1681.08,163.18c0,3.25-2,5.41-5.16,5.41s-5.09-2.16-5.09-5.41,2-5.41,5.11-5.41S1681.08,159.94,1681.08,163.18Zm-7.76,0c0,2.17.93,3.58,2.6,3.58s2.67-1.37,2.67-3.58-1-3.58-2.65-3.58S1673.32,161,1673.32,163.18Z" style="fill:#1d1d1b"/><path d="M1685.91,155.5v2.55h2v1.83h-2v4.83c0,1.28.28,1.86,1.23,1.86a3.46,3.46,0,0,0,.82-.08v1.83a5.76,5.76,0,0,1-1.53.18c-2,0-2.91-1-2.91-3.31v-5.31h-1.65v-1.83h1.65V155.5Z" style="fill:#1d1d1b"/><path d="M1706.6,161.09c0,4.5-2.69,7.53-6.72,7.53s-6.69-3-6.69-7.53,2.65-7.52,6.71-7.52S1706.6,156.62,1706.6,161.09Zm-10.82,0c0,3.29,1.61,5.52,4.1,5.52s4.13-2.35,4.13-5.52-1.57-5.51-4.11-5.51S1695.78,157.83,1695.78,161.09Z" style="fill:#1d1d1b"/><path d="M1718.34,156h-6.85v4h6.45V162h-6.45v4.2h7.13v2.11H1709V153.87h9.37Z" style="fill:#1d1d1b"/><path d="M1727.77,162c.45,1.33.73,2.51,1.07,3.62h.14c.24-1.13.6-2.43,1-3.62l2.58-8.1h4v14.45h-2.35v-7.47c0-1.43,0-3.12.1-4.63h-.14c-.23.81-2.5,7.12-4,12.1h-2.88c-1.51-5-3.74-11.31-4-12.1h-.14c.06,1.27.14,3.32.14,4.63v7.47H1721V153.87h4Z" style="fill:#1d1d1b"/><path d="M1746.78,168.52a3.34,3.34,0,0,1-2.9-1.4,5.66,5.66,0,0,1-.6-3.24v-5.83h2.37v5.75c0,1.51.22,2.91,1.89,2.91a2,2,0,0,0,1.69-.8,4.39,4.39,0,0,0,.64-2.65v-5.21h2.39v10.27H1750V167A3.92,3.92,0,0,1,1746.78,168.52Z" style="fill:#1d1d1b"/><path d="M1760.47,157.85a3,3,0,0,1,2.89,1.41,6.35,6.35,0,0,1,.61,3.17v5.89h-2.38v-5.73c0-1.54-.22-2.91-1.87-2.91s-2.33,1-2.33,3.44v5.2H1755V158.05h2.21v1.33A4,4,0,0,1,1760.47,157.85Z" style="fill:#1d1d1b"/><path d="M1769,168.32h-2.39V153.87H1769Z" style="fill:#1d1d1b"/><path d="M1781.32,163.18c0,3.25-2,5.41-5.15,5.41s-5.1-2.16-5.1-5.41,2-5.41,5.12-5.41S1781.32,159.94,1781.32,163.18Zm-7.76,0c0,2.17.94,3.58,2.61,3.58s2.66-1.37,2.66-3.58-1-3.58-2.64-3.58S1773.56,161,1773.56,163.18Z" style="fill:#1d1d1b"/><path d="M1787.69,168.62c-3.07,0-4.92-2.17-4.92-5.44s1.87-5.43,4.92-5.43c2.72,0,4.37,1.53,4.51,3.86h-2.47a2,2,0,0,0-2.06-2c-1.54,0-2.43,1.39-2.43,3.54s.93,3.62,2.43,3.62a2.06,2.06,0,0,0,2.12-2.06h2.43C1792,167.16,1790.37,168.62,1787.69,168.62Z" style="fill:#1d1d1b"/><path d="M1796.54,162.31l3.48-4.26h2.85l-3.94,4.6,4.35,5.67h-3l-3.76-5.1v5.1h-2.39V153.87h2.39Z" style="fill:#1d1d1b"/><path d="M1805.49,159.54H1804l1-3.12h-1v-2.55h2.66v2.79Zm3.6,0h-1.45l1-3.12h-1v-2.55h2.66v2.79Z" style="fill:#1d1d1b"/></svg>