<svg xmlns="http://www.w3.org/2000/svg" xmlns:xlink="http://www.w3.org/1999/xlink" viewBox="0 0 750 850"><defs><clipPath id="a"><rect x="18" y="36.08" width="706.35" height="781.92" style="fill:none"/></clipPath></defs><title>dia2_mobile</title><rect width="750" height="850" style="fill:#caffe1"/><g style="clip-path:url(#a)"><path d="M180.85,735.92s-23.33,0-23.33,23.34v32.08s0,23.33,23.33,23.33H639.92s23.33,0,23.33-23.33V759.26s0-23.34-23.33-23.34Z" style="fill:#c9ffe0"/><path d="M180.85,735.92s-23.33,0-23.33,23.34v32.08s0,23.33,23.33,23.33H639.92s23.33,0,23.33-23.33V759.26s0-23.34-23.33-23.34Z" style="fill:none;stroke:#1d1d1b;stroke-width:6.656000137329102px"/><path d="M179,734.05s-23.33,0-23.33,23.34v32.08s0,23.33,23.33,23.33H641.79s23.33,0,23.33-23.33V757.39s0-23.34-23.33-23.34Z" style="fill:#c9ffe0"/><path d="M179,734.05s-23.33,0-23.33,23.34v32.08s0,23.33,23.33,23.33H641.79s23.33,0,23.33-23.33V757.39s0-23.34-23.33-23.34Z" style="fill:none;stroke:#1d1d1b;stroke-width:2.9170000553131104px"/></g><path d="M214.7,787.2H210l-2.42-6.86H197.48l-2.35,6.86h-4.59l9.35-25.41h5.39Zm-12-21.77h-.21c-.73,2.38-1.43,4.86-2.31,7.24l-1.47,4h7.7l-1.4-4C204.2,770.29,203.36,767.81,202.69,765.43Z" style="fill:#1d1d1b"/><path d="M226.63,787.55a6.06,6.06,0,0,1-5.29-2.42v9.1h-4.2V769.14h3.92v2.41a6.72,6.72,0,0,1,5.64-2.76c4.62,0,7.53,3.67,7.53,9.38C234.23,784.12,231.11,787.55,226.63,787.55Zm-1-15.51c-2.66,0-4.38,2.35-4.38,6.13s1.64,6.16,4.3,6.16,4.38-2.35,4.38-6.16S228.28,772,225.62,772Z" style="fill:#1d1d1b"/><path d="M247.42,787.55a6.06,6.06,0,0,1-5.29-2.42v9.1h-4.2V769.14h3.92v2.41a6.72,6.72,0,0,1,5.64-2.76c4.62,0,7.52,3.67,7.52,9.38C255,784.12,251.9,787.55,247.42,787.55Zm-1-15.51c-2.66,0-4.37,2.35-4.37,6.13s1.64,6.16,4.3,6.16,4.38-2.35,4.38-6.16S249.06,772,246.4,772Z" style="fill:#1d1d1b"/><path d="M265.55,784.68c2,0,3.29-.84,3.29-2.24,0-1.82-2-2.28-4.34-2.84-3.08-.73-6.72-1.54-6.72-5.49,0-3.29,2.9-5.46,7.52-5.46,4.8,0,7.49,2.06,7.49,6h-4.16c-.11-2.14-1.19-3-3.47-3-1.85,0-3,.8-3,2.1,0,1.92,2.66,2.41,5.35,3.08s5.71,1.78,5.71,5.25-2.94,5.6-7.67,5.6c-5.14,0-8-2.17-8.12-6.27h4.31C261.7,783.59,263,784.68,265.55,784.68Z" style="fill:#1d1d1b"/><path d="M288,778.17c.39,1.71.67,3.64,1,5.42h.25c.31-1.78.7-3.67,1.08-5.46l2.07-9h5.88l2.1,9c.38,1.71.66,3.64,1.05,5.42h.24c.28-1.78.56-3.71.95-5.42l1.92-9h4L304,787.2h-5.67l-2-9.07c-.39-1.82-.74-3.78-1.12-5.6H295c-.38,1.82-.77,3.78-1.19,5.64l-2,9h-5.53l-4.44-18.06h4.3Z" style="fill:#1d1d1b"/><path d="M315.56,771.38a6.17,6.17,0,0,1,5.43-2.59,5.84,5.84,0,0,1,5.14,2.45c.88,1.26,1,2.94,1,5.6V787.2H323V777.12c0-2.7-.39-5.11-3.29-5.11-2.66,0-4.1,1.75-4.1,6v9.14h-4.2V761.79h4.2Z" style="fill:#1d1d1b"/><path d="M348.64,778.17c0,5.7-3.51,9.52-9.07,9.52s-9-3.82-9-9.52,3.5-9.52,9-9.52S348.64,772.46,348.64,778.17Zm-13.66,0c0,3.81,1.65,6.3,4.59,6.3s4.69-2.42,4.69-6.3-1.72-6.3-4.66-6.3S335,774.28,335,778.17Z" style="fill:#1d1d1b"/><path d="M368.93,768.79c2.66,0,4.13.94,5.08,2.48a11,11,0,0,1,1.08,5.57V787.2h-4.2V777.12c0-2.7-.38-5.11-3.29-5.11-2.66,0-4.09,1.75-4.09,6v9.14h-4.2V769.14h3.88v2.34A7,7,0,0,1,368.93,768.79Z" style="fill:#1d1d1b"/><path d="M387.41,768.65a7.42,7.42,0,0,1,6.9,3.71,14.07,14.07,0,0,1,1.43,7H382.9c.1,3.08,1.61,5.22,4.55,5.22a3.67,3.67,0,0,0,3.81-2.8h4.45c-1,4-3.92,5.88-8.3,5.88-5.84,0-8.85-3.68-8.85-9.59C378.56,772.67,382,768.65,387.41,768.65Zm-.21,3c-2.34,0-4.13,1.54-4.37,4.62h8.64C391.23,773.23,389.48,771.69,387.2,771.69Z" style="fill:#1d1d1b"/><path d="M407.15,768.65a7.42,7.42,0,0,1,6.9,3.71,14.07,14.07,0,0,1,1.43,7H402.64c.1,3.08,1.61,5.22,4.55,5.22a3.67,3.67,0,0,0,3.81-2.8h4.45c-1,4-3.92,5.88-8.3,5.88-5.84,0-8.85-3.68-8.85-9.59C398.3,772.67,401.69,768.65,407.15,768.65Zm-.21,3c-2.34,0-4.13,1.54-4.37,4.62h8.64C411,773.23,409.22,771.69,406.94,771.69Z" style="fill:#1d1d1b"/><path d="M425.7,768.79A6.11,6.11,0,0,1,431,771.2v-9.41h4.2V787.2h-4v-2.42a6.63,6.63,0,0,1-5.53,2.77c-4.62,0-7.63-3.43-7.63-9.42C418.07,772.43,421.08,768.79,425.7,768.79Zm1,15.5c2.66,0,4.38-2.27,4.38-6.16s-1.65-6.12-4.31-6.12-4.34,2.34-4.34,6.12S424,784.29,426.68,784.29Z" style="fill:#1d1d1b"/><path d="M451,771.83a5.31,5.31,0,0,1,4.79-2.87,9.6,9.6,0,0,1,2,.18v3.64a8.68,8.68,0,0,0-1.82-.18c-3.47,0-4.73,2.31-4.73,6.69v7.91H447V769.14h4Z" style="fill:#1d1d1b"/><path d="M477.18,778.17c0,5.7-3.5,9.52-9.06,9.52s-9-3.82-9-9.52,3.5-9.52,9-9.52S477.18,772.46,477.18,778.17Zm-13.65,0c0,3.81,1.65,6.3,4.59,6.3s4.69-2.42,4.69-6.3-1.72-6.3-4.66-6.3S463.53,774.28,463.53,778.17Z" style="fill:#1d1d1b"/><path d="M497.73,778.17c0,5.7-3.5,9.52-9.07,9.52s-9-3.82-9-9.52,3.5-9.52,9-9.52S497.73,772.46,497.73,778.17Zm-13.65,0c0,3.81,1.64,6.3,4.58,6.3s4.69-2.42,4.69-6.3-1.71-6.3-4.65-6.3S484.08,774.28,484.08,778.17Z" style="fill:#1d1d1b"/><path d="M506.23,764.66v4.48h3.57v3.22h-3.57v8.5c0,2.24.49,3.26,2.17,3.26a6.1,6.1,0,0,0,1.44-.14v3.22a10.37,10.37,0,0,1-2.7.31c-3.6,0-5.11-1.71-5.11-5.81v-9.34h-2.9v-3.22H502v-4.48Z" style="fill:#1d1d1b"/><path d="M531.12,784.85a7.05,7.05,0,0,1-6.06,2.7c-4,0-6.27-2-6.27-5.36,0-5.77,7.25-5.81,11.84-6.37v-.77c0-2.24-1-3.43-3.29-3.43s-3.54,1.09-3.57,3h-4.31c.14-3.78,3.15-6,7.88-6,5.74,0,7.38,3,7.38,7.84v5a33.57,33.57,0,0,0,.39,5.67h-3.82A21,21,0,0,1,531.12,784.85Zm-8-2.73c0,1.54,1.06,2.52,3,2.52,2.62,0,4.48-1.26,4.48-5.18v-.77C527.48,779.15,523.13,779,523.13,782.12Z" style="fill:#1d1d1b"/><path d="M546.79,787.72c-5.39,0-8.64-3.81-8.64-9.55s3.29-9.56,8.64-9.56c4.8,0,7.71,2.7,8,6.79H550.4c-.28-2.27-1.54-3.53-3.64-3.53-2.7,0-4.27,2.45-4.27,6.23s1.64,6.37,4.27,6.37c2.1,0,3.43-1.3,3.74-3.64h4.28C554.46,785.17,551.52,787.72,546.79,787.72Z" style="fill:#1d1d1b"/><path d="M565.69,787.72c-5.39,0-8.64-3.81-8.64-9.55s3.29-9.56,8.64-9.56c4.8,0,7.7,2.7,7.95,6.79H569.3c-.28-2.27-1.54-3.53-3.64-3.53-2.7,0-4.27,2.45-4.27,6.23s1.64,6.37,4.27,6.37c2.1,0,3.43-1.3,3.74-3.64h4.27C573.36,785.17,570.42,787.72,565.69,787.72Z" style="fill:#1d1d1b"/><path d="M584.77,768.65a7.4,7.4,0,0,1,6.89,3.71,14,14,0,0,1,1.44,7H580.25c.11,3.08,1.61,5.22,4.55,5.22a3.69,3.69,0,0,0,3.82-2.8h4.44c-1,4-3.92,5.88-8.29,5.88-5.85,0-8.86-3.68-8.86-9.59C575.91,772.67,579.31,768.65,584.77,768.65Zm-.21,3c-2.35,0-4.13,1.54-4.38,4.62h8.65C588.58,773.23,586.83,771.69,584.56,771.69Z" style="fill:#1d1d1b"/><path d="M603.63,784.68c2,0,3.29-.84,3.29-2.24,0-1.82-2-2.28-4.34-2.84-3.08-.73-6.72-1.54-6.72-5.49,0-3.29,2.91-5.46,7.53-5.46,4.79,0,7.49,2.06,7.49,6h-4.17c-.1-2.14-1.19-3-3.46-3-1.86,0-3,.8-3,2.1,0,1.92,2.66,2.41,5.36,3.08s5.7,1.78,5.7,5.25-2.94,5.6-7.66,5.6c-5.15,0-8-2.17-8.12-6.27h4.3C599.78,783.59,601.08,784.68,603.63,784.68Z" style="fill:#1d1d1b"/><path d="M621.62,784.68c2,0,3.29-.84,3.29-2.24,0-1.82-2-2.28-4.34-2.84-3.08-.73-6.72-1.54-6.72-5.49,0-3.29,2.91-5.46,7.53-5.46,4.79,0,7.49,2.06,7.49,6H624.7c-.1-2.14-1.19-3-3.46-3-1.86,0-3,.8-3,2.1,0,1.92,2.66,2.41,5.36,3.08s5.7,1.78,5.7,5.25-2.94,5.6-7.66,5.6c-5.15,0-8-2.17-8.13-6.27h4.31C617.77,783.59,619.07,784.68,621.62,784.68Z" style="fill:#1d1d1b"/><g style="clip-path:url(#a)"><path d="M185.71,39.4s-23.33,0-23.33,23.34V94.82s0,23.33,23.33,23.33H556.63s23.34,0,23.34-23.33V62.74s0-23.34-23.34-23.34Z" style="fill:#c9ffe0"/><path d="M185.71,39.4s-23.33,0-23.33,23.34V94.82s0,23.33,23.33,23.33H556.63s23.34,0,23.34-23.33V62.74s0-23.34-23.34-23.34Z" style="fill:none;stroke:#1d1d1b;stroke-width:6.656000137329102px"/><path d="M183.84,37.53s-23.33,0-23.33,23.34V93s0,23.33,23.33,23.33H558.5s23.34,0,23.34-23.33V60.87s0-23.34-23.34-23.34Z" style="fill:#c9ffe0"/><path d="M183.84,37.53s-23.33,0-23.33,23.34V93s0,23.33,23.33,23.33H558.5s23.34,0,23.34-23.33V60.87s0-23.34-23.34-23.34Z" style="fill:none;stroke:#1d1d1b;stroke-width:2.9170000553131104px"/></g><path d="M207.47,85.93c4.38,0,5.39-3.74,5.39-7.52V63.53h4.45v15c0,7.11-3.5,10.89-9.84,10.89-7.14,0-9.8-3.89-9.8-11.17V63.53h4.44V78.41C202.11,81.91,203,85.93,207.47,85.93Z" style="fill:#1d1d1b"/><path d="M231.58,70.53c2.66,0,4.13.94,5.08,2.48a11,11,0,0,1,1.08,5.57V88.94h-4.2V78.86c0-2.69-.38-5.11-3.29-5.11-2.66,0-4.09,1.75-4.09,6.06v9.13H222V70.88h3.88v2.34A7,7,0,0,1,231.58,70.53Z" style="fill:#1d1d1b"/><path d="M246.56,88.94h-4.2V63.53h4.2Z" style="fill:#1d1d1b"/><path d="M268.26,79.91c0,5.71-3.5,9.52-9.06,9.52s-9-3.81-9-9.52,3.5-9.52,9-9.52S268.26,74.21,268.26,79.91Zm-13.65,0c0,3.82,1.65,6.3,4.59,6.3s4.69-2.41,4.69-6.3-1.72-6.3-4.66-6.3S254.61,76,254.61,79.91Z" style="fill:#1d1d1b"/><path d="M279.46,89.47c-5.39,0-8.65-3.82-8.65-9.56s3.3-9.56,8.65-9.56c4.8,0,7.7,2.7,8,6.8h-4.34c-.28-2.28-1.54-3.54-3.64-3.54-2.7,0-4.27,2.45-4.27,6.23s1.64,6.37,4.27,6.37c2.1,0,3.43-1.29,3.74-3.64h4.27C287.13,86.91,284.19,89.47,279.46,89.47Z" style="fill:#1d1d1b"/><path d="M295,78.37l6.12-7.49h5L299.24,79l7.66,10h-5.25L295,80v9h-4.21V63.53H295Z" style="fill:#1d1d1b"/><path d="M320.06,66.4v4.48h3.57V74.1h-3.57v8.51c0,2.24.49,3.25,2.17,3.25a6,6,0,0,0,1.43-.14v3.22a9.9,9.9,0,0,1-2.69.32c-3.61,0-5.11-1.72-5.11-5.81V74.1H313V70.88h2.91V66.4Z" style="fill:#1d1d1b"/><path d="M331.05,73.12a6.16,6.16,0,0,1,5.42-2.59A5.86,5.86,0,0,1,341.62,73c.87,1.26,1,2.94,1,5.6V88.94h-4.2V78.86c0-2.69-.38-5.11-3.29-5.11-2.66,0-4.09,1.75-4.09,6.06v9.13h-4.2V63.53h4.2Z" style="fill:#1d1d1b"/><path d="M355,70.39a7.42,7.42,0,0,1,6.9,3.71,14.11,14.11,0,0,1,1.43,7H350.44c.1,3.08,1.61,5.21,4.55,5.21a3.66,3.66,0,0,0,3.81-2.8h4.45c-1,4-3.92,5.88-8.3,5.88-5.84,0-8.85-3.67-8.85-9.59C346.1,74.42,349.49,70.39,355,70.39Zm-.21,3c-2.34,0-4.13,1.55-4.37,4.63H359C358.77,75,357,73.43,354.74,73.43Z" style="fill:#1d1d1b"/><path d="M383.48,89.29a6.72,6.72,0,0,1-5.57-2.73v2.38H374V63.53h4.2V73a6.36,6.36,0,0,1,5.36-2.45c4.62,0,7.52,3.57,7.52,9.35S387.92,89.29,383.48,89.29Zm-1.09-15.54c-2.66,0-4.3,2.48-4.3,6.13S379.8,86,382.46,86s4.31-2.38,4.31-6.16S385.16,73.75,382.39,73.75Z" style="fill:#1d1d1b"/><path d="M411.65,79.91c0,5.71-3.5,9.52-9.06,9.52s-9-3.81-9-9.52,3.5-9.52,9-9.52S411.65,74.21,411.65,79.91Zm-13.65,0c0,3.82,1.64,6.3,4.59,6.3s4.69-2.41,4.69-6.3-1.72-6.3-4.66-6.3S398,76,398,79.91Z" style="fill:#1d1d1b"/><path d="M432.2,79.91c0,5.71-3.5,9.52-9.07,9.52s-9-3.81-9-9.52,3.5-9.52,9-9.52S432.2,74.21,432.2,79.91Zm-13.66,0c0,3.82,1.65,6.3,4.59,6.3s4.69-2.41,4.69-6.3-1.72-6.3-4.66-6.3S418.54,76,418.54,79.91Z" style="fill:#1d1d1b"/><path d="M440.7,66.4v4.48h3.57V74.1H440.7v8.51c0,2.24.49,3.25,2.17,3.25a6,6,0,0,0,1.43-.14v3.22a9.9,9.9,0,0,1-2.69.32c-3.61,0-5.11-1.72-5.11-5.81V74.1h-2.91V70.88h2.91V66.4Z" style="fill:#1d1d1b"/><path d="M451.69,88.94h-4.2V63.53h4.2Z" style="fill:#1d1d1b"/><path d="M473.39,79.91c0,5.71-3.5,9.52-9.07,9.52s-9-3.81-9-9.52,3.5-9.52,9-9.52S473.39,74.21,473.39,79.91Zm-13.65,0c0,3.82,1.64,6.3,4.58,6.3S469,83.8,469,79.91s-1.71-6.3-4.65-6.3S459.74,76,459.74,79.91Z" style="fill:#1d1d1b"/><path d="M488.16,86.6a7,7,0,0,1-6.06,2.69c-4,0-6.27-2-6.27-5.35,0-5.78,7.25-5.81,11.84-6.37v-.78c0-2.24-1.05-3.43-3.29-3.43s-3.54,1.09-3.57,3H476.5c.14-3.78,3.15-6,7.88-6,5.74,0,7.38,3,7.38,7.84v5a33.5,33.5,0,0,0,.39,5.67h-3.82A20.94,20.94,0,0,1,488.16,86.6Zm-8-2.73c0,1.54,1.05,2.52,3,2.52,2.62,0,4.48-1.26,4.48-5.18v-.77C484.52,80.89,480.18,80.79,480.18,83.87Z" style="fill:#1d1d1b"/><path d="M502.82,70.53a6.11,6.11,0,0,1,5.29,2.41V63.53h4.2V88.94h-4V86.53a6.65,6.65,0,0,1-5.53,2.76c-4.62,0-7.63-3.43-7.63-9.41C495.19,74.17,498.2,70.53,502.82,70.53Zm1,15.51c2.66,0,4.38-2.28,4.38-6.16s-1.65-6.13-4.31-6.13-4.34,2.35-4.34,6.13S501.14,86,503.8,86Z" style="fill:#1d1d1b"/><path d="M524.83,70.39a7.42,7.42,0,0,1,6.9,3.71,14.11,14.11,0,0,1,1.43,7H520.32c.1,3.08,1.61,5.21,4.55,5.21a3.66,3.66,0,0,0,3.81-2.8h4.45c-1,4-3.92,5.88-8.3,5.88-5.84,0-8.85-3.67-8.85-9.59C516,74.42,519.37,70.39,524.83,70.39Zm-.21,3c-2.34,0-4.13,1.55-4.37,4.63h8.64C528.65,75,526.9,73.43,524.62,73.43Z" style="fill:#1d1d1b"/><path d="M540.83,73.57a5.31,5.31,0,0,1,4.79-2.87,9.67,9.67,0,0,1,2,.18v3.64a8.68,8.68,0,0,0-1.82-.18c-3.47,0-4.73,2.32-4.73,6.69v7.91h-4.2V70.88h4Z" style="fill:#1d1d1b"/><g style="clip-path:url(#a)"><path d="M44.66,241.88s-23.33,0-23.33,23.33v32.08s0,23.33,23.33,23.33h296.2s23.33,0,23.33-23.33V265.21s0-23.33-23.33-23.33Z" style="fill:#c9ffe0"/><path d="M44.66,241.88s-23.33,0-23.33,23.33v32.08s0,23.33,23.33,23.33h296.2s23.33,0,23.33-23.33V265.21s0-23.33-23.33-23.33Z" style="fill:none;stroke:#1d1d1b;stroke-width:6.656000137329102px"/><path d="M42.79,240s-23.33,0-23.33,23.33v32.08s0,23.33,23.33,23.33H343.2s23.33,0,23.33-23.33V263.34s0-23.33-23.33-23.33Z" style="fill:#c9ffe0"/><path d="M42.79,240s-23.33,0-23.33,23.33v32.08s0,23.33,23.33,23.33H343.2s23.33,0,23.33-23.33V263.34s0-23.33-23.33-23.33Z" style="fill:none;stroke:#1d1d1b;stroke-width:2.9170000553131104px"/></g><path d="M69,291.66c-6.89,0-11.44-4.76-11.44-13,0-7.74,4.65-13.44,11.51-13.44,5.85,0,10,3.6,10.33,9.06H74.86c-.39-3.36-2.59-5.53-5.81-5.53-4.2,0-6.93,4-6.93,9.73s2.73,9.66,6.89,9.66c3.36,0,5.46-2.2,5.92-5.7h4.65C78.92,287.67,75.24,291.66,69,291.66Z" style="fill:#1d1d1b"/><path d="M88.86,291.48A5.88,5.88,0,0,1,83.75,289c-.88-1.22-1-3.08-1-5.7V273.07h4.16v10.12c0,2.66.39,5.11,3.33,5.11a3.47,3.47,0,0,0,3-1.4,7.76,7.76,0,0,0,1.12-4.66v-9.17h4.2v18.06H94.56v-2.34A6.89,6.89,0,0,1,88.86,291.48Z" style="fill:#1d1d1b"/><path d="M110.14,288.61c2,0,3.29-.84,3.29-2.24,0-1.82-2-2.27-4.34-2.83-3.08-.74-6.72-1.54-6.72-5.5,0-3.29,2.9-5.46,7.52-5.46,4.8,0,7.49,2.07,7.49,6h-4.16c-.11-2.13-1.19-3-3.47-3-1.85,0-3,.81-3,2.1,0,1.93,2.66,2.42,5.35,3.08,2.84.77,5.71,1.79,5.71,5.25s-2.94,5.6-7.67,5.6c-5.14,0-8-2.17-8.12-6.26h4.31C106.29,287.53,107.58,288.61,110.14,288.61Z" style="fill:#1d1d1b"/><path d="M126.24,268.59v4.48h3.57v3.22h-3.57v8.51c0,2.24.49,3.25,2.17,3.25a6,6,0,0,0,1.43-.14v3.22a9.9,9.9,0,0,1-2.69.32c-3.61,0-5.11-1.72-5.11-5.81v-9.35h-2.91v-3.22H122v-4.48Z" style="fill:#1d1d1b"/><path d="M149.79,282.1c0,5.71-3.5,9.52-9.07,9.52s-9-3.81-9-9.52,3.5-9.52,9-9.52S149.79,276.4,149.79,282.1Zm-13.65,0c0,3.82,1.65,6.3,4.58,6.3s4.7-2.41,4.7-6.3-1.72-6.3-4.66-6.3S136.14,278.22,136.14,282.1Z" style="fill:#1d1d1b"/><path d="M157.21,275.49a6.45,6.45,0,0,1,5.56-2.77c2.38,0,4.13.84,5.11,3,1.3-2.21,3.54-3,6.16-3a5.41,5.41,0,0,1,4.31,1.61c1.09,1.26,1.54,3.12,1.54,5.5v11.3h-4.2v-10.6c0-2.38-.56-4.59-3.05-4.59-3,0-3.85,2.87-3.85,6.3v8.89h-4.2v-10.6c0-2.38-.63-4.59-3.11-4.59-3,0-3.82,2.87-3.82,6.3v8.89h-4.2V273.07h3.78Z" style="fill:#1d1d1b"/><path d="M195.46,275.77a5.3,5.3,0,0,1,4.8-2.87,9.56,9.56,0,0,1,2,.17v3.64a8.57,8.57,0,0,0-1.82-.17c-3.46,0-4.72,2.31-4.72,6.68v7.91h-4.2V273.07h4Z" style="fill:#1d1d1b"/><path d="M212.51,272.58a7.4,7.4,0,0,1,6.89,3.71,14,14,0,0,1,1.44,7H208c.11,3.08,1.61,5.21,4.55,5.21a3.68,3.68,0,0,0,3.82-2.8h4.44c-1,4-3.92,5.88-8.29,5.88-5.85,0-8.86-3.67-8.86-9.59C203.65,276.61,207.05,272.58,212.51,272.58Zm-.21,3.05c-2.35,0-4.13,1.54-4.38,4.62h8.65C216.32,277.17,214.57,275.63,212.3,275.63Z" style="fill:#1d1d1b"/><path d="M232.07,291.66c-5.39,0-8.65-3.82-8.65-9.56s3.29-9.55,8.65-9.55c4.8,0,7.7,2.69,8,6.79h-4.34c-.28-2.28-1.54-3.54-3.64-3.54-2.7,0-4.27,2.45-4.27,6.23s1.64,6.37,4.27,6.37c2.1,0,3.43-1.29,3.74-3.64h4.27C239.74,289.1,236.8,291.66,232.07,291.66Z" style="fill:#1d1d1b"/><path d="M260.32,282.1c0,5.71-3.5,9.52-9.07,9.52s-9-3.81-9-9.52,3.5-9.52,9-9.52S260.32,276.4,260.32,282.1Zm-13.65,0c0,3.82,1.64,6.3,4.58,6.3s4.69-2.41,4.69-6.3-1.71-6.3-4.65-6.3S246.67,278.22,246.67,282.1Z" style="fill:#1d1d1b"/><path d="M269,282.1c.52,1.79.94,3.54,1.4,5.32h.24c.42-1.78.88-3.53,1.4-5.32l2.8-9h4.49L273,291.13h-5.11l-6.3-18.06h4.66Z" style="fill:#1d1d1b"/><path d="M289.4,272.58a7.4,7.4,0,0,1,6.89,3.71,14,14,0,0,1,1.44,7H284.88c.11,3.08,1.61,5.21,4.55,5.21a3.68,3.68,0,0,0,3.82-2.8h4.44c-1,4-3.92,5.88-8.29,5.88-5.85,0-8.86-3.67-8.86-9.59C280.54,276.61,283.94,272.58,289.4,272.58Zm-.21,3.05c-2.35,0-4.13,1.54-4.38,4.62h8.65C293.21,277.17,291.46,275.63,289.19,275.63Z" style="fill:#1d1d1b"/><path d="M305.39,275.77a5.3,5.3,0,0,1,4.8-2.87,9.56,9.56,0,0,1,2,.17v3.64a8.57,8.57,0,0,0-1.82-.17c-3.46,0-4.72,2.31-4.72,6.68v7.91h-4.2V273.07h3.95Z" style="fill:#1d1d1b"/><path d="M315.93,295c2,0,3.22-1.15,3.5-3.67l-6.51-18.24h4.69l2.66,9c.52,1.79.87,3.5,1.4,5.29h.21c.45-1.72.87-3.57,1.4-5.29l2.83-9h4.38l-6.3,17.57c-2,5.57-3.82,7.67-7.39,7.67a10.78,10.78,0,0,1-2.69-.21v-3.4A4.79,4.79,0,0,0,315.93,295Z" style="fill:#1d1d1b"/><g style="clip-path:url(#a)"><path d="M414.67,241.88s-23.33,0-23.33,23.33v32.08s0,23.33,23.33,23.33H697.23s23.33,0,23.33-23.33V265.21s0-23.33-23.33-23.33Z" style="fill:#c9ffe0"/><path d="M414.67,241.88s-23.33,0-23.33,23.33v32.08s0,23.33,23.33,23.33H697.23s23.33,0,23.33-23.33V265.21s0-23.33-23.33-23.33Z" style="fill:none;stroke:#1d1d1b;stroke-width:6.656000137329102px"/><path d="M412.8,240.42s-23.33,0-23.33,23.33v32.08s0,23.34,23.33,23.34H699.56s23.33,0,23.33-23.34V263.75s0-23.33-23.33-23.33Z" style="fill:#c9ffe0"/><path d="M412.8,240.42s-23.33,0-23.33,23.33v32.08s0,23.34,23.33,23.34H699.56s23.33,0,23.33-23.34V263.75s0-23.33-23.33-23.33Z" style="fill:none;stroke:#1d1d1b;stroke-width:2.9170000553131104px"/></g><path d="M442.7,270a6.25,6.25,0,0,1,3.75,6.09c0,3.11-2,5.6-5.5,6.34v.17c2.87.28,3.82,2.45,4.66,5l2.38,6.86h-4.73L441.05,288c-1.11-3.16-2.38-3.68-5.74-3.68h-2v10.15h-4.45V269.05h7.7A15.14,15.14,0,0,1,442.7,270Zm-.81,6.58c0-3-2.06-4-5.25-4h-3.32v8.09h2.62C438.85,280.74,441.89,280.14,441.89,276.61Z" style="fill:#1d1d1b"/><path d="M467.51,285.43c0,5.71-3.5,9.52-9.06,9.52s-9-3.81-9-9.52,3.5-9.52,9-9.52S467.51,279.72,467.51,285.43Zm-13.65,0c0,3.82,1.65,6.3,4.59,6.3s4.69-2.41,4.69-6.3-1.72-6.3-4.66-6.3S453.86,281.54,453.86,285.43Z" style="fill:#1d1d1b"/><path d="M488.06,285.43c0,5.71-3.5,9.52-9.07,9.52s-9-3.81-9-9.52,3.5-9.52,9-9.52S488.06,279.72,488.06,285.43Zm-13.65,0c0,3.82,1.64,6.3,4.58,6.3s4.69-2.41,4.69-6.3-1.71-6.3-4.65-6.3S474.41,281.54,474.41,285.43Z" style="fill:#1d1d1b"/><path d="M496.56,271.92v4.48h3.57v3.22h-3.57v8.5c0,2.25.49,3.26,2.17,3.26a6.1,6.1,0,0,0,1.44-.14v3.22a10,10,0,0,1-2.7.32c-3.6,0-5.11-1.72-5.11-5.81v-9.35h-2.9V276.4h2.9v-4.48Z" style="fill:#1d1d1b"/><path d="M519.84,294.81a6.05,6.05,0,0,1-5.29-2.41v9.1h-4.2V276.4h3.92v2.41a6.72,6.72,0,0,1,5.64-2.76c4.62,0,7.52,3.67,7.52,9.38C527.43,291.38,524.32,294.81,519.84,294.81Zm-1-15.51c-2.66,0-4.37,2.35-4.37,6.13s1.64,6.16,4.3,6.16,4.38-2.34,4.38-6.16S521.48,279.3,518.82,279.3Z" style="fill:#1d1d1b"/><path d="M538.84,275.91a7.43,7.43,0,0,1,6.9,3.71,14.09,14.09,0,0,1,1.43,7H534.32c.11,3.08,1.61,5.21,4.56,5.21a3.67,3.67,0,0,0,3.81-2.8h4.45c-1,4-3.93,5.88-8.3,5.88-5.85,0-8.86-3.67-8.86-9.59C530,279.93,533.38,275.91,538.84,275.91Zm-.21,3c-2.35,0-4.13,1.54-4.38,4.63h8.65C542.66,280.49,540.9,279,538.63,279Z" style="fill:#1d1d1b"/><path d="M554.83,279.09a5.32,5.32,0,0,1,4.8-2.87,9.57,9.57,0,0,1,2,.18V280a8.62,8.62,0,0,0-1.82-.18c-3.46,0-4.72,2.31-4.72,6.69v7.91h-4.2V276.4h4Z" style="fill:#1d1d1b"/><path d="M568.24,278.81a6.47,6.47,0,0,1,5.56-2.76c2.38,0,4.13.84,5.11,3,1.3-2.2,3.54-3,6.16-3a5.38,5.38,0,0,1,4.31,1.61c1.08,1.26,1.54,3.11,1.54,5.49v11.31h-4.2V283.85c0-2.38-.56-4.58-3.05-4.58-3,0-3.85,2.87-3.85,6.3v8.89h-4.2V283.85c0-2.38-.63-4.58-3.11-4.58-3,0-3.82,2.87-3.82,6.3v8.89h-4.2V276.4h3.78Z" style="fill:#1d1d1b"/><path d="M599.74,273.28h-4.2v-4.23h4.2Zm0,21.18h-4.2V276.4h4.2Z" style="fill:#1d1d1b"/><path d="M611.39,291.94c2,0,3.29-.84,3.29-2.24,0-1.82-2-2.28-4.34-2.83-3.08-.74-6.72-1.54-6.72-5.5,0-3.29,2.91-5.46,7.53-5.46,4.79,0,7.49,2.06,7.49,6h-4.17c-.1-2.14-1.19-3-3.46-3-1.86,0-3,.8-3,2.1,0,1.92,2.66,2.41,5.36,3.08s5.7,1.78,5.7,5.25-2.94,5.6-7.66,5.6c-5.15,0-8-2.17-8.12-6.26h4.3C607.54,290.86,608.84,291.94,611.39,291.94Z" style="fill:#1d1d1b"/><path d="M629.38,291.94c2,0,3.29-.84,3.29-2.24,0-1.82-2-2.28-4.34-2.83-3.08-.74-6.72-1.54-6.72-5.5,0-3.29,2.91-5.46,7.53-5.46,4.79,0,7.49,2.06,7.49,6h-4.17c-.1-2.14-1.19-3-3.46-3-1.86,0-3,.8-3,2.1,0,1.92,2.66,2.41,5.36,3.08s5.7,1.78,5.7,5.25-2.94,5.6-7.66,5.6c-5.15,0-8-2.17-8.13-6.26h4.31C625.53,290.86,626.83,291.94,629.38,291.94Z" style="fill:#1d1d1b"/><path d="M644.74,273.28h-4.2v-4.23h4.2Zm0,21.18h-4.2V276.4h4.2Z" style="fill:#1d1d1b"/><path d="M666.45,285.43c0,5.71-3.5,9.52-9.07,9.52s-9-3.81-9-9.52,3.5-9.52,9-9.52S666.45,279.72,666.45,285.43Zm-13.66,0c0,3.82,1.65,6.3,4.59,6.3s4.69-2.41,4.69-6.3-1.71-6.3-4.66-6.3S652.79,281.54,652.79,285.43Z" style="fill:#1d1d1b"/><path d="M679.74,276.05c2.66,0,4.14.94,5.08,2.48a11,11,0,0,1,1.08,5.57v10.36h-4.2V284.38c0-2.7-.38-5.11-3.29-5.11-2.66,0-4.09,1.75-4.09,6.06v9.13h-4.2V276.4H674v2.34A7,7,0,0,1,679.74,276.05Z" style="fill:#1d1d1b"/><line x1="371.17" y1="121.48" x2="192.99" y2="240.08" style="fill:none;stroke:#1d1d1b;stroke-width:2.9170000553131104px"/><line x1="192.99" y1="321.08" x2="192.99" y2="466.08" style="fill:none;stroke:#1d1d1b;stroke-width:2.9170000553131104px"/><line x1="192.99" y1="551.48" x2="192.99" y2="599.34" style="fill:none;stroke:#1d1d1b;stroke-width:2.9170000553131104px"/><line x1="557.64" y1="321.08" x2="557.64" y2="599.34" style="fill:none;stroke:#1d1d1b;stroke-width:2.9170000553131104px"/><line x1="557.64" y1="684.74" x2="557.64" y2="732.6" style="fill:none;stroke:#1d1d1b;stroke-width:2.9170000553131104px"/><line x1="371.63" y1="121.48" x2="556.18" y2="240.08" style="fill:none;stroke:#1d1d1b;stroke-width:2.9170000553131104px"/><g style="clip-path:url(#a)"><path d="M128.11,469.4s-23.33,0-23.33,23.34v32.08s0,23.33,23.33,23.33H260.52s23.33,0,23.33-23.33V492.74s0-23.34-23.33-23.34Z" style="fill:#c9ffe0"/><path d="M128.11,469.4s-23.33,0-23.33,23.34v32.08s0,23.33,23.33,23.33H260.52s23.33,0,23.33-23.33V492.74s0-23.34-23.33-23.34Z" style="fill:none;stroke:#1d1d1b;stroke-width:6.656000137329102px"/><path d="M126.24,467.54s-23.33,0-23.33,23.33V523s0,23.33,23.33,23.33H262.39s23.33,0,23.33-23.33V490.87s0-23.33-23.33-23.33Z" style="fill:#c9ffe0"/><path d="M126.24,467.54s-23.33,0-23.33,23.33V523s0,23.33,23.33,23.33H262.39s23.33,0,23.33-23.33V490.87s0-23.33-23.33-23.33Z" style="fill:none;stroke:#1d1d1b;stroke-width:2.9170000553131104px"/></g><path d="M155.25,510.13c.81,2.35,1.3,4.41,1.89,6.37h.25c.42-2,1.05-4.27,1.71-6.37l4.55-14.24h7V521.3h-4.13V508.17c0-2.52.07-5.49.17-8.15h-.24c-.42,1.43-4.41,12.53-7,21.28h-5.07c-2.66-8.72-6.58-19.88-7-21.28h-.25c.11,2.24.25,5.84.25,8.15V521.3h-4.1V495.89h7Z" style="fill:#1d1d1b"/><path d="M198.37,508.59c0,7.91-4.72,13.24-11.83,13.24s-11.76-5.33-11.76-13.24c0-7.73,4.66-13.23,11.8-13.23S198.37,500.72,198.37,508.59Zm-19,0c0,5.78,2.84,9.7,7.21,9.7s7.28-4.13,7.28-9.7c0-5.77-2.76-9.69-7.24-9.69S179.33,502.85,179.33,508.59Z" style="fill:#1d1d1b"/><path d="M217.17,497.29c3.92,2,6,5.7,6,11.2a13.6,13.6,0,0,1-2.76,8.68c-2.1,2.55-5.39,4.13-9.91,4.13h-7.94V495.89H210A16.17,16.17,0,0,1,217.17,497.29Zm-1.12,18.34c1.64-1.51,2.48-3.78,2.48-7,0-3.74-.94-6.26-3.18-7.7a10.16,10.16,0,0,0-5.6-1.33H207v18.06h2.73C212.48,517.62,214.58,517,216.05,515.63Z" style="fill:#1d1d1b"/><path d="M233.82,518.78c2,0,3.29-.84,3.29-2.24,0-1.82-2-2.28-4.34-2.84-3.08-.73-6.72-1.54-6.72-5.49,0-3.29,2.91-5.46,7.53-5.46,4.8,0,7.49,2.06,7.49,6H236.9c-.1-2.14-1.19-3-3.46-3-1.86,0-3.05.8-3.05,2.1,0,1.92,2.66,2.41,5.36,3.08s5.71,1.78,5.71,5.25-3,5.6-7.67,5.6c-5.15,0-8-2.17-8.12-6.27H230C230,517.69,231.27,518.78,233.82,518.78Z" style="fill:#1d1d1b"/><g style="clip-path:url(#a)"><path d="M71.37,602.66S48,602.66,48,626v32.08s0,23.33,23.33,23.33H314.61s23.34,0,23.34-23.33V626s0-23.34-23.34-23.34Z" style="fill:#c9ffe0"/><path d="M71.37,602.66S48,602.66,48,626v32.08s0,23.33,23.33,23.33H314.61s23.34,0,23.34-23.33V626s0-23.34-23.34-23.34Z" style="fill:none;stroke:#1d1d1b;stroke-width:6.656000137329102px"/><path d="M69.5,600.79s-23.33,0-23.33,23.34v32.08s0,23.33,23.33,23.33h247s23.34,0,23.34-23.33V624.13s0-23.34-23.34-23.34Z" style="fill:#c9ffe0"/><path d="M69.5,600.79s-23.33,0-23.33,23.34v32.08s0,23.33,23.33,23.33h247s23.34,0,23.34-23.33V624.13s0-23.34-23.34-23.34Z" style="fill:none;stroke:#1d1d1b;stroke-width:2.9170000553131104px"/></g><path d="M82.63,654.18c-6.9,0-11.45-4.76-11.45-13,0-7.73,4.66-13.44,11.52-13.44,5.84,0,9.94,3.61,10.32,9.07H88.47c-.38-3.36-2.59-5.53-5.81-5.53-4.2,0-6.93,4-6.93,9.73s2.73,9.66,6.9,9.66c3.36,0,5.46-2.21,5.91-5.71H93.2C92.53,650.19,88.86,654.18,82.63,654.18Z" style="fill:#1d1d1b"/><path d="M102.47,654a5.88,5.88,0,0,1-5.11-2.45c-.87-1.23-1-3.08-1-5.71V635.6h4.17v10.11c0,2.66.38,5.11,3.32,5.11a3.45,3.45,0,0,0,3-1.4,7.71,7.71,0,0,0,1.12-4.65V635.6h4.2v18.06h-3.92v-2.35A6.89,6.89,0,0,1,102.47,654Z" style="fill:#1d1d1b"/><path d="M123.75,651.14c2,0,3.29-.84,3.29-2.24,0-1.82-2-2.28-4.34-2.84-3.08-.73-6.72-1.54-6.72-5.49,0-3.29,2.9-5.46,7.53-5.46,4.79,0,7.49,2.06,7.49,6h-4.17c-.1-2.14-1.19-3-3.46-3-1.86,0-3.05.8-3.05,2.1,0,1.92,2.66,2.41,5.36,3.08s5.7,1.78,5.7,5.25-2.94,5.6-7.66,5.6c-5.15,0-8-2.17-8.13-6.27h4.31C119.9,650.05,121.2,651.14,123.75,651.14Z" style="fill:#1d1d1b"/><path d="M139.85,631.12v4.48h3.57v3.22h-3.57v8.5c0,2.24.49,3.26,2.17,3.26a6.1,6.1,0,0,0,1.44-.14v3.22a10.37,10.37,0,0,1-2.7.31c-3.61,0-5.11-1.71-5.11-5.81v-9.34h-2.91V635.6h2.91v-4.48Z" style="fill:#1d1d1b"/><path d="M163.41,644.63c0,5.7-3.51,9.52-9.07,9.52s-9-3.82-9-9.52,3.5-9.52,9-9.52S163.41,638.92,163.41,644.63Zm-13.66,0c0,3.81,1.65,6.3,4.59,6.3s4.69-2.42,4.69-6.3-1.72-6.3-4.66-6.3S149.75,640.74,149.75,644.63Z" style="fill:#1d1d1b"/><path d="M170.82,638a6.5,6.5,0,0,1,5.57-2.76c2.38,0,4.13.84,5.11,3,1.29-2.2,3.53-3,6.16-3a5.37,5.37,0,0,1,4.3,1.61c1.09,1.26,1.54,3.11,1.54,5.49v11.31h-4.2V643.05c0-2.38-.56-4.58-3-4.58-3,0-3.85,2.87-3.85,6.3v8.89h-4.2V643.05c0-2.38-.63-4.58-3.12-4.58-3,0-3.81,2.87-3.81,6.3v8.89h-4.2V635.6h3.78Z" style="fill:#1d1d1b"/><path d="M219.26,629.23a6.25,6.25,0,0,1,3.75,6.09c0,3.11-2,5.6-5.5,6.33v.18c2.87.28,3.82,2.45,4.66,5l2.38,6.86h-4.73l-2.2-6.48c-1.12-3.15-2.38-3.67-5.74-3.67h-2v10.15h-4.44V628.25h7.7A15.09,15.09,0,0,1,219.26,629.23Zm-.8,6.58c0-3-2.07-4-5.25-4h-3.33v8.09h2.63C215.41,639.94,218.46,639.34,218.46,635.81Z" style="fill:#1d1d1b"/><path d="M249.82,641c0,7.91-4.73,13.23-11.83,13.23s-11.77-5.32-11.77-13.23c0-7.73,4.66-13.23,11.8-13.23S249.82,633.08,249.82,641Zm-19,0c0,5.78,2.83,9.7,7.21,9.7s7.28-4.13,7.28-9.7c0-5.77-2.77-9.69-7.25-9.69S230.78,635.21,230.78,641Z" style="fill:#1d1d1b"/><path d="M266,642.49c.81,2.35,1.3,4.41,1.89,6.37h.25c.42-2,1.05-4.27,1.71-6.37l4.55-14.24h7v25.41h-4.13V640.53c0-2.52.07-5.49.17-8.15h-.24c-.42,1.43-4.41,12.53-7,21.28h-5.07c-2.66-8.72-6.59-19.88-7-21.28h-.24c.1,2.24.24,5.84.24,8.15v13.13H254V628.25h7Z" style="fill:#1d1d1b"/><path d="M293.28,651.14c2,0,3.29-.84,3.29-2.24,0-1.82-2-2.28-4.34-2.84-3.08-.73-6.72-1.54-6.72-5.49,0-3.29,2.91-5.46,7.53-5.46,4.79,0,7.49,2.06,7.49,6h-4.17c-.1-2.14-1.19-3-3.46-3-1.86,0-3,.8-3,2.1,0,1.92,2.66,2.41,5.36,3.08s5.7,1.78,5.7,5.25-2.94,5.6-7.66,5.6c-5.15,0-8-2.17-8.12-6.27h4.3C289.43,650.05,290.73,651.14,293.28,651.14Z" style="fill:#1d1d1b"/><g style="clip-path:url(#a)"><path d="M472.44,602.66s-23.34,0-23.34,23.34v32.08s0,23.33,23.34,23.33H639.92s23.33,0,23.33-23.33V626s0-23.34-23.33-23.34Z" style="fill:#c9ffe0"/><path d="M472.44,602.66s-23.34,0-23.34,23.34v32.08s0,23.33,23.34,23.33H639.92s23.33,0,23.33-23.33V626s0-23.34-23.33-23.34Z" style="fill:none;stroke:#1d1d1b;stroke-width:6.656000137329102px"/><path d="M470.57,600.79s-23.34,0-23.34,23.34v32.08s0,23.33,23.34,23.33H641.79s23.33,0,23.33-23.33V624.13s0-23.34-23.33-23.34Z" style="fill:#c9ffe0"/><path d="M470.57,600.79s-23.34,0-23.34,23.34v32.08s0,23.33,23.34,23.33H641.79s23.33,0,23.33-23.33V624.13s0-23.34-23.33-23.34Z" style="fill:none;stroke:#1d1d1b;stroke-width:2.9170000553131104px"/></g><path d="M491.68,629.5h20.09v3.67H504v21.74h-4.48V633.17h-7.8Z" style="fill:#1d1d1b"/><path d="M518.73,639.09a6.17,6.17,0,0,1,5.43-2.59A5.84,5.84,0,0,1,529.3,639c.88,1.26,1,2.94,1,5.6v10.36h-4.2V644.83c0-2.7-.39-5.11-3.29-5.11-2.66,0-4.1,1.75-4.1,6.06v9.13h-4.2V629.5h4.2Z" style="fill:#1d1d1b"/><path d="M542.64,636.36a7.4,7.4,0,0,1,6.89,3.71,14,14,0,0,1,1.44,7H538.12c.11,3.08,1.61,5.21,4.55,5.21a3.68,3.68,0,0,0,3.82-2.8h4.44c-1,4-3.92,5.88-8.29,5.88-5.85,0-8.86-3.67-8.86-9.59C533.78,640.38,537.18,636.36,542.64,636.36Zm-.21,3c-2.35,0-4.14,1.54-4.38,4.63h8.65C546.45,640.94,544.7,639.4,542.43,639.4Z" style="fill:#1d1d1b"/><path d="M558.42,639.26A6.49,6.49,0,0,1,564,636.5c2.38,0,4.13.84,5.11,3,1.29-2.2,3.53-3,6.16-3a5.37,5.37,0,0,1,4.3,1.61c1.09,1.26,1.54,3.11,1.54,5.49v11.31h-4.2V644.3c0-2.38-.56-4.58-3-4.58-3,0-3.85,2.87-3.85,6.3v8.89h-4.2V644.3c0-2.38-.63-4.58-3.12-4.58-3,0-3.81,2.87-3.81,6.3v8.89h-4.21V636.85h3.79Z" style="fill:#1d1d1b"/><path d="M593.42,636.36a7.4,7.4,0,0,1,6.89,3.71,14,14,0,0,1,1.44,7H588.9c.11,3.08,1.61,5.21,4.55,5.21a3.68,3.68,0,0,0,3.82-2.8h4.44c-1,4-3.92,5.88-8.29,5.88-5.85,0-8.86-3.67-8.86-9.59C584.56,640.38,588,636.36,593.42,636.36Zm-.21,3c-2.35,0-4.13,1.54-4.38,4.63h8.65C597.23,640.94,595.48,639.4,593.21,639.4Z" style="fill:#1d1d1b"/><path d="M612.28,652.39c2,0,3.29-.84,3.29-2.24,0-1.82-2-2.27-4.34-2.83-3.08-.74-6.72-1.54-6.72-5.5,0-3.29,2.91-5.46,7.53-5.46,4.79,0,7.49,2.06,7.49,6h-4.17c-.1-2.14-1.19-3-3.46-3-1.86,0-3,.8-3,2.1,0,1.92,2.66,2.41,5.36,3.08s5.7,1.78,5.7,5.25-2.94,5.6-7.66,5.6c-5.15,0-8-2.17-8.12-6.26h4.3C608.43,651.31,609.73,652.39,612.28,652.39Z" style="fill:#1d1d1b"/><g style="clip-path:url(#a)"><path d="M287.18,508.78s137.33,2,58.43,89" style="fill:none;stroke:#1d1d1b;stroke-width:2.9170000553131104px;stroke-dasharray:8.784000396728516,5.867000102996826"/><polyline points="353.87 597.04 345.61 597.75 345.51 589.47" style="fill:none;stroke:#1d1d1b;stroke-width:2.9170000553131104px"/><path d="M445.78,642s-45.33-39.9-97.33-30.35" style="fill:none;stroke:#1d1d1b;stroke-width:2.9170000553131104px;stroke-dasharray:8.368000030517578,5.451000213623047"/><polyline points="355.43 616.14 348.44 611.69 353.39 605.05" style="fill:none;stroke:#1d1d1b;stroke-width:2.9170000553131104px"/></g></svg>