<svg xmlns="http://www.w3.org/2000/svg" viewBox="0 0 600 600"><title>i0</title><line x1="206" y1="134" x2="181" y2="189" style="fill:none;stroke:#000;stroke-width:7.5px"/><line x1="261" y1="94" x2="411" y2="99" style="fill:none;stroke:#000;stroke-width:7.5px"/><line x1="204.13" y1="247.23" x2="303" y2="278" style="fill:none;stroke:#000;stroke-width:7.5px"/><line x1="251" y1="125" x2="339" y2="239" style="fill:none;stroke:#000;stroke-width:7.5px"/><line x1="451" y1="147" x2="380" y2="258" style="fill:none;stroke:#000;stroke-width:7.5px"/><path d="M345,318.91a47.8,47.8,0,0,0,30-10.54,30,30,0,0,0-60,0A47.8,47.8,0,0,0,345,318.91Z" style="fill:none;stroke:#000;stroke-width:7.5px"/><circle cx="345" cy="261.41" r="12.5" style="fill:none;stroke:#000;stroke-width:7.5px"/><circle cx="345" cy="281" r="42" style="fill:none;stroke:#000;stroke-width:7.5px"/><path d="M165,265.91a47.8,47.8,0,0,0,30-10.54,30,30,0,0,0-60,0A47.8,47.8,0,0,0,165,265.91Z" style="fill:none;stroke:#000;stroke-width:7.5px"/><circle cx="165" cy="208.41" r="12.5" style="fill:none;stroke:#000;stroke-width:7.5px"/><circle cx="165" cy="228" r="42" style="fill:none;stroke:#000;stroke-width:7.5px"/><path d="M219,131.91a47.8,47.8,0,0,0,30-10.54,30,30,0,0,0-60,0A47.8,47.8,0,0,0,219,131.91Z" style="fill:none;stroke:#000;stroke-width:7.5px"/><circle cx="219" cy="74.41" r="12.5" style="fill:none;stroke:#000;stroke-width:7.5px"/><circle cx="219" cy="94" r="42" style="fill:none;stroke:#000;stroke-width:7.5px"/><path d="M453,143.91a47.8,47.8,0,0,0,30-10.54,30,30,0,0,0-60,0A47.8,47.8,0,0,0,453,143.91Z" style="fill:none;stroke:#000;stroke-width:7.5px"/><circle cx="453" cy="86.41" r="12.5" style="fill:none;stroke:#000;stroke-width:7.5px"/><circle cx="453" cy="106" r="42" style="fill:none;stroke:#000;stroke-width:7.5px"/></svg>