<svg xmlns="http://www.w3.org/2000/svg" viewBox="0 0 600 600"><title>i1</title><path d="M353.14,369.72s12,7.4,10.27,19.92-15.21,15.22-15.21,15.22L267.87,395s-12.79-5-10.83-19.4S270.87,359,270.87,359Z" style="fill:none;stroke:#000;stroke-width:7.5px"/><path d="M264.93,378.38s13.88,2.37,17,14.62-8.41,20.81-8.41,20.81l-78.16,21s-13.73-.86-17.3-14.93,6.59-20.6,6.59-20.6Z" style="fill:none;stroke:#000;stroke-width:7.5px"/><path d="M186.59,379.26s12,7.4,10.27,19.92-15.21,16.22-15.21,16.22l-80.33-9.82s-12.79-6-10.82-20.4,13.82-16.63,13.82-16.63Z" style="fill:none;stroke:#000;stroke-width:7.5px"/><path d="M576,555.7s-8.46,11.28-20.86,8.47-13.94-16.48-13.94-16.48L558,468.6s6.14-12.28,20.39-9.06,15.48,15.22,15.48,15.22Z" style="fill:#fffccd;stroke:#000;stroke-width:7.5px"/><path d="M396.83,372.17,353.62,481.86s1.25,14,11.81,18.17l13.49,5.32-15.09,38.32s-3.91,11.64,8.41,16.49a20.43,20.43,0,0,0,20.81-2.95L409.23,517l23.18,9.13-13.94,35.39s-3.54,15.86,9.37,20.95,19.76-3.73,19.76-3.73l16.47-41.83,14.67,5.78s15.67,1.49,18.68-6.16,40.71-108.62,40.71-108.62Z" style="fill:#fffccd;stroke:#000;stroke-width:7.5px"/><path d="M548.19,409,404.12,352.26s32.11-63.44,98-37.49S548.19,409,548.19,409Z" style="fill:#fffccd;stroke:#000;stroke-width:7.5px"/><line x1="458.8" y1="252" x2="468.82" y2="289.9" style="fill:none;stroke:#000;stroke-linecap:round;stroke-width:7.5px"/><line x1="580.87" y1="307.69" x2="543.13" y2="318.31" style="fill:none;stroke:#000;stroke-linecap:round;stroke-width:7.5px"/><path d="M62.67,408.69,30.78,437.93s-11.22,4.33-20.32-6.33-1.22-23.5-1.22-23.5L39.84,382" style="fill:none;stroke:#000;stroke-width:7.5px"/><path d="M62.92,366.9l-8.19-34.08s-1.74-8.62,3.43-11.9" style="fill:none;stroke:#000;stroke-width:7.5px"/><path d="M70.47,435.72l35-10.77s18.42-12.76,2.83-31" style="fill:none;stroke:#000;stroke-width:7.5px"/><path d="M547.19,407,405.3,351.18s29.93-64.36,95.8-38.41S547.19,407,547.19,407Z" style="fill:#fffccd;stroke:#000;stroke-width:7.5px"/><path d="M396.83,370.17,353.62,483.86A18.8,18.8,0,0,0,365.43,498l13.49,5.32-15.09,38.32s-3.91,11.64,8.41,16.49a20.43,20.43,0,0,0,20.81-2.95L409.23,515l23.18,9.13-13.94,35.39s-3.54,15.86,9.37,20.95,19.76-3.73,19.76-3.73l16.47-41.83,14.67,5.78s15.67,1.49,18.68-6.16l42.52-107.94Z" style="fill:#fffccd;stroke:#000;stroke-width:7.5px"/><path d="M576,553.7s-8.46,11.28-20.86,8.47-13.94-12.48-13.94-12.48L558,466.6s6.14-12.28,20.39-9.06,15.48,19.22,15.48,19.22Z" style="fill:#fffccd;stroke:#000;stroke-width:7.5px"/><path d="M353.14,369.72s12,7.4,10.27,19.92-15,16.39-15,16.39l-80.33-9.82s-13-6.19-11.08-20.57S270.87,359,270.87,359Z" style="fill:none;stroke:#000;stroke-width:7.5px"/><path d="M264.93,378.38s13.88,2.37,17,14.62-8.41,21.81-8.41,21.81l-78.16,21s-13.73-1.86-17.3-15.93,6.59-20.6,6.59-20.6Z" style="fill:none;stroke:#000;stroke-width:7.5px"/><path d="M186.59,379.26s12,7.4,10.27,19.92-15.21,17.22-15.21,17.22l-80.33-9.82s-12.79-7-10.82-21.4,13.82-16.63,13.82-16.63Z" style="fill:none;stroke:#000;stroke-width:7.5px"/><path d="M70.83,436.8,105.43,426s18.42-13.76,2.83-32" style="fill:none;stroke:#000;stroke-width:7.5px"/><path d="M62.67,408.69,30.78,437.93s-11.22,4.33-20.32-6.33-1.22-23.5-1.22-23.5L39.84,382" style="fill:none;stroke:#000;stroke-width:7.5px"/></svg>