<svg xmlns="http://www.w3.org/2000/svg" viewBox="0 0 600 600"><title>i2</title><polygon points="289.73 475.02 534.22 475.02 527.84 506.2 289.73 506.25 289.73 475.02" style="fill:#caffe1;stroke:#000;stroke-width:7.5px"/><polygon points="477.2 162.53 257.09 174.22 265.09 450.25 501.78 450.25 477.2 162.53" style="fill:#caffe1;stroke:#000;stroke-width:7.5px"/><polygon points="46.91 365.13 72.01 379.04 158.98 193.23 134.53 181.62 46.91 365.13" style="fill:#caffe1;stroke:#000;stroke-width:7.5px"/><polygon points="224.03 122.01 224.03 150.71 436.63 136.36 436.64 112.44 224.03 122.01" style="fill:#caffe1;stroke:#000;stroke-width:7.5px"/><path d="M398.2,93.49s6.38-7.09,11.34,0" style="fill:none;stroke:#000;stroke-width:7.5px"/><path d="M392.89,84.4s13.23-11.81,21.73,0" style="fill:none;stroke:#000;stroke-width:7.5px"/><path d="M385.33,74s20.31-16.1,35.43,0" style="fill:none;stroke:#000;stroke-width:7.5px"/><polygon points="224.03 120.01 224.03 148.71 436.63 134.36 436.64 110.44 224.03 120.01" style="fill:#caffe1;stroke:#000;stroke-width:7.5px"/><polygon points="477.2 160.53 257.09 172.22 265.09 448.25 501.03 447.98 477.2 160.53" style="fill:#caffe1;stroke:#000;stroke-width:7.5px"/><polygon points="289.73 473.02 534.78 473.02 527.84 504.2 289.73 504.25 289.73 473.02" style="fill:#caffe1;stroke:#000;stroke-width:7.5px"/><polygon points="49.2 360.65 74.01 374.04 160.9 189.43 136.53 176.62 49.2 360.65" style="fill:#caffe1;stroke:#000;stroke-width:7.5px"/></svg>