<svg xmlns="http://www.w3.org/2000/svg" viewBox="0 0 600 600"><title>i3</title><path d="M26,404.13H24.08l-1-2.84H18.9l-1,2.84H16l3.87-10.51h2.22Zm-5-9H21c-.31,1-.6,2-1,3l-.61,1.65h3.19L22,398.12C21.68,397.14,21.33,396.11,21.05,395.13Z"/><path d="M540.66,322.37c1.62.81,2.48,2.36,2.48,4.63a5.64,5.64,0,0,1-1.15,3.6,5.07,5.07,0,0,1-4.1,1.7h-3.28V321.79h3.07A6.77,6.77,0,0,1,540.66,322.37ZM540.2,330a3.73,3.73,0,0,0,1-2.91c0-1.55-.39-2.59-1.31-3.19a4.21,4.21,0,0,0-2.32-.55h-1.14v7.47h1.13A3.78,3.78,0,0,0,540.2,330Z"/><path d="M442.35,353.73c1.62.81,2.48,2.36,2.48,4.63a5.6,5.6,0,0,1-1.15,3.59,5,5,0,0,1-4.1,1.71H436.3V353.15h3.07A6.64,6.64,0,0,1,442.35,353.73Zm-.46,7.58a3.71,3.71,0,0,0,1-2.91c0-1.55-.39-2.59-1.31-3.18a4.21,4.21,0,0,0-2.32-.55h-1.14v7.47h1.12A3.79,3.79,0,0,0,441.89,361.31Z"/><path d="M445.71,354.81c1,0,1.52-.36,1.56-1h1.1v5.68h-1.21v-3.89h-1.45Z"/><path d="M221.15,332.54a2.42,2.42,0,0,1,1.19,2.21,2.35,2.35,0,0,1-2,2.39v.05a2.31,2.31,0,0,1,2.17,2.46,2.52,2.52,0,0,1-1.47,2.44,6.58,6.58,0,0,1-2.9.44H215V332h3.21A6,6,0,0,1,221.15,332.54Zm-.61,2.45c0-1.29-1-1.48-2.32-1.48h-1.36v3h1.31C219.17,336.48,220.54,336.33,220.54,335Zm.15,4.51c0-1.26-.89-1.55-2.49-1.55h-1.34v3.1h1.41C219.53,341.05,220.69,340.83,220.69,339.5Z"/><path d="M335.32,286.32c-2.85,0-4.74-2-4.74-5.39,0-3.2,1.93-5.56,4.77-5.56a4,4,0,0,1,4.27,3.75h-1.88a2.36,2.36,0,0,0-2.41-2.28c-1.73,0-2.86,1.63-2.86,4s1.13,4,2.85,4a2.41,2.41,0,0,0,2.45-2.36h1.92A4.15,4.15,0,0,1,335.32,286.32Z"/><path d="M580.56,55.88c1.62.81,2.48,2.36,2.48,4.63a5.6,5.6,0,0,1-1.15,3.59,5,5,0,0,1-4.1,1.71h-3.28V55.3h3.07A6.61,6.61,0,0,1,580.56,55.88Zm-.46,7.58a3.71,3.71,0,0,0,1-2.91c0-1.55-.39-2.59-1.31-3.18a4.21,4.21,0,0,0-2.32-.55h-1.14v7.47h1.13A3.78,3.78,0,0,0,580.1,63.46Z"/><path d="M584.1,61.31c0-1.28.84-1.87,1.85-2.49.74-.45,1.16-.77,1.16-1.34a.8.8,0,0,0-.87-.87c-.62,0-.94.42-1,1.22H584.1a2,2,0,0,1,2.2-2.08c1.33,0,2,.69,2,1.68s-.69,1.46-1.56,2a3.36,3.36,0,0,0-1.27,1.16h2.83v1h-4.2C584.11,61.49,584.1,61.35,584.1,61.31Z"/><path d="M25.41,385.66s57-206,190.16-77.14c0,0,10.83-150.53,119.46-53.59,0,0,163.12-175.93,202.16,53.52" style="fill:none;stroke:#000;stroke-width:7.5px"/><path d="M379.9,221.15s63.18,39.66,61.47,111.32" style="fill:none;stroke:#000;stroke-width:7.5px"/><path d="M456.61,189.22s37.79-119,110.77-127.16" style="fill:none;stroke:#000;stroke-width:7.5px"/><path d="M379.9,221.15s63.18,42.66,61.47,114.32" style="fill:none;stroke:#000;stroke-width:7.5px"/><path d="M456.61,189.22s37.79-119,110.77-127.16" style="fill:none;stroke:#000;stroke-width:7.5px"/><path d="M25.41,385.66s57-203,190.16-74.14c0,0,10.83-150.53,119.46-53.59,0,0,163.12-178.93,202.16,50.52" style="fill:none;stroke:#000;stroke-width:7.5px"/></svg>