<svg xmlns="http://www.w3.org/2000/svg" viewBox="0 0 600 600"><title>i4</title><path d="M472.49,213V132s0-43-43-43H176.75s-43,0-43,43v81s0,43,43,43H358.5L424,350.5l.33-94.5h5.17S472.49,256,472.49,213Z" style="fill:#dcf0ff;stroke:#000;stroke-width:7.5px"/><path d="M472.49,209V128s0-43-43-43H176.75s-43,0-43,43v81s0,43,43,43H358.5L424,346.5l.33-94.5h5.17S472.49,252,472.49,209Z" style="fill:#dcf0ff;stroke:#000;stroke-width:7.5px"/><circle cx="256.74" cy="396.25" r="116" style="fill:#dcf0ff;stroke:#000;stroke-width:7.5px"/><circle cx="256.74" cy="392.25" r="116" style="fill:#dcf0ff;stroke:#000;stroke-width:7.5px"/><line x1="256.74" y1="275.5" x2="256.74" y2="508.5" style="fill:none;stroke:#000;stroke-width:7.5px"/><line x1="376.49" y1="392" x2="143.49" y2="392" style="fill:none;stroke:#000;stroke-width:7.5px"/><path d="M312.74,289.5s14.17,51,14.17,102.5-14.17,102.5-14.17,102.5" style="fill:none;stroke:#000;stroke-width:7.5px"/><path d="M160.56,457.68s47.85-14.19,96.18-14.19,96.18,14.19,96.18,14.19" style="fill:none;stroke:#000;stroke-width:7.5px"/><path d="M352.92,326.32s-47.85,14.19-96.18,14.19-96.18-14.19-96.18-14.19" style="fill:none;stroke:#000;stroke-width:7.5px"/><path d="M203.94,289.5s-14.17,51-14.17,102.5,14.17,102.5,14.17,102.5" style="fill:none;stroke:#000;stroke-width:7.5px"/><line x1="188.14" y1="126.04" x2="418.1" y2="126.04" style="fill:none;stroke:#000;stroke-width:7.5px"/><line x1="188.14" y1="168.04" x2="238.56" y2="168.04" style="fill:none;stroke:#000;stroke-width:7.5px"/><line x1="260.48" y1="168.04" x2="418.1" y2="168.04" style="fill:none;stroke:#000;stroke-width:7.5px"/><line x1="188.14" y1="210.04" x2="345.76" y2="210.04" style="fill:none;stroke:#000;stroke-width:7.5px"/></svg>