<svg xmlns="http://www.w3.org/2000/svg" viewBox="0 0 600 600"><title>i5</title><line x1="46.14" y1="319.41" x2="316.14" y2="233.41" style="fill:none;stroke:#000;stroke-width:7.5px"/><line x1="316.14" y1="233.46" x2="556.99" y2="356.94" style="fill:none;stroke:#000;stroke-width:7.5px"/><line x1="316.14" y1="5.94" x2="316.14" y2="233.46" style="fill:none;stroke:#000;stroke-width:7.5px"/><path d="M130.54,220s-9.8,2-9.8,12v84s0,10,9.8,8l84.53-17s9.8-2,9.8-12v-84s0-10-9.8-8Z" style="fill:#ffecff"/><path d="M130.54,220s-9.8,2-9.8,12v84s0,10,9.8,8l84.53-17s9.8-2,9.8-12v-84s0-10-9.8-8Z" style="fill:none;stroke:#000;stroke-width:7.5px"/><path d="M232.2,226.16s-7.46,6.66-7.46,16.66v21.61s0,10,9.1,14.13l28.89,13.11s9.11,4.13,9.11-5.87v-85s0-10-7.46-3.34Z" style="fill:#ffecff"/><path d="M232.2,226.16s-7.46,6.66-7.46,16.66v21.61s0,10,9.1,14.13l28.89,13.11s9.11,4.13,9.11-5.87v-85s0-10-7.46-3.34Z" style="fill:none;stroke:#000;stroke-width:7.5px"/><path d="M130.54,216s-9.8,2-9.8,12v84s0,10,9.8,8l84.53-17s9.8-2,9.8-12v-84s0-10-9.8-8Z" style="fill:#ffedff;stroke:#000;stroke-width:7.5px"/><path d="M232.2,222.16s-7.46,6.66-7.46,16.66v21.61s0,10,9.1,14.13l28.89,13.11s9.11,4.13,9.11-5.87v-85s0-10-7.46-3.34Z" style="fill:#ffedff;stroke:#000;stroke-width:7.5px"/></svg>