<svg xmlns="http://www.w3.org/2000/svg" viewBox="0 0 600 600"><title>i6</title><path d="M468.93,205.34l-77.21-77.2a17.93,17.93,0,0,0-25.29,0L162.75,331.85a17.93,17.93,0,0,0,0,25.29l77.21,77.21a17.93,17.93,0,0,0,25.29,0L468.89,230.64A17.94,17.94,0,0,0,468.93,205.34ZM216.41,380.65a12.24,12.24,0,1,1,17.29,0A12.22,12.22,0,0,1,216.41,380.65Z" style="fill:#caffe1;stroke:#000;stroke-width:7.5px"/><path d="M468.93,203.34l-77.21-77.2a17.93,17.93,0,0,0-25.29,0L162.75,329.85a17.93,17.93,0,0,0,0,25.29l77.21,77.21a17.93,17.93,0,0,0,25.29,0L468.89,228.64A17.94,17.94,0,0,0,468.93,203.34ZM216.41,378.65a12.24,12.24,0,1,1,17.29,0A12.22,12.22,0,0,1,216.41,378.65Z" style="fill:#caffe1;stroke:#000;stroke-width:7.5px"/><path d="M156.09,20.34a7.61,7.61,0,0,0-5.29,8.55A7.46,7.46,0,0,0,154,33.71l48.08,48.66a7.4,7.4,0,0,1,1.62,1.49A10.23,10.23,0,0,1,203,97.35l-56,56a10.23,10.23,0,0,1-13.5.74,6.92,6.92,0,0,1-1.48-1.62L83.32,104.4a7.5,7.5,0,0,0-4.83-3.21,7.61,7.61,0,0,0-8.54,5.3c-3.8,12.37-7.5,33.11,2.24,42.85l50.29,50.29c20,20,56.44,16.39,76.46-3.64l1.3-1.29L433.78,450.07a4.41,4.41,0,0,0,.46.51,23.69,23.69,0,0,0,33.15-.24L500,417.78a23.69,23.69,0,0,0,.24-33.15,4.62,4.62,0,0,0-.52-.46L244.31,150.63l1.29-1.3c20-20,23.66-56.43,3.64-76.45L199,22.59C189.2,12.84,168.47,16.54,156.09,20.34Zm309.8,395.94a22.2,22.2,0,1,1,0-31.39A22.19,22.19,0,0,1,465.89,416.28Z" style="fill:#caffe1;stroke:#000;stroke-width:7.5px"/><path d="M156.09,18.34a7.61,7.61,0,0,0-5.29,8.55A7.46,7.46,0,0,0,154,31.71l48.08,48.66a7.4,7.4,0,0,1,1.62,1.49A10.23,10.23,0,0,1,203,95.35l-56,56a10.23,10.23,0,0,1-13.5.74,6.92,6.92,0,0,1-1.48-1.62L83.32,102.4a7.5,7.5,0,0,0-4.83-3.21,7.61,7.61,0,0,0-8.54,5.3c-3.8,12.37-7.5,33.11,2.24,42.85l50.29,50.29c20,20,56.44,16.39,76.46-3.64l1.3-1.29L433.78,448.07a4.41,4.41,0,0,0,.46.51,23.69,23.69,0,0,0,33.15-.24L500,415.78a23.69,23.69,0,0,0,.24-33.15,4.62,4.62,0,0,0-.52-.46L244.31,148.63l1.29-1.3c20-20,23.66-56.43,3.64-76.45L199,20.59C189.2,10.84,168.47,14.54,156.09,18.34Zm309.8,395.94a22.2,22.2,0,1,1,0-31.39A22.19,22.19,0,0,1,465.89,414.28Z" style="fill:#caffe1;stroke:#000;stroke-width:7.5px"/></svg>