<?xml version="1.0" encoding="utf-8"?>
<!-- Generator: Adobe Illustrator 22.1.0, SVG Export Plug-In . SVG Version: 6.00 Build 0)  -->
<svg version="1.1" id="Livello_1" xmlns="http://www.w3.org/2000/svg" xmlns:xlink="http://www.w3.org/1999/xlink" x="0px" y="0px"
	 viewBox="0 0 850 600" style="enable-background:new 0 0 850 600;" xml:space="preserve">
<style type="text/css">
	.st0{fill:#7F7D69;}
	.st1{fill:#23221D;}
	.st2{fill:none;stroke:#000000;stroke-width:0.5;}
	.st3{font-family:'Helvetica';}
	.st4{font-size:10px;}
</style>
<g id="values">
	<g id="RAM">
		<rect x="745.1" y="550.2" class="st0" width="46.4" height="29.8"/>
		<rect x="697.7" y="559.2" class="st0" width="46.4" height="20.8"/>
		<rect x="650.2" y="564.3" class="st0" width="46.4" height="15.7"/>
		<rect x="602.8" y="567.1" class="st0" width="46.4" height="12.9"/>
		<rect x="555.4" y="569.6" class="st0" width="46.4" height="10.4"/>
		<rect x="507.9" y="562.6" class="st0" width="46.4" height="17.4"/>
		<rect x="460.5" y="572.1" class="st0" width="46.4" height="7.9"/>
		<rect x="413.1" y="576.9" class="st0" width="46.4" height="3.1"/>
		<rect x="792.6" y="544.1" class="st0" width="46.4" height="35.9"/>
		<rect x="270.7" y="579.2" class="st0" width="46.4" height="0.8"/>
		<rect x="365.6" y="578.1" class="st0" width="46.4" height="1.9"/>
		<rect x="318.2" y="578.6" class="st0" width="46.4" height="1.4"/>
		<rect x="175.9" y="579.3" class="st0" width="46.4" height="0.7"/>
		<rect x="223.3" y="579.1" class="st0" width="46.4" height="0.9"/>
		<rect x="128.4" y="579.5" class="st0" width="46.4" height="0.5"/>
		<rect x="81" y="579.9" class="st0" width="46.4" height="0.1"/>
	</g>
	<g id="ROM">
		<rect x="745.1" y="190.5" class="st1" width="46.4" height="359.6"/>
		<rect x="697.7" y="344.4" class="st1" width="46.4" height="214.8"/>
		<rect x="650.2" y="407.1" class="st1" width="46.4" height="157.2"/>
		<rect x="602.8" y="434.4" class="st1" width="46.4" height="132.7"/>
		<rect x="555.4" y="425.9" class="st1" width="46.4" height="143.8"/>
		<rect x="507.9" y="453.4" class="st1" width="46.4" height="109.2"/>
		<rect x="460.5" y="507.1" class="st1" width="46.4" height="65"/>
		<rect x="413.1" y="546.8" class="st1" width="46.4" height="30"/>
		<rect x="792.6" y="63" class="st1" width="46.4" height="481.2"/>
		<rect x="270.7" y="575" class="st1" width="46.4" height="4.1"/>
		<rect x="365.6" y="547.9" class="st1" width="46.4" height="30.2"/>
		<rect x="318.2" y="560.4" class="st1" width="46.4" height="18.2"/>
		<rect x="175.9" y="578.5" class="st1" width="46.4" height="0.8"/>
		<rect x="223.3" y="573.1" class="st1" width="46.4" height="6.1"/>
		<rect x="128.4" y="579.1" class="st1" width="46.4" height="0.4"/>
		<rect x="81" y="579.7" class="st1" width="46.4" height="0.2"/>
	</g>
</g>
<g id="xaxis">
	<line class="st2" x1="104.2" y1="580" x2="104.2" y2="586"/>
	<text transform="matrix(1 0 0 1 93.0951 596.1)" class="st3 st4">2002</text>
	<line class="st2" x1="151.7" y1="580" x2="151.7" y2="586"/>
	<text transform="matrix(1 0 0 1 140.5327 596.1)" class="st3 st4">2003</text>
	<line class="st2" x1="199.1" y1="580" x2="199.1" y2="586"/>
	<text transform="matrix(1 0 0 1 187.9702 596.1)" class="st3 st4">2004</text>
	<line class="st2" x1="246.5" y1="580" x2="246.5" y2="586"/>
	<text transform="matrix(1 0 0 1 235.4078 596.1)" class="st3 st4">2005</text>
	<line class="st2" x1="294" y1="580" x2="294" y2="586"/>
	<text transform="matrix(1 0 0 1 282.8454 596.1)" class="st3 st4">2006</text>
	<line class="st2" x1="341.4" y1="580" x2="341.4" y2="586"/>
	<text transform="matrix(1 0 0 1 330.283 596.1)" class="st3 st4">2007</text>
	<line class="st2" x1="388.8" y1="580" x2="388.8" y2="586"/>
	<text transform="matrix(1 0 0 1 377.7206 596.1)" class="st3 st4">2008</text>
	<line class="st2" x1="436.3" y1="580" x2="436.3" y2="586"/>
	<text transform="matrix(1 0 0 1 425.1582 596.1)" class="st3 st4">2009</text>
	<line class="st2" x1="483.7" y1="580" x2="483.7" y2="586"/>
	<text transform="matrix(1 0 0 1 472.5957 596.1)" class="st3 st4">2010</text>
	<line class="st2" x1="531.2" y1="580" x2="531.2" y2="586"/>
	<text transform="matrix(1 0 0 1 520.402 596.1)" class="st3 st4">2011</text>
	<line class="st2" x1="578.6" y1="580" x2="578.6" y2="586"/>
	<text transform="matrix(1 0 0 1 567.4709 596.1)" class="st3 st4">2012</text>
	<line class="st2" x1="626" y1="580" x2="626" y2="586"/>
	<text transform="matrix(1 0 0 1 614.9085 596.1)" class="st3 st4">2013</text>
	<line class="st2" x1="673.5" y1="580" x2="673.5" y2="586"/>
	<text transform="matrix(1 0 0 1 662.3461 596.1)" class="st3 st4">2014</text>
	<line class="st2" x1="720.9" y1="580" x2="720.9" y2="586"/>
	<text transform="matrix(1 0 0 1 709.7836 596.1)" class="st3 st4">2015</text>
	<line class="st2" x1="768.3" y1="580" x2="768.3" y2="586"/>
	<text transform="matrix(1 0 0 1 757.2213 596.1)" class="st3 st4">2016</text>
	<line class="st2" x1="815.8" y1="580" x2="815.8" y2="586"/>
	<text transform="matrix(1 0 0 1 804.6588 596.1)" class="st3 st4">2017</text>
</g>
<g id="yaxis">
	<path class="st2" d="M80,580V20"/>
	<line class="st2" x1="839" y1="580" x2="74" y2="580"/>
	<text transform="matrix(1 0 0 1 26.4383 583.2)" class="st3 st4">0GB</text>
	<line class="st2" x1="839" y1="510" x2="74" y2="510"/>
	<text transform="matrix(1 0 0 1 26.5127 513.2)" class="st3 st4">5GB</text>
	<line class="st2" x1="839" y1="440" x2="74" y2="440"/>
	<text transform="matrix(1 0 0 1 20.9512 443.2)" class="st3 st4">10GB</text>
	<line class="st2" x1="839" y1="370" x2="74" y2="370"/>
	<text transform="matrix(1 0 0 1 20.9512 373.2)" class="st3 st4">15GB</text>
	<line class="st2" x1="839" y1="300" x2="74" y2="300"/>
	<text transform="matrix(1 0 0 1 20.9512 303.2)" class="st3 st4">20GB</text>
	<line class="st2" x1="839" y1="230" x2="74" y2="230"/>
	<text transform="matrix(1 0 0 1 20.9512 233.2)" class="st3 st4">25GB</text>
	<line class="st2" x1="839" y1="160" x2="74" y2="160"/>
	<text transform="matrix(1 0 0 1 20.9512 163.2)" class="st3 st4">30GB</text>
	<line class="st2" x1="839" y1="90" x2="74" y2="90"/>
	<text transform="matrix(1 0 0 1 20.9512 93.2)" class="st3 st4">35GB</text>
	<line class="st2" x1="839" y1="20" x2="74" y2="20"/>
	<text transform="matrix(1 0 0 1 20.9512 23.2)" class="st3 st4">40GB</text>
</g>
</svg>
