<svg xmlns="http://www.w3.org/2000/svg" xmlns:xlink="http://www.w3.org/1999/xlink" viewBox="0 0 1920 1080"><defs><clipPath id="a"><rect x="181.63" y="132.92" width="1622.65" height="823.55" style="fill:none"/></clipPath></defs><title>dia1</title><rect width="1920" height="1080" style="fill:#fffccd"/><g style="clip-path:url(#a)"><path d="M669.81,137.08s-29.17,0-29.17,29.16V263s0,29.16,29.17,29.16h463.65s29.16,0,29.16-29.16v-96.8s0-29.16-29.16-29.16Z" style="fill:#c9ffe0"/><path d="M669.81,137.08s-29.17,0-29.17,29.16V263s0,29.16,29.17,29.16h463.65s29.16,0,29.16-29.16v-96.8s0-29.16-29.16-29.16Z" style="fill:none;stroke:#1d1d1b;stroke-width:8.319999694824219px"/><path d="M667.47,134.74s-29.16,0-29.16,29.17V260.7s0,29.17,29.16,29.17H1135.8s29.16,0,29.16-29.17V163.91s0-29.17-29.16-29.17Z" style="fill:#fffbcc"/><path d="M667.47,134.74s-29.16,0-29.16,29.17V260.7s0,29.17,29.16,29.17H1135.8s29.16,0,29.16-29.17V163.91s0-29.17-29.16-29.17Z" style="fill:none;stroke:#1d1d1b;stroke-width:3.6459999084472656px"/></g><path d="M716.12,199h-5.86l-3-8.58H694.6L691.66,199h-5.73l11.68-31.76h6.74Zm-15-27.21h-.26c-.92,3-1.79,6.08-2.89,9.05l-1.83,5h9.62l-1.75-5C703,177.87,702,174.76,701.11,171.79Z" style="fill:#1d1d1b"/><path d="M731.21,176c3.33,0,5.16,1.18,6.35,3.1,1.05,1.75,1.35,4.16,1.35,7V199h-5.25V186.4c0-3.37-.48-6.39-4.11-6.39-3.32,0-5.12,2.19-5.12,7.57V199h-5.25V176.42H724v2.93A8.74,8.74,0,0,1,731.21,176Z" style="fill:#1d1d1b"/><path d="M752.82,176c2.76,0,5.08.87,6.61,3V167.24h5.25V199h-4.94v-3a8.33,8.33,0,0,1-6.92,3.46c-5.77,0-9.53-4.29-9.53-11.77C743.29,180.54,747.05,176,752.82,176Zm1.23,19.38c3.32,0,5.47-2.85,5.47-7.7s-2.06-7.66-5.38-7.66-5.43,2.93-5.43,7.66S750.72,195.37,754.05,195.37Z" style="fill:#1d1d1b"/><path d="M775.66,179.79a6.63,6.63,0,0,1,6-3.58,12.42,12.42,0,0,1,2.5.21V181a11.16,11.16,0,0,0-2.28-.22c-4.33,0-5.9,2.89-5.9,8.36V199h-5.25V176.42h4.94Z" style="fill:#1d1d1b"/><path d="M808.43,187.71c0,7.13-4.38,11.9-11.33,11.9s-11.2-4.77-11.2-11.9,4.37-11.9,11.24-11.9S808.43,180.58,808.43,187.71Zm-17.06,0c0,4.77,2,7.88,5.73,7.88s5.86-3,5.86-7.88-2.14-7.87-5.82-7.87S791.37,182.85,791.37,187.71Z" style="fill:#1d1d1b"/><path d="M818.27,172.53H813v-5.29h5.25Zm0,26.47H813V176.42h5.25Z" style="fill:#1d1d1b"/><path d="M832.44,176c2.76,0,5.08.87,6.61,3V167.24h5.25V199h-4.94v-3a8.33,8.33,0,0,1-6.92,3.46c-5.77,0-9.53-4.29-9.53-11.77C822.91,180.54,826.67,176,832.44,176Zm1.23,19.38c3.32,0,5.47-2.85,5.47-7.7s-2.06-7.66-5.38-7.66-5.43,2.93-5.43,7.66S830.34,195.37,833.67,195.37Z" style="fill:#1d1d1b"/><path d="M887.35,183.12c0,9.88-5.91,16.53-14.79,16.53s-14.7-6.65-14.7-16.53c0-9.67,5.82-16.54,14.74-16.54S887.35,173.27,887.35,183.12Zm-23.8,0c0,7.22,3.54,12.12,9,12.12s9.1-5.17,9.1-12.12c0-7.22-3.46-12.12-9.06-12.12S863.55,175.94,863.55,183.12Z" style="fill:#1d1d1b"/><path d="M903.84,199.44c-2.76,0-5.2-.92-6.6-3v11.37H892V176.42h4.9v3a8.35,8.35,0,0,1,7-3.45c5.77,0,9.4,4.59,9.4,11.72C913.33,195.15,909.44,199.44,903.84,199.44Zm-1.27-19.38c-3.32,0-5.47,2.93-5.47,7.65s2.06,7.7,5.39,7.7,5.46-2.93,5.46-7.7S905.9,180.06,902.57,180.06Z" style="fill:#1d1d1b"/><path d="M927.6,175.81c4.2,0,7,1.84,8.61,4.64,1.36,2.4,1.8,5.29,1.8,8.79H922c.13,3.85,2,6.52,5.69,6.52a4.59,4.59,0,0,0,4.77-3.5H938c-1.22,4.94-4.89,7.35-10.36,7.35-7.31,0-11.07-4.59-11.07-12C916.53,180.84,920.77,175.81,927.6,175.81Zm-.27,3.81c-2.93,0-5.16,1.92-5.46,5.77h10.8C932.37,181.54,930.18,179.62,927.33,179.62Z" style="fill:#1d1d1b"/><path d="M954.68,176c3.32,0,5.16,1.18,6.34,3.1,1.05,1.75,1.36,4.16,1.36,7V199h-5.25V186.4c0-3.37-.48-6.39-4.12-6.39-3.32,0-5.11,2.19-5.11,7.57V199h-5.25V176.42h4.85v2.93A8.76,8.76,0,0,1,954.68,176Z" style="fill:#1d1d1b"/><path d="M988,195.24c3.81,0,6.12-1.75,6.12-4.55,0-3.29-3.41-4.34-7.26-5.52-5-1.53-10.85-3.06-10.85-9.49,0-5.42,4.64-9.1,11.68-9.1S999,170.52,999.17,177h-5.64a5.82,5.82,0,0,0-6.13-6c-3,0-5.6,1.57-5.6,4.24,0,3,2.93,4.24,8.36,5.73,5.07,1.4,9.8,3.5,9.8,9.06,0,5.77-4.86,9.66-12,9.66-7.74,0-12.56-4.15-12.56-11.28h5.73C981.14,192.74,983.64,195.24,988,195.24Z" style="fill:#1d1d1b"/><path d="M1025.55,187.71c0,7.13-4.38,11.9-11.33,11.9s-11.2-4.77-11.2-11.9,4.37-11.9,11.24-11.9S1025.55,180.58,1025.55,187.71Zm-17.06,0c0,4.77,2,7.88,5.73,7.88s5.86-3,5.86-7.88-2.14-7.87-5.82-7.87S1008.49,182.85,1008.49,187.71Z" style="fill:#1d1d1b"/><path d="M1037.58,199.44a7.34,7.34,0,0,1-6.39-3.07c-1.09-1.53-1.31-3.85-1.31-7.13V176.42h5.21v12.65c0,3.32.48,6.38,4.15,6.38a4.31,4.31,0,0,0,3.72-1.75c.87-1.18,1.4-3,1.4-5.81V176.42h5.25V199h-4.9v-2.93A8.63,8.63,0,0,1,1037.58,199.44Z" style="fill:#1d1d1b"/><path d="M1060.59,179.79a6.63,6.63,0,0,1,6-3.58,12.42,12.42,0,0,1,2.5.21V181a11.16,11.16,0,0,0-2.28-.22c-4.33,0-5.9,2.89-5.9,8.36V199h-5.25V176.42h4.94Z" style="fill:#1d1d1b"/><path d="M1081.68,199.65c-6.74,0-10.81-4.76-10.81-11.94s4.11-11.94,10.81-11.94c6,0,9.62,3.37,9.93,8.48h-5.43c-.35-2.84-1.92-4.41-4.55-4.41-3.37,0-5.33,3.06-5.33,7.78s2,8,5.33,8c2.63,0,4.29-1.62,4.68-4.55h5.34C1091.26,196.46,1087.58,199.65,1081.68,199.65Z" style="fill:#1d1d1b"/><path d="M1105.52,175.81c4.2,0,7,1.84,8.62,4.64,1.35,2.4,1.79,5.29,1.79,8.79h-16c.13,3.85,2,6.52,5.68,6.52a4.59,4.59,0,0,0,4.77-3.5h5.56c-1.23,4.94-4.9,7.35-10.37,7.35-7.31,0-11.07-4.59-11.07-12C1094.45,180.84,1098.7,175.81,1105.52,175.81Zm-.26,3.81c-2.93,0-5.17,1.92-5.47,5.77h10.8C1110.29,181.54,1108.1,179.62,1105.26,179.62Z" style="fill:#1d1d1b"/><path d="M776.84,221.22c3,1.62,4.51,4.77,4.51,8.62a9.31,9.31,0,0,1-4.46,8.4c-1.89,1.09-4.47,1.58-8.49,1.58h-4.55V251.5h-5.51V219.74h10.19C771.64,219.74,774.52,220,776.84,221.22Zm-3.8,13.3a5.27,5.27,0,0,0,2.58-4.94,5,5,0,0,0-2.71-4.68,11,11,0,0,0-4.6-.66h-4.46v11.07h4.42A10.67,10.67,0,0,0,773,234.52Z" style="fill:#1d1d1b"/><path d="M790.14,232.29a6.65,6.65,0,0,1,6-3.59,12.33,12.33,0,0,1,2.49.22v4.55a11.16,11.16,0,0,0-2.28-.22c-4.33,0-5.9,2.89-5.9,8.36v9.89H785.2V228.92h4.94Z" style="fill:#1d1d1b"/><path d="M822.91,240.21c0,7.13-4.38,11.9-11.33,11.9s-11.2-4.77-11.2-11.9,4.37-11.9,11.24-11.9S822.91,233.08,822.91,240.21Zm-17.06,0c0,4.77,2,7.87,5.73,7.87s5.86-3,5.86-7.87-2.14-7.88-5.82-7.88S805.85,235.35,805.85,240.21Z" style="fill:#1d1d1b"/><path d="M824.92,256.31c2.41,0,2.58-1.88,2.58-4.51V228.92h5.25v22.36c0,5.82-.48,9.18-6.12,9.18a19.63,19.63,0,0,1-3.24-.26v-4.07A7.28,7.28,0,0,0,824.92,256.31ZM832.75,225H827.5v-5.29h5.25Z" style="fill:#1d1d1b"/><path d="M848.41,228.31c4.2,0,7.05,1.84,8.62,4.64,1.36,2.4,1.8,5.29,1.8,8.79H842.77c.13,3.85,2,6.52,5.69,6.52a4.6,4.6,0,0,0,4.77-3.5h5.55c-1.22,4.94-4.9,7.35-10.37,7.35-7.3,0-11.06-4.59-11.06-12C837.35,233.34,841.59,228.31,848.41,228.31Zm-.26,3.81c-2.93,0-5.16,1.92-5.47,5.77h10.81C853.18,234,851,232.12,848.15,232.12Z" style="fill:#1d1d1b"/><path d="M872.87,252.15c-6.74,0-10.81-4.77-10.81-11.94s4.12-11.94,10.81-11.94c6,0,9.62,3.36,9.93,8.48h-5.42c-.35-2.84-1.93-4.42-4.55-4.42-3.37,0-5.34,3.07-5.34,7.79s2,8,5.34,8c2.62,0,4.28-1.61,4.68-4.55h5.33C882.45,249,878.78,252.15,872.87,252.15Z" style="fill:#1d1d1b"/><path d="M893.52,223.32v5.6H898v4h-4.46v10.63c0,2.8.61,4.07,2.71,4.07a7.34,7.34,0,0,0,1.79-.18v4a12.85,12.85,0,0,1-3.36.39c-4.51,0-6.39-2.14-6.39-7.26V233h-3.63v-4h3.63v-5.6Z" style="fill:#1d1d1b"/><path d="M909.44,237.23c0-5.55,1.71-11.68,5.08-18.37h3.63c-2.45,6.69-3.94,12.12-3.94,18.46a54.06,54.06,0,0,0,3.94,19.08h-3.68C910.62,248.7,909.44,243,909.44,237.23Z" style="fill:#1d1d1b"/><path d="M949.6,251.5h-5.86l-3-8.58H928.08l-2.93,8.58h-5.73l11.68-31.76h6.73Zm-15-27.21h-.27c-.91,3-1.79,6.08-2.88,9.05l-1.84,5h9.62l-1.75-5C936.48,230.37,935.43,227.26,934.6,224.29Z" style="fill:#1d1d1b"/><path d="M980.05,235.62c0,9.88-5.9,16.53-14.78,16.53s-14.7-6.65-14.7-16.53c0-9.67,5.81-16.54,14.74-16.54S980.05,225.77,980.05,235.62Zm-23.8,0c0,7.21,3.55,12.11,9,12.11s9.09-5.16,9.09-12.11c0-7.22-3.45-12.12-9.05-12.12S956.25,228.44,956.25,235.62Z" style="fill:#1d1d1b"/><path d="M995.93,247.73c3.81,0,6.13-1.75,6.13-4.55,0-3.28-3.41-4.33-7.26-5.51-5-1.53-10.85-3.06-10.85-9.49,0-5.43,4.63-9.1,11.68-9.1s11.37,3.94,11.5,10.37h-5.64a5.83,5.83,0,0,0-6.13-6c-3,0-5.6,1.58-5.6,4.25,0,3,2.94,4.24,8.36,5.73,5.08,1.4,9.8,3.5,9.8,9,0,5.78-4.86,9.67-12,9.67-7.74,0-12.55-4.15-12.55-11.28h5.73C989.11,245.24,991.6,247.73,995.93,247.73Z" style="fill:#1d1d1b"/><path d="M1031.32,221.22c3,1.62,4.51,4.77,4.51,8.62a9.31,9.31,0,0,1-4.46,8.4c-1.88,1.09-4.46,1.58-8.49,1.58h-4.55V251.5h-5.51V219.74H1023C1026.12,219.74,1029,220,1031.32,221.22Zm-3.8,13.3a5.27,5.27,0,0,0,2.58-4.94,5,5,0,0,0-2.71-4.68,11,11,0,0,0-4.6-.66h-4.46v11.07h4.42A10.64,10.64,0,0,0,1027.52,234.52Z" style="fill:#1d1d1b"/><path d="M1042,237.76c0-5.64-1.19-11.72-3.94-18.9h3.63c3.59,7.44,5.07,13.21,5.07,19s-1.4,11.59-5.07,18.55H1038C1040.42,250.05,1042,244,1042,237.76Z" style="fill:#1d1d1b"/><g style="clip-path:url(#a)"><path d="M215,813.08s-29.17,0-29.17,29.16v40.11s0,29.16,29.17,29.16H364.67s29.17,0,29.17-29.16V842.24s0-29.16-29.17-29.16Z" style="fill:#c9ffe0"/><path d="M215,813.08s-29.17,0-29.17,29.16v40.11s0,29.16,29.17,29.16H364.67s29.17,0,29.17-29.16V842.24s0-29.16-29.17-29.16Z" style="fill:none;stroke:#1d1d1b;stroke-width:8.319999694824219px"/><path d="M466.76,813.08s-29.17,0-29.17,29.16v40.11s0,29.16,29.17,29.16H630.64s29.17,0,29.17-29.16V842.24s0-29.16-29.17-29.16Z" style="fill:#c9ffe0"/><path d="M466.76,813.08s-29.17,0-29.17,29.16v40.11s0,29.16,29.17,29.16H630.64s29.17,0,29.17-29.16V842.24s0-29.16-29.17-29.16Z" style="fill:none;stroke:#1d1d1b;stroke-width:8.319999694824219px"/><path d="M1090.83,813.08s-29.17,0-29.17,29.16v40.11s0,29.16,29.17,29.16h156.8s29.16,0,29.16-29.16V842.24s0-29.16-29.16-29.16Z" style="fill:#c9ffe0"/><path d="M1090.83,813.08s-29.17,0-29.17,29.16v40.11s0,29.16,29.17,29.16h156.8s29.16,0,29.16-29.16V842.24s0-29.16-29.16-29.16Z" style="fill:none;stroke:#1d1d1b;stroke-width:8.319999694824219px"/><path d="M732.73,813.08s-29.17,0-29.17,29.16v40.11s0,29.16,29.17,29.16h256s29.17,0,29.17-29.16V842.24s0-29.16-29.17-29.16Z" style="fill:#c9ffe0"/><path d="M732.73,813.08s-29.17,0-29.17,29.16v40.11s0,29.16,29.17,29.16h256s29.17,0,29.17-29.16V842.24s0-29.16-29.17-29.16Z" style="fill:none;stroke:#1d1d1b;stroke-width:8.319999694824219px"/><path d="M212.62,810.74s-29.16,0-29.16,29.17V880s0,29.16,29.16,29.16H367s29.17,0,29.17-29.16v-40.1s0-29.17-29.17-29.17Z" style="fill:#fffbcc"/><path d="M212.62,810.74s-29.16,0-29.16,29.17V880s0,29.16,29.16,29.16H367s29.17,0,29.17-29.16v-40.1s0-29.17-29.17-29.17Z" style="fill:none;stroke:#1d1d1b;stroke-width:3.6459999084472656px"/><path d="M464.42,810.74s-29.17,0-29.17,29.17V880s0,29.16,29.17,29.16H633s29.17,0,29.17-29.16v-40.1s0-29.17-29.17-29.17Z" style="fill:#fffbcc"/><path d="M464.42,810.74s-29.17,0-29.17,29.17V880s0,29.16,29.17,29.16H633s29.17,0,29.17-29.16v-40.1s0-29.17-29.17-29.17Z" style="fill:none;stroke:#1d1d1b;stroke-width:3.6459999084472656px"/><path d="M1088.49,810.74s-29.17,0-29.17,29.17V880s0,29.16,29.17,29.16H1250s29.17,0,29.17-29.16v-40.1s0-29.17-29.17-29.17Z" style="fill:#fffbcc"/><path d="M1088.49,810.74s-29.17,0-29.17,29.17V880s0,29.16,29.17,29.16H1250s29.17,0,29.17-29.16v-40.1s0-29.17-29.17-29.17Z" style="fill:none;stroke:#1d1d1b;stroke-width:3.6459999084472656px"/><path d="M730.39,810.74s-29.16,0-29.16,29.17V880s0,29.16,29.16,29.16H991.08s29.16,0,29.16-29.16v-40.1s0-29.17-29.16-29.17Z" style="fill:#fffbcc"/><path d="M730.39,810.74s-29.16,0-29.16,29.17V880s0,29.16,29.16,29.16H991.08s29.16,0,29.16-29.16v-40.1s0-29.17-29.16-29.17Z" style="fill:none;stroke:#1d1d1b;stroke-width:3.6459999084472656px"/><path d="M215,489.08s-29.17,0-29.17,29.16v40.11s0,29.16,29.17,29.16H406.48s29.17,0,29.17-29.16V518.24s0-29.16-29.17-29.16Z" style="fill:#c9ffe0"/><path d="M215,489.08s-29.17,0-29.17,29.16v40.11s0,29.16,29.17,29.16H406.48s29.17,0,29.17-29.16V518.24s0-29.16-29.17-29.16Z" style="fill:none;stroke:#1d1d1b;stroke-width:8.319999694824219px"/><path d="M212.62,486.74s-29.16,0-29.16,29.17V556s0,29.16,29.16,29.16h196.2S438,585.17,438,556v-40.1s0-29.17-29.17-29.17Z" style="fill:#fffbcc"/><path d="M212.62,486.74s-29.16,0-29.16,29.17V556s0,29.16,29.16,29.16h196.2S438,585.17,438,556v-40.1s0-29.17-29.17-29.17Z" style="fill:none;stroke:#1d1d1b;stroke-width:3.6459999084472656px"/></g><path d="M257.07,551h-5.86l-3-8.58H235.55L232.62,551h-5.74l11.69-31.76h6.73Zm-15-27.21h-.26c-.92,3-1.79,6.08-2.88,9.05l-1.84,5h9.62l-1.75-5C244,529.87,242.9,526.76,242.06,523.79Z" style="fill:#1d1d1b"/><path d="M272.16,528c3.33,0,5.17,1.18,6.35,3.1,1.05,1.75,1.35,4.16,1.35,7v13h-5.25V538.4c0-3.37-.48-6.39-4.11-6.39-3.32,0-5.12,2.19-5.12,7.57V551h-5.25V528.42H265v2.93A8.74,8.74,0,0,1,272.16,528Z" style="fill:#1d1d1b"/><path d="M293.78,528a7.59,7.59,0,0,1,6.6,3V519.24h5.25V551h-4.94v-3a8.31,8.31,0,0,1-6.91,3.46c-5.78,0-9.54-4.29-9.54-11.77C284.24,532.54,288,528,293.78,528ZM295,547.37c3.33,0,5.47-2.85,5.47-7.7s-2.06-7.66-5.38-7.66-5.43,2.93-5.43,7.66S291.68,547.37,295,547.37Z" style="fill:#1d1d1b"/><path d="M316.61,531.79a6.64,6.64,0,0,1,6-3.58,12.42,12.42,0,0,1,2.5.21V533a11.11,11.11,0,0,0-2.28-.21c-4.33,0-5.9,2.88-5.9,8.35V551h-5.25V528.42h4.94Z" style="fill:#1d1d1b"/><path d="M349.38,539.71c0,7.13-4.38,11.9-11.33,11.9s-11.2-4.77-11.2-11.9,4.37-11.9,11.24-11.9S349.38,532.58,349.38,539.71Zm-17.06,0c0,4.77,2.05,7.88,5.73,7.88s5.86-3,5.86-7.88-2.14-7.87-5.82-7.87S332.32,534.85,332.32,539.71Z" style="fill:#1d1d1b"/><path d="M359.22,524.53H354v-5.29h5.25Zm0,26.47H354V528.42h5.25Z" style="fill:#1d1d1b"/><path d="M373.4,528a7.59,7.59,0,0,1,6.6,3V519.24h5.25V551h-4.94v-3a8.31,8.31,0,0,1-6.91,3.46c-5.78,0-9.54-4.29-9.54-11.77C363.86,532.54,367.62,528,373.4,528Zm1.22,19.38c3.33,0,5.47-2.85,5.47-7.7S378,532,374.71,532s-5.43,2.93-5.43,7.66S371.3,547.37,374.62,547.37Z" style="fill:#1d1d1b"/><g style="clip-path:url(#a)"><path d="M1173.58,168.26s-10,0-10,10v40s0,10,10,10H1279s10,0,10-10v-40s0-10-10-10Z" style="fill:#1d1d1b"/></g><path d="M1192.4,185.29c0-5.52,3.35-9.44,8.5-9.44s8.47,3.75,8.47,9.44-3.42,9.45-8.49,9.45C1195.65,194.74,1192.4,191,1192.4,185.29Zm13.17,0c0-4-1.7-6.49-4.67-6.49s-4.7,2.57-4.7,6.49,1.78,6.5,4.68,6.5S1205.57,189,1205.57,185.29Z" style="fill:#fffbcc"/><path d="M1218.12,176.22a9.53,9.53,0,0,1,4.68.9,5.49,5.49,0,0,1,2.67,5.1,5.38,5.38,0,0,1-2.6,4.92c-1.1.68-2.4.9-4.77.9h-2.35v6.33H1212V176.22Zm2.25,8.32a2.79,2.79,0,0,0,1.28-2.59,2.43,2.43,0,0,0-1.43-2.33,5.56,5.56,0,0,0-2.4-.37h-2.07V185h2A5,5,0,0,0,1220.37,184.54Z" style="fill:#fffbcc"/><path d="M1239.8,176.22v3.08h-8.37v4.32h7.79v3.07h-7.79v4.58h8.67v3.1h-12.4V176.22Z" style="fill:#fffbcc"/><path d="M1248,176.22l4.23,9.07c.77,1.7,1.55,3.58,2.17,5.28h.23c-.08-1.7-.15-3.65-.15-5.35l0-9h3.47v18.15h-5.3l-4.17-9.08a48.47,48.47,0,0,1-2.17-5.39H1246c.08,1.7.18,3.77.2,5.47l.08,9h-3.48V176.22Z" style="fill:#fffbcc"/><path d="M1176.18,213.22h3.9a3.3,3.3,0,0,0,3.55,3.57c1.87,0,3-.85,3-2.22s-.79-1.78-3.12-2.5l-3-.88c-2.6-.77-4.08-2.6-4.08-5,0-3.2,2.8-5.37,6.88-5.37s6.57,2.35,6.69,6.05h-3.84a3,3,0,0,0-3.1-3.13c-1.6,0-2.75.88-2.75,2.08s.62,1.6,2.92,2.24l2.58.75c3.19.93,4.72,2.48,4.72,5.08,0,3.47-2.8,5.82-7,5.82C1179.08,219.74,1176.18,217.24,1176.18,213.22Z" style="fill:#fffbcc"/><path d="M1192.3,210.29c0-5.52,3.35-9.44,8.5-9.44s8.47,3.75,8.47,9.44-3.42,9.45-8.49,9.45C1195.55,219.74,1192.3,216,1192.3,210.29Zm13.17,0c0-4-1.7-6.49-4.67-6.49s-4.7,2.57-4.7,6.49,1.78,6.5,4.68,6.5S1205.47,214,1205.47,210.29Z" style="fill:#fffbcc"/><path d="M1213,217.19c-.93-1.4-1.23-2.85-1.23-5.92V201.22h3.73V212a5.81,5.81,0,0,0,.77,3.47,3.3,3.3,0,0,0,2.68,1.33,3.19,3.19,0,0,0,2.79-1.55,6.34,6.34,0,0,0,.63-3.25V201.22h3.72v10.05c0,3-.22,4.3-1.15,5.7q-1.9,2.78-6,2.77C1216.2,219.74,1214.25,219.09,1213,217.19Z" style="fill:#fffbcc"/><path d="M1235,201.22a10.14,10.14,0,0,1,5,.95,4.31,4.31,0,0,1,2.13,4.05c0,2.3-1.25,3.95-3.92,4.52v.15c2.12.28,2.74,2,3.54,4.25l1.55,4.23h-3.94l-1.48-4.08c-.8-2.3-1.42-2.95-3.67-2.95h-1.08v7h-3.72V201.22Zm2.4,7.52a2.48,2.48,0,0,0,.93-2.07,2.17,2.17,0,0,0-.9-1.9,4.34,4.34,0,0,0-2.53-.52h-1.75v5.09h1.63A4.22,4.22,0,0,0,1237.4,208.74Z" style="fill:#fffbcc"/><path d="M1244.2,210.54c0-5.79,3.63-9.69,8.3-9.69,4.27,0,7.25,2.55,7.45,6.6h-3.83a3.62,3.62,0,0,0-3.67-3.65c-2.67,0-4.47,2.75-4.47,6.54s1.77,6.45,4.44,6.45c2.28,0,3.55-1.5,3.78-3.8h3.87c-.4,3.83-2.92,6.75-7.65,6.75C1247.53,219.74,1244.2,216.37,1244.2,210.54Z" style="fill:#fffbcc"/><path d="M1274.47,201.22v3.08h-8.37v4.32h7.8v3.07h-7.8v4.58h8.67v3.1h-12.39V201.22Z" style="fill:#fffbcc"/><g style="clip-path:url(#a)"><path d="M1545.83,426.92s-10,0-10,10v40s0,10,10,10h105.39s10,0,10-10v-40s0-10-10-10Z" style="fill:#1d1d1b"/></g><path d="M1564.65,444c0-5.53,3.35-9.45,8.5-9.45s8.47,3.75,8.47,9.45-3.42,9.45-8.49,9.45C1567.9,453.4,1564.65,449.65,1564.65,444Zm13.17,0c0-4-1.7-6.5-4.67-6.5s-4.7,2.57-4.7,6.5,1.78,6.5,4.68,6.5S1577.82,447.7,1577.82,444Z" style="fill:#fffbcc"/><path d="M1590.38,434.88a9.5,9.5,0,0,1,4.67.89,5.49,5.49,0,0,1,2.67,5.1,5.4,5.4,0,0,1-2.6,4.93c-1.1.67-2.4.9-4.77.9H1588V453h-3.72V434.88Zm2.24,8.32a2.81,2.81,0,0,0,1.28-2.6,2.43,2.43,0,0,0-1.43-2.33,5.66,5.66,0,0,0-2.39-.37H1588v5.8h2A5.08,5.08,0,0,0,1592.62,443.2Z" style="fill:#fffbcc"/><path d="M1612.05,434.88V438h-8.37v4.32h7.79v3.08h-7.79v4.57h8.67V453H1600V434.88Z" style="fill:#fffbcc"/><path d="M1620.23,434.88l4.22,9.07c.77,1.7,1.55,3.57,2.17,5.27h.23c-.08-1.7-.15-3.65-.15-5.35l0-9h3.47V453h-5.29l-4.18-9.07a49.31,49.31,0,0,1-2.17-5.4h-.23c.08,1.7.18,3.77.2,5.47l.08,9h-3.48V434.88Z" style="fill:#fffbcc"/><path d="M1548.43,471.87h3.9a3.31,3.31,0,0,0,3.55,3.58c1.87,0,3-.85,3-2.23,0-1.22-.8-1.77-3.12-2.5l-3-.87c-2.6-.78-4.08-2.6-4.08-5,0-3.19,2.8-5.37,6.88-5.37s6.57,2.35,6.69,6.05h-3.84a3,3,0,0,0-3.1-3.13c-1.6,0-2.75.88-2.75,2.08s.62,1.6,2.92,2.25l2.57.75c3.2.92,4.73,2.47,4.73,5.07,0,3.48-2.8,5.83-7,5.83C1551.33,478.4,1548.43,475.9,1548.43,471.87Z" style="fill:#fffbcc"/><path d="M1564.55,469c0-5.53,3.35-9.45,8.5-9.45s8.47,3.75,8.47,9.45-3.42,9.45-8.49,9.45C1567.8,478.4,1564.55,474.65,1564.55,469Zm13.17,0c0-4-1.7-6.5-4.67-6.5s-4.7,2.57-4.7,6.5,1.78,6.5,4.68,6.5S1577.72,472.7,1577.72,469Z" style="fill:#fffbcc"/><path d="M1585.23,475.85c-.93-1.4-1.23-2.85-1.23-5.93v-10h3.73v10.74a5.86,5.86,0,0,0,.77,3.48,3.32,3.32,0,0,0,2.68,1.32,3.17,3.17,0,0,0,2.79-1.55,6.29,6.29,0,0,0,.63-3.25V459.88h3.72v10c0,3-.22,4.3-1.15,5.7q-1.9,2.78-6,2.78C1588.45,478.4,1586.5,477.75,1585.23,475.85Z" style="fill:#fffbcc"/><path d="M1607.25,459.88a10.24,10.24,0,0,1,5,.94,4.31,4.31,0,0,1,2.13,4.05c0,2.3-1.25,3.95-3.92,4.53v.15c2.12.27,2.74,2,3.54,4.25l1.55,4.22h-4l-1.47-4.07c-.8-2.3-1.42-2.95-3.67-2.95h-1.08v7h-3.72V459.88Zm2.4,7.52a2.5,2.5,0,0,0,.93-2.08,2.17,2.17,0,0,0-.9-1.9,4.34,4.34,0,0,0-2.53-.52h-1.75V468H1607A4.29,4.29,0,0,0,1609.65,467.4Z" style="fill:#fffbcc"/><path d="M1616.45,469.2c0-5.8,3.63-9.7,8.3-9.7,4.27,0,7.25,2.55,7.45,6.6h-3.83a3.62,3.62,0,0,0-3.67-3.65c-2.67,0-4.47,2.75-4.47,6.55s1.77,6.45,4.44,6.45c2.28,0,3.55-1.5,3.78-3.8h3.87c-.4,3.82-2.92,6.75-7.65,6.75C1619.78,478.4,1616.45,475,1616.45,469.2Z" style="fill:#fffbcc"/><path d="M1646.72,459.88V463h-8.37v4.32h7.8v3.08h-7.8v4.57H1647V478h-12.39V459.88Z" style="fill:#fffbcc"/><path d="M240.88,871.23c3.81,0,6.13-1.74,6.13-4.54,0-3.29-3.41-4.34-7.26-5.52-5-1.53-10.85-3.06-10.85-9.49,0-5.42,4.63-9.1,11.68-9.1S252,846.52,252.08,853h-5.64a5.82,5.82,0,0,0-6.13-6c-3,0-5.6,1.57-5.6,4.24,0,3,2.94,4.24,8.36,5.73,5.08,1.4,9.8,3.5,9.8,9.06,0,5.77-4.86,9.66-12,9.66-7.74,0-12.55-4.15-12.55-11.28h5.73C234.06,868.74,236.55,871.23,240.88,871.23Z" style="fill:#1d1d1b"/><path d="M263.81,846.82v5.6h4.46v4h-4.46v10.63c0,2.8.61,4.07,2.71,4.07a7.34,7.34,0,0,0,1.79-.18v4a12.85,12.85,0,0,1-3.36.39c-4.51,0-6.39-2.14-6.39-7.26V856.45h-3.63v-4h3.63v-5.6Z" style="fill:#1d1d1b"/><path d="M293.25,863.71c0,7.13-4.37,11.9-11.33,11.9s-11.2-4.77-11.2-11.9,4.37-11.9,11.24-11.9S293.25,856.58,293.25,863.71Zm-17.06,0c0,4.77,2.05,7.88,5.73,7.88s5.86-3,5.86-7.88-2.14-7.87-5.82-7.87S276.19,858.85,276.19,863.71Z" style="fill:#1d1d1b"/><path d="M307.25,875.65c-6.74,0-10.81-4.76-10.81-11.94s4.12-11.94,10.81-11.94c6,0,9.62,3.37,9.93,8.48h-5.43c-.34-2.84-1.92-4.41-4.54-4.41-3.37,0-5.34,3.06-5.34,7.78s2.05,8,5.34,8c2.62,0,4.28-1.62,4.68-4.55h5.33C316.83,872.46,313.16,875.65,307.25,875.65Z" style="fill:#1d1d1b"/><path d="M326.72,861.79l7.65-9.37h6.26L332,862.53,341.55,875H335l-8.26-11.2V875h-5.25V843.24h5.25Z" style="fill:#1d1d1b"/><path d="M512.56,859.12c0,9.88-5.9,16.53-14.78,16.53s-14.7-6.65-14.7-16.53c0-9.67,5.81-16.54,14.74-16.54S512.56,849.27,512.56,859.12Zm-23.8,0c0,7.22,3.55,12.11,9,12.11s9.1-5.16,9.1-12.11c0-7.22-3.46-12.12-9.06-12.12S488.76,851.94,488.76,859.12Z" style="fill:#1d1d1b"/><path d="M529.19,852c3.32,0,5.16,1.18,6.34,3.1,1.05,1.75,1.36,4.16,1.36,7v13h-5.25V862.4c0-3.37-.48-6.39-4.12-6.39-3.32,0-5.11,2.19-5.11,7.57V875h-5.25V852.42H522v2.93A8.76,8.76,0,0,1,529.19,852Z" style="fill:#1d1d1b"/><path d="M552.29,851.81c4.2,0,7,1.84,8.61,4.64,1.36,2.4,1.8,5.29,1.8,8.79H546.64c.13,3.85,2,6.52,5.69,6.52a4.6,4.6,0,0,0,4.77-3.5h5.55c-1.22,4.94-4.9,7.35-10.36,7.35-7.31,0-11.07-4.59-11.07-12C541.22,856.84,545.46,851.81,552.29,851.81Zm-.27,3.81c-2.93,0-5.16,1.92-5.46,5.77h10.8C557.05,857.54,554.87,855.62,552,855.62Z" style="fill:#1d1d1b"/><path d="M588.42,871.23c5.47,0,6.74-4.68,6.74-9.4V843.24h5.55v18.81c0,8.88-4.37,13.6-12.29,13.6-8.92,0-12.25-4.85-12.25-13.95V843.24h5.56v18.59C581.73,866.2,582.87,871.23,588.42,871.23Z" style="fill:#1d1d1b"/><path d="M612.75,875h-5.52V843.24h5.52Z" style="fill:#1d1d1b"/><path d="M1116.82,847.79h-9.58v-4.55H1129v4.28l-16.27,23.06c1.92-.18,4.63-.22,6.51-.22h10.5V875h-23v-4.46l16.27-22.93C1121,847.74,1118.7,847.79,1116.82,847.79Z" style="fill:#1d1d1b"/><path d="M1143,851.81c4.2,0,7,1.84,8.62,4.64,1.36,2.4,1.79,5.29,1.79,8.79h-16c.13,3.85,2,6.52,5.69,6.52a4.58,4.58,0,0,0,4.76-3.5h5.56c-1.22,4.94-4.9,7.35-10.37,7.35-7.3,0-11.06-4.59-11.06-12C1132,856.84,1136.2,851.81,1143,851.81Zm-.26,3.81c-2.93,0-5.16,1.92-5.47,5.77h10.81C1147.79,857.54,1145.6,855.62,1142.76,855.62Z" style="fill:#1d1d1b"/><path d="M1170.1,852c3.33,0,5.17,1.18,6.35,3.1,1,1.75,1.35,4.16,1.35,7v13h-5.25V862.4c0-3.37-.48-6.39-4.11-6.39-3.32,0-5.12,2.19-5.12,7.57V875h-5.25V852.42h4.86v2.93A8.74,8.74,0,0,1,1170.1,852Z" style="fill:#1d1d1b"/><path d="M1204.67,871.23c5.46,0,6.73-4.68,6.73-9.4V843.24H1217v18.81c0,8.88-4.38,13.6-12.29,13.6-8.93,0-12.25-4.85-12.25-13.95V843.24H1198v18.59C1198,866.2,1199.11,871.23,1204.67,871.23Z" style="fill:#1d1d1b"/><path d="M1229,875h-5.51V843.24H1229Z" style="fill:#1d1d1b"/><path d="M1330.31,875h-6v-6.17h6Zm9.8,0h-5.95v-6.17h5.95Zm9.8,0h-6v-6.17h6Z" style="fill:#1d1d1b"/><path d="M756.2,856.27h14.57v-13h5.51V875h-5.51V860.87H756.2V875h-5.51V843.24h5.51Z" style="fill:#1d1d1b"/><path d="M780.13,843.24h25.11v4.59h-9.76V875h-5.6V847.83h-9.75Z" style="fill:#1d1d1b"/><path d="M820.38,875.65c-8.62,0-14.31-5.95-14.31-16.27,0-9.67,5.82-16.8,14.39-16.8,7.31,0,12.43,4.51,12.91,11.33h-5.69c-.48-4.2-3.23-6.91-7.26-6.91-5.25,0-8.66,4.94-8.66,12.16s3.41,12.07,8.62,12.07c4.2,0,6.82-2.75,7.39-7.13h5.82C832.76,870.67,828.16,875.65,820.38,875.65Z" style="fill:#1d1d1b"/><path d="M857.56,871.23c3.81,0,6.13-1.74,6.13-4.54,0-3.29-3.41-4.34-7.26-5.52-5-1.53-10.85-3.06-10.85-9.49,0-5.42,4.63-9.1,11.68-9.1s11.37,3.94,11.5,10.37h-5.64a5.82,5.82,0,0,0-6.12-6c-3,0-5.6,1.57-5.6,4.24,0,3,2.93,4.24,8.35,5.73,5.08,1.4,9.8,3.5,9.8,9.06,0,5.77-4.86,9.66-12,9.66-7.74,0-12.55-4.15-12.55-11.28h5.73C850.74,868.74,853.23,871.23,857.56,871.23Z" style="fill:#1d1d1b"/><path d="M883.68,851.81c4.2,0,7,1.84,8.62,4.64,1.36,2.4,1.79,5.29,1.79,8.79H878c.13,3.85,2,6.52,5.68,6.52a4.59,4.59,0,0,0,4.77-3.5h5.56c-1.23,4.94-4.9,7.35-10.37,7.35-7.3,0-11.07-4.59-11.07-12C872.61,856.84,876.86,851.81,883.68,851.81Zm-.26,3.81c-2.93,0-5.16,1.92-5.47,5.77h10.81C888.45,857.54,886.26,855.62,883.42,855.62Z" style="fill:#1d1d1b"/><path d="M910.76,852c3.33,0,5.16,1.18,6.34,3.1,1.06,1.75,1.36,4.16,1.36,7v13h-5.25V862.4c0-3.37-.48-6.39-4.11-6.39-3.33,0-5.12,2.19-5.12,7.57V875h-5.25V852.42h4.86v2.93A8.74,8.74,0,0,1,910.76,852Z" style="fill:#1d1d1b"/><path d="M932.77,871.85c2.49,0,4.11-1.05,4.11-2.8,0-2.28-2.49-2.85-5.43-3.55-3.85-.91-8.4-1.92-8.4-6.86,0-4.12,3.64-6.83,9.41-6.83,6,0,9.36,2.58,9.36,7.53h-5.2c-.13-2.67-1.49-3.77-4.33-3.77-2.32,0-3.81,1-3.81,2.63,0,2.4,3.32,3,6.69,3.85,3.55,1,7.13,2.23,7.13,6.56s-3.67,7-9.58,7c-6.43,0-10-2.71-10.15-7.83H928C928,870.49,929.57,871.85,932.77,871.85Z" style="fill:#1d1d1b"/><path d="M956.35,851.81c4.2,0,7,1.84,8.61,4.64,1.36,2.4,1.8,5.29,1.8,8.79H950.7c.13,3.85,2,6.52,5.69,6.52a4.59,4.59,0,0,0,4.77-3.5h5.55c-1.22,4.94-4.89,7.35-10.36,7.35-7.31,0-11.07-4.59-11.07-12C945.28,856.84,949.52,851.81,956.35,851.81Zm-.27,3.81c-2.93,0-5.16,1.92-5.46,5.77h10.8C961.12,857.54,958.93,855.62,956.08,855.62Z" style="fill:#1d1d1b"/><g style="clip-path:url(#a)"><path d="M508.57,489.08s-29.17,0-29.17,29.16v40.11s0,29.16,29.17,29.16H790.09s29.17,0,29.17-29.16V518.24s0-29.16-29.17-29.16Z" style="fill:#c9ffe0"/><path d="M508.57,489.08s-29.17,0-29.17,29.16v40.11s0,29.16,29.17,29.16H790.09s29.17,0,29.17-29.16V518.24s0-29.16-29.17-29.16Z" style="fill:none;stroke:#1d1d1b;stroke-width:8.319999694824219px"/><path d="M506.23,486.74s-29.16,0-29.16,29.17V556s0,29.16,29.16,29.16h286.2s29.17,0,29.17-29.16v-40.1s0-29.17-29.17-29.17Z" style="fill:#fffbcc"/><path d="M506.23,486.74s-29.16,0-29.16,29.17V556s0,29.16,29.16,29.16h286.2s29.17,0,29.17-29.16v-40.1s0-29.17-29.17-29.17Z" style="fill:none;stroke:#1d1d1b;stroke-width:3.6459999084472656px"/></g><path d="M529.33,532.27H543.9v-13h5.51V551H543.9V536.87H529.33V551h-5.51V519.24h5.51Z" style="fill:#1d1d1b"/><path d="M569.71,548.07c-1.88,2.27-4,3.37-7.57,3.37-5,0-7.83-2.5-7.83-6.7,0-7.22,9.06-7.26,14.79-8v-1c0-2.8-1.31-4.29-4.11-4.29s-4.42,1.36-4.47,3.81h-5.38c.18-4.73,3.94-7.53,9.85-7.53,7.17,0,9.23,3.72,9.23,9.8v6.3a42,42,0,0,0,.48,7.09h-4.77A25.52,25.52,0,0,1,569.71,548.07Zm-10-3.42c0,1.93,1.31,3.15,3.76,3.15,3.28,0,5.6-1.57,5.6-6.47v-1C565.16,540.94,559.74,540.8,559.74,544.65Z" style="fill:#1d1d1b"/><path d="M584.85,531.79a6.63,6.63,0,0,1,6-3.58,12.32,12.32,0,0,1,2.49.21V533a11,11,0,0,0-2.27-.21c-4.33,0-5.91,2.88-5.91,8.35V551H579.9V528.42h5Z" style="fill:#1d1d1b"/><path d="M601.6,531.44a8.11,8.11,0,0,1,7-3.45c3,0,5.16,1,6.39,3.8,1.61-2.75,4.41-3.8,7.69-3.8,2.41,0,4.2.65,5.39,2,1.35,1.57,1.92,3.89,1.92,6.87V551H624.7V537.74c0-3-.7-5.73-3.81-5.73-3.76,0-4.81,3.59-4.81,7.88V551h-5.25V537.74c0-3-.78-5.73-3.89-5.73-3.72,0-4.77,3.59-4.77,7.88V551h-5.25V528.42h4.73Z" style="fill:#1d1d1b"/><path d="M656.81,539.71c0,7.13-4.37,11.9-11.33,11.9s-11.2-4.77-11.2-11.9,4.38-11.9,11.25-11.9S656.81,532.58,656.81,539.71Zm-17.06,0c0,4.77,2.06,7.88,5.73,7.88s5.86-3,5.86-7.88-2.14-7.87-5.81-7.87S639.75,534.85,639.75,539.71Z" style="fill:#1d1d1b"/><path d="M673.44,528c3.32,0,5.16,1.18,6.34,3.1,1.05,1.75,1.36,4.16,1.36,7v13h-5.25V538.4c0-3.37-.48-6.39-4.12-6.39-3.32,0-5.11,2.19-5.11,7.57V551h-5.25V528.42h4.85v2.93A8.76,8.76,0,0,1,673.44,528Z" style="fill:#1d1d1b"/><path d="M687.61,555.81c2.5,0,4-1.44,4.38-4.59l-8.14-22.8h5.86L693,539.71c.65,2.23,1.09,4.38,1.75,6.61h.26c.57-2.15,1.09-4.47,1.75-6.61l3.54-11.29h5.47l-7.87,22c-2.45,7-4.77,9.58-9.23,9.58a13.06,13.06,0,0,1-3.37-.27v-4.24A6.05,6.05,0,0,0,687.61,555.81Z" style="fill:#1d1d1b"/><path d="M737.44,535.12c0,9.88-5.91,16.53-14.79,16.53S708,545,708,535.12c0-9.67,5.82-16.54,14.75-16.54S737.44,525.27,737.44,535.12Zm-23.8,0c0,7.22,3.54,12.11,9,12.11s9.1-5.16,9.1-12.11c0-7.22-3.45-12.12-9-12.12S713.64,527.94,713.64,535.12Z" style="fill:#1d1d1b"/><path d="M753.32,547.23c3.81,0,6.13-1.74,6.13-4.54,0-3.29-3.42-4.34-7.27-5.52-5-1.53-10.85-3.06-10.85-9.49,0-5.42,4.64-9.1,11.68-9.1s11.38,3.94,11.51,10.37h-5.64a5.82,5.82,0,0,0-6.13-6c-3,0-5.6,1.57-5.6,4.24,0,3,2.93,4.24,8.36,5.73,5.07,1.4,9.8,3.5,9.8,9.06,0,5.77-4.86,9.66-12,9.66-7.74,0-12.55-4.15-12.55-11.28h5.73C746.5,544.74,749,547.23,753.32,547.23Z" style="fill:#1d1d1b"/><g style="clip-path:url(#a)"><path d="M1392.23,489.08s-29.17,0-29.17,29.16v40.11s0,29.16,29.17,29.16h258.85s29.16,0,29.16-29.16V518.24s0-29.16-29.16-29.16Z" style="fill:#c9ffe0"/><path d="M1392.23,489.08s-29.17,0-29.17,29.16v40.11s0,29.16,29.17,29.16h258.85s29.16,0,29.16-29.16V518.24s0-29.16-29.16-29.16Z" style="fill:none;stroke:#1d1d1b;stroke-width:8.319999694824219px"/><path d="M1389.89,486.74s-29.16,0-29.16,29.17V556s0,29.16,29.16,29.16h263.52s29.17,0,29.17-29.16v-40.1s0-29.17-29.17-29.17Z" style="fill:#fffbcc"/><path d="M1389.89,486.74s-29.16,0-29.16,29.17V556s0,29.16,29.16,29.16h263.52s29.17,0,29.17-29.16v-40.1s0-29.17-29.17-29.17Z" style="fill:none;stroke:#1d1d1b;stroke-width:3.6459999084472656px"/></g><path d="M1413,546.36h15V551h-20.56V519.24H1413Z" style="fill:#1d1d1b"/><path d="M1436.79,524.53h-5.25v-5.29h5.25Zm0,26.47h-5.25V528.42h5.25Z" style="fill:#1d1d1b"/><path d="M1454.86,528c3.32,0,5.16,1.18,6.34,3.1,1,1.75,1.36,4.16,1.36,7v13h-5.25V538.4c0-3.37-.48-6.39-4.11-6.39-3.33,0-5.12,2.19-5.12,7.57V551h-5.25V528.42h4.85v2.93A8.76,8.76,0,0,1,1454.86,528Z" style="fill:#1d1d1b"/><path d="M1478,527.81c4.2,0,7,1.84,8.62,4.64,1.35,2.4,1.79,5.29,1.79,8.79h-16c.13,3.85,2,6.52,5.68,6.52a4.59,4.59,0,0,0,4.77-3.5h5.56c-1.23,4.94-4.9,7.35-10.37,7.35-7.31,0-11.07-4.59-11.07-12C1466.89,532.84,1471.13,527.81,1478,527.81Zm-.26,3.81c-2.94,0-5.17,1.92-5.47,5.77H1483C1482.73,533.54,1480.54,531.62,1477.7,531.62Z" style="fill:#1d1d1b"/><path d="M1506.88,548.07a8.83,8.83,0,0,1-7.57,3.37c-5,0-7.83-2.5-7.83-6.7,0-7.22,9-7.26,14.78-8v-1c0-2.8-1.31-4.29-4.11-4.29s-4.42,1.36-4.46,3.81h-5.38c.17-4.73,3.94-7.53,9.84-7.53,7.18,0,9.23,3.72,9.23,9.8v6.3a43,43,0,0,0,.48,7.09h-4.77A25.74,25.74,0,0,1,1506.88,548.07Zm-10-3.42c0,1.93,1.31,3.15,3.76,3.15,3.28,0,5.6-1.57,5.6-6.47v-1C1502.33,540.94,1496.9,540.8,1496.9,544.65Z" style="fill:#1d1d1b"/><path d="M1525.16,528c3,0,5.34,1,6.91,3.36v-2.93h4.82v19.34c0,7.48-2.15,12.21-10.46,12.21-5.82,0-9.19-2.5-9.67-7.22h5.43c.13,2.23,1.66,3.45,4.33,3.45,3.5,0,5.29-2,5.29-6.91V547a8.12,8.12,0,0,1-6.91,3.37c-5.38,0-9.19-4.24-9.19-10.94C1515.71,533.1,1519.48,528,1525.16,528Zm1.23,18.24c3.15,0,5.33-2.71,5.33-7s-2-7.26-5.33-7.26-5.25,3.06-5.25,7.13C1521.14,543.56,1523.19,546.23,1526.39,546.23Z" style="fill:#1d1d1b"/><path d="M1552.5,527.81c4.21,0,7,1.84,8.62,4.64,1.36,2.4,1.8,5.29,1.8,8.79h-16.06c.13,3.85,2,6.52,5.69,6.52a4.6,4.6,0,0,0,4.77-3.5h5.55c-1.22,4.94-4.9,7.35-10.37,7.35-7.3,0-11.06-4.59-11.06-12C1541.44,532.84,1545.68,527.81,1552.5,527.81Zm-.26,3.81c-2.93,0-5.16,1.92-5.47,5.77h10.81C1557.27,533.54,1555.09,531.62,1552.24,531.62Z" style="fill:#1d1d1b"/><path d="M1595.82,535.12c0,9.88-5.91,16.53-14.79,16.53s-14.7-6.65-14.7-16.53c0-9.67,5.82-16.54,14.74-16.54S1595.82,525.27,1595.82,535.12Zm-23.8,0c0,7.22,3.54,12.11,9,12.11s9.1-5.16,9.1-12.11c0-7.22-3.46-12.12-9.06-12.12S1572,527.94,1572,535.12Z" style="fill:#1d1d1b"/><path d="M1611.7,547.23c3.8,0,6.12-1.74,6.12-4.54,0-3.29-3.41-4.34-7.26-5.52-5-1.53-10.85-3.06-10.85-9.49,0-5.42,4.64-9.1,11.68-9.1s11.37,3.94,11.51,10.37h-5.65a5.81,5.81,0,0,0-6.12-6c-3,0-5.6,1.57-5.6,4.24,0,3,2.93,4.24,8.35,5.73,5.08,1.4,9.8,3.5,9.8,9.06,0,5.77-4.85,9.66-12,9.66-7.75,0-12.56-4.15-12.56-11.28h5.73C1604.87,544.74,1607.37,547.23,1611.7,547.23Z" style="fill:#1d1d1b"/><g style="clip-path:url(#a)"><path d="M892.18,489.08s-29.17,0-29.17,29.16v40.11s0,29.16,29.17,29.16h168.14s29.16,0,29.16-29.16V518.24s0-29.16-29.16-29.16Z" style="fill:#c9ffe0"/><path d="M892.18,489.08s-29.17,0-29.17,29.16v40.11s0,29.16,29.17,29.16h168.14s29.16,0,29.16-29.16V518.24s0-29.16-29.16-29.16Z" style="fill:none;stroke:#1d1d1b;stroke-width:8.319999694824219px"/><path d="M889.84,486.74s-29.17,0-29.17,29.17V556s0,29.16,29.17,29.16h172.81s29.17,0,29.17-29.16v-40.1s0-29.17-29.17-29.17Z" style="fill:#fffbcc"/><path d="M889.84,486.74s-29.17,0-29.17,29.17V556s0,29.16,29.17,29.16h172.81s29.17,0,29.17-29.16v-40.1s0-29.17-29.17-29.17Z" style="fill:none;stroke:#1d1d1b;stroke-width:3.6459999084472656px"/></g><path d="M927.81,523.83H913v9.71h13.78v4.6H913V551h-5.55V519.24h20.38Z" style="fill:#1d1d1b"/><path d="M937.26,524.53H932v-5.29h5.25Zm0,26.47H932V528.42h5.25Z" style="fill:#1d1d1b"/><path d="M948.25,531.79a6.63,6.63,0,0,1,6-3.58,12.32,12.32,0,0,1,2.49.21V533a11,11,0,0,0-2.27-.21c-4.33,0-5.91,2.88-5.91,8.35V551H943.3V528.42h5Z" style="fill:#1d1d1b"/><path d="M969.55,527.81c4.2,0,7,1.84,8.62,4.64,1.35,2.4,1.79,5.29,1.79,8.79H963.91c.13,3.85,2,6.52,5.68,6.52a4.59,4.59,0,0,0,4.77-3.5h5.56c-1.23,4.94-4.9,7.35-10.37,7.35-7.31,0-11.07-4.59-11.07-12C958.48,532.84,962.73,527.81,969.55,527.81Zm-.26,3.81c-2.93,0-5.17,1.92-5.47,5.77h10.8C974.32,533.54,972.13,531.62,969.29,531.62Z" style="fill:#1d1d1b"/><path d="M1012.86,535.12c0,9.88-5.91,16.53-14.79,16.53s-14.7-6.65-14.7-16.53c0-9.67,5.82-16.54,14.75-16.54S1012.86,525.27,1012.86,535.12Zm-23.8,0c0,7.22,3.55,12.11,9,12.11s9.1-5.16,9.1-12.11c0-7.22-3.45-12.12-9-12.12S989.06,527.94,989.06,535.12Z" style="fill:#1d1d1b"/><path d="M1028.74,547.23c3.81,0,6.13-1.74,6.13-4.54,0-3.29-3.42-4.34-7.27-5.52-5-1.53-10.85-3.06-10.85-9.49,0-5.42,4.64-9.1,11.68-9.1s11.38,3.94,11.51,10.37h-5.64a5.82,5.82,0,0,0-6.13-6c-3,0-5.6,1.57-5.6,4.24,0,3,2.93,4.24,8.36,5.73,5.07,1.4,9.8,3.5,9.8,9.06,0,5.77-4.86,9.66-12,9.66-7.74,0-12.55-4.15-12.55-11.28h5.73C1021.92,544.74,1024.41,547.23,1028.74,547.23Z" style="fill:#1d1d1b"/><g style="clip-path:url(#a)"><path d="M1162.4,489.08s-29.17,0-29.17,29.16v40.11s0,29.16,29.17,29.16h127.75s29.16,0,29.16-29.16V518.24s0-29.16-29.16-29.16Z" style="fill:#c9ffe0"/><path d="M1162.4,489.08s-29.17,0-29.17,29.16v40.11s0,29.16,29.17,29.16h127.75s29.16,0,29.16-29.16V518.24s0-29.16-29.16-29.16Z" style="fill:none;stroke:#1d1d1b;stroke-width:8.319999694824219px"/><path d="M1160.06,486.74s-29.16,0-29.16,29.17V556s0,29.16,29.16,29.16h132.42s29.17,0,29.17-29.16v-40.1s0-29.17-29.17-29.17Z" style="fill:#fffbcc"/><path d="M1160.06,486.74s-29.16,0-29.16,29.17V556s0,29.16,29.16,29.16h132.42s29.17,0,29.17-29.16v-40.1s0-29.17-29.17-29.17Z" style="fill:none;stroke:#1d1d1b;stroke-width:3.6459999084472656px"/></g><path d="M1192.61,537c1,2.93,1.62,5.51,2.36,8h.31c.53-2.49,1.31-5.33,2.14-8l5.69-17.8h8.71V551h-5.17V534.59c0-3.15.09-6.87.22-10.19h-.3c-.53,1.79-5.52,15.66-8.71,26.6h-6.34c-3.33-10.9-8.23-24.85-8.75-26.6h-.31c.13,2.8.31,7.31.31,10.19V551h-5.12V519.24h8.71Z" style="fill:#1d1d1b"/><path d="M1224.16,551h-5.52V519.24h5.52Z" style="fill:#1d1d1b"/><path d="M1242.92,547.23c5.47,0,6.74-4.68,6.74-9.4V519.24h5.56v18.81c0,8.88-4.38,13.6-12.3,13.6-8.92,0-12.25-4.85-12.25-13.95V519.24h5.56v18.59C1236.23,542.2,1237.37,547.23,1242.92,547.23Z" style="fill:#1d1d1b"/><path d="M1267.25,551h-5.52V519.24h5.52Z" style="fill:#1d1d1b"/><line x1="310.72" y1="692.92" x2="289.82" y2="808.92" style="fill:none;stroke:#1d1d1b;stroke-width:3.6459999084472656px"/><line x1="310.72" y1="591.67" x2="310.72" y2="694.74" style="fill:none;stroke:#1d1d1b;stroke-width:3.6459999084472656px"/><line x1="548.7" y1="692.92" x2="548.7" y2="808.92" style="fill:none;stroke:#1d1d1b;stroke-width:3.6459999084472656px"/><line x1="310.72" y1="368.92" x2="310.72" y2="484.92" style="fill:none;stroke:#1d1d1b;stroke-width:3.6459999084472656px"/><line x1="649.33" y1="368.92" x2="649.33" y2="484.92" style="fill:none;stroke:#1d1d1b;stroke-width:3.6459999084472656px"/><line x1="976.25" y1="368.92" x2="976.25" y2="484.92" style="fill:none;stroke:#1d1d1b;stroke-width:3.6459999084472656px"/><line x1="901.63" y1="296.36" x2="901.63" y2="368.92" style="fill:none;stroke:#1d1d1b;stroke-width:3.6459999084472656px"/><line x1="1226.27" y1="368.92" x2="1226.27" y2="484.92" style="fill:none;stroke:#1d1d1b;stroke-width:3.6459999084472656px"/><line x1="1521.65" y1="368.92" x2="1521.65" y2="484.92" style="fill:none;stroke:#1d1d1b;stroke-width:3.6459999084472656px"/><line x1="857.76" y1="692.92" x2="857.76" y2="808.92" style="fill:none;stroke:#1d1d1b;stroke-width:3.6459999084472656px"/><line x1="1168.83" y1="692.92" x2="1168.83" y2="808.92" style="fill:none;stroke:#1d1d1b;stroke-width:3.6459999084472656px"/><line x1="1170.65" y1="694.74" x2="310.72" y2="694.74" style="fill:none;stroke:#1d1d1b;stroke-width:3.6459999084472656px"/><line x1="1523.48" y1="370.74" x2="310.72" y2="370.74" style="fill:none;stroke:#1d1d1b;stroke-width:3.6459999084472656px"/><g style="clip-path:url(#a)"><path d="M1091.23,930.45l6.2,18.14h-3.87l-1.45-4.59h-6.68l-1.42,4.59h-3.8l6.15-18.14Zm-2.35,2.75h-.17c-.7,2.57-1.55,5.1-2.35,7.7h4.82C1090.41,938.3,1089.51,935.77,1088.88,933.2Z" style="fill:#1d1d1b"/><path d="M1097.93,942.45h3.9a3.3,3.3,0,0,0,3.55,3.57c1.88,0,3-.85,3-2.22s-.8-1.78-3.12-2.5l-3-.88c-2.6-.77-4.07-2.6-4.07-5,0-3.2,2.8-5.38,6.87-5.38s6.58,2.35,6.7,6H1108a3,3,0,0,0-3.1-3.12c-1.6,0-2.75.87-2.75,2.07s.63,1.6,2.93,2.25l2.57.75c3.2.93,4.73,2.48,4.73,5.08,0,3.47-2.8,5.82-7,5.82C1100.83,949,1097.93,946.47,1097.93,942.45Z" style="fill:#1d1d1b"/><path d="M1116,946.42c-.93-1.4-1.23-2.85-1.23-5.92v-10h3.73V941.2a5.81,5.81,0,0,0,.77,3.47,3.32,3.32,0,0,0,2.68,1.32,3.2,3.2,0,0,0,2.8-1.55,6.39,6.39,0,0,0,.62-3.24V930.45h3.72v10c0,3-.22,4.3-1.14,5.69a6.79,6.79,0,0,1-6,2.78C1119.18,949,1117.23,948.32,1116,946.42Z" style="fill:#1d1d1b"/><path d="M1131.41,942.45h3.9a3.3,3.3,0,0,0,3.55,3.57c1.87,0,3.05-.85,3.05-2.22s-.8-1.78-3.13-2.5l-3-.88c-2.6-.77-4.08-2.6-4.08-5,0-3.2,2.8-5.38,6.88-5.38s6.57,2.35,6.69,6h-3.84a3,3,0,0,0-3.1-3.12c-1.6,0-2.75.87-2.75,2.07s.62,1.6,2.92,2.25l2.58.75c3.2.93,4.72,2.48,4.72,5.08,0,3.47-2.8,5.82-7,5.82C1134.31,949,1131.41,946.47,1131.41,942.45Z" style="fill:#1d1d1b"/><path d="M727.78,930.45v7.2h7.53v-7.2H739v18.14h-3.67v-7.84h-7.53v7.84h-3.67V930.45Z" style="fill:#1d1d1b"/><path d="M741,933.52v-3.07H755.3v3.07H750v15.07h-3.73V933.52Z" style="fill:#1d1d1b"/><path d="M755.71,939.77c0-5.8,3.62-9.7,8.3-9.7,4.27,0,7.24,2.55,7.44,6.6h-3.82A3.64,3.64,0,0,0,764,933c-2.68,0-4.48,2.75-4.48,6.55s1.78,6.45,4.45,6.45c2.28,0,3.55-1.5,3.78-3.8h3.87c-.4,3.82-2.93,6.75-7.65,6.75C759,949,755.71,945.6,755.71,939.77Z" style="fill:#1d1d1b"/><path d="M451.38,942.45h3.9a3.3,3.3,0,0,0,3.55,3.57c1.88,0,3.05-.85,3.05-2.22s-.8-1.78-3.12-2.5l-3-.88c-2.6-.77-4.07-2.6-4.07-5,0-3.2,2.8-5.38,6.87-5.38s6.58,2.35,6.7,6h-3.85a3,3,0,0,0-3.1-3.12c-1.6,0-2.75.87-2.75,2.07s.63,1.6,2.93,2.25l2.57.75c3.2.93,4.72,2.48,4.72,5.08,0,3.47-2.79,5.82-7,5.82C454.28,949,451.38,946.47,451.38,942.45Z" style="fill:#1d1d1b"/><path d="M477.48,930.45l6.2,18.14H479.8L478.36,944h-6.68l-1.42,4.59h-3.8l6.15-18.14Zm-2.35,2.75H475c-.7,2.57-1.55,5.1-2.35,7.7h4.82C476.66,938.3,475.76,935.77,475.13,933.2Z" style="fill:#1d1d1b"/><path d="M491.36,930.45l2.8,9c.47,1.6.92,3.5,1.4,5.1h.2c.37-1.6.82-3.5,1.3-5.1l2.62-9h5.85v18.14H502V940c0-1.8.08-4.32.15-6.12h-.2l-1.67,5.65-2.7,9.09h-4.22l-2.75-9.09c-.58-1.83-1.13-3.83-1.65-5.65h-.2c.07,1.8.2,4.32.2,6.12v8.62h-3.4V930.45Z" style="fill:#1d1d1b"/><path d="M508,942.45h3.9a3.3,3.3,0,0,0,3.55,3.57c1.88,0,3-.85,3-2.22s-.8-1.78-3.12-2.5l-3-.88c-2.6-.77-4.07-2.6-4.07-5,0-3.2,2.8-5.38,6.87-5.38s6.57,2.35,6.7,6h-3.85A3,3,0,0,0,515,933c-1.6,0-2.75.87-2.75,2.07s.63,1.6,2.93,2.25l2.57.75c3.2.93,4.72,2.48,4.72,5.08,0,3.47-2.79,5.82-7,5.82C510.93,949,508,946.47,508,942.45Z" style="fill:#1d1d1b"/><path d="M526.06,946.42c-.93-1.4-1.23-2.85-1.23-5.92v-10h3.73V941.2a5.81,5.81,0,0,0,.77,3.47A3.32,3.32,0,0,0,532,946a3.2,3.2,0,0,0,2.8-1.55,6.39,6.39,0,0,0,.62-3.24V930.45h3.72v10c0,3-.22,4.3-1.15,5.69q-1.9,2.77-6,2.78C529.28,949,527.33,948.32,526.06,946.42Z" style="fill:#1d1d1b"/><path d="M547.68,930.45l4.23,9.07c.77,1.7,1.55,3.58,2.17,5.28h.22c-.07-1.7-.14-3.65-.14-5.35l-.06-9h3.48v18.14h-5.3l-4.17-9.07a46.22,46.22,0,0,1-2.18-5.4h-.22c.07,1.7.17,3.78.2,5.48l.07,9h-3.47V930.45Z" style="fill:#1d1d1b"/><path d="M560.23,939.6c0-5.4,3.4-9.53,8.48-9.53,4.12,0,7.19,2.43,7.52,5.88h-3.75a3.78,3.78,0,0,0-3.82-2.93c-2.85,0-4.63,2.63-4.63,6.68,0,3.87,1.73,6.29,4.45,6.29a3.9,3.9,0,0,0,4.15-4v-.4H569v-3h7.17v10H573v-2.07a6,6,0,0,1-5,2.42C563.18,948.94,560.23,945.52,560.23,939.6Z" style="fill:#1d1d1b"/><path d="M205.66,939.6c0-5.4,3.4-9.53,8.47-9.53,4.12,0,7.2,2.43,7.52,5.88h-3.74a3.79,3.79,0,0,0-3.83-2.93c-2.85,0-4.62,2.63-4.62,6.68,0,3.87,1.72,6.29,4.45,6.29a3.91,3.91,0,0,0,4.15-4v-.4h-3.68v-3h7.17v10h-3.09v-2.07a6,6,0,0,1-5,2.42C208.61,948.94,205.66,945.52,205.66,939.6Z" style="fill:#1d1d1b"/><path d="M223.73,939.52c0-5.52,3.35-9.45,8.5-9.45s8.47,3.75,8.47,9.45-3.42,9.45-8.49,9.45C227,949,223.73,945.22,223.73,939.52Zm13.18,0c0-4-1.7-6.5-4.68-6.5s-4.7,2.58-4.7,6.5,1.78,6.5,4.68,6.5S236.91,943.27,236.91,939.52Z" style="fill:#1d1d1b"/><path d="M242.51,939.52c0-5.52,3.35-9.45,8.5-9.45s8.47,3.75,8.47,9.45S256.05,949,251,949,242.51,945.22,242.51,939.52Zm13.17,0c0-4-1.7-6.5-4.67-6.5s-4.7,2.58-4.7,6.5,1.77,6.5,4.67,6.5S255.68,943.27,255.68,939.52Z" style="fill:#1d1d1b"/><path d="M261.28,939.6c0-5.4,3.4-9.53,8.48-9.53,4.12,0,7.19,2.43,7.52,5.88h-3.75a3.78,3.78,0,0,0-3.82-2.93c-2.85,0-4.63,2.63-4.63,6.68,0,3.87,1.73,6.29,4.45,6.29a3.9,3.9,0,0,0,4.15-4v-.4H270v-3h7.17v10h-3.1v-2.07a6,6,0,0,1-5,2.42C264.23,948.94,261.28,945.52,261.28,939.6Z" style="fill:#1d1d1b"/><path d="M283.93,930.45v15h8.32v3.1h-12V930.45Z" style="fill:#1d1d1b"/><path d="M306.35,930.45v3.07H298v4.33h7.8v3.07H298v4.57h8.67v3.1H294.26V930.45Z" style="fill:#1d1d1b"/></g><path d="M205.56,616.09c0-5.4,3.4-9.52,8.48-9.52,4.12,0,7.19,2.42,7.52,5.87h-3.75a3.78,3.78,0,0,0-3.82-2.92c-2.85,0-4.63,2.62-4.63,6.67,0,3.88,1.73,6.3,4.45,6.3a3.91,3.91,0,0,0,4.15-4v-.4h-3.67v-3h7.17v10.05h-3.1V623a6,6,0,0,1-5,2.42C208.51,625.44,205.56,622,205.56,616.09Z" style="fill:#1d1d1b"/><path d="M223.64,616c0-5.53,3.35-9.45,8.5-9.45s8.47,3.75,8.47,9.45-3.43,9.45-8.5,9.45C226.89,625.47,223.64,621.72,223.64,616Zm13.17,0c0-4-1.7-6.5-4.67-6.5s-4.7,2.57-4.7,6.5,1.77,6.5,4.67,6.5S236.81,619.77,236.81,616Z" style="fill:#1d1d1b"/><path d="M242.41,616c0-5.53,3.35-9.45,8.5-9.45s8.47,3.75,8.47,9.45-3.42,9.45-8.49,9.45C245.66,625.47,242.41,621.72,242.41,616Zm13.17,0c0-4-1.7-6.5-4.67-6.5s-4.7,2.57-4.7,6.5,1.78,6.5,4.68,6.5S255.58,619.77,255.58,616Z" style="fill:#1d1d1b"/><path d="M261.19,616.09c0-5.4,3.4-9.52,8.47-9.52,4.12,0,7.2,2.42,7.52,5.87h-3.75a3.76,3.76,0,0,0-3.82-2.92c-2.85,0-4.62,2.62-4.62,6.67,0,3.88,1.72,6.3,4.45,6.3a3.9,3.9,0,0,0,4.14-4v-.4h-3.67v-3h7.17v10.05H274V623a6,6,0,0,1-5,2.42C264.14,625.44,261.19,622,261.19,616.09Z" style="fill:#1d1d1b"/><path d="M283.84,606.94v15h8.32v3.1H280.11V606.94Z" style="fill:#1d1d1b"/><path d="M306.26,606.94V610h-8.37v4.32h7.79v3.08h-7.79V622h8.67v3.1h-12.4V606.94Z" style="fill:#1d1d1b"/><path d="M665.61,320.22c0-5.53,3.35-9.45,8.5-9.45s8.47,3.75,8.47,9.45-3.42,9.45-8.49,9.45C668.86,329.67,665.61,325.92,665.61,320.22Zm13.18,0c0-4-1.7-6.5-4.68-6.5s-4.7,2.57-4.7,6.5,1.78,6.5,4.68,6.5S678.79,324,678.79,320.22Z" style="fill:#1d1d1b"/><path d="M691.34,311.14a9.49,9.49,0,0,1,4.67.9,5.47,5.47,0,0,1,2.67,5.1,5.39,5.39,0,0,1-2.59,4.93c-1.1.67-2.4.9-4.78.9H689v6.32h-3.72V311.14Zm2.25,8.33a2.81,2.81,0,0,0,1.27-2.6,2.42,2.42,0,0,0-1.42-2.33,5.58,5.58,0,0,0-2.4-.37H689V320h2A5.14,5.14,0,0,0,693.59,319.47Z" style="fill:#1d1d1b"/><path d="M713,311.14v3.08h-8.37v4.32h7.8v3.08h-7.8v4.57h8.67v3.1h-12.4V311.14Z" style="fill:#1d1d1b"/><path d="M721.19,311.14l4.22,9.08c.77,1.7,1.55,3.57,2.17,5.27h.23c-.08-1.7-.15-3.65-.15-5.35l0-9h3.47v18.15h-5.29l-4.18-9.07a49.31,49.31,0,0,1-2.17-5.4h-.23c.08,1.7.18,3.77.2,5.47l.08,9H716V311.14Z" style="fill:#1d1d1b"/><path d="M743.26,311.14v7.2h7.53v-7.2h3.67v18.15h-3.67v-7.85h-7.53v7.85h-3.67V311.14Z" style="fill:#1d1d1b"/><path d="M767.33,311.14l6.2,18.15h-3.87l-1.45-4.6h-6.67l-1.43,4.6h-3.8l6.15-18.15ZM765,313.89h-.18c-.7,2.58-1.55,5.1-2.35,7.7h4.83C766.51,319,765.61,316.47,765,313.89Z" style="fill:#1d1d1b"/><path d="M780.54,311.14l4.22,9.08c.77,1.7,1.55,3.57,2.17,5.27h.23c-.08-1.7-.15-3.65-.15-5.35l0-9h3.47v18.15h-5.3L781,320.22a49.31,49.31,0,0,1-2.17-5.4h-.23c.08,1.7.18,3.77.2,5.47l.08,9h-3.48V311.14Z" style="fill:#1d1d1b"/><path d="M798,311.14c2.75,0,5.84,0,8.12,2.1a9.13,9.13,0,0,1,2.72,6.85,10.36,10.36,0,0,1-1.22,5.2c-2.2,3.73-5.43,4-10.1,4h-3.62V311.14Zm4.34,14.6c1.78-.82,2.68-2.67,2.68-5.52s-.9-4.8-2.9-5.58a8.42,8.42,0,0,0-2.92-.42h-1.58v12h1.55A7.67,7.67,0,0,0,802.38,325.74Z" style="fill:#1d1d1b"/><path d="M810.54,323.14h3.9a3.31,3.31,0,0,0,3.55,3.58c1.87,0,3-.85,3-2.23,0-1.22-.8-1.77-3.12-2.5l-3-.87c-2.6-.78-4.08-2.6-4.08-5,0-3.2,2.8-5.37,6.88-5.37s6.57,2.35,6.69,6.05h-3.85a3,3,0,0,0-3.09-3.13c-1.6,0-2.75.88-2.75,2.08s.62,1.6,2.92,2.25l2.57.75c3.2.92,4.73,2.47,4.73,5.07,0,3.48-2.8,5.83-7,5.83C813.44,329.67,810.54,327.17,810.54,323.14Z" style="fill:#1d1d1b"/><path d="M839.61,311.14v3.08h-8.37v4.32H839v3.08h-7.79v4.57h8.67v3.1h-12.4V311.14Z" style="fill:#1d1d1b"/><path d="M841.11,314.22v-3.08h14.32v3.08h-5.3v15.07h-3.72V314.22Z" style="fill:#1d1d1b"/><path d="M870.51,311.14l6.2,18.15h-3.88l-1.45-4.6h-6.67l-1.42,4.6h-3.8l6.14-18.15Zm-2.35,2.75H868c-.7,2.58-1.55,5.1-2.35,7.7h4.83C869.68,319,868.78,316.47,868.16,313.89Z" style="fill:#1d1d1b"/><path d="M882.26,311.14v15.05h8.32v3.1h-12V311.14Z" style="fill:#1d1d1b"/><path d="M896.31,311.14v15.05h8.32v3.1h-12V311.14Z" style="fill:#1d1d1b"/><path d="M910.31,311.14v18.15h-3.67V311.14Z" style="fill:#1d1d1b"/><path d="M923.18,311.14l6.2,18.15h-3.87l-1.45-4.6h-6.68l-1.42,4.6h-3.8l6.15-18.15Zm-2.35,2.75h-.17c-.7,2.58-1.55,5.1-2.35,7.7h4.82C922.36,319,921.46,316.47,920.83,313.89Z" style="fill:#1d1d1b"/><path d="M936.38,311.14l4.23,9.08c.77,1.7,1.55,3.57,2.17,5.27H943c-.08-1.7-.15-3.65-.15-5.35l-.05-9h3.47v18.15H941l-4.17-9.07a47.66,47.66,0,0,1-2.18-5.4h-.22c.07,1.7.17,3.77.2,5.47l.07,9h-3.47V311.14Z" style="fill:#1d1d1b"/><path d="M948.94,320.47c0-5.8,3.62-9.7,8.29-9.7,4.28,0,7.25,2.55,7.45,6.6h-3.82a3.63,3.63,0,0,0-3.68-3.65c-2.67,0-4.47,2.75-4.47,6.55s1.77,6.45,4.45,6.45c2.27,0,3.55-1.5,3.77-3.8h3.88c-.4,3.82-2.93,6.75-7.65,6.75C952.26,329.67,948.94,326.29,948.94,320.47Z" style="fill:#1d1d1b"/><path d="M979.21,311.14v3.08h-8.38v4.32h7.8v3.08h-7.8v4.57h8.68v3.1h-12.4V311.14Z" style="fill:#1d1d1b"/><path d="M504.51,606.94v7.2H512v-7.2h3.67v18.15H512v-7.85h-7.53v7.85h-3.67V606.94Z" style="fill:#1d1d1b"/><path d="M520.26,622.92c-.92-1.4-1.22-2.85-1.22-5.93v-10h3.72v10.75a5.78,5.78,0,0,0,.78,3.48,3.31,3.31,0,0,0,2.67,1.32,3.18,3.18,0,0,0,2.8-1.55,6.3,6.3,0,0,0,.62-3.25V606.94h3.73v10c0,3-.23,4.3-1.15,5.7-1.28,1.85-3.27,2.78-6,2.78S521.54,624.81,520.26,622.92Z" style="fill:#1d1d1b"/><path d="M545.56,606.94l6.2,18.15h-3.88l-1.44-4.6h-6.68l-1.42,4.6h-3.8l6.15-18.15Zm-2.35,2.75H543c-.7,2.58-1.55,5.1-2.35,7.7h4.82C544.74,614.79,543.84,612.27,543.21,609.69Z" style="fill:#1d1d1b"/><path d="M555.24,606.94l1.62,9.08c.33,1.92.5,3.37.83,5.27h.2c.32-1.92.67-3.35,1.07-5.27l1.93-9.08H566L568,616c.4,1.92.67,3.35,1,5.27h.17c.33-1.92.65-3.37,1-5.27l1.6-9.08h3.42l-3.85,18.15h-4.92L564.48,616c-.4-2-.72-3.55-1.1-5.55h-.17c-.38,2-.67,3.57-1.07,5.55l-1.88,9.07h-5l-3.83-18.15Z" style="fill:#1d1d1b"/><path d="M589.26,606.94V610h-8.37v4.32h7.79v3.08h-7.79V622h8.67v3.1h-12.4V606.94Z" style="fill:#1d1d1b"/><path d="M595.94,606.94v18.15h-3.68V606.94Z" style="fill:#1d1d1b"/><path d="M887,606.94l6.2,18.15h-3.87l-1.45-4.6h-6.68l-1.42,4.6h-3.8l6.15-18.15Zm-2.35,2.75h-.17c-.7,2.58-1.55,5.1-2.35,7.7h4.82C886.14,614.79,885.24,612.27,884.61,609.69Z" style="fill:#1d1d1b"/><path d="M900.84,606.94l2.8,9c.47,1.6.92,3.5,1.4,5.1h.2c.37-1.6.82-3.5,1.3-5.1l2.62-9H915v18.15h-3.58v-8.62c0-1.8.08-4.33.15-6.13h-.2L909.71,616l-2.7,9.1h-4.22L900,616c-.58-1.82-1.13-3.82-1.65-5.65h-.2c.07,1.8.2,4.33.2,6.13v8.62H895V606.94Z" style="fill:#1d1d1b"/><path d="M927.89,606.94l6.19,18.15h-3.87l-1.45-4.6h-6.67l-1.43,4.6h-3.8L923,606.94Zm-2.35,2.75h-.18c-.7,2.58-1.55,5.1-2.35,7.7h4.83C927.06,614.79,926.16,612.27,925.54,609.69Z" style="fill:#1d1d1b"/><path d="M943.74,609.82c-1.18.12-2.65.17-3.83.17h-4.62v-3H948v3.13l-8.77,12.07a27.23,27.23,0,0,1,3.72-.15h5.45v3.1H934.89v-3.25Z" style="fill:#1d1d1b"/><path d="M949.51,616c0-5.53,3.35-9.45,8.5-9.45s8.47,3.75,8.47,9.45-3.42,9.45-8.49,9.45C952.76,625.47,949.51,621.72,949.51,616Zm13.17,0c0-4-1.69-6.5-4.67-6.5s-4.7,2.57-4.7,6.5,1.78,6.5,4.68,6.5S962.68,619.77,962.68,616Z" style="fill:#1d1d1b"/><path d="M974.31,606.94l4.23,9.08c.77,1.7,1.54,3.57,2.17,5.27h.22c-.07-1.7-.14-3.65-.14-5.35l-.06-9h3.48v18.15h-5.3L974.74,616a47.66,47.66,0,0,1-2.18-5.4h-.22c.07,1.7.17,3.77.2,5.47l.07,9h-3.47V606.94Z" style="fill:#1d1d1b"/><path d="M1150.89,606.94h4.67c1,2.15,1.88,3.83,3.08,6.35h.15c1.15-2.55,2-4.27,3.17-6.35h4.23l-4.9,8.95,5.25,9.2h-4.65c-1.13-2.3-2.33-4.47-3.33-6.87h-.17c-1,2.4-2.33,4.6-3.43,6.87h-4.42l5.25-9.3Z" style="fill:#1d1d1b"/><path d="M1171.89,606.94v18.15h-3.68V606.94Z" style="fill:#1d1d1b"/><path d="M1184.76,606.94l6.2,18.15h-3.88l-1.44-4.6H1179l-1.42,4.6h-3.8l6.15-18.15Zm-2.35,2.75h-.17c-.7,2.58-1.55,5.1-2.35,7.7h4.82C1183.94,614.79,1183,612.27,1182.41,609.69Z" style="fill:#1d1d1b"/><path d="M1191.36,616c0-5.53,3.35-9.45,8.5-9.45s8.47,3.75,8.47,9.45-3.42,9.45-8.49,9.45C1194.61,625.47,1191.36,621.72,1191.36,616Zm13.18,0c0-4-1.7-6.5-4.68-6.5s-4.7,2.57-4.7,6.5,1.78,6.5,4.68,6.5S1204.54,619.77,1204.54,616Z" style="fill:#1d1d1b"/><path d="M1216.84,606.94l2.8,9c.47,1.6.92,3.5,1.4,5.1h.2c.37-1.6.82-3.5,1.3-5.1l2.62-9H1231v18.15h-3.58v-8.62c0-1.8.08-4.33.15-6.13h-.2l-1.67,5.65-2.7,9.1h-4.22L1216,616c-.58-1.82-1.13-3.82-1.65-5.65h-.2c.07,1.8.2,4.33.2,6.13v8.62H1211V606.94Z" style="fill:#1d1d1b"/><path d="M1238.19,606.94v18.15h-3.68V606.94Z" style="fill:#1d1d1b"/><path d="M1391.09,606.94v15h8.32v3.1h-12.05V606.94Z" style="fill:#1d1d1b"/><path d="M1405.09,606.94v18.15h-3.68V606.94Z" style="fill:#1d1d1b"/><path d="M1413.76,606.94,1418,616c.77,1.7,1.55,3.57,2.17,5.27h.23c-.08-1.7-.15-3.65-.15-5.35l0-9h3.47v18.15h-5.3l-4.17-9.07a47.66,47.66,0,0,1-2.18-5.4h-.22c.07,1.7.17,3.77.2,5.47l.07,9h-3.47V606.94Z" style="fill:#1d1d1b"/><path d="M1439.26,606.94V610h-8.37v4.32h7.8v3.08h-7.8V622h8.67v3.1h-12.4V606.94Z" style="fill:#1d1d1b"/><path d="M1451.64,606.94l6.19,18.15H1454l-1.45-4.6h-6.67l-1.43,4.6h-3.8l6.15-18.15Zm-2.35,2.75h-.18c-.7,2.58-1.55,5.1-2.35,7.7h4.83C1450.81,614.79,1449.91,612.27,1449.29,609.69Z" style="fill:#1d1d1b"/><path d="M1458.24,616.09c0-5.4,3.4-9.52,8.47-9.52,4.13,0,7.2,2.42,7.52,5.87h-3.74a3.78,3.78,0,0,0-3.83-2.92c-2.85,0-4.62,2.62-4.62,6.67,0,3.88,1.72,6.3,4.45,6.3a3.91,3.91,0,0,0,4.15-4v-.4H1467v-3h7.17v10.05H1471V623a6,6,0,0,1-5,2.42C1461.19,625.44,1458.24,622,1458.24,616.09Z" style="fill:#1d1d1b"/><path d="M1489.26,606.94V610h-8.37v4.32h7.79v3.08h-7.79V622h8.67v3.1h-12.4V606.94Z" style="fill:#1d1d1b"/><path d="M1491.16,616c0-5.53,3.35-9.45,8.5-9.45s8.47,3.75,8.47,9.45-3.42,9.45-8.49,9.45C1494.41,625.47,1491.16,621.72,1491.16,616Zm13.17,0c0-4-1.7-6.5-4.67-6.5s-4.7,2.57-4.7,6.5,1.78,6.5,4.68,6.5S1504.33,619.77,1504.33,616Z" style="fill:#1d1d1b"/><path d="M1509.79,618.94h3.9a3.31,3.31,0,0,0,3.55,3.58c1.87,0,3-.85,3-2.23,0-1.22-.8-1.77-3.13-2.5l-3-.87c-2.6-.78-4.08-2.6-4.08-5,0-3.2,2.8-5.37,6.88-5.37s6.57,2.35,6.69,6h-3.85a3,3,0,0,0-3.09-3.13c-1.6,0-2.75.88-2.75,2.08s.62,1.6,2.92,2.25l2.58.75c3.19.92,4.72,2.47,4.72,5.07,0,3.48-2.8,5.83-7,5.83C1512.69,625.47,1509.79,623,1509.79,618.94Z" style="fill:#1d1d1b"/><path d="M1530.91,616.27c0-5.8,3.63-9.7,8.3-9.7,4.27,0,7.25,2.55,7.45,6.6h-3.83a3.62,3.62,0,0,0-3.67-3.65c-2.67,0-4.47,2.75-4.47,6.55s1.77,6.45,4.45,6.45c2.27,0,3.54-1.5,3.77-3.8h3.87c-.4,3.82-2.92,6.75-7.64,6.75C1534.24,625.47,1530.91,622.09,1530.91,616.27Z" style="fill:#1d1d1b"/><path d="M1548.24,616c0-5.53,3.35-9.45,8.49-9.45s8.48,3.75,8.48,9.45-3.43,9.45-8.5,9.45C1551.49,625.47,1548.24,621.72,1548.24,616Zm13.17,0c0-4-1.7-6.5-4.68-6.5s-4.69,2.57-4.69,6.5,1.77,6.5,4.67,6.5S1561.41,619.77,1561.41,616Z" style="fill:#1d1d1b"/><path d="M1573.71,606.94l2.8,9c.47,1.6.92,3.5,1.4,5.1h.2c.37-1.6.82-3.5,1.3-5.1l2.62-9h5.85v18.15h-3.57v-8.62c0-1.8.07-4.33.15-6.13h-.2l-1.68,5.65-2.7,9.1h-4.22l-2.75-9.1c-.57-1.82-1.12-3.82-1.65-5.65h-.2c.08,1.8.2,4.33.2,6.13v8.62h-3.4V606.94Z" style="fill:#1d1d1b"/><path d="M1597.24,606.94l2.79,9c.48,1.6.93,3.5,1.4,5.1h.2c.38-1.6.83-3.5,1.3-5.1l2.63-9h5.85v18.15h-3.58v-8.62c0-1.8.08-4.33.15-6.13h-.2l-1.67,5.65-2.7,9.1h-4.23l-2.75-9.1c-.57-1.82-1.12-3.82-1.64-5.65h-.2c.07,1.8.2,4.33.2,6.13v8.62h-3.4V606.94Z" style="fill:#1d1d1b"/><path d="M1616,622.92c-.92-1.4-1.22-2.85-1.22-5.93v-10h3.72v10.75a5.78,5.78,0,0,0,.78,3.48,3.3,3.3,0,0,0,2.67,1.32,3.2,3.2,0,0,0,2.8-1.55,6.41,6.41,0,0,0,.62-3.25V606.94h3.73v10c0,3-.23,4.3-1.15,5.7a6.79,6.79,0,0,1-6,2.78C1619.19,625.47,1617.24,624.81,1616,622.92Z" style="fill:#1d1d1b"/><path d="M1637.58,606.94l4.23,9.08c.77,1.7,1.55,3.57,2.17,5.27h.23c-.08-1.7-.15-3.65-.15-5.35l0-9h3.47v18.15h-5.3L1638,616a49.31,49.31,0,0,1-2.17-5.4h-.23c.08,1.7.18,3.77.2,5.47l.08,9h-3.48V606.94Z" style="fill:#1d1d1b"/><path d="M1654.66,606.94v18.15H1651V606.94Z" style="fill:#1d1d1b"/><path d="M1656.66,610v-3.08H1671V610h-5.3v15.07H1662V610Z" style="fill:#1d1d1b"/><path d="M1671.21,606.94h4.28c1.17,2.63,2.32,5.23,3.42,7.85h.22c1.08-2.62,2.43-5.22,3.6-7.85h4l-5.87,11v7.15h-3.73v-7.15Z" style="fill:#1d1d1b"/><path d="M1720.77,551h-6v-6.17h6Zm9.8,0h-6v-6.17h6Zm9.8,0h-5.95v-6.17h5.95Z" style="fill:#1d1d1b"/></svg>