<svg xmlns="http://www.w3.org/2000/svg" xmlns:xlink="http://www.w3.org/1999/xlink" viewBox="0 0 1080 1600"><defs><clipPath id="a"><rect x="266" y="95.29" width="530.3" height="1385.71" style="fill:none"/></clipPath></defs><title>dia1_mobile</title><rect width="1080" height="1600" style="fill:#fffccd"/><g style="clip-path:url(#a)"><path d="M299.33,99.45s-29.17,0-29.17,29.17v96.79s0,29.17,29.17,29.17H763s29.16,0,29.16-29.17V128.62s0-29.17-29.16-29.17Z" style="fill:#c9ffe0"/><path d="M299.33,99.45s-29.17,0-29.17,29.17v96.79s0,29.17,29.17,29.17H763s29.16,0,29.16-29.17V128.62s0-29.17-29.16-29.17Z" style="fill:none;stroke:#1d1d1b;stroke-width:8.319999694824219px"/><path d="M297,97.11s-29.17,0-29.17,29.17v96.79s0,29.17,29.17,29.17H765.31s29.17,0,29.17-29.17V126.28s0-29.17-29.17-29.17Z" style="fill:#fffbcc"/><path d="M297,97.11s-29.17,0-29.17,29.17v96.79s0,29.17,29.17,29.17H765.31s29.17,0,29.17-29.17V126.28s0-29.17-29.17-29.17Z" style="fill:none;stroke:#1d1d1b;stroke-width:3.6459999084472656px"/></g><path d="M345.64,161.37h-5.87l-3-8.57H324.11l-2.93,8.57h-5.73l11.68-31.76h6.74Zm-15-27.21h-.26c-.92,3-1.8,6.08-2.89,9.05l-1.84,5h9.63l-1.75-5C332.51,140.24,331.46,137.13,330.63,134.16Z" style="fill:#1d1d1b"/><path d="M360.73,138.36c3.32,0,5.16,1.18,6.34,3.1,1.05,1.75,1.36,4.16,1.36,7v13h-5.25v-12.6c0-3.37-.48-6.39-4.11-6.39-3.33,0-5.12,2.19-5.12,7.57v11.42H348.7V138.8h4.86v2.93A8.71,8.71,0,0,1,360.73,138.36Z" style="fill:#1d1d1b"/><path d="M382.34,138.36c2.76,0,5.08.87,6.61,3V129.61h5.25v31.76h-4.95v-3a8.3,8.3,0,0,1-6.91,3.46c-5.77,0-9.54-4.29-9.54-11.77C372.8,142.91,376.57,138.36,382.34,138.36Zm1.23,19.38c3.32,0,5.46-2.84,5.46-7.7s-2-7.66-5.38-7.66-5.42,2.93-5.42,7.66S380.24,157.74,383.57,157.74Z" style="fill:#1d1d1b"/><path d="M405.18,142.17a6.62,6.62,0,0,1,6-3.59,11.59,11.59,0,0,1,2.49.22v4.55a10.41,10.41,0,0,0-2.27-.22c-4.33,0-5.91,2.89-5.91,8.35v9.89h-5.25V138.8h4.95Z" style="fill:#1d1d1b"/><path d="M437.94,150.08c0,7.13-4.37,11.9-11.33,11.9s-11.2-4.77-11.2-11.9,4.38-11.9,11.25-11.9S437.94,143,437.94,150.08Zm-17.06,0c0,4.77,2.06,7.88,5.73,7.88s5.87-3,5.87-7.88-2.15-7.87-5.82-7.87S420.88,145.23,420.88,150.08Z" style="fill:#1d1d1b"/><path d="M447.79,134.9h-5.25v-5.29h5.25Zm0,26.47h-5.25V138.8h5.25Z" style="fill:#1d1d1b"/><path d="M462,138.36c2.76,0,5.08.87,6.61,3V129.61h5.25v31.76h-4.95v-3a8.3,8.3,0,0,1-6.91,3.46c-5.77,0-9.53-4.29-9.53-11.77C452.43,142.91,456.19,138.36,462,138.36Zm1.23,19.38c3.32,0,5.47-2.84,5.47-7.7s-2.06-7.66-5.39-7.66-5.42,2.93-5.42,7.66S459.86,157.74,463.19,157.74Z" style="fill:#1d1d1b"/><path d="M516.87,145.49c0,9.89-5.91,16.54-14.79,16.54s-14.7-6.65-14.7-16.54c0-9.67,5.82-16.54,14.74-16.54S516.87,135.65,516.87,145.49Zm-23.8,0c0,7.22,3.54,12.12,9,12.12s9.1-5.16,9.1-12.12c0-7.22-3.46-12.12-9.06-12.12S493.07,138.32,493.07,145.49Z" style="fill:#1d1d1b"/><path d="M533.36,161.81c-2.76,0-5.21-.92-6.61-3v11.37H521.5V138.8h4.9v3a8.36,8.36,0,0,1,7.05-3.46c5.77,0,9.4,4.59,9.4,11.72C542.85,157.52,539,161.81,533.36,161.81Zm-1.27-19.38c-3.32,0-5.47,2.93-5.47,7.65s2.06,7.7,5.38,7.7,5.47-2.93,5.47-7.7S535.42,142.43,532.09,142.43Z" style="fill:#1d1d1b"/><path d="M557.11,138.18c4.2,0,7,1.84,8.62,4.64,1.36,2.41,1.8,5.3,1.8,8.8H551.47c.13,3.84,2,6.51,5.69,6.51a4.6,4.6,0,0,0,4.77-3.5h5.55c-1.22,5-4.9,7.35-10.37,7.35-7.3,0-11.06-4.59-11.06-12C546.05,143.21,550.29,138.18,557.11,138.18Zm-.26,3.81c-2.93,0-5.16,1.93-5.47,5.77h10.81C561.88,143.92,559.7,142,556.85,142Z" style="fill:#1d1d1b"/><path d="M584.19,138.36c3.33,0,5.17,1.18,6.35,3.1,1.05,1.75,1.35,4.16,1.35,7v13h-5.25v-12.6c0-3.37-.48-6.39-4.11-6.39-3.32,0-5.12,2.19-5.12,7.57v11.42h-5.25V138.8H577v2.93A8.73,8.73,0,0,1,584.19,138.36Z" style="fill:#1d1d1b"/><path d="M617.49,157.61c3.8,0,6.12-1.75,6.12-4.55,0-3.28-3.41-4.33-7.26-5.51-5-1.53-10.85-3.07-10.85-9.5,0-5.42,4.64-9.1,11.68-9.1s11.37,3.94,11.51,10.37H623a5.81,5.81,0,0,0-6.12-6c-3,0-5.6,1.57-5.6,4.24,0,3,2.93,4.25,8.35,5.73,5.08,1.4,9.8,3.5,9.8,9.06,0,5.77-4.85,9.67-12,9.67-7.75,0-12.56-4.16-12.56-11.29h5.73C610.66,155.11,613.16,157.61,617.49,157.61Z" style="fill:#1d1d1b"/><path d="M655.07,150.08c0,7.13-4.38,11.9-11.34,11.9s-11.19-4.77-11.19-11.9,4.37-11.9,11.24-11.9S655.07,143,655.07,150.08Zm-17.07,0c0,4.77,2.06,7.88,5.73,7.88s5.87-3,5.87-7.88-2.15-7.87-5.82-7.87S638,145.23,638,150.08Z" style="fill:#1d1d1b"/><path d="M667.1,161.81a7.36,7.36,0,0,1-6.39-3.06c-1.09-1.54-1.31-3.85-1.31-7.13V138.8h5.2v12.64c0,3.32.48,6.39,4.16,6.39a4.33,4.33,0,0,0,3.72-1.75c.87-1.18,1.4-3,1.4-5.82V138.8h5.25v22.57h-4.9v-2.93A8.6,8.6,0,0,1,667.1,161.81Z" style="fill:#1d1d1b"/><path d="M690.11,142.17a6.62,6.62,0,0,1,6-3.59,11.65,11.65,0,0,1,2.49.22v4.55a10.41,10.41,0,0,0-2.27-.22c-4.33,0-5.91,2.89-5.91,8.35v9.89h-5.25V138.8h5Z" style="fill:#1d1d1b"/><path d="M711.19,162c-6.73,0-10.8-4.77-10.8-11.95s4.11-11.94,10.8-11.94c6,0,9.63,3.37,9.93,8.49H715.7c-.35-2.85-1.92-4.42-4.55-4.42-3.37,0-5.34,3.06-5.34,7.79s2.06,8,5.34,8c2.63,0,4.29-1.62,4.68-4.55h5.34C720.78,158.83,717.1,162,711.19,162Z" style="fill:#1d1d1b"/><path d="M735,138.18c4.2,0,7,1.84,8.62,4.64,1.35,2.41,1.79,5.3,1.79,8.8H729.39c.14,3.84,2,6.51,5.69,6.51a4.59,4.59,0,0,0,4.77-3.5h5.56c-1.23,5-4.9,7.35-10.37,7.35-7.31,0-11.07-4.59-11.07-12C724,143.21,728.21,138.18,735,138.18Zm-.27,3.81c-2.93,0-5.16,1.93-5.46,5.77h10.8C739.81,143.92,737.62,142,734.77,142Z" style="fill:#1d1d1b"/><path d="M406.36,183.6c3,1.61,4.51,4.76,4.51,8.61a9.31,9.31,0,0,1-4.47,8.4c-1.88,1.1-4.46,1.58-8.48,1.58h-4.55v11.68h-5.52V182.11h10.2C401.15,182.11,404,182.33,406.36,183.6Zm-3.81,13.29a5.27,5.27,0,0,0,2.58-4.94,5,5,0,0,0-2.71-4.68,11.17,11.17,0,0,0-4.59-.66h-4.46v11.07h4.42A10.62,10.62,0,0,0,402.55,196.89Z" style="fill:#1d1d1b"/><path d="M419.62,194.66a6.63,6.63,0,0,1,6-3.58,12.32,12.32,0,0,1,2.49.21v4.55a11,11,0,0,0-2.27-.21c-4.33,0-5.91,2.88-5.91,8.35v9.89h-5.25V191.29h4.95Z" style="fill:#1d1d1b"/><path d="M452.38,202.58c0,7.13-4.37,11.9-11.33,11.9s-11.2-4.77-11.2-11.9,4.38-11.9,11.25-11.9S452.38,195.45,452.38,202.58Zm-17.06,0c0,4.77,2.06,7.88,5.73,7.88s5.86-3,5.86-7.88-2.14-7.87-5.81-7.87S435.32,197.73,435.32,202.58Z" style="fill:#1d1d1b"/><path d="M454.4,218.68c2.4,0,2.58-1.88,2.58-4.51V191.29h5.25v22.36c0,5.82-.48,9.19-6.13,9.19a19.82,19.82,0,0,1-3.24-.27v-4.06A7.2,7.2,0,0,0,454.4,218.68Zm7.83-31.28H457v-5.29h5.25Z" style="fill:#1d1d1b"/><path d="M477.89,190.68c4.2,0,7,1.84,8.62,4.64,1.35,2.41,1.79,5.29,1.79,8.79H472.24c.14,3.85,2,6.52,5.69,6.52a4.59,4.59,0,0,0,4.77-3.5h5.56c-1.23,5-4.9,7.35-10.37,7.35-7.31,0-11.07-4.59-11.07-12C466.82,195.71,471.06,190.68,477.89,190.68Zm-.26,3.81c-2.94,0-5.17,1.92-5.47,5.77H483C482.66,196.41,480.47,194.49,477.63,194.49Z" style="fill:#1d1d1b"/><path d="M502.34,214.53c-6.73,0-10.8-4.77-10.8-11.95s4.11-11.94,10.8-11.94c6,0,9.63,3.37,9.93,8.49h-5.42c-.35-2.85-1.93-4.42-4.55-4.42-3.37,0-5.34,3.06-5.34,7.78s2.06,8,5.34,8c2.62,0,4.29-1.62,4.68-4.55h5.34C511.92,211.33,508.25,214.53,502.34,214.53Z" style="fill:#1d1d1b"/><path d="M523,185.7v5.59h4.46v4H523V206c0,2.8.61,4.07,2.71,4.07a7.37,7.37,0,0,0,1.8-.18v4a12.93,12.93,0,0,1-3.37.39c-4.51,0-6.39-2.14-6.39-7.26V195.32h-3.63v-4h3.63V185.7Z" style="fill:#1d1d1b"/><path d="M538.92,199.61q0-8.34,5.07-18.38h3.63c-2.45,6.7-3.93,12.12-3.93,18.47a54,54,0,0,0,3.93,19.07H544C540.1,211.07,538.92,205.38,538.92,199.61Z" style="fill:#1d1d1b"/><path d="M579.08,213.87h-5.87l-3-8.58H557.55l-2.93,8.58h-5.73l11.68-31.76h6.74Zm-15-27.21h-.26c-.92,3-1.79,6.08-2.89,9.05l-1.84,5h9.63l-1.75-5C566,192.74,564.9,189.63,564.07,186.66Z" style="fill:#1d1d1b"/><path d="M609.53,198c0,9.89-5.91,16.54-14.79,16.54S580,207.88,580,198c0-9.67,5.82-16.54,14.74-16.54S609.53,188.15,609.53,198Zm-23.8,0c0,7.22,3.54,12.12,9,12.12s9.1-5.17,9.1-12.12c0-7.22-3.46-12.12-9.06-12.12S585.73,190.81,585.73,198Z" style="fill:#1d1d1b"/><path d="M625.41,210.11c3.8,0,6.12-1.75,6.12-4.55,0-3.28-3.41-4.33-7.26-5.52-5-1.53-10.85-3.06-10.85-9.49,0-5.42,4.64-9.1,11.68-9.1s11.37,3.94,11.51,10.37H631a5.81,5.81,0,0,0-6.12-6c-3,0-5.6,1.57-5.6,4.24,0,3,2.93,4.24,8.35,5.73,5.08,1.4,9.8,3.5,9.8,9.06,0,5.77-4.85,9.67-12,9.67-7.75,0-12.56-4.16-12.56-11.29h5.73C618.58,207.61,621.08,210.11,625.41,210.11Z" style="fill:#1d1d1b"/><path d="M660.8,183.6c3,1.61,4.5,4.76,4.5,8.61a9.3,9.3,0,0,1-4.46,8.4c-1.88,1.1-4.46,1.58-8.49,1.58h-4.54v11.68h-5.52V182.11h10.2C655.59,182.11,658.48,182.33,660.8,183.6ZM657,196.89a5.27,5.27,0,0,0,2.58-4.94,5,5,0,0,0-2.71-4.68,11.17,11.17,0,0,0-4.59-.66h-4.46v11.07h4.41A10.64,10.64,0,0,0,657,196.89Z" style="fill:#1d1d1b"/><path d="M671.43,200.13a52.15,52.15,0,0,0-3.94-18.9h3.63c3.59,7.44,5.08,13.22,5.08,19s-1.4,11.59-5.08,18.55h-3.63C669.9,212.42,671.43,206.39,671.43,200.13Z" style="fill:#1d1d1b"/><g style="clip-path:url(#a)"><path d="M322.36,253.78s-10,0-10,10v40s0,10,10,10H427.75s10,0,10-10v-40s0-10-10-10Z" style="fill:#1d1d1b"/></g><path d="M341.18,270.81c0-5.53,3.35-9.45,8.5-9.45s8.47,3.75,8.47,9.45-3.42,9.44-8.49,9.44C344.43,280.25,341.18,276.51,341.18,270.81Zm13.18,0c0-4-1.7-6.5-4.68-6.5s-4.7,2.57-4.7,6.5,1.78,6.5,4.68,6.5S354.36,274.56,354.36,270.81Z" style="fill:#fffbcc"/><path d="M366.91,261.73a9.49,9.49,0,0,1,4.67.9,5.49,5.49,0,0,1,2.67,5.1,5.41,5.41,0,0,1-2.59,4.93c-1.1.67-2.4.9-4.78.9h-2.35v6.32h-3.72V261.73Zm2.25,8.33a2.81,2.81,0,0,0,1.27-2.6,2.42,2.42,0,0,0-1.42-2.33,5.58,5.58,0,0,0-2.4-.37h-2.08v5.8h2A5.14,5.14,0,0,0,369.16,270.06Z" style="fill:#fffbcc"/><path d="M388.58,261.73v3.08h-8.37v4.32H388v3.08h-7.8v4.57h8.67v3.1h-12.4V261.73Z" style="fill:#fffbcc"/><path d="M396.76,261.73l4.22,9.08c.77,1.7,1.55,3.57,2.17,5.27h.23c-.08-1.7-.15-3.65-.15-5.35l-.05-9h3.47v18.15h-5.3l-4.17-9.07a49.31,49.31,0,0,1-2.17-5.4h-.23c.08,1.7.18,3.77.2,5.47l.08,9h-3.48V261.73Z" style="fill:#fffbcc"/><path d="M325,298.73h3.9a3.31,3.31,0,0,0,3.55,3.58c1.87,0,3-.85,3-2.23,0-1.22-.8-1.77-3.13-2.5l-3-.87c-2.6-.78-4.08-2.6-4.08-5,0-3.2,2.8-5.37,6.88-5.37s6.57,2.35,6.69,6.05H335a3,3,0,0,0-3.1-3.13c-1.6,0-2.75.88-2.75,2.08s.62,1.6,2.92,2.25l2.58.75c3.19.92,4.72,2.47,4.72,5.07,0,3.48-2.8,5.82-7,5.82C327.86,305.25,325,302.76,325,298.73Z" style="fill:#fffbcc"/><path d="M341.08,295.81c0-5.53,3.35-9.45,8.5-9.45s8.47,3.75,8.47,9.45-3.42,9.44-8.49,9.44C344.33,305.25,341.08,301.51,341.08,295.81Zm13.17,0c0-4-1.69-6.5-4.67-6.5s-4.7,2.57-4.7,6.5,1.78,6.5,4.68,6.5S354.25,299.56,354.25,295.81Z" style="fill:#fffbcc"/><path d="M361.76,302.71c-.93-1.4-1.23-2.85-1.23-5.93v-10h3.73v10.75A5.86,5.86,0,0,0,365,301a3.32,3.32,0,0,0,2.68,1.32,3.2,3.2,0,0,0,2.8-1.55,6.41,6.41,0,0,0,.62-3.25V286.73h3.72v10c0,3-.22,4.3-1.15,5.7q-1.9,2.77-6,2.77C365,305.25,363,304.61,361.76,302.71Z" style="fill:#fffbcc"/><path d="M383.78,286.73a10.18,10.18,0,0,1,5,.95,4.32,4.32,0,0,1,2.12,4.05c0,2.3-1.25,3.95-3.92,4.53v.15c2.12.27,2.74,2,3.54,4.25l1.55,4.22h-3.94l-1.48-4.07c-.8-2.3-1.42-2.95-3.67-2.95h-1.08v7h-3.72V286.73Zm2.4,7.53a2.5,2.5,0,0,0,.93-2.08,2.17,2.17,0,0,0-.9-1.9,4.34,4.34,0,0,0-2.53-.52h-1.75v5.1h1.63A4.29,4.29,0,0,0,386.18,294.26Z" style="fill:#fffbcc"/><path d="M393,296.06c0-5.8,3.63-9.7,8.3-9.7,4.27,0,7.25,2.55,7.45,6.6H404.9a3.62,3.62,0,0,0-3.67-3.65c-2.67,0-4.47,2.75-4.47,6.55s1.77,6.45,4.45,6.45c2.27,0,3.54-1.5,3.77-3.8h3.87c-.4,3.82-2.92,6.74-7.64,6.74C396.31,305.25,393,301.88,393,296.06Z" style="fill:#fffbcc"/><path d="M423.25,286.73v3.08h-8.37v4.32h7.8v3.08h-7.8v4.57h8.67v3.1H411.16V286.73Z" style="fill:#fffbcc"/><g style="clip-path:url(#a)"><path d="M438.6,462.07s-29.17,0-29.17,29.17v40.1s0,29.17,29.17,29.17H630.12s29.17,0,29.17-29.17v-40.1s0-29.17-29.17-29.17Z" style="fill:#c9ffe0"/><path d="M438.6,462.07s-29.17,0-29.17,29.17v40.1s0,29.17,29.17,29.17H630.12s29.17,0,29.17-29.17v-40.1s0-29.17-29.17-29.17Z" style="fill:none;stroke:#1d1d1b;stroke-width:8.319999694824219px"/><path d="M436.26,459.74s-29.17,0-29.17,29.16V529s0,29.17,29.17,29.17h196.2s29.16,0,29.16-29.17V488.9s0-29.16-29.16-29.16Z" style="fill:#fffbcc"/><path d="M436.26,459.74s-29.17,0-29.17,29.16V529s0,29.17,29.17,29.17h196.2s29.16,0,29.16-29.17V488.9s0-29.16-29.16-29.16Z" style="fill:none;stroke:#1d1d1b;stroke-width:3.6459999084472656px"/></g><path d="M480.71,524h-5.86l-3-8.57H459.18L456.25,524h-5.73l11.68-31.76h6.74Zm-15-27.21h-.26c-.92,3-1.79,6.08-2.89,9.06l-1.83,5h9.62l-1.75-5C467.58,502.86,466.53,499.76,465.7,496.78Z" style="fill:#1d1d1b"/><path d="M495.8,501c3.33,0,5.16,1.18,6.34,3.11,1.05,1.75,1.36,4.15,1.36,7V524h-5.25v-12.6c0-3.36-.48-6.38-4.11-6.38-3.33,0-5.12,2.18-5.12,7.57V524h-5.25V501.42h4.86v2.93A8.75,8.75,0,0,1,495.8,501Z" style="fill:#1d1d1b"/><path d="M517.41,501a7.62,7.62,0,0,1,6.61,3V492.23h5.25V524h-4.95v-3a8.27,8.27,0,0,1-6.91,3.46c-5.77,0-9.53-4.29-9.53-11.77C507.88,505.53,511.64,501,517.41,501Zm1.23,19.38c3.32,0,5.47-2.84,5.47-7.7s-2.06-7.65-5.38-7.65-5.43,2.93-5.43,7.65S515.31,520.36,518.64,520.36Z" style="fill:#1d1d1b"/><path d="M540.25,504.79a6.62,6.62,0,0,1,6-3.59,11.74,11.74,0,0,1,2.5.22V506a10.56,10.56,0,0,0-2.28-.22c-4.33,0-5.9,2.89-5.9,8.36V524h-5.25V501.42h4.94Z" style="fill:#1d1d1b"/><path d="M573,512.71c0,7.13-4.38,11.9-11.33,11.9s-11.2-4.77-11.2-11.9,4.37-11.9,11.24-11.9S573,505.58,573,512.71Zm-17.07,0c0,4.76,2.06,7.87,5.74,7.87s5.86-3,5.86-7.87-2.15-7.88-5.82-7.88S556,507.85,556,512.71Z" style="fill:#1d1d1b"/><path d="M582.86,497.53h-5.25v-5.3h5.25Zm0,26.46h-5.25V501.42h5.25Z" style="fill:#1d1d1b"/><path d="M597,501a7.62,7.62,0,0,1,6.61,3V492.23h5.25V524H604v-3a8.3,8.3,0,0,1-6.92,3.46c-5.77,0-9.53-4.29-9.53-11.77C587.5,505.53,591.26,501,597,501Zm1.23,19.38c3.32,0,5.47-2.84,5.47-7.7s-2.06-7.65-5.38-7.65-5.43,2.93-5.43,7.65S594.93,520.36,598.26,520.36Z" style="fill:#1d1d1b"/><g style="clip-path:url(#a)"><path d="M393.6,611.35s-29.17,0-29.17,29.16v40.11s0,29.16,29.17,29.16H675.12s29.17,0,29.17-29.16V640.51s0-29.16-29.17-29.16Z" style="fill:#c9ffe0"/><path d="M393.6,611.35s-29.17,0-29.17,29.16v40.11s0,29.16,29.17,29.16H675.12s29.17,0,29.17-29.16V640.51s0-29.16-29.17-29.16Z" style="fill:none;stroke:#1d1d1b;stroke-width:8.319999694824219px"/><path d="M391.26,609s-29.17,0-29.17,29.17v40.1s0,29.16,29.17,29.16h286.2s29.16,0,29.16-29.16v-40.1s0-29.17-29.16-29.17Z" style="fill:#fffbcc"/><path d="M391.26,609s-29.17,0-29.17,29.17v40.1s0,29.16,29.17,29.16h286.2s29.16,0,29.16-29.16v-40.1s0-29.17-29.16-29.17Z" style="fill:none;stroke:#1d1d1b;stroke-width:3.6459999084472656px"/></g><path d="M414.36,654.54h14.57v-13h5.51v31.76h-5.51V659.14H414.36v14.13h-5.51V641.51h5.51Z" style="fill:#1d1d1b"/><path d="M454.74,670.34c-1.88,2.27-4,3.37-7.57,3.37-5,0-7.83-2.5-7.83-6.7,0-7.22,9.06-7.26,14.79-8v-1c0-2.8-1.32-4.29-4.12-4.29s-4.41,1.36-4.46,3.81h-5.38c.18-4.73,3.94-7.53,9.84-7.53,7.18,0,9.23,3.72,9.23,9.8v6.3a42,42,0,0,0,.49,7.09H455A25.52,25.52,0,0,1,454.74,670.34Zm-10-3.42c0,1.93,1.32,3.15,3.77,3.15,3.28,0,5.6-1.57,5.6-6.47v-1C450.19,663.21,444.76,663.07,444.76,666.92Z" style="fill:#1d1d1b"/><path d="M469.88,654.06a6.64,6.64,0,0,1,6-3.59,12.33,12.33,0,0,1,2.49.22v4.55a11.07,11.07,0,0,0-2.27-.22c-4.33,0-5.91,2.89-5.91,8.36v9.89h-5.25V650.69h4.95Z" style="fill:#1d1d1b"/><path d="M486.63,653.71a8.11,8.11,0,0,1,7-3.45c3,0,5.16,1,6.38,3.8,1.62-2.75,4.42-3.8,7.7-3.8,2.41,0,4.2.65,5.38,2,1.36,1.57,1.93,3.89,1.93,6.87v14.13h-5.25V660c0-3-.7-5.73-3.81-5.73-3.76,0-4.81,3.59-4.81,7.88v11.11h-5.25V660c0-3-.79-5.73-3.89-5.73-3.72,0-4.77,3.59-4.77,7.88v11.11H482V650.69h4.72Z" style="fill:#1d1d1b"/><path d="M541.84,662c0,7.13-4.37,11.9-11.33,11.9s-11.2-4.77-11.2-11.9,4.38-11.9,11.24-11.9S541.84,654.85,541.84,662Zm-17.06,0c0,4.77,2.05,7.88,5.73,7.88s5.86-3,5.86-7.88-2.14-7.87-5.82-7.87S524.78,657.12,524.78,662Z" style="fill:#1d1d1b"/><path d="M558.46,650.26c3.33,0,5.17,1.18,6.35,3.1,1.05,1.75,1.35,4.16,1.35,7v12.95h-5.24v-12.6c0-3.37-.49-6.39-4.12-6.39-3.32,0-5.12,2.19-5.12,7.57v11.42h-5.25V650.69h4.86v2.93A8.74,8.74,0,0,1,558.46,650.26Z" style="fill:#1d1d1b"/><path d="M572.68,678.08c2.5,0,4-1.44,4.38-4.59l-8.14-22.8h5.86L578.11,662c.65,2.23,1.09,4.38,1.75,6.61h.26c.57-2.15,1.09-4.47,1.75-6.61l3.54-11.29h5.47l-7.87,22c-2.45,7-4.77,9.59-9.23,9.59a13.09,13.09,0,0,1-3.37-.27v-4.24A6.05,6.05,0,0,0,572.68,678.08Z" style="fill:#1d1d1b"/><path d="M622.51,657.39c0,9.88-5.9,16.53-14.78,16.53S593,667.27,593,657.39c0-9.67,5.81-16.54,14.74-16.54S622.51,647.54,622.51,657.39Zm-23.8,0c0,7.22,3.55,12.11,9,12.11s9.09-5.16,9.09-12.11c0-7.22-3.45-12.12-9.05-12.12S598.71,650.21,598.71,657.39Z" style="fill:#1d1d1b"/><path d="M638.39,669.5c3.81,0,6.13-1.75,6.13-4.54,0-3.29-3.42-4.34-7.26-5.52-5-1.53-10.85-3.06-10.85-9.49,0-5.42,4.63-9.1,11.68-9.1s11.37,3.94,11.5,10.37H644a5.83,5.83,0,0,0-6.13-6c-3,0-5.6,1.58-5.6,4.25,0,3,2.94,4.24,8.36,5.73,5.07,1.4,9.8,3.5,9.8,9.06,0,5.77-4.86,9.66-12,9.66-7.74,0-12.55-4.15-12.55-11.28h5.73C631.57,667,634.06,669.5,638.39,669.5Z" style="fill:#1d1d1b"/><g style="clip-path:url(#a)"><path d="M450.29,760.62s-29.17,0-29.17,29.17v40.1s0,29.16,29.17,29.16H618.43s29.16,0,29.16-29.16v-40.1s0-29.17-29.16-29.17Z" style="fill:#c9ffe0"/><path d="M450.29,760.62s-29.17,0-29.17,29.17v40.1s0,29.16,29.17,29.16H618.43s29.16,0,29.16-29.16v-40.1s0-29.17-29.16-29.17Z" style="fill:none;stroke:#1d1d1b;stroke-width:8.319999694824219px"/><path d="M448,758.28s-29.16,0-29.16,29.17v40.1s0,29.17,29.16,29.17H620.77s29.16,0,29.16-29.17v-40.1s0-29.17-29.16-29.17Z" style="fill:#fffbcc"/><path d="M448,758.28s-29.16,0-29.16,29.17v40.1s0,29.17,29.16,29.17H620.77s29.16,0,29.16-29.17v-40.1s0-29.17-29.16-29.17Z" style="fill:none;stroke:#1d1d1b;stroke-width:3.6459999084472656px"/></g><path d="M485.93,795.38H471.1v9.71h13.78v4.59H471.1v12.86h-5.56V790.78h20.39Z" style="fill:#1d1d1b"/><path d="M495.38,796.07h-5.25v-5.29h5.25Zm0,26.47h-5.25V800h5.25Z" style="fill:#1d1d1b"/><path d="M506.36,803.34a6.62,6.62,0,0,1,6-3.59,11.65,11.65,0,0,1,2.49.22v4.55a10.41,10.41,0,0,0-2.27-.22c-4.33,0-5.91,2.89-5.91,8.35v9.89h-5.25V800h4.95Z" style="fill:#1d1d1b"/><path d="M527.66,799.36c4.2,0,7.05,1.83,8.62,4.63,1.36,2.41,1.79,5.3,1.79,8.8H522c.13,3.85,2,6.51,5.69,6.51a4.58,4.58,0,0,0,4.76-3.5H538c-1.22,5-4.9,7.35-10.37,7.35-7.3,0-11.07-4.59-11.07-12C516.59,804.39,520.84,799.36,527.66,799.36Zm-.26,3.8c-2.93,0-5.16,1.93-5.47,5.78h10.81C532.43,805.09,530.24,803.16,527.4,803.16Z" style="fill:#1d1d1b"/><path d="M571,806.66c0,9.89-5.9,16.54-14.78,16.54s-14.7-6.65-14.7-16.54c0-9.67,5.81-16.54,14.74-16.54S571,796.82,571,806.66Zm-23.8,0c0,7.22,3.55,12.12,9,12.12s9.09-5.16,9.09-12.12c0-7.22-3.45-12.12-9-12.12S547.17,799.49,547.17,806.66Z" style="fill:#1d1d1b"/><path d="M586.85,818.78c3.81,0,6.13-1.75,6.13-4.55,0-3.28-3.41-4.33-7.26-5.51-5-1.53-10.85-3.06-10.85-9.5,0-5.42,4.63-9.1,11.68-9.1s11.37,3.94,11.5,10.37h-5.64a5.82,5.82,0,0,0-6.13-6c-3,0-5.6,1.57-5.6,4.24,0,3,2.94,4.25,8.36,5.73,5.08,1.4,9.8,3.5,9.8,9.06,0,5.77-4.86,9.67-12,9.67-7.74,0-12.55-4.16-12.55-11.29H580C580,816.29,582.52,818.78,586.85,818.78Z" style="fill:#1d1d1b"/><g style="clip-path:url(#a)"><path d="M463.93,1017.45s-29.17,0-29.17,29.17v40.1s0,29.16,29.17,29.16H613.64s29.17,0,29.17-29.16v-40.1s0-29.17-29.17-29.17Z" style="fill:#c9ffe0"/><path d="M463.93,1017.45s-29.17,0-29.17,29.17v40.1s0,29.16,29.17,29.16H613.64s29.17,0,29.17-29.16v-40.1s0-29.17-29.17-29.17Z" style="fill:none;stroke:#1d1d1b;stroke-width:8.319999694824219px"/><path d="M461.59,1015.11s-29.16,0-29.16,29.17v40.1s0,29.17,29.16,29.17H616s29.16,0,29.16-29.17v-40.1s0-29.17-29.16-29.17Z" style="fill:#fffbcc"/><path d="M461.59,1015.11s-29.16,0-29.16,29.17v40.1s0,29.17,29.16,29.17H616s29.16,0,29.16-29.17v-40.1s0-29.17-29.16-29.17Z" style="fill:none;stroke:#1d1d1b;stroke-width:3.6459999084472656px"/></g><path d="M489.85,1075.61c3.81,0,6.13-1.75,6.13-4.55,0-3.28-3.41-4.33-7.26-5.51-5-1.54-10.85-3.07-10.85-9.5,0-5.42,4.63-9.1,11.68-9.1s11.37,3.94,11.5,10.37h-5.64a5.82,5.82,0,0,0-6.13-6c-3,0-5.6,1.57-5.6,4.24,0,3,2.94,4.25,8.36,5.73,5.08,1.4,9.8,3.5,9.8,9.06,0,5.77-4.86,9.67-12,9.67-7.74,0-12.55-4.16-12.55-11.29H483C483,1073.11,485.52,1075.61,489.85,1075.61Z" style="fill:#1d1d1b"/><path d="M512.78,1051.2v5.6h4.46v4h-4.46v10.63c0,2.8.61,4.07,2.71,4.07a7.76,7.76,0,0,0,1.79-.17v4a12.47,12.47,0,0,1-3.37.39c-4.5,0-6.38-2.14-6.38-7.26v-11.68H503.9v-4h3.63v-5.6Z" style="fill:#1d1d1b"/><path d="M542.22,1068.08c0,7.13-4.38,11.9-11.33,11.9s-11.2-4.77-11.2-11.9,4.37-11.9,11.24-11.9S542.22,1061,542.22,1068.08Zm-17.06,0c0,4.77,2.05,7.88,5.73,7.88s5.86-3,5.86-7.88-2.14-7.87-5.82-7.87S525.16,1063.23,525.16,1068.08Z" style="fill:#1d1d1b"/><path d="M556.22,1080c-6.74,0-10.81-4.77-10.81-12s4.12-11.94,10.81-11.94c6,0,9.62,3.37,9.93,8.49h-5.43c-.35-2.85-1.92-4.42-4.55-4.42-3.36,0-5.33,3.06-5.33,7.79s2,8,5.33,8c2.63,0,4.29-1.62,4.69-4.55h5.33C565.8,1076.83,562.12,1080,556.22,1080Z" style="fill:#1d1d1b"/><path d="M575.69,1066.16l7.65-9.36h6.26l-8.66,10.1,9.58,12.47H584l-8.26-11.2v11.2h-5.25v-31.76h5.25Z" style="fill:#1d1d1b"/><g style="clip-path:url(#a)"><path d="M456.84,1316s-29.16,0-29.16,29.16v40.11s0,29.16,29.16,29.16H620.73s29.16,0,29.16-29.16v-40.11s0-29.16-29.16-29.16Z" style="fill:#c9ffe0"/><path d="M456.84,1316s-29.16,0-29.16,29.16v40.11s0,29.16,29.16,29.16H620.73s29.16,0,29.16-29.16v-40.11s0-29.16-29.16-29.16Z" style="fill:none;stroke:#1d1d1b;stroke-width:8.319999694824219px"/><path d="M454.5,1313.66s-29.16,0-29.16,29.17v40.1s0,29.16,29.16,29.16H623.07s29.16,0,29.16-29.16v-40.1s0-29.17-29.16-29.17Z" style="fill:#fffbcc"/><path d="M454.5,1313.66s-29.16,0-29.16,29.17v40.1s0,29.16,29.16,29.16H623.07s29.16,0,29.16-29.16v-40.1s0-29.17-29.16-29.17Z" style="fill:none;stroke:#1d1d1b;stroke-width:3.6459999084472656px"/></g><path d="M502.63,1362c0,9.89-5.91,16.54-14.79,16.54s-14.7-6.65-14.7-16.54c0-9.67,5.82-16.54,14.74-16.54S502.63,1352.2,502.63,1362Zm-23.8,0c0,7.22,3.54,12.12,9,12.12s9.1-5.17,9.1-12.12c0-7.22-3.46-12.12-9.06-12.12S478.83,1354.86,478.83,1362Z" style="fill:#1d1d1b"/><path d="M519.29,1354.91c3.33,0,5.17,1.18,6.35,3.1,1.05,1.75,1.35,4.16,1.35,7v13h-5.24v-12.6c0-3.37-.49-6.39-4.12-6.39-3.32,0-5.12,2.19-5.12,7.57v11.42h-5.25v-22.57h4.86v2.93A8.73,8.73,0,0,1,519.29,1354.91Z" style="fill:#1d1d1b"/><path d="M542.39,1354.73c4.2,0,7.05,1.84,8.62,4.64,1.36,2.41,1.8,5.29,1.8,8.79H536.75c.13,3.85,2,6.52,5.69,6.52a4.6,4.6,0,0,0,4.77-3.5h5.55c-1.22,4.94-4.9,7.35-10.37,7.35-7.3,0-11.06-4.59-11.06-12C531.33,1359.76,535.57,1354.73,542.39,1354.73Zm-.26,3.81c-2.93,0-5.16,1.92-5.47,5.77h10.81C547.16,1360.46,545,1358.54,542.13,1358.54Z" style="fill:#1d1d1b"/><path d="M578.53,1374.16c5.47,0,6.74-4.68,6.74-9.41v-18.59h5.55V1365c0,8.88-4.37,13.61-12.29,13.61-8.92,0-12.25-4.86-12.25-14v-18.46h5.56v18.59C571.84,1369.13,573,1374.16,578.53,1374.16Z" style="fill:#1d1d1b"/><path d="M602.85,1377.92h-5.51v-31.76h5.51Z" style="fill:#1d1d1b"/><g style="clip-path:url(#a)"><path d="M406.35,1166.72s-29.16,0-29.16,29.17V1236s0,29.17,29.16,29.17h256s29.17,0,29.17-29.17v-40.1s0-29.17-29.17-29.17Z" style="fill:#c9ffe0"/><path d="M406.35,1166.72s-29.16,0-29.16,29.17V1236s0,29.17,29.16,29.17h256s29.17,0,29.17-29.17v-40.1s0-29.17-29.17-29.17Z" style="fill:none;stroke:#1d1d1b;stroke-width:8.319999694824219px"/><path d="M404,1164.39s-29.17,0-29.17,29.16v40.11s0,29.16,29.17,29.16H664.7s29.17,0,29.17-29.16v-40.11s0-29.16-29.17-29.16Z" style="fill:#fffbcc"/><path d="M404,1164.39s-29.17,0-29.17,29.16v40.11s0,29.16,29.17,29.16H664.7s29.17,0,29.17-29.16v-40.11s0-29.16-29.17-29.16Z" style="fill:none;stroke:#1d1d1b;stroke-width:3.6459999084472656px"/></g><path d="M429.78,1209.92h14.57v-13h5.51v31.76h-5.51v-14.13H429.78v14.13h-5.51v-31.76h5.51Z" style="fill:#1d1d1b"/><path d="M453.71,1196.88h25.11v4.6h-9.75v27.16h-5.6v-27.16h-9.76Z" style="fill:#1d1d1b"/><path d="M494,1229.3c-8.62,0-14.31-6-14.31-16.27,0-9.67,5.82-16.8,14.4-16.8,7.3,0,12.42,4.5,12.9,11.33h-5.68c-.49-4.2-3.24-6.91-7.27-6.91-5.25,0-8.66,4.94-8.66,12.16s3.41,12.07,8.62,12.07c4.2,0,6.82-2.75,7.39-7.13h5.82C506.34,1224.31,501.75,1229.3,494,1229.3Z" style="fill:#1d1d1b"/><path d="M531.15,1224.88c3.8,0,6.12-1.75,6.12-4.55,0-3.28-3.41-4.33-7.26-5.51-5-1.53-10.85-3.06-10.85-9.49,0-5.43,4.64-9.1,11.68-9.1s11.37,3.94,11.51,10.37H536.7a5.82,5.82,0,0,0-6.12-6c-3,0-5.6,1.58-5.6,4.25,0,3,2.93,4.24,8.35,5.73,5.08,1.4,9.8,3.5,9.8,9.05,0,5.78-4.85,9.67-12,9.67-7.75,0-12.56-4.16-12.56-11.29h5.73C524.32,1222.39,526.82,1224.88,531.15,1224.88Z" style="fill:#1d1d1b"/><path d="M557.26,1205.46c4.2,0,7,1.84,8.62,4.64,1.36,2.4,1.8,5.29,1.8,8.79H551.62c.13,3.85,2,6.52,5.69,6.52a4.6,4.6,0,0,0,4.77-3.5h5.55c-1.22,4.94-4.9,7.35-10.37,7.35-7.3,0-11.06-4.6-11.06-12C546.2,1210.49,550.44,1205.46,557.26,1205.46Zm-.26,3.8c-2.93,0-5.16,1.93-5.47,5.78h10.81C562,1211.19,559.85,1209.26,557,1209.26Z" style="fill:#1d1d1b"/><path d="M584.34,1205.63c3.33,0,5.17,1.18,6.35,3.11,1,1.75,1.35,4.16,1.35,7v12.94h-5.25V1216c0-3.36-.48-6.38-4.11-6.38-3.32,0-5.12,2.19-5.12,7.57v11.41h-5.25v-22.57h4.86V1209A8.75,8.75,0,0,1,584.34,1205.63Z" style="fill:#1d1d1b"/><path d="M606.35,1225.5c2.49,0,4.11-1,4.11-2.8,0-2.28-2.49-2.85-5.42-3.55-3.85-.92-8.4-1.92-8.4-6.87,0-4.11,3.63-6.82,9.4-6.82,6,0,9.37,2.58,9.37,7.52H610.2c-.13-2.67-1.49-3.76-4.33-3.76-2.32,0-3.81,1-3.81,2.63,0,2.4,3.33,3,6.7,3.85,3.54,1,7.13,2.23,7.13,6.56s-3.68,7-9.58,7c-6.43,0-10-2.72-10.15-7.83h5.38C601.54,1224.14,603.16,1225.5,606.35,1225.5Z" style="fill:#1d1d1b"/><path d="M629.93,1205.46c4.2,0,7,1.84,8.62,4.64,1.35,2.4,1.79,5.29,1.79,8.79H624.29c.13,3.85,2,6.52,5.68,6.52a4.59,4.59,0,0,0,4.77-3.5h5.56c-1.23,4.94-4.9,7.35-10.37,7.35-7.31,0-11.07-4.6-11.07-12C618.86,1210.49,623.1,1205.46,629.93,1205.46Zm-.26,3.8c-2.93,0-5.17,1.93-5.47,5.78H635C634.7,1211.19,632.51,1209.26,629.67,1209.26Z" style="fill:#1d1d1b"/><line x1="306.18" y1="511.29" x2="306.18" y2="1365.21" style="fill:none;stroke:#1d1d1b;stroke-width:3.6459999084472656px"/><line x1="771.39" y1="254.29" x2="771.39" y2="811.29" style="fill:none;stroke:#1d1d1b;stroke-width:3.6459999084472656px"/><line x1="423.52" y1="1363.39" x2="304.36" y2="1363.39" style="fill:none;stroke:#1d1d1b;stroke-width:3.6459999084472656px"/><line x1="375.36" y1="1215.94" x2="304.36" y2="1215.94" style="fill:none;stroke:#1d1d1b;stroke-width:3.6459999084472656px"/><line x1="433.36" y1="1066.67" x2="304.36" y2="1066.67" style="fill:none;stroke:#1d1d1b;stroke-width:3.6459999084472656px"/><line x1="773.21" y1="509.47" x2="663.45" y2="509.47" style="fill:none;stroke:#1d1d1b;stroke-width:3.6459999084472656px"/><line x1="769.57" y1="660.56" x2="708.45" y2="660.56" style="fill:none;stroke:#1d1d1b;stroke-width:3.6459999084472656px"/><line x1="771.39" y1="809.47" x2="651.75" y2="809.47" style="fill:none;stroke:#1d1d1b;stroke-width:3.6459999084472656px"/><line x1="405.27" y1="511.29" x2="304.36" y2="511.29" style="fill:none;stroke:#1d1d1b;stroke-width:3.6459999084472656px"/><path d="M532.46,917h-6v-6.17h6Zm9.8,0h-6v-6.17h6Zm9.8,0h-5.95v-6.17h5.95Z" style="fill:#1d1d1b"/><g style="clip-path:url(#a)"><path d="M532.46,1468.32h-6v-6.17h6Zm9.8,0h-6v-6.17h6Zm9.8,0h-5.95v-6.17h5.95Z" style="fill:#1d1d1b"/></g></svg>