<svg xmlns="http://www.w3.org/2000/svg" viewBox="0 0 180 180"><title>Tavola disegno 1</title><path d="M22.5,0S0,0,0,22.5v135S0,180,22.5,180h135s22.5,0,22.5-22.5V22.5S180,0,157.5,0Z" style="fill:#dcf0ff"/><path d="M59.58,142H44l-2.16,26.78H12.33L31.63,11.24H72L91.28,168.75H61.75Zm-2.36-29.53L51.91,42.55l-5.52,69.89Z"/><path d="M167.87,119.73v8.07c0,29.33-11.23,40.75-44.89,41H93.44V11.24H123c33.66,0,42.92,11.22,42.92,42.92v1.38c0,17.33-6.7,25.79-15.75,30.32C160.19,90.78,167.87,100.63,167.87,119.73ZM123,40.78V72.87c11.42,0,13.39-2,13.39-13.39V54.16C136.37,42.74,134.4,40.78,123,40.78Zm15.35,85.05v-10c0-11.42-3.93-13.39-15.35-13.39v36.82C134.4,139.22,138.33,137.25,138.33,125.83Z"/></svg>